<svg preserveAspectRatio="none" width="100%" height="100%" overflow="visible" style="display: block;" viewBox="0 0 80 18" fill="none" xmlns="http://www.w3.org/2000/svg">
<g id="Bosch logo" clip-path="url(#clip0_122_5626)">
<path id="Vector" d="M8.53587 0.00146484C3.8261 0.00146484 0 3.82756 0 8.53733C0 13.2471 3.8261 17.0732 8.53587 17.0732C13.2456 17.0732 17.0717 13.2471 17.0717 8.53733C17.0717 3.82756 13.2456 0.00146484 8.53587 0.00146484ZM8.53587 16.2177C4.29613 16.2177 0.855467 12.7677 0.855467 8.53733C0.855467 4.307 4.29613 0.856931 8.53587 0.856931C12.7756 0.856931 16.2163 4.307 16.2163 8.53733C16.2163 12.7677 12.7756 16.2177 8.53587 16.2177Z" fill="var(--fill-0, black)"/>
<path id="Vector_2" d="M11.5814 3.06703C11.5532 3.04822 11.5156 3.03882 11.478 3.03882C11.3651 3.03882 11.2805 3.12343 11.2805 3.23624V5.90605C11.2805 6.00005 11.2053 6.07526 11.1113 6.07526H5.94093C5.84692 6.07526 5.78111 6.00005 5.77171 5.90605V3.23624C5.77171 3.19864 5.76231 3.17043 5.74351 3.13283C5.68711 3.03882 5.5649 3.01062 5.47089 3.06703C3.56254 4.24212 2.40625 6.28208 2.40625 8.53825C2.40625 10.7944 3.56254 12.8344 5.48969 14.0095C5.51789 14.0283 5.5555 14.0377 5.5931 14.0377C5.70591 14.0377 5.79051 13.9531 5.79051 13.8403V11.1705C5.79051 11.0764 5.86572 11.0106 5.95973 11.0012H11.1301C11.2241 11.0012 11.2993 11.0764 11.2993 11.1705V13.8403C11.2993 13.8779 11.3087 13.9061 11.3275 13.9437C11.3839 14.0377 11.5062 14.0659 11.6002 14.0095C13.5273 12.8344 14.6836 10.7944 14.6836 8.53825C14.6836 6.28208 13.5085 4.24212 11.5814 3.06703ZM4.79404 11.8849L4.82224 12.2045L4.61542 11.9507C3.0267 9.94836 3.0267 7.11874 4.61542 5.11639L4.79404 4.89077L4.82224 4.86257L4.79404 5.19159C4.76583 5.45481 4.75643 5.72743 4.75643 6.00005V11.067C4.75643 11.3397 4.77523 11.6123 4.79404 11.8849ZM11.2805 9.81675C11.2805 9.91076 11.2053 9.98596 11.1113 9.98596H5.94093C5.84692 9.98596 5.78111 9.91076 5.77171 9.81675V7.25975C5.77171 7.16574 5.84692 7.09054 5.94093 7.09054H11.1113C11.2053 7.09054 11.2805 7.16574 11.2805 7.25975V9.81675ZM12.4462 11.9507L12.2394 12.2045L12.2676 11.8849C12.2958 11.6217 12.3052 11.3491 12.3052 11.0764V6.00005C12.3052 5.72743 12.2958 5.45481 12.2676 5.19159L12.2582 5.05058L12.2488 4.90017V4.86257L12.4462 5.11639C13.2171 6.07526 13.6401 7.29736 13.6401 8.52885C13.6401 9.76035 13.2171 10.9918 12.4462 11.9507Z" fill="var(--fill-0, black)"/>
<g id="Group">
<path id="Vector_3" d="M29.9515 8.38749C29.9045 8.36869 29.8481 8.34989 29.8481 8.29348C29.8481 8.25588 29.8669 8.22768 29.9045 8.20888C29.9703 8.18067 31.5966 7.59783 31.5966 5.68008C31.5966 3.54611 30.1583 2.27701 27.7329 2.27701H21.8575V14.8176H28.2688C30.1395 14.8176 32.1513 13.4921 32.1513 11.3581C32.1513 9.31816 30.6096 8.60371 29.9515 8.38749ZM24.8187 4.84341C24.8187 4.79641 24.8563 4.75881 24.9033 4.75881H27.2347C28.0056 4.75881 28.532 5.27585 28.532 6.04671C28.532 6.64835 28.062 7.297 27.1783 7.297H24.9033C24.8563 7.297 24.8187 7.2594 24.8187 7.2124V4.84341ZM27.2347 12.3452H24.9033C24.8563 12.3452 24.8187 12.3076 24.8187 12.2606V9.76C24.8187 9.71299 24.8563 9.67539 24.9033 9.67539H27.1783C28.297 9.67539 28.9362 10.1548 28.9362 11.0009C28.9362 11.8752 28.344 12.3452 27.2347 12.3452ZM51.9962 7.2688L51.545 7.1748C50.5297 6.95858 49.5426 6.68596 49.5426 5.81169C49.5426 4.93742 50.3605 4.54259 51.169 4.54259C52.1184 4.54259 53.0585 4.96562 53.773 5.69888L55.6343 3.85634C54.8352 2.97267 53.4157 1.95739 51.122 1.95739C48.3581 1.95739 46.4968 3.52731 46.4968 5.86809C46.4968 8.34049 48.4427 9.27116 50.0785 9.61899L50.5203 9.71299C52.109 10.0514 52.8611 10.3052 52.8611 11.2077C52.8611 12.0162 52.1372 12.552 51.0656 12.552C49.8059 12.552 48.6872 11.9974 47.8411 10.9539L45.9328 12.8246C46.948 14.0279 48.2923 15.1184 51.1032 15.1184C53.5003 15.1184 55.9351 13.7271 55.9351 11.0573C55.9257 8.32168 54.0644 7.70124 51.9962 7.2688ZM76.7672 2.27701V6.86457C76.7672 6.91158 76.7296 6.94918 76.6825 6.94918H72.8282C72.7812 6.94918 72.7436 6.91158 72.7436 6.86457V2.27701H69.585V14.8176H72.7436V9.89161C72.7436 9.8446 72.7812 9.807 72.8282 9.807H76.6825C76.7296 9.807 76.7672 9.8446 76.7672 9.89161V14.8176H79.9446V2.27701H76.7672ZM63.2301 12.2512C61.8106 12.2512 60.2783 11.0667 60.2783 8.4627C60.2783 6.08431 61.7166 4.84341 63.1361 4.84341C64.1702 4.84341 64.894 5.27585 65.4675 6.23472L67.8929 4.6272C66.652 2.80346 65.1761 1.97619 63.1173 1.97619C59.0844 1.97619 57.2794 5.23824 57.2794 8.4627C57.2794 12.3828 59.6672 15.1184 63.0797 15.1184C65.6179 15.1184 66.7742 14.1877 67.9869 12.4674L65.5427 10.8223C64.9974 11.7059 64.4052 12.2512 63.2301 12.2512ZM39.2488 1.95739C35.7988 1.95739 33.4862 4.59899 33.4862 8.5379C33.4862 12.4768 35.7988 15.1184 39.2488 15.1184C42.6989 15.1184 45.0115 12.4768 45.0115 8.5379C45.0115 4.59899 42.6989 1.95739 39.2488 1.95739ZM39.2488 12.2512C37.5567 12.2512 36.4662 10.7941 36.4662 8.5379C36.4662 6.29113 37.5567 4.84341 39.2488 4.84341C40.9504 4.84341 42.0502 6.29113 42.0502 8.5379C42.0502 10.7941 40.9504 12.2512 39.2488 12.2512Z" fill="var(--fill-0, #F80000)"/>
</g>
</g>
<defs>
<clipPath id="clip0_122_5626">
<rect width="79.9438" height="17.076" fill="white"/>
</clipPath>
</defs>
</svg>
