<svg preserveAspectRatio="none" width="100%" height="100%" overflow="visible" style="display: block;" viewBox="0 0 70 15" fill="none" xmlns="http://www.w3.org/2000/svg">
<g id="Bosch logo" clip-path="url(#clip0_140_5959)">
<path id="Vector" d="M7.437 0.00146484C3.33354 0.00146484 0 3.33501 0 7.43846C0 11.5419 3.33354 14.8755 7.437 14.8755C11.5404 14.8755 14.874 11.5419 14.874 7.43846C14.874 3.33501 11.5404 0.00146484 7.437 0.00146484ZM7.437 14.1301C3.74307 14.1301 0.745338 11.1242 0.745338 7.43846C0.745338 3.75272 3.74307 0.746802 7.437 0.746802C11.1309 0.746802 14.1287 3.75272 14.1287 7.43846C14.1287 11.1242 11.1309 14.1301 7.437 14.1301Z" fill="var(--fill-0, black)"/>
<path id="Vector_2" d="M10.0896 2.67239C10.065 2.65601 10.0322 2.64782 9.99946 2.64782C9.90118 2.64782 9.82746 2.72154 9.82746 2.81982V5.14593C9.82746 5.22784 9.76194 5.29336 9.68003 5.29336H5.17525C5.09334 5.29336 5.03601 5.22784 5.02782 5.14593V2.81982C5.02782 2.78706 5.01963 2.76249 5.00324 2.72973C4.9541 2.64782 4.84762 2.62325 4.76572 2.67239C3.10304 3.69621 2.09561 5.47355 2.09561 7.43928C2.09561 9.405 3.10304 11.1823 4.7821 12.2062C4.80667 12.2225 4.83943 12.2307 4.8722 12.2307C4.97048 12.2307 5.0442 12.157 5.0442 12.0587V9.73262C5.0442 9.65072 5.10972 9.59339 5.19163 9.5852H9.69641C9.77832 9.5852 9.84384 9.65072 9.84384 9.73262V12.0587C9.84384 12.0915 9.85203 12.1161 9.86842 12.1488C9.91756 12.2307 10.024 12.2553 10.1059 12.2062C11.785 11.1823 12.7924 9.405 12.7924 7.43928C12.7924 5.47355 11.7686 3.69621 10.0896 2.67239ZM4.176 10.3551L4.20057 10.6336L4.02038 10.4124C2.63618 8.66786 2.63618 6.20251 4.02038 4.45793L4.176 4.26136L4.20057 4.23678L4.176 4.52345C4.15143 4.75279 4.14324 4.99031 4.14324 5.22784V9.64253C4.14324 9.88005 4.15962 10.1176 4.176 10.3551ZM9.82746 8.55319C9.82746 8.63509 9.76194 8.70062 9.68003 8.70062H5.17525C5.09334 8.70062 5.03601 8.63509 5.02782 8.55319V6.32537C5.02782 6.24346 5.09334 6.17794 5.17525 6.17794H9.68003C9.76194 6.17794 9.82746 6.24346 9.82746 6.32537V8.55319ZM10.8431 10.4124L10.6629 10.6336L10.6875 10.3551C10.712 10.1258 10.7202 9.88824 10.7202 9.65072V5.22784C10.7202 4.99031 10.712 4.75279 10.6875 4.52345L10.6793 4.40059L10.6711 4.26955V4.23678L10.8431 4.45793C11.5147 5.29336 11.8833 6.35813 11.8833 7.43109C11.8833 8.50405 11.5147 9.577 10.8431 10.4124Z" fill="var(--fill-0, black)"/>
<g id="Group">
<path id="Vector_3" d="M26.095 7.30788C26.0541 7.2915 26.0049 7.27512 26.0049 7.22598C26.0049 7.19322 26.0213 7.16864 26.0541 7.15226C26.1114 7.12769 27.5284 6.61988 27.5284 4.94901C27.5284 3.08976 26.2752 1.98404 24.162 1.98404H19.043V12.9102H24.6289C26.2588 12.9102 28.0116 11.7553 28.0116 9.89609C28.0116 8.11875 26.6683 7.49627 26.095 7.30788ZM21.623 4.22006C21.623 4.1791 21.6557 4.14634 21.6967 4.14634H23.7279C24.3996 4.14634 24.8582 4.59682 24.8582 5.26844C24.8582 5.79264 24.4487 6.35778 23.6788 6.35778H21.6967C21.6557 6.35778 21.623 6.32502 21.623 6.28407V4.22006ZM23.7279 10.7561H21.6967C21.6557 10.7561 21.623 10.7233 21.623 10.6824V8.5037C21.623 8.46275 21.6557 8.42999 21.6967 8.42999H23.6788C24.6535 8.42999 25.2104 8.8477 25.2104 9.58485C25.2104 10.3466 24.6944 10.7561 23.7279 10.7561ZM45.3018 6.33321L44.9086 6.25131C44.0241 6.06292 43.1641 5.8254 43.1641 5.06368C43.1641 4.30196 43.8766 3.95796 44.581 3.95796C45.4083 3.95796 46.2273 4.32653 46.8498 4.96539L48.4715 3.36005C47.7753 2.59014 46.5386 1.70557 44.5401 1.70557C42.1321 1.70557 40.5103 3.07338 40.5103 5.11282C40.5103 7.26693 42.2058 8.07779 43.6309 8.38084L44.0159 8.46275C45.4001 8.75761 46.0553 8.97875 46.0553 9.76504C46.0553 10.4694 45.4246 10.9363 44.4909 10.9363C43.3934 10.9363 42.4187 10.453 41.6816 9.5439L40.0189 11.1738C40.9035 12.2222 42.0747 13.1723 44.5237 13.1723C46.6123 13.1723 48.7336 11.9601 48.7336 9.63399C48.7254 7.25055 47.1037 6.70998 45.3018 6.33321ZM66.8838 1.98404V5.98102C66.8838 6.02197 66.8511 6.05473 66.8101 6.05473H63.452C63.411 6.05473 63.3783 6.02197 63.3783 5.98102V1.98404H60.6263V12.9102H63.3783V8.61837C63.3783 8.57741 63.411 8.54465 63.452 8.54465H66.8101C66.8511 8.54465 66.8838 8.57741 66.8838 8.61837V12.9102H69.6522V1.98404H66.8838ZM55.0895 10.6742C53.8527 10.6742 52.5176 9.64218 52.5176 7.37341C52.5176 5.30121 53.7708 4.22006 55.0076 4.22006C55.9085 4.22006 56.5392 4.59682 57.0388 5.43225L59.152 4.03167C58.0708 2.44271 56.7849 1.72195 54.9912 1.72195C51.4774 1.72195 49.9049 4.56406 49.9049 7.37341C49.9049 10.7889 51.9853 13.1723 54.9584 13.1723C57.1699 13.1723 58.1773 12.3614 59.2339 10.8626L57.1043 9.42923C56.6293 10.1991 56.1133 10.6742 55.0895 10.6742ZM34.1954 1.70557C31.1895 1.70557 29.1746 4.0071 29.1746 7.43893C29.1746 10.8708 31.1895 13.1723 34.1954 13.1723C37.2014 13.1723 39.2162 10.8708 39.2162 7.43893C39.2162 4.0071 37.2014 1.70557 34.1954 1.70557ZM34.1954 10.6742C32.7211 10.6742 31.771 9.40466 31.771 7.43893C31.771 5.4814 32.7211 4.22006 34.1954 4.22006C35.6779 4.22006 36.6362 5.4814 36.6362 7.43893C36.6362 9.40466 35.6779 10.6742 34.1954 10.6742Z" fill="var(--fill-0, #F80000)"/>
</g>
</g>
<defs>
<clipPath id="clip0_140_5959">
<rect width="69.6522" height="14.8777" fill="white"/>
</clipPath>
</defs>
</svg>
