<svg preserveAspectRatio="none" width="100%" height="100%" overflow="visible" style="display: block;" viewBox="0 0 85 20" fill="none" xmlns="http://www.w3.org/2000/svg">
<g id="Frame 2085666376">
<path id="Vector" d="M0.0253906 13.3516C-0.0450448 13.5361 0.0510446 13.5747 0.0734354 13.6067C0.284741 13.7606 0.499423 13.8714 0.715567 13.9948C1.862 14.6042 2.94452 14.7821 4.07655 14.7821C6.38224 14.7821 7.81367 13.5537 7.81367 11.5761V11.5377C7.81367 9.70923 6.19816 9.04531 4.68178 8.56576L4.48487 8.50164C3.34159 8.1295 2.35527 7.80886 2.35527 7.055V7.015C2.35527 6.37023 2.93169 5.89542 3.82519 5.89542C4.81792 5.89542 5.99642 6.22586 6.75534 6.64601C6.75534 6.64601 6.9779 6.79038 7.05959 6.57388C7.10437 6.45836 7.48873 5.4223 7.52878 5.31005C7.57199 5.1881 7.49514 5.09828 7.41671 5.05016C6.55045 4.52249 5.35271 4.16162 4.11346 4.16162L3.88291 4.1632C1.77255 4.1632 0.299481 5.43988 0.299481 7.26981V7.30836C0.299481 9.23769 1.92467 9.86318 3.44747 10.2995L3.69242 10.3748C4.80206 10.7164 5.758 11.0099 5.758 11.7926V11.8312C5.758 12.5465 5.13679 13.0789 4.13438 13.0789C3.7453 13.0789 2.50436 13.0709 1.16417 12.2224C1.00237 12.1277 0.90797 12.0588 0.783076 11.9834C0.717479 11.9417 0.55253 11.8695 0.48052 12.0877L0.0253906 13.3516ZM33.7801 13.3516C33.7097 13.5361 33.8058 13.5747 33.8282 13.6067C34.0395 13.7606 34.2542 13.8714 34.4702 13.9948C35.6166 14.6042 36.6993 14.7821 37.8312 14.7821C40.1369 14.7821 41.5684 13.5537 41.5684 11.5761V11.5377C41.5684 9.70923 39.9528 9.04531 38.4364 8.56576L38.2395 8.50164C37.0962 8.1295 36.1098 7.80886 36.1098 7.055V7.015C36.1098 6.37023 36.6862 5.89542 37.5797 5.89542C38.5724 5.89542 39.7509 6.22586 40.51 6.64601C40.51 6.64601 40.7325 6.79038 40.8141 6.57388C40.8589 6.45836 41.2432 5.4223 41.2833 5.31005C41.3266 5.1881 41.2497 5.09828 41.1712 5.05016C40.305 4.52249 39.1072 4.16162 37.868 4.16162L37.6373 4.1632C35.527 4.1632 34.0539 5.43988 34.0539 7.26981V7.30836C34.0539 9.23769 35.6791 9.86318 37.2019 10.2995L37.4468 10.3748C38.5565 10.7164 39.5141 11.0099 39.5141 11.7926V11.8312C39.5141 12.5465 38.8912 13.0789 37.8888 13.0789C37.4998 13.0789 36.2589 13.0709 34.9187 12.2224C34.7569 12.1277 34.6609 12.062 34.5393 11.9834C34.4975 11.9562 34.3022 11.8808 34.2349 12.0877L33.7801 13.3516ZM56.8236 9.47808C56.8236 10.596 56.6155 11.4764 56.2056 12.0987C55.8004 12.7146 55.1872 13.0145 54.3323 13.0145C53.4757 13.0145 52.8656 12.7162 52.4669 12.0987C52.0633 11.4781 51.8585 10.596 51.8585 9.47808C51.8585 8.36189 52.0633 7.48293 52.4669 6.86702C52.8656 6.25764 53.4757 5.9609 54.3323 5.9609C55.1873 5.9609 55.8005 6.25764 56.2073 6.86702C56.6156 7.48282 56.8236 8.36177 56.8236 9.47808ZM58.7483 7.40596C58.5593 6.76593 58.2647 6.2014 57.8725 5.73155C57.4802 5.26001 56.9839 4.88156 56.3945 4.60566C55.8068 4.33146 55.112 4.19194 54.3323 4.19194C53.5509 4.19194 52.856 4.33146 52.2683 4.60566C51.679 4.88156 51.1827 5.26012 50.7888 5.73155C50.3981 6.2031 50.1035 6.76762 49.913 7.40596C49.7256 8.04261 49.6311 8.73865 49.6311 9.47808C49.6311 10.2175 49.7256 10.9151 49.913 11.5502C50.1035 12.1885 50.3966 12.7532 50.7905 13.2246C51.1827 13.6962 51.6807 14.073 52.2684 14.3408C52.8575 14.6087 53.5509 14.745 54.3324 14.745C55.1121 14.745 55.8055 14.6087 56.3946 14.3408C56.9823 14.073 57.4802 13.696 57.8726 13.2246C58.2649 12.7546 58.5594 12.1901 58.7485 11.5502C58.9375 10.9136 59.0319 10.2158 59.0319 9.47808C59.0319 8.74034 58.9373 8.04261 58.7483 7.40596ZM74.5532 12.716C74.4892 12.5283 74.3083 12.5989 74.3083 12.5989C74.0281 12.7064 73.7301 12.8058 73.4132 12.8555C73.0913 12.9051 72.7374 12.9309 72.3579 12.9309C71.4261 12.9309 70.6864 12.6534 70.1564 12.1049C69.6248 11.5564 69.3269 10.6696 69.3301 9.46985C69.3333 8.37767 69.5958 7.55641 70.0683 6.93103C70.5375 6.30881 71.2516 5.98953 72.2043 5.98953C72.9986 5.98953 73.6038 6.08093 74.2377 6.28142C74.2377 6.28142 74.3898 6.34713 74.4618 6.14832C74.6299 5.67994 74.7548 5.34476 74.9342 4.82994C74.9855 4.68399 74.8606 4.62144 74.8157 4.60375C74.5659 4.50592 73.9767 4.34724 73.5316 4.27985C73.1152 4.21572 72.6285 4.18202 72.0873 4.18202C71.2785 4.18202 70.5581 4.31997 69.9417 4.59586C69.3268 4.87006 68.8048 5.24851 68.3918 5.72017C67.9786 6.19171 67.6648 6.75612 67.4551 7.39446C67.2469 8.03111 67.1413 8.73042 67.1413 9.46985C67.1413 11.0689 67.572 12.3614 68.4223 13.3078C69.274 14.2573 70.5535 14.74 72.222 14.74C73.2083 14.74 74.2203 14.5396 74.9472 14.2524C74.9472 14.2524 75.0865 14.1851 75.0257 14.0232L74.5532 12.716ZM77.9207 8.40719C78.012 7.78655 78.1833 7.27004 78.4475 6.86758C78.8463 6.25651 79.4546 5.92134 80.3098 5.92134C81.1649 5.92134 81.7301 6.25809 82.1351 6.86758C82.4042 7.27004 82.5211 7.80909 82.5675 8.40719H77.9207ZM84.4008 7.04227C84.2375 6.42478 83.8323 5.80086 83.5666 5.51539C83.147 5.06312 82.7372 4.74722 82.3305 4.57073C81.7988 4.34296 81.1615 4.19228 80.4635 4.19228C79.6501 4.19228 78.9119 4.32865 78.3131 4.61085C77.7127 4.89317 77.2084 5.27815 76.8128 5.7577C76.4172 6.23555 76.1194 6.80492 75.9304 7.45126C75.7399 8.09445 75.6438 8.79534 75.6438 9.53454C75.6438 10.2868 75.7432 10.9877 75.9401 11.6179C76.1387 12.2531 76.4556 12.8128 76.8848 13.2762C77.3122 13.743 77.8631 14.1088 78.5228 14.3636C79.1777 14.617 79.9736 14.7486 80.8878 14.7469C82.7693 14.7404 83.7603 14.3203 84.1686 14.0941C84.2408 14.0541 84.3096 13.9835 84.223 13.7815L83.7971 12.5865C83.7332 12.4085 83.5522 12.4742 83.5522 12.4742C83.0861 12.6475 82.4234 12.9586 80.8781 12.9555C79.8678 12.9539 79.1183 12.6556 78.6491 12.1888C78.1672 11.7109 77.9319 11.0083 77.8902 10.0172L84.4055 10.0237C84.4055 10.0237 84.5767 10.0205 84.5945 9.8536C84.6009 9.78328 84.8188 8.51302 84.4008 7.04227ZM25.7428 8.40719C25.8357 7.78655 26.0055 7.27004 26.2697 6.86758C26.6683 6.25651 27.2768 5.92134 28.1318 5.92134C28.9868 5.92134 29.5521 6.25809 29.9587 6.86758C30.2261 7.27004 30.343 7.80909 30.3894 8.40719H25.7428ZM32.2212 7.04227C32.058 6.42478 31.6545 5.80086 31.3887 5.51539C30.9691 5.06312 30.5592 4.74722 30.1526 4.57073C29.621 4.34296 28.9838 4.19228 28.2856 4.19228C27.4738 4.19228 26.734 4.32865 26.1352 4.61085C25.5348 4.89317 25.0304 5.27815 24.6349 5.7577C24.2394 6.23555 23.9416 6.80492 23.7527 7.45126C23.5637 8.09445 23.4661 8.79534 23.4661 9.53454C23.4661 10.2868 23.5653 10.9877 23.7623 11.6179C23.9609 12.2531 24.278 12.8128 24.707 13.2762C25.1346 13.743 25.6854 14.1088 26.345 14.3636C27 14.617 27.7957 14.7486 28.71 14.7469C30.5914 14.7404 31.5826 14.3203 31.9909 14.0941C32.063 14.0541 32.1318 13.9835 32.0454 13.7815L31.6211 12.5865C31.5553 12.4085 31.3745 12.4742 31.3745 12.4742C30.9086 12.6475 30.2472 12.9586 28.6989 12.9555C27.6902 12.9539 26.9408 12.6556 26.4716 12.1888C25.9896 11.7109 25.7543 11.0083 25.7126 10.0172L32.2279 10.0237C32.2279 10.0237 32.3991 10.0205 32.4168 9.8536C32.423 9.78328 32.6407 8.51302 32.2212 7.04227ZM11.6602 12.6803C11.4055 12.4765 11.3703 12.4252 11.2839 12.2937C11.1558 12.0932 11.0902 11.8077 11.0902 11.4453C11.0902 10.8711 11.2791 10.4589 11.6714 10.1814C11.6667 10.1831 12.2319 9.69233 13.5608 9.70991C14.4942 9.72276 15.3284 9.8607 15.3284 9.8607V12.8278H15.33C15.33 12.8278 14.5022 13.0057 13.5704 13.0619C12.2446 13.1421 11.6553 12.6787 11.6602 12.6803ZM14.2524 8.0949C13.9882 8.07563 13.6455 8.06436 13.2356 8.06436C12.6769 8.06436 12.1372 8.13491 11.6312 8.27128C11.1221 8.40753 10.6642 8.62099 10.2702 8.90308C9.87693 9.18428 9.55365 9.55255 9.32556 9.97927C9.09501 10.4091 8.97811 10.9159 8.97811 11.4837C8.97811 12.0611 9.07735 12.5631 9.27594 12.9737C9.47453 13.3859 9.76111 13.7291 10.1261 13.9938C10.488 14.2584 10.9348 14.4524 11.4535 14.5695C11.9643 14.6866 12.5439 14.7459 13.178 14.7459C13.8457 14.7459 14.5118 14.6914 15.1571 14.5806C15.7959 14.4715 16.5805 14.3127 16.7982 14.2632C16.9509 14.2263 17.103 14.1873 17.2546 14.1461C17.4164 14.106 17.4036 13.9327 17.4036 13.9327L17.4003 7.96495C17.4003 6.65615 17.0513 5.6858 16.3644 5.08442C15.6806 4.48463 14.6735 4.18135 13.3718 4.18135C12.8833 4.18135 12.0972 4.24885 11.6264 4.34341C11.6264 4.34341 10.203 4.6193 9.61686 5.078C9.61686 5.078 9.48882 5.15824 9.55926 5.33789L10.0205 6.57929C10.0781 6.73967 10.2335 6.68512 10.2335 6.68512C10.2335 6.68512 10.2831 6.66585 10.3408 6.63215C11.5946 5.94895 13.1797 5.9698 13.1797 5.9698C13.8843 5.9698 14.4255 6.1109 14.7905 6.39153C15.1459 6.66415 15.3269 7.0763 15.3269 7.94557V8.22146C14.7664 8.14133 14.2524 8.0949 14.2524 8.0949ZM66.8009 4.73234C66.8504 4.5847 66.7465 4.51415 66.7031 4.49815C66.5928 4.45487 66.0387 4.33777 65.6112 4.3105C64.7931 4.2608 64.3384 4.39875 63.9315 4.58155C63.528 4.76435 63.0798 5.0594 62.8299 5.39469V4.60082C62.8299 4.49015 62.7515 4.4019 62.6425 4.4019H60.9725C60.8637 4.4019 60.7852 4.49003 60.7852 4.60082V14.3344C60.7852 14.4435 60.8749 14.5333 60.9837 14.5333H62.6954C62.7478 14.533 62.798 14.5119 62.8349 14.4746C62.8718 14.4373 62.8925 14.3869 62.8923 14.3344V9.47166C62.8923 8.81889 62.9645 8.16781 63.1086 7.75882C63.2495 7.35456 63.4416 7.03066 63.6786 6.79804C63.9171 6.56712 64.1877 6.40517 64.484 6.31377C64.7865 6.22067 65.1212 6.19024 65.3582 6.19024C65.6993 6.19024 66.074 6.27838 66.074 6.27838C66.1987 6.2928 66.2693 6.21583 66.3108 6.102C66.423 5.80368 66.7401 4.9103 66.8009 4.73234Z" fill="var(--fill-0, #00A1E0)"/>
<path id="Vector_2" d="M50.7322 0.221353C50.5241 0.157226 50.3351 0.113837 50.0885 0.0674038C49.8386 0.0225487 49.5409 9.31911e-06 49.2031 9.31911e-06C48.0245 9.31911e-06 47.0958 0.333604 46.4442 0.991104C45.7957 1.64556 45.3553 2.6415 45.1343 3.95188L45.0542 4.39288H43.5748C43.5748 4.39288 43.3955 4.38646 43.357 4.58222L43.1153 5.94061C43.0976 6.06897 43.1538 6.15068 43.3266 6.15068H44.7661L43.3058 14.3174C43.192 14.975 43.0607 15.5155 42.915 15.9259C42.7724 16.3302 42.6333 16.6333 42.4603 16.8546C42.2938 17.0664 42.1368 17.2235 41.8646 17.3149C41.6404 17.3903 41.3811 17.4255 41.0976 17.4255C40.9407 17.4255 40.7311 17.3997 40.5757 17.3677C40.422 17.3372 40.3403 17.3036 40.2234 17.2538C40.2234 17.2538 40.0553 17.1898 39.988 17.3582C39.9351 17.4977 39.5509 18.5545 39.5044 18.6845C39.4596 18.8144 39.5236 18.9155 39.6052 18.9459C39.7974 19.0133 39.9398 19.0581 40.2009 19.1207C40.5628 19.2058 40.8686 19.2105 41.1551 19.2105C41.7539 19.2105 42.3016 19.1255 42.7548 18.962C43.2096 18.7968 43.6065 18.5096 43.9588 18.1216C44.3383 17.7013 44.5769 17.2619 44.8044 16.6605C45.0301 16.067 45.224 15.3293 45.3775 14.4697L46.8459 6.15068H48.9915C48.9915 6.15068 49.1723 6.15711 49.2093 5.95988L49.4526 4.60307C49.4686 4.47324 49.4142 4.39299 49.2396 4.39299H47.1564C47.1677 4.34656 47.2621 3.61186 47.5007 2.92077C47.6032 2.6273 47.7953 2.38826 47.9571 2.22462C48.1173 2.06424 48.3014 1.95042 48.5033 1.8846C48.7097 1.8172 48.9452 1.7852 49.203 1.7852C49.3983 1.7852 49.592 1.80762 49.7377 1.83805C49.9394 1.88144 50.0178 1.90387 50.0708 1.91999C50.2838 1.98411 50.3125 1.92156 50.3543 1.81901L50.8523 0.449349C50.9035 0.301485 50.777 0.238935 50.7322 0.221353ZM21.6264 14.3351C21.6264 14.4441 21.548 14.5324 21.4391 14.5324H19.7114C19.6025 14.5324 19.5256 14.4441 19.5256 14.3351V0.407423C19.5256 0.298441 19.6025 0.210196 19.7114 0.210196H21.4391C21.548 0.210196 21.6264 0.298441 21.6264 0.407423V14.3351Z" fill="var(--fill-0, #00A1E0)"/>
</g>
</svg>
