<svg preserveAspectRatio="none" width="100%" height="100%" overflow="visible" style="display: block;" viewBox="0 0 102 19" fill="none" xmlns="http://www.w3.org/2000/svg">
<g id="FlutterFlow_idmB3TNu38_1 1" clip-path="url(#clip0_140_5922)">
<path id="Vector" d="M22.7635 14.8381V3.61568H29.3927V5.57159H24.7194V7.84814H28.6232V9.80404H24.7194V14.8381H22.7635ZM30.5603 14.8381V2.81408H32.5162V14.8381H30.5603ZM34.1224 11.8722V6.82209H36.0783V11.3591C36.0783 11.6744 36.1558 11.963 36.3108 12.2249C36.4658 12.4814 36.6715 12.6871 36.928 12.8421C37.1899 12.9917 37.4758 13.0666 37.7858 13.0666C38.1064 13.0666 38.395 12.9917 38.6515 12.8421C38.908 12.6871 39.1137 12.4814 39.2687 12.2249C39.4237 11.963 39.5012 11.6744 39.5012 11.3591V6.82209H41.4571L41.4651 14.8381H39.5092L39.5012 14.1086C39.2233 14.3972 38.8947 14.627 38.5152 14.798C38.1358 14.9637 37.7296 15.0465 37.2968 15.0465C36.7143 15.0465 36.1826 14.9049 35.7016 14.6217C35.2206 14.3331 34.8359 13.9509 34.5473 13.4754C34.264 12.9944 34.1224 12.46 34.1224 11.8722ZM47.3662 8.77799H45.8111V14.8381H43.8552V8.77799H42.6689V6.82209H43.8552V4.30506H45.8111V6.82209H47.3662V8.77799ZM53.1121 8.77799H51.557V14.8381H49.6011V8.77799H48.4147V6.82209H49.6011V4.30506H51.557V6.82209H53.1121V8.77799ZM57.9006 15.0465C57.1631 15.0465 56.4897 14.8568 55.8805 14.4774C55.2766 14.0979 54.793 13.5876 54.4296 12.9463C54.0716 12.305 53.8925 11.5969 53.8925 10.8221C53.8925 10.2395 53.9968 9.69445 54.2052 9.18681C54.4136 8.67379 54.6995 8.22489 55.0629 7.84012C55.4316 7.44997 55.8592 7.14536 56.3454 6.9263C56.8317 6.70717 57.3501 6.59764 57.9006 6.59764C58.5258 6.59764 59.0976 6.73122 59.616 6.99844C60.1397 7.26027 60.5832 7.62099 60.9466 8.0806C61.31 8.54014 61.5744 9.06388 61.7399 9.65174C61.906 10.2395 61.9432 10.8541 61.8521 11.4954H55.9927C56.0676 11.7946 56.1904 12.0646 56.3615 12.305C56.5325 12.5401 56.7489 12.7299 57.0108 12.8742C57.2726 13.0131 57.5692 13.0852 57.9006 13.0906C58.2425 13.0959 58.5525 13.0158 58.8304 12.8501C59.1137 12.6791 59.3488 12.4493 59.5358 12.1607L61.5318 12.6257C61.2058 13.3364 60.7195 13.9189 60.0729 14.3732C59.4263 14.8221 58.7022 15.0465 57.9006 15.0465ZM55.9286 10.0285H59.8725C59.8137 9.70785 59.6881 9.41927 59.4957 9.16276C59.3087 8.90086 59.0762 8.69245 58.7983 8.53751C58.5205 8.38252 58.2212 8.30505 57.9006 8.30505C57.5799 8.30505 57.2833 8.38252 57.0108 8.53751C56.7382 8.68712 56.5058 8.89285 56.3134 9.15475C56.1263 9.41126 55.9981 9.70246 55.9286 10.0285ZM63.1648 14.8381L63.1565 6.82209H65.1124L65.1207 7.53551C65.3933 7.24694 65.719 7.01979 66.0987 6.85415C66.4777 6.68312 66.8868 6.59764 67.3248 6.59764C67.6192 6.59764 67.9129 6.64035 68.2066 6.7259L67.437 8.69783C67.2344 8.61767 67.0311 8.57759 66.8278 8.57759C66.5129 8.57759 66.2244 8.65506 65.9621 8.81006C65.7056 8.95967 65.4997 9.16539 65.3452 9.42729C65.1951 9.6838 65.1207 9.96969 65.1207 10.285V14.8381H63.1648ZM69.1063 14.8381V3.61568H75.7352V5.57159H71.0622V7.84814H74.9657V9.80404H71.0622V14.8381H69.1063ZM76.903 14.8381V2.81408H78.8589V14.8381H76.903ZM84.1873 15.0465C83.4498 15.0465 82.7765 14.8568 82.1672 14.4774C81.5638 14.0979 81.0796 13.5902 80.7167 12.9543C80.3582 12.3131 80.1793 11.605 80.1793 10.8301C80.1793 10.2422 80.2838 9.69445 80.4922 9.18681C80.7006 8.67379 80.9867 8.22489 81.3496 7.84012C81.7184 7.44997 82.1461 7.14536 82.6322 6.9263C83.1189 6.70717 83.6371 6.59764 84.1873 6.59764C84.9248 6.59764 85.5955 6.78733 86.1996 7.16678C86.8088 7.54616 87.2924 8.05655 87.6502 8.69783C88.0138 9.33911 88.1953 10.0498 88.1953 10.8301C88.1953 11.4126 88.0914 11.9577 87.883 12.4654C87.6746 12.973 87.386 13.4219 87.0173 13.812C86.6537 14.1968 86.2291 14.4987 85.7424 14.7179C85.2614 14.9369 84.7433 15.0465 84.1873 15.0465ZM84.1873 13.0906C84.5778 13.0906 84.9273 12.9864 85.2377 12.778C85.5474 12.5696 85.7905 12.2943 85.9668 11.9523C86.149 11.6103 86.2394 11.2362 86.2394 10.8301C86.2394 10.4133 86.1458 10.0338 85.9591 9.69182C85.777 9.34444 85.5288 9.0692 85.2133 8.86617C84.9036 8.65775 84.5618 8.55354 84.1873 8.55354C83.8025 8.55354 83.4556 8.65775 83.1452 8.86617C82.8355 9.07459 82.5899 9.35245 82.4077 9.69983C82.2262 10.0472 82.1352 10.4239 82.1352 10.8301C82.1352 11.2522 82.2288 11.6343 82.4161 11.9764C82.6027 12.3184 82.8515 12.5909 83.1612 12.794C83.4767 12.9917 83.8186 13.0906 84.1873 13.0906ZM93.2043 14.8381H91.2645L88.5871 6.82209H90.5026L92.2424 12.0084L93.9739 6.82209H95.9054L97.6369 12.0084L99.3767 6.82209H101.292L98.6148 14.8381H96.6749L94.9358 9.62769L93.2043 14.8381Z" fill="var(--fill-0, black)"/>
<path id="Vector_2" fill-rule="evenodd" clip-rule="evenodd" d="M16.3722 0.0884032C16.9235 0.0884032 17.4339 0.382315 17.6924 0.860094C17.9402 1.31774 17.9296 1.85703 17.665 2.30469L17.656 2.31969L15.336 6.14282C15.0736 6.5751 14.6001 6.84496 14.0938 6.85073L14.0773 6.85079H11.4281L12.5292 9.33409L12.5336 9.3414L12.5403 9.35313C12.7997 9.81479 12.7933 10.3637 12.5244 10.8186L12.5154 10.8337L10.1954 14.6568C9.93301 15.0891 9.45942 15.3589 8.95326 15.3647L8.93671 15.3648L5.6851 15.3648L3.34758 17.7935L3.34316 17.798C3.12319 18.0183 2.82599 18.1412 2.51612 18.1412C2.43866 18.1412 2.36115 18.1335 2.28447 18.1181C1.90649 18.042 1.59245 17.7866 1.44128 17.4342L1.43701 17.4241L0.206883 14.6423L0.200413 14.6316L0.193692 14.6202C0.192576 14.6182 0.191441 14.6162 0.190255 14.6141C-0.0690597 14.1524 -0.0627814 13.6035 0.206108 13.1486L0.215169 13.1335L2.46529 9.42547L0.807289 5.68623L0.837673 5.67096L0.837211 5.66872C0.767061 5.3248 0.823533 4.96613 1.0037 4.65197L1.01365 4.63485L1.02285 4.61952L3.34282 0.796364C3.60521 0.364083 4.07882 0.0942517 4.58498 0.0884032H4.60153H16.3722ZM4.19047 15.3357H1.72551L2.44949 16.9855L2.45128 16.9899C2.46327 17.0194 2.48269 17.0356 2.51158 17.0414C2.53735 17.0467 2.55821 17.0413 2.57793 17.0236L2.58138 17.0203L4.19047 15.3357ZM11.2371 9.6637H3.78604C3.77782 9.6637 3.76959 9.66396 3.76137 9.66454L3.75912 9.66467L5.80213 14.2684H8.93633C9.06516 14.2684 9.18931 14.2004 9.25986 14.0913L9.26543 14.0824L11.5888 10.2569C11.6581 10.1428 11.6657 10.0104 11.6109 9.89123C11.5475 9.75387 11.4005 9.6637 11.2371 9.6637ZM3.0115 10.609L1.16755 13.6707C1.09418 13.7926 1.08993 13.9353 1.15563 14.0609L1.1626 14.0737L1.16632 14.0799L1.17375 14.0919L1.1885 14.1135L1.20497 14.1346L1.22072 14.1523L1.22345 14.1552L1.2341 14.1658L1.24335 14.1745C1.30136 14.2264 1.37306 14.258 1.45214 14.2661L1.46991 14.2677L1.4802 14.2682L1.49323 14.2684H4.62186L3.0115 10.609ZM2.52663 6.85817L3.33647 8.68787L3.35224 8.68254C3.4921 8.63644 3.63832 8.61149 3.78615 8.60918L3.80833 8.60905L11.0308 8.60899L10.2559 6.85823L2.52663 6.85817ZM16.3516 1.15571H8.87393L10.9176 5.76042H14.0507C14.1798 5.76042 14.304 5.69238 14.3746 5.58324L14.3802 5.57426L16.7036 1.74888C16.7729 1.6348 16.7806 1.5025 16.7257 1.38346C16.6637 1.2489 16.5215 1.15957 16.362 1.15583L16.3516 1.15571ZM7.72925 1.15571H4.61352C4.48539 1.15571 4.36182 1.22354 4.29147 1.33256L4.28589 1.34149L1.96855 5.16692C1.89936 5.28113 1.89171 5.41374 1.94658 5.53302C2.00837 5.6675 2.14983 5.75651 2.30832 5.76029L2.31868 5.76042H9.76749L7.72925 1.15571Z" fill="var(--fill-0, #4C3AF0)"/>
</g>
<defs>
<clipPath id="clip0_140_5922">
<rect width="101.322" height="18.5971" fill="white"/>
</clipPath>
</defs>
</svg>
