<svg preserveAspectRatio="none" width="100%" height="100%" overflow="visible" style="display: block;" viewBox="0 0 117 22" fill="none" xmlns="http://www.w3.org/2000/svg">
<g id="FlutterFlow_idmB3TNu38_1 1" clip-path="url(#clip0_122_5635)">
<path id="Vector" d="M26.127 17.0308V4.15023H33.7358V6.39513H28.3719V9.00806H32.8525V11.253H28.3719V17.0308H26.127ZM35.0759 17.0308V3.23018H37.3208V17.0308H35.0759ZM39.1643 13.6267V7.8304H41.4092V13.0378C41.4092 13.3997 41.4981 13.7309 41.676 14.0315C41.8539 14.3259 42.0901 14.562 42.3845 14.7399C42.685 14.9116 43.0132 14.9975 43.3689 14.9975C43.7369 14.9975 44.0681 14.9116 44.3626 14.7399C44.657 14.562 44.8931 14.3259 45.071 14.0315C45.2489 13.7309 45.3378 13.3997 45.3378 13.0378V7.8304H47.5827L47.5919 17.0308H45.347L45.3378 16.1936C45.0189 16.5248 44.6417 16.7885 44.2062 16.9848C43.7706 17.1749 43.3045 17.27 42.8077 17.27C42.1391 17.27 41.5288 17.1075 40.9768 16.7824C40.4248 16.4512 39.9832 16.0126 39.6519 15.4668C39.3268 14.9147 39.1643 14.3013 39.1643 13.6267ZM54.365 10.0753H52.5801V17.0308H50.3352V10.0753H48.9735V7.8304H50.3352V4.94146H52.5801V7.8304H54.365V10.0753ZM60.9598 10.0753H59.175V17.0308H56.9301V10.0753H55.5684V7.8304H56.9301V4.94146H59.175V7.8304H60.9598V10.0753ZM66.4558 17.27C65.6094 17.27 64.8365 17.0523 64.1373 16.6168C63.4442 16.1813 62.8891 15.5956 62.472 14.8595C62.0611 14.1235 61.8556 13.3108 61.8556 12.4214C61.8556 11.7528 61.9752 11.1272 62.2144 10.5445C62.4536 9.9557 62.7817 9.44048 63.1989 8.99885C63.6221 8.55105 64.1128 8.20144 64.6709 7.95001C65.2291 7.6985 65.8241 7.57279 66.4558 7.57279C67.1734 7.57279 67.8298 7.7261 68.4247 8.03281C69.0258 8.33333 69.5349 8.74735 69.952 9.27487C70.3691 9.80231 70.6726 10.4034 70.8625 11.0782C71.0531 11.7528 71.0958 12.4582 70.9913 13.1943H64.2661C64.352 13.5377 64.493 13.8475 64.6893 14.1235C64.8856 14.3933 65.134 14.6111 65.4346 14.7767C65.7351 14.9362 66.0755 15.019 66.4558 15.0251C66.8483 15.0312 67.2041 14.9392 67.5231 14.7491C67.8482 14.5528 68.118 14.2891 68.3327 13.9579L70.6236 14.4915C70.2495 15.3073 69.6913 15.9758 68.9491 16.4972C68.207 17.0124 67.3759 17.27 66.4558 17.27ZM64.1925 11.5106H68.7191C68.6516 11.1426 68.5075 10.8113 68.2867 10.5169C68.072 10.2163 67.8052 9.97712 67.4863 9.79929C67.1673 9.62139 66.8238 9.53248 66.4558 9.53248C66.0878 9.53248 65.7474 9.62139 65.4346 9.79929C65.1218 9.97101 64.8549 10.2071 64.6341 10.5077C64.4194 10.8021 64.2722 11.1364 64.1925 11.5106ZM72.4979 17.0308L72.4884 7.8304H74.7333L74.7428 8.64924C75.0556 8.31802 75.4295 8.05732 75.8653 7.8672C76.3003 7.6709 76.7699 7.57279 77.2726 7.57279C77.6104 7.57279 77.9475 7.62181 78.2846 7.72L77.4014 9.9833C77.1688 9.8913 76.9355 9.84529 76.7021 9.84529C76.3408 9.84529 76.0095 9.93421 75.7085 10.1121C75.4141 10.2838 75.1778 10.5199 75.0004 10.8205C74.8282 11.115 74.7428 11.4431 74.7428 11.805V17.0308H72.4979ZM79.3173 17.0308V4.15023H86.9257V6.39513H81.5622V9.00806H86.0424V11.253H81.5622V17.0308H79.3173ZM88.266 17.0308V3.23018H90.5109V17.0308H88.266ZM96.6266 17.27C95.7802 17.27 95.0073 17.0523 94.3081 16.6168C93.6155 16.1813 93.0598 15.5986 92.6432 14.8687C92.2317 14.1327 92.0264 13.32 92.0264 12.4306C92.0264 11.7559 92.1464 11.1272 92.3856 10.5445C92.6248 9.9557 92.9531 9.44048 93.3697 8.99885C93.7929 8.55105 94.2838 8.20144 94.8417 7.95001C95.4004 7.6985 95.9951 7.57279 96.6266 7.57279C97.473 7.57279 98.2429 7.79051 98.9363 8.22602C99.6355 8.66146 100.19 9.24727 100.601 9.9833C101.019 10.7193 101.227 11.5351 101.227 12.4306C101.227 13.0992 101.108 13.7248 100.868 14.3075C100.629 14.8901 100.298 15.4054 99.8747 15.8532C99.4574 16.2948 98.9701 16.6413 98.4115 16.8928C97.8595 17.1443 97.2648 17.27 96.6266 17.27ZM96.6266 15.0251C97.0749 15.0251 97.476 14.9055 97.8322 14.6663C98.1877 14.4271 98.4667 14.1112 98.6691 13.7187C98.8781 13.3261 98.9819 12.8967 98.9819 12.4306C98.9819 11.9522 98.8745 11.5167 98.6603 11.1242C98.4512 10.7254 98.1664 10.4095 97.8043 10.1765C97.4488 9.9373 97.0565 9.81769 96.6266 9.81769C96.185 9.81769 95.7868 9.9373 95.4306 10.1765C95.075 10.4157 94.7931 10.7346 94.5841 11.1334C94.3758 11.532 94.2713 11.9644 94.2713 12.4306C94.2713 12.9151 94.3788 13.3537 94.5937 13.7463C94.8079 14.1388 95.0934 14.4516 95.4489 14.6847C95.8111 14.9116 96.2034 15.0251 96.6266 15.0251ZM106.976 17.0308H104.749L101.677 7.8304H103.875L105.872 13.7831L107.859 7.8304H110.076L112.063 13.7831L114.06 7.8304H116.259L113.186 17.0308H110.959L108.963 11.0506L106.976 17.0308Z" fill="var(--fill-0, black)"/>
<path id="Vector_2" fill-rule="evenodd" clip-rule="evenodd" d="M18.7913 0.101562C19.4241 0.101562 20.0098 0.438902 20.3066 0.987277C20.5909 1.51254 20.5789 2.13152 20.2751 2.64532L20.2647 2.66254L17.602 7.05056C17.3009 7.54672 16.7573 7.85645 16.1763 7.86307L16.1573 7.86314H13.1167L14.3804 10.7134L14.3855 10.7218L14.3932 10.7352C14.6909 11.2651 14.6836 11.8951 14.375 12.4172L14.3646 12.4346L11.7018 16.8225C11.4007 17.3188 10.8571 17.6284 10.2761 17.635L10.2572 17.6352L6.52509 17.6351L3.84219 20.4228L3.83711 20.4279C3.58464 20.6807 3.24353 20.8218 2.88788 20.8218C2.79897 20.8218 2.71001 20.8129 2.622 20.7953C2.18817 20.708 1.82772 20.4147 1.65422 20.0103L1.64932 19.9987L0.237431 16.8059L0.230005 16.7937L0.222291 16.7805C0.22101 16.7782 0.219708 16.7759 0.218346 16.7735C-0.0792844 16.2436 -0.0720785 15.6136 0.236541 15.0915L0.246941 15.0741L2.82954 10.8182L0.926551 6.5265L0.961424 6.50899L0.960894 6.50641C0.88038 6.11167 0.945195 5.70001 1.15198 5.33943L1.16341 5.31978L1.17396 5.30218L3.83673 0.91413C4.13788 0.417976 4.68148 0.108275 5.26243 0.101562H5.28142H18.7913ZM4.80962 17.6018H1.98044L2.8114 19.4954L2.81345 19.5004C2.82722 19.5343 2.8495 19.5528 2.88267 19.5595C2.91225 19.5656 2.93618 19.5594 2.95882 19.5391L2.96278 19.5353L4.80962 17.6018ZM12.8975 11.0917H4.34544C4.336 11.0917 4.32655 11.092 4.31712 11.0926L4.31453 11.0928L6.65942 16.3767H10.2567C10.4046 16.3767 10.5471 16.2988 10.628 16.1735L10.6344 16.1633L13.3011 11.7725C13.3807 11.6416 13.3894 11.4896 13.3264 11.3528C13.2537 11.1952 13.085 11.0917 12.8975 11.0917ZM3.45646 12.1767L1.34005 15.6907C1.25583 15.8306 1.25095 15.9944 1.32637 16.1386L1.33437 16.1532L1.33863 16.1604L1.34717 16.1742L1.36409 16.199L1.38299 16.2232L1.40107 16.2435L1.4042 16.2468L1.41643 16.259L1.42705 16.269C1.49362 16.3285 1.57592 16.3649 1.66669 16.3741L1.68708 16.3759L1.69889 16.3765L1.71384 16.3767H5.30475L3.45646 12.1767ZM2.89993 7.87161L3.82943 9.97166L3.84754 9.96555C4.00806 9.91263 4.17589 9.884 4.34556 9.88135L4.37102 9.8812L12.6607 9.88113L11.7713 7.87168L2.89993 7.87161ZM18.7676 1.32657H10.1851L12.5307 6.61166H16.1267C16.2749 6.61166 16.4175 6.53357 16.4985 6.4083L16.5049 6.39799L19.1717 2.00739C19.2512 1.87645 19.26 1.72461 19.197 1.58798C19.1259 1.43353 18.9626 1.33101 18.7796 1.32671L18.7676 1.32657ZM8.87128 1.32657H5.29518C5.14812 1.32657 5.00629 1.40442 4.92554 1.52956L4.91914 1.5398L2.25939 5.93046C2.17999 6.06155 2.17121 6.21376 2.23418 6.35067C2.3051 6.50501 2.46746 6.60717 2.64937 6.61152L2.66127 6.61166H11.2107L8.87128 1.32657Z" fill="var(--fill-0, #4C3AF0)"/>
</g>
<defs>
<clipPath id="clip0_122_5635">
<rect width="116.293" height="21.345" fill="white"/>
</clipPath>
</defs>
</svg>
