<svg preserveAspectRatio="none" width="100%" height="100%" overflow="visible" style="display: block;" viewBox="0 0 77 84" fill="none" xmlns="http://www.w3.org/2000/svg">
<g id="G2 - ease of use bussines" clip-path="url(#clip0_150_7548)">
<path id="Vector" d="M76.1607 54.6382C76.2047 54.7105 76.2287 54.7933 76.2302 54.878C76.2317 54.9627 76.2106 55.0463 76.1691 55.1201C76.1276 55.194 76.0672 55.2555 75.9941 55.2983C75.921 55.3411 75.8378 55.3636 75.7531 55.3636H67.2953C67.1688 55.3636 67.0474 55.3134 66.9579 55.2238C66.8684 55.1343 66.8181 55.0129 66.8181 54.8864V44.8636C66.8181 44.7371 66.8684 44.6157 66.9579 44.5262C67.0474 44.4366 67.1688 44.3864 67.2953 44.3864H75.7531C75.8378 44.3864 75.921 44.4089 75.9941 44.4517C76.0672 44.4945 76.1276 44.556 76.1691 44.6299C76.2106 44.7037 76.2317 44.7873 76.2302 44.872C76.2287 44.9567 76.2047 45.0395 76.1607 45.1118L73.4121 49.6268C73.3666 49.7016 73.3426 49.7875 73.3426 49.875C73.3426 49.9625 73.3666 50.0484 73.4121 50.1232L76.1607 54.6382ZM0.441362 45.1118C0.39729 45.0394 0.373291 44.9566 0.37183 44.8719C0.37037 44.7871 0.391502 44.7035 0.433053 44.6296C0.474605 44.5558 0.535077 44.4943 0.608255 44.4516C0.681433 44.4088 0.764677 44.3863 0.84943 44.3864H9.3067C9.43328 44.3864 9.55468 44.4366 9.64419 44.5262C9.73369 44.6157 9.78398 44.7371 9.78398 44.8636V54.8864C9.78398 55.0129 9.73369 55.1343 9.64419 55.2238C9.55468 55.3134 9.43328 55.3636 9.3067 55.3636H0.84943C0.764677 55.3637 0.681433 55.3412 0.608255 55.2985C0.535077 55.2557 0.474605 55.1942 0.433053 55.1204C0.391502 55.0465 0.37037 54.9629 0.37183 54.8781C0.373291 54.7934 0.39729 54.7106 0.441362 54.6382L3.18998 50.1232C3.2355 50.0484 3.25958 49.9625 3.25958 49.875C3.25958 49.7875 3.2355 49.7016 3.18998 49.6268L0.441362 45.1118Z" fill="var(--fill-0, #2C9469)"/>
<path id="Vector_2" d="M7.15891 8.11364C7.15891 4.95075 9.7233 2.38636 12.8862 2.38636H63.9544C67.1173 2.38636 69.6816 4.95075 69.6816 8.11364V61.8526C69.6817 62.8416 69.4257 63.8137 68.9385 64.6744C68.4513 65.535 67.7495 66.2549 66.9015 66.7638L41.1512 82.2179C40.2553 82.7555 39.2294 83.0378 38.1846 83.0342C37.1397 83.0307 36.1158 82.7415 35.2235 82.1978L9.90562 66.769C9.06681 66.2578 8.37359 65.5395 7.89258 64.683C7.41156 63.8265 7.15891 62.8607 7.15891 61.8784V8.11364Z" fill="var(--fill-0, #EAFBF2)"/>
<path id="Vector_3" d="M69.6816 21.7159L19.054 72.3436L9.90562 66.769C9.06681 66.2578 8.37359 65.5394 7.89258 64.683C7.41156 63.8265 7.15891 62.8607 7.15891 61.8784V49.6364L54.4089 2.38636H63.9544C67.1173 2.38636 69.6816 4.95075 69.6816 8.11364V21.7159Z" fill="var(--fill-0, white)"/>
<path id="Vector_4" opacity="0.8" d="M26.467 76.8619L21.574 73.8799L69.6812 25.7727V33.6477L26.467 76.8619Z" fill="var(--fill-0, white)"/>
<path id="Vector_5" d="M12.8862 3.10227H63.9544C66.7221 3.10227 68.9657 5.34593 68.9657 8.11364V61.8526C68.9657 63.6128 68.0422 65.2441 66.5331 66.15L40.7833 81.6036C39.9993 82.0741 39.1016 82.3213 38.1874 82.3182C37.2731 82.3152 36.377 82.0621 35.5963 81.5864L10.2784 66.1576C9.54439 65.7104 8.93779 65.0818 8.51687 64.3324C8.09595 63.583 7.87485 62.7379 7.87482 61.8784V8.11364C7.87482 5.34593 10.1185 3.10227 12.8862 3.10227Z" stroke="var(--stroke-0, #BADED1)" stroke-width="1.43182"/>
<path id="Vector_6" d="M23.478 49.6366L22.2862 45.4714H23.2484L23.9376 48.3656H23.9724L24.7332 45.4714H25.5565L26.3154 48.3713H26.3521L27.0413 45.4714H28.0035L26.8117 49.6366H25.9531L25.1604 46.9133H25.1274L24.3366 49.6366H23.478ZM31.1883 45.4714V49.6366H30.3073V45.4714H31.1883ZM37.2292 45.4714V49.6366H36.4689L34.6567 47.0149H34.6261V49.6366H33.7455V45.4714H34.5182L36.3161 48.0907H36.3529V45.4714H37.2292ZM39.6308 46.1973V45.4714H43.0519V46.1973H41.7766V49.6366H40.9065V46.1973H39.6308ZM45.4483 49.6366V45.4714H48.2546V46.1973H46.3288V47.1901H48.1105V47.916H46.3288V48.9106H48.2627V49.6366H45.4483ZM50.7875 49.6366V45.4714H52.4308C52.7453 45.4714 53.014 45.5277 53.2364 45.6399C53.4602 45.7511 53.6302 45.9091 53.7466 46.1138C53.865 46.3176 53.9237 46.5567 53.9237 46.8321C53.9237 47.1089 53.864 47.3466 53.7447 47.5456C53.6254 47.7437 53.4526 47.8955 53.2264 48.0014C53.0011 48.1069 52.7286 48.1599 52.4088 48.1599H51.3082V47.4521H52.2661C52.4341 47.4521 52.574 47.4292 52.6852 47.3829C52.7964 47.3371 52.8789 47.2679 52.9333 47.1758C52.9887 47.0836 53.0169 46.9691 53.0169 46.8321C53.0169 46.6937 52.9887 46.5773 52.9333 46.4823C52.8761 46.3847 52.7882 46.3088 52.6832 46.2665C52.572 46.2164 52.4317 46.1911 52.2623 46.1911H51.6681V49.6366H50.7875ZM53.0369 47.7408L54.0721 49.6366H53.0999L52.0871 47.7408H53.0369Z" fill="var(--fill-0, white)"/>
<path id="Vector_7" d="M34.2562 61.4602C34.2562 61.6296 34.2648 61.7675 34.2829 61.8744C34.3049 61.977 34.3497 62.0572 34.4165 62.115C34.4834 62.1684 34.5769 62.2061 34.6972 62.2286C34.8217 62.251 34.9845 62.2644 35.1849 62.2687V62.5226H32.8196V62.2687C32.9752 62.2644 33.1002 62.251 33.1938 62.2286C33.2787 62.2129 33.3574 62.1735 33.4209 62.115C33.479 62.052 33.5163 61.9727 33.5279 61.8878C33.5455 61.7899 33.5546 61.663 33.5546 61.5069V58.3932C33.5546 58.2371 33.5455 58.1126 33.5279 58.019C33.5145 57.9212 33.483 57.8453 33.4343 57.7918C33.3838 57.7305 33.3124 57.69 33.2339 57.6782C33.1196 57.6525 33.0034 57.6368 32.8864 57.6315V57.3776H36.7485L36.822 58.6538H36.5881C36.5614 58.4624 36.5189 58.3063 36.4612 58.1861C36.4079 58.0668 36.3223 57.965 36.2139 57.8921C36.1113 57.8209 35.9801 57.7718 35.8197 57.7451C35.6212 57.7108 35.4198 57.6952 35.2184 57.6983H34.3698C34.2939 57.6983 34.2562 57.736 34.2562 57.8119V59.8298C34.47 59.8298 34.6523 59.8188 34.8041 59.7964C34.9597 59.7697 35.0866 59.7253 35.1849 59.6627C35.2855 59.6021 35.3667 59.514 35.4188 59.4088C35.4723 59.3019 35.5057 59.164 35.519 58.9946H35.7529V60.9523H35.519C35.5032 60.8077 35.4672 60.666 35.4121 60.5314C35.3666 60.4243 35.2897 60.3334 35.1916 60.2708C35.0981 60.2083 34.9754 60.1639 34.8241 60.1371C34.6363 60.1077 34.4463 60.0943 34.2562 60.0971V61.4602ZM39.0857 60.5447C38.8644 60.6281 38.648 60.7241 38.4376 60.8321C38.2873 60.9098 38.1461 61.0039 38.0166 61.1127C37.9221 61.1911 37.8429 61.2863 37.7827 61.3933C37.7379 61.4869 37.7159 61.5828 37.7159 61.6806C37.7159 61.8276 37.7646 61.9479 37.8629 62.0415C37.9608 62.135 38.0901 62.1818 38.2505 62.1818C38.3633 62.1825 38.4742 62.1525 38.5712 62.0949C38.6738 62.0372 38.7626 61.9589 38.8385 61.8611C38.9139 61.7584 38.974 61.6406 39.0189 61.5069C39.0633 61.369 39.0857 61.2239 39.0857 61.0726V60.5447ZM39.0857 60.2574V59.9835C39.0857 59.4399 38.8537 59.1683 38.3908 59.1683C38.3149 59.1683 38.2505 59.175 38.197 59.1883C38.1478 59.1997 38.102 59.2226 38.0634 59.2551C38.0223 59.2934 37.9884 59.3387 37.9631 59.3888C37.932 59.4583 37.9052 59.5297 37.883 59.6026C37.8338 59.7319 37.7846 59.8188 37.736 59.8632C37.6911 59.9033 37.6243 59.9233 37.5355 59.9233C37.3126 59.9233 37.2014 59.8121 37.2014 59.5892C37.2014 59.3754 37.315 59.2108 37.5422 59.0948C37.7694 58.9745 38.0925 58.9144 38.5111 58.9144C38.9564 58.9144 39.2728 58.9946 39.4599 59.1549C39.647 59.311 39.7405 59.5783 39.7405 59.9567V61.4535C39.7405 61.9613 39.8407 62.2152 40.0412 62.2152C40.1032 62.2152 40.1639 62.2085 40.2216 62.1951C40.2849 62.1729 40.3374 62.1276 40.3686 62.0682L40.4621 62.2286C40.4087 62.3312 40.3104 62.418 40.1681 62.4891C40.0254 62.556 39.8761 62.5894 39.7205 62.5894C39.5248 62.5894 39.3773 62.5269 39.2795 62.4023C39.1859 62.2777 39.1391 62.1016 39.1391 61.8744H39.1057C38.9944 62.0877 38.8283 62.2675 38.6246 62.3956C38.4193 62.5203 38.1833 62.5851 37.9431 62.5827C37.6625 62.5827 37.442 62.5116 37.2816 62.3689C37.1212 62.2262 37.0411 62.0348 37.0411 61.7942C37.0411 61.6873 37.0587 61.5847 37.0945 61.4869C37.1346 61.389 37.1971 61.2955 37.2816 61.2062C37.3812 61.1052 37.4935 61.0176 37.6157 60.9456C37.778 60.8438 37.9477 60.7545 38.1235 60.6784L39.0857 60.2574ZM41.8501 61.4802C41.8501 61.6496 41.8567 61.7852 41.8701 61.8878C41.8835 61.9904 41.9102 62.0706 41.9503 62.1283C41.9947 62.1861 42.0553 62.2262 42.1307 62.2486C42.2109 62.271 42.3154 62.2844 42.4447 62.2887V62.5226H40.6006V62.2887C40.7342 62.2844 40.8411 62.271 40.9213 62.2486C40.9937 62.2269 41.0586 62.1852 41.1084 62.1283C41.1612 62.066 41.1939 61.9891 41.2019 61.9078C41.2196 61.81 41.2286 61.683 41.2286 61.527V58.6471C41.2286 58.4066 41.2239 58.2061 41.2153 58.0457C41.2105 57.8811 41.2019 57.7694 41.1886 57.7116C41.1661 57.609 41.1127 57.5403 41.0282 57.5045C40.948 57.4687 40.801 57.4511 40.5872 57.4511V57.2239L41.8501 56.9766V61.4802ZM44.0226 61.4802C44.0226 61.6496 44.0293 61.7852 44.0431 61.8878C44.056 61.9904 44.0832 62.0706 44.1228 62.1283C44.1677 62.1861 44.2278 62.2262 44.3037 62.2486C44.3839 62.271 44.4884 62.2844 44.6173 62.2887V62.5226H42.7736V62.2887C42.9072 62.2844 43.0141 62.271 43.0943 62.2486C43.1666 62.2268 43.2312 62.1851 43.2809 62.1283C43.334 62.0661 43.3668 61.9892 43.3749 61.9078C43.3926 61.81 43.4012 61.683 43.4012 61.527V58.6471C43.4012 58.4066 43.3969 58.2061 43.3878 58.0457C43.3835 57.8811 43.3745 57.7694 43.3616 57.7116C43.3391 57.609 43.2852 57.5403 43.2007 57.5045C43.1206 57.4687 42.9736 57.4511 42.7597 57.4511V57.2239L44.0231 56.9766L44.0226 61.4802ZM31.5119 70.4587H32.8415C32.9484 70.4587 33.042 70.4496 33.1222 70.4319C33.2021 70.4096 33.2754 70.3684 33.336 70.3117C33.398 70.2539 33.4544 70.1756 33.503 70.0778C33.5609 69.9521 33.61 69.8227 33.65 69.6902H33.8973L33.6434 71.1135H30.5363V70.893C30.9672 70.5119 31.384 70.1152 31.7858 69.7036C32.1151 69.3604 32.3738 69.0531 32.5609 68.7815C32.748 68.5099 32.8773 68.2603 32.9484 68.0332C33.0191 67.806 33.0551 67.5695 33.0554 67.3316C33.0554 66.9841 32.9733 66.7102 32.8081 66.5097C32.6478 66.3092 32.4273 66.209 32.1466 66.209C31.8794 66.209 31.6612 66.2959 31.4918 66.4696C31.3271 66.6433 31.2446 66.8681 31.2446 67.1445C31.2446 67.385 31.3095 67.5764 31.4384 67.7191C31.572 67.8618 31.7524 67.9329 31.9796 67.9329C31.9578 68.0391 31.8955 68.1326 31.8059 68.1935C31.7123 68.256 31.5968 68.2871 31.4584 68.2871C31.3386 68.2882 31.22 68.2631 31.1109 68.2136C31.0068 68.1633 30.9137 68.0929 30.837 68.0064C30.7589 67.9132 30.6978 67.8068 30.6566 67.6924C30.6154 67.5605 30.5951 67.423 30.5964 67.2848C30.5964 67.0843 30.6389 66.8996 30.7234 66.7302C30.807 66.5623 30.9254 66.4143 31.0709 66.2959C31.2252 66.167 31.4019 66.0673 31.592 66.0019C31.7973 65.9308 32.0178 65.895 32.2535 65.895C32.4898 65.895 32.706 65.9308 32.9017 66.0019C33.0974 66.073 33.2673 66.1732 33.4095 66.3026C33.5522 66.4319 33.6615 66.5856 33.7369 66.7636C33.8171 66.9373 33.8572 67.1311 33.8572 67.3449C33.8558 67.6271 33.7919 67.9055 33.6701 68.1601C33.538 68.4415 33.3695 68.7044 33.1689 68.9419C32.9551 69.1958 32.706 69.4473 32.4206 69.6969C32.1244 69.9507 31.819 70.1936 31.5052 70.4252L31.5119 70.4587ZM36.7051 65.9017C36.9771 65.9017 37.2329 65.9709 37.4735 66.1088C37.7201 66.2523 37.9341 66.4457 38.1016 66.6767C38.2884 66.934 38.4307 67.2209 38.5225 67.5253C38.6294 67.8504 38.6829 68.2026 38.6829 68.5811C38.6829 68.9419 38.6294 69.2803 38.5225 69.5967C38.4295 69.8945 38.2872 70.1745 38.1016 70.4252C37.9312 70.65 37.7176 70.8386 37.4735 70.9798C37.2329 71.1135 36.9771 71.1803 36.7051 71.1803C36.433 71.1803 36.1772 71.1135 35.9366 70.9798C35.6925 70.8386 35.479 70.65 35.3086 70.4252C35.1224 70.1738 34.978 69.8941 34.8809 69.5967C34.7766 69.2683 34.7247 68.9256 34.7272 68.5811C34.7272 68.2026 34.7788 67.8504 34.8809 67.5253C34.9771 67.2214 35.1215 66.9349 35.3086 66.6767C35.4761 66.4457 35.69 66.2523 35.9366 66.1088C36.1699 65.9728 36.4351 65.9013 36.7051 65.9017ZM36.7051 70.8596C36.8788 70.8596 37.0325 70.8238 37.1661 70.7527C37.3045 70.6815 37.42 70.5589 37.5136 70.3851C37.6119 70.2114 37.6854 69.9799 37.7341 69.6902C37.7875 69.4005 37.8142 69.0378 37.8142 68.6011C37.8142 68.1467 37.7875 67.7683 37.7341 67.4652C37.6854 67.1621 37.6138 66.9197 37.5202 66.7369C37.4267 66.5498 37.3107 66.4185 37.1728 66.3426C37.0305 66.2613 36.8689 66.2198 36.7051 66.2224C36.5313 66.2224 36.3757 66.2625 36.2373 66.3426C36.0989 66.4185 35.9834 66.5498 35.8899 66.7369C35.7963 66.9197 35.7228 67.1621 35.6694 67.4652C35.6202 67.7683 35.5959 68.1467 35.5959 68.6011C35.5959 69.0378 35.6207 69.4005 35.6694 69.6902C35.7228 69.9799 35.7963 70.2114 35.8899 70.3851C35.9834 70.5589 36.0994 70.6815 36.2373 70.7527C36.3757 70.8238 36.5313 70.8596 36.7051 70.8596ZM40.3991 70.4587H41.7288C41.8357 70.4587 41.9293 70.4496 42.0095 70.4319C42.0896 70.4095 42.1612 70.3694 42.2233 70.3117C42.2858 70.2539 42.3416 70.1756 42.3903 70.0778C42.4482 69.9522 42.4973 69.8227 42.5373 69.6902H42.7846L42.5306 71.1135H39.4236V70.893C39.8545 70.512 40.2713 70.1152 40.6731 69.7036C41.0029 69.3604 41.2611 69.0531 41.4482 68.7815C41.6353 68.5099 41.7646 68.2603 41.8357 68.0332C41.9073 67.8017 41.9426 67.5678 41.9426 67.3316C41.9426 66.9841 41.8606 66.7102 41.6954 66.5097C41.5351 66.3092 41.3146 66.209 41.0339 66.209C40.7666 66.209 40.5485 66.2959 40.3791 66.4696C40.2144 66.6433 40.1319 66.8681 40.1319 67.1445C40.1319 67.385 40.1968 67.5764 40.3256 67.7191C40.4593 67.8618 40.6397 67.9329 40.8669 67.9329C40.8451 68.0391 40.7828 68.1326 40.6931 68.1935C40.5996 68.256 40.4841 68.2871 40.3457 68.2871C40.2211 68.2871 40.1051 68.2627 39.9982 68.2136C39.8941 68.1633 39.801 68.0929 39.7243 68.0064C39.6462 67.9131 39.5851 67.8068 39.5439 67.6924C39.5027 67.5605 39.4824 67.423 39.4837 67.2848C39.4837 67.0843 39.5262 66.8996 39.6107 66.7302C39.6943 66.5623 39.8127 66.4143 39.9581 66.2959C40.1125 66.167 40.2891 66.0673 40.4793 66.0019C40.6923 65.9294 40.9159 65.8932 41.1408 65.895C41.3771 65.895 41.5933 65.9308 41.789 66.0019C41.9851 66.073 42.1546 66.1732 42.2968 66.3026C42.4395 66.4319 42.5488 66.5856 42.6242 66.7636C42.7044 66.9373 42.7445 67.1311 42.7445 67.3449C42.7431 67.6271 42.6792 67.9055 42.5574 68.1601C42.4253 68.4415 42.2568 68.7044 42.0562 68.9419C41.8424 69.1958 41.5933 69.4473 41.3079 69.6969C41.0117 69.9507 40.7063 70.1936 40.3925 70.4252L40.3991 70.4587ZM43.3272 69.5833L45.6792 65.9017H45.8864V69.5967C46.0248 69.5924 46.1336 69.5833 46.2138 69.57C46.2987 69.5523 46.3608 69.5232 46.4009 69.4831C46.448 69.4335 46.4783 69.3704 46.4877 69.3027C46.5011 69.2225 46.5078 69.118 46.5078 68.9887H46.7416V70.4787H46.5078C46.5094 70.3803 46.5026 70.282 46.4877 70.1847C46.4793 70.1186 46.4487 70.0573 46.4009 70.011C46.3608 69.9666 46.2987 69.9375 46.2138 69.9241C46.1058 69.9033 45.9963 69.8921 45.8864 69.8907V70.031C45.8864 70.2047 45.893 70.3451 45.9064 70.452C45.9198 70.5589 45.9446 70.6434 45.9799 70.7059C46.0186 70.7626 46.075 70.8049 46.1403 70.8261C46.2119 70.8486 46.303 70.8596 46.4142 70.8596V71.1135H44.5366V70.8596C44.6836 70.8596 44.802 70.8486 44.8908 70.8261C44.9731 70.8101 45.0481 70.768 45.1046 70.7059C45.1588 70.6361 45.1934 70.553 45.2048 70.4653C45.2247 70.3371 45.2336 70.2075 45.2315 70.0778V69.9174H43.3272V69.5833ZM45.2315 67.2046H45.1981L43.6613 69.5833H45.2315V67.2046ZM15.7175 23.295C15.9618 23.2984 16.206 23.2821 16.4477 23.2464C16.6481 23.2082 16.8047 23.1519 16.9183 23.076C17.0376 23.0001 17.1211 22.9027 17.1698 22.7839C17.2242 22.6646 17.2509 22.5242 17.2509 22.362H17.5349V24.577H17.2509C17.2509 24.4147 17.2271 24.2739 17.1779 24.1551C17.1324 24.0328 17.0465 23.9298 16.9345 23.863C16.8209 23.7819 16.6644 23.7222 16.4639 23.6845C16.2692 23.6415 16.0201 23.6196 15.7175 23.6196V25.4533C15.7175 25.6318 15.7389 25.7807 15.7824 25.8995C15.8253 26.0131 15.8988 26.1076 16.0019 26.1835C16.1098 26.2537 16.2501 26.3052 16.4234 26.3376C16.5966 26.3649 16.8099 26.3782 17.0643 26.3782C17.3507 26.3782 17.5941 26.3591 17.7946 26.3214C17.995 26.2785 18.1621 26.2078 18.2976 26.1105C18.4327 26.0131 18.541 25.8862 18.6221 25.7291C18.7033 25.5669 18.7711 25.3664 18.825 25.1287H19.1333L19.0116 26.7271H13.973V26.4188C14.1625 26.4135 14.3138 26.3973 14.4274 26.3701C14.5467 26.3429 14.6384 26.2971 14.7033 26.2322C14.7682 26.1673 14.8116 26.0751 14.8331 25.9563C14.855 25.837 14.8655 25.6833 14.8655 25.4938V21.7129C14.8686 21.5608 14.8577 21.4087 14.8331 21.2585C14.8169 21.1392 14.7791 21.0476 14.7195 20.9827C14.6656 20.9125 14.5844 20.8662 14.4761 20.8447C14.3374 20.8134 14.1962 20.7944 14.0542 20.7879V20.4796H18.7439L18.8169 21.9076H18.5329C18.5004 21.6914 18.4465 21.5153 18.3706 21.3802C18.3037 21.2434 18.1997 21.1281 18.0704 21.0476C17.9463 20.9664 17.7864 20.9096 17.5917 20.8772C17.3581 20.8419 17.1221 20.8256 16.8858 20.8285H15.8554C15.7638 20.8285 15.7175 20.8743 15.7175 20.9664V23.295ZM22.1645 24.3255C21.8561 24.4448 21.5941 24.5608 21.3774 24.6744C21.1952 24.7688 21.0239 24.8831 20.8668 25.0151C20.7518 25.1103 20.6554 25.2258 20.5823 25.3559C20.5284 25.4695 20.5012 25.5859 20.5012 25.7048C20.5012 25.8833 20.5608 26.0293 20.6797 26.1429C20.799 26.2565 20.9555 26.3133 21.1503 26.3133C21.2911 26.3133 21.4209 26.278 21.5397 26.2078C21.6659 26.136 21.7763 26.0394 21.8643 25.9239C21.9597 25.793 22.0338 25.6479 22.0838 25.4938C22.1373 25.3263 22.1649 25.1502 22.1649 24.9664V24.3255H22.1645ZM22.1645 23.9766V23.6439C22.1645 22.9839 21.8829 22.6541 21.3206 22.6541C21.2415 22.6527 21.1625 22.6608 21.0854 22.6784C21.0255 22.6921 20.9699 22.7199 20.9231 22.7595C20.8733 22.806 20.8321 22.861 20.8014 22.9218C20.7636 23.0063 20.7311 23.093 20.704 23.1814C20.6444 23.3385 20.5847 23.4439 20.5255 23.4979C20.4716 23.5466 20.3904 23.5709 20.2821 23.5709C20.0115 23.5709 19.8764 23.4358 19.8764 23.1652C19.8764 22.9056 20.0148 22.7056 20.2902 22.5648C20.5661 22.4188 20.9584 22.3457 21.4667 22.3457C22.0074 22.3457 22.3916 22.4431 22.6188 22.6378C22.846 22.8273 22.9596 23.1519 22.9596 23.6115V25.4289C22.9596 26.0456 23.0813 26.3539 23.3247 26.3539C23.4006 26.3539 23.4736 26.3458 23.5443 26.3295C23.6139 26.3081 23.6736 26.2565 23.7223 26.1754L23.8359 26.3701C23.771 26.4942 23.6521 26.6002 23.4789 26.6865C23.3056 26.7677 23.1247 26.8082 22.9353 26.8082C22.6976 26.8082 22.5186 26.7324 22.3998 26.5811C22.2862 26.4298 22.2294 26.2159 22.2294 25.9401H22.1888C22.0537 26.1992 21.8521 26.4176 21.6046 26.5729C21.3554 26.7245 21.0687 26.8032 20.777 26.8001C20.4363 26.8001 20.1685 26.7137 19.9738 26.5405C19.7791 26.3672 19.6817 26.1348 19.6817 25.8427C19.6817 25.7129 19.7032 25.5883 19.7466 25.4695C19.7953 25.3502 19.8707 25.2371 19.9738 25.1287C20.0764 25.0204 20.2119 24.9149 20.3795 24.8123C20.5765 24.6886 20.7826 24.5801 20.9961 24.4877L22.1645 23.9766ZM24.3609 26.7271H24.1824V25.3316H24.3852C24.5962 26.0942 24.9804 26.4756 25.5374 26.4756C25.754 26.4756 25.9239 26.424 26.0485 26.3214C26.1783 26.2131 26.2432 26.0508 26.2432 25.8346C26.2456 25.7648 26.2317 25.6953 26.2027 25.6318C26.1729 25.5614 26.1253 25.4999 26.0647 25.4533C25.9776 25.371 25.8825 25.2976 25.7808 25.2342C25.6614 25.1531 25.502 25.0504 25.3021 24.9259C25.1183 24.8123 24.9584 24.7068 24.8234 24.6094C24.7008 24.523 24.5867 24.4252 24.4826 24.3174C24.395 24.2214 24.3238 24.1118 24.2716 23.9928C24.226 23.8653 24.204 23.7306 24.2067 23.5952C24.2067 23.4115 24.2368 23.2435 24.296 23.0922C24.3525 22.9458 24.4386 22.8126 24.5489 22.7009C24.6592 22.5893 24.7913 22.5015 24.9369 22.4431C25.0878 22.3772 25.251 22.344 25.4156 22.3457C25.5617 22.3457 25.713 22.3701 25.87 22.4188C26.027 22.4617 26.165 22.5214 26.2838 22.5973L26.4461 22.4269H26.6002V23.5952H26.3893C26.27 23.2654 26.1406 23.0302 25.9998 22.8894C25.9323 22.8206 25.8513 22.7664 25.762 22.7301C25.6727 22.6938 25.5769 22.6762 25.4806 22.6784C25.2968 22.6784 25.1479 22.7271 25.0343 22.8244C24.926 22.9218 24.872 23.0569 24.872 23.2301C24.872 23.3222 24.8859 23.4034 24.9126 23.4735C24.9451 23.5384 24.9937 23.6034 25.0586 23.6683C25.1236 23.7332 25.2047 23.8009 25.3021 23.8711C25.4047 23.936 25.5264 24.0119 25.6672 24.0983C25.8996 24.2443 26.0972 24.3741 26.2595 24.4877C26.427 24.6013 26.5625 24.7149 26.6651 24.8285C26.7682 24.9369 26.8436 25.0504 26.8923 25.1693C26.941 25.2886 26.9654 25.4237 26.9654 25.575C26.9654 25.9592 26.8413 26.2622 26.5921 26.4837C26.3435 26.6999 26.0161 26.8082 25.6104 26.8082C25.1885 26.8082 24.8262 26.6865 24.5231 26.4431L24.3609 26.7271ZM29.0353 25.437C29.0353 25.648 29.0434 25.8184 29.0591 25.9482C29.0811 26.0723 29.1193 26.1725 29.1732 26.2484C29.2271 26.3186 29.303 26.3677 29.4004 26.3944C29.4978 26.4217 29.6276 26.4374 29.7899 26.4431V26.7271H27.4608V26.4431C27.623 26.4379 27.7562 26.4217 27.8588 26.3944C27.9614 26.362 28.0402 26.3133 28.0941 26.2484C28.1538 26.1782 28.1915 26.0833 28.2077 25.9644C28.2292 25.8403 28.2401 25.6828 28.2401 25.4938V24.4553C28.2401 24.1417 28.2349 23.8845 28.2239 23.6845C28.2187 23.4793 28.2048 23.3385 28.1834 23.2626C28.1561 23.1385 28.0941 23.0545 27.9967 23.0111C27.8994 22.9624 27.7151 22.938 27.445 22.938V22.6541L29.0353 22.3457V25.437ZM28.1022 20.6987C28.1022 20.5579 28.1509 20.439 28.2483 20.3417C28.3456 20.2443 28.4645 20.1956 28.6053 20.1956C28.7461 20.1956 28.8649 20.2443 28.9623 20.3417C29.0596 20.439 29.1083 20.5579 29.1083 20.6987C29.1083 20.8395 29.0596 20.9583 28.9623 21.0557C28.9159 21.1031 28.8603 21.1406 28.7989 21.1657C28.7375 21.1908 28.6716 21.2031 28.6053 21.2017C28.4645 21.2017 28.3456 21.153 28.2483 21.0557C28.2008 21.0093 28.1634 20.9537 28.1383 20.8923C28.1131 20.8309 28.1009 20.765 28.1022 20.6987ZM34.0237 25.9725C33.5641 26.5295 32.9928 26.8082 32.3118 26.8082C32.0151 26.8124 31.7203 26.7601 31.4431 26.6541C31.1916 26.5511 30.9629 26.3995 30.7702 26.2078C30.5832 26.0082 30.4371 25.7739 30.3401 25.5182C30.2347 25.2326 30.1825 24.9301 30.186 24.6257C30.1829 24.3127 30.2379 24.0018 30.3483 23.7088C30.4488 23.4396 30.6035 23.1939 30.8026 22.9867C31.0031 22.7863 31.2379 22.6297 31.5085 22.5161C31.7946 22.4006 32.1006 22.3427 32.4091 22.3457C32.9341 22.3457 33.3398 22.4889 33.6262 22.7758C33.9125 23.0574 34.0557 23.463 34.0557 23.9928C34.0557 24.0687 34.04 24.1145 34.0075 24.1307C33.9803 24.147 33.913 24.1551 33.8047 24.1551H31.1353C31.1243 24.198 31.1162 24.2524 31.1109 24.3174C31.1052 24.3848 31.1025 24.4525 31.1028 24.5202C31.1028 24.8018 31.1353 25.0586 31.2002 25.291C31.2704 25.5182 31.3677 25.7129 31.4923 25.8752C31.6221 26.0374 31.7739 26.1644 31.9466 26.2565C32.1251 26.3429 32.3227 26.3863 32.5385 26.3863C32.7661 26.3863 32.9771 26.3377 33.1718 26.2403C33.3665 26.1377 33.5665 25.9725 33.7722 25.7454L34.0237 25.9725ZM32.685 23.7819C32.7933 23.7819 32.8797 23.779 32.9446 23.7737C32.9949 23.7718 33.0443 23.7608 33.0907 23.7413C33.1197 23.7285 33.1428 23.7054 33.1556 23.6764C33.1674 23.6369 33.1729 23.5958 33.1718 23.5547C33.1718 23.306 33.0907 23.1084 32.9284 22.9624C32.7714 22.8111 32.5552 22.7352 32.2793 22.7352C31.6951 22.7352 31.3329 23.0841 31.1921 23.7819H32.685ZM34.9745 26.7271H34.796V25.3316H34.9988C35.2098 26.0942 35.594 26.4756 36.1509 26.4756C36.3671 26.4756 36.5375 26.424 36.6621 26.3214C36.7919 26.2131 36.8568 26.0508 36.8568 25.8346C36.8592 25.7648 36.8453 25.6953 36.8163 25.6318C36.7864 25.5614 36.7389 25.4999 36.6783 25.4533C36.5912 25.371 36.4961 25.2976 36.3944 25.2342C36.275 25.1531 36.1156 25.0504 35.9156 24.9259C35.7319 24.8123 35.572 24.7068 35.4369 24.6094C35.3144 24.523 35.2003 24.4252 35.0962 24.3174C35.0086 24.2214 34.9374 24.1118 34.8852 23.9928C34.8396 23.8653 34.8176 23.7306 34.8203 23.5952C34.8203 23.4115 34.8499 23.2435 34.9096 23.0922C34.9661 22.9458 35.0522 22.8126 35.1625 22.7009C35.2728 22.5893 35.4049 22.5015 35.5505 22.4431C35.7014 22.3772 35.8646 22.344 36.0292 22.3457C36.1753 22.3457 36.3266 22.3701 36.4836 22.4188C36.6406 22.4617 36.7786 22.5214 36.8974 22.5973L37.0597 22.4269H37.2138V23.5952H37.0029C36.8836 23.2654 36.7542 23.0302 36.6134 22.8894C36.5459 22.8206 36.4649 22.7664 36.3756 22.7301C36.2863 22.6938 36.1905 22.6762 36.0941 22.6784C35.9104 22.6784 35.7615 22.7271 35.6479 22.8244C35.5396 22.9218 35.4856 23.0569 35.4856 23.2301C35.4856 23.3222 35.499 23.4034 35.5262 23.4735C35.5586 23.5384 35.6073 23.6034 35.6722 23.6683C35.7371 23.7332 35.8183 23.8009 35.9156 23.8711C36.0183 23.936 36.14 24.0119 36.2808 24.0983C36.5132 24.2443 36.7108 24.3741 36.8731 24.4877C37.0406 24.6013 37.1761 24.7149 37.2787 24.8285C37.3814 24.9369 37.4572 25.0504 37.5059 25.1693C37.5546 25.2886 37.5789 25.4237 37.5789 25.575C37.5789 25.9592 37.4549 26.2622 37.2057 26.4837C36.9571 26.6999 36.6296 26.8082 36.224 26.8082C35.8021 26.8082 35.4398 26.6865 35.1367 26.4431L34.9745 26.7271ZM38.1235 22.938V22.6378C38.4099 22.4703 38.6342 22.3023 38.7965 22.1348C38.9587 21.9673 39.0833 21.7673 39.1702 21.5344H39.4055V22.5567H40.4927V22.938H39.4055V25.4046C39.4055 25.5941 39.4136 25.7535 39.4293 25.8833C39.4513 26.0131 39.4837 26.1186 39.5272 26.1997C39.5701 26.2756 39.6274 26.3295 39.6976 26.362C39.7677 26.3944 39.857 26.4107 39.9648 26.4107C40.1004 26.4107 40.214 26.3835 40.3061 26.3295C40.4034 26.2699 40.4979 26.1725 40.5901 26.0374L40.7929 26.1916C40.717 26.3921 40.5843 26.5457 40.3953 26.6541C40.2111 26.7567 39.9815 26.8082 39.7057 26.8082C39.3487 26.8082 39.0757 26.7242 38.8862 26.5567C38.702 26.3835 38.6103 26.1377 38.6103 25.8184V22.938H38.1235ZM43.1945 22.938V22.6378C43.4814 22.4703 43.7057 22.3023 43.868 22.1348C44.0302 21.9673 44.1548 21.7673 44.2412 21.5344H44.4765V22.5567H45.5637V22.938H44.477V25.4046C44.477 25.5941 44.4851 25.7535 44.5013 25.8833C44.5233 26.0131 44.5557 26.1186 44.5987 26.1997C44.6421 26.2756 44.6989 26.3295 44.7691 26.362C44.8397 26.3944 44.9289 26.4107 45.0368 26.4107C45.1724 26.4107 45.2859 26.3835 45.3776 26.3295C45.4749 26.2699 45.5699 26.1725 45.6616 26.0374L45.8644 26.1916C45.7917 26.3885 45.6506 26.5527 45.4668 26.6541C45.2831 26.7567 45.053 26.8082 44.7772 26.8082C44.4202 26.8082 44.1472 26.7242 43.9577 26.5567C43.7739 26.3835 43.6818 26.1377 43.6818 25.8184V22.938H43.1945ZM48.4111 22.3457C48.7194 22.3457 49.0115 22.4025 49.2874 22.5161C49.5553 22.6192 49.8006 22.7736 50.0095 22.9705C50.2212 23.1661 50.3898 23.4038 50.5044 23.6683C50.631 23.9428 50.6948 24.2422 50.6911 24.5445C50.6911 24.8743 50.629 25.1774 50.5044 25.4533C50.3901 25.7226 50.2216 25.9656 50.0095 26.1673C49.8043 26.3677 49.5633 26.5243 49.2874 26.6379C49.0094 26.7519 48.7116 26.8098 48.4111 26.8082C48.1141 26.8093 47.8195 26.7543 47.543 26.646C47.2774 26.5356 47.0351 26.3759 46.829 26.1754C46.6214 25.9717 46.456 25.729 46.3421 25.4614C46.2213 25.171 46.1606 24.8591 46.1636 24.5445C46.1636 24.2252 46.2233 23.9308 46.3421 23.6602C46.4615 23.3895 46.6237 23.1571 46.829 22.9624C47.0358 22.7668 47.2782 22.6126 47.543 22.508C47.8195 22.3997 48.1141 22.3446 48.4111 22.3457ZM48.4111 22.7352C48.2111 22.7352 48.0274 22.7782 47.8594 22.865C47.6922 22.9557 47.5479 23.0834 47.4375 23.2382C47.3156 23.4132 47.2251 23.6082 47.1702 23.8143C47.1101 24.0362 47.0805 24.282 47.0805 24.5527C47.0805 24.8342 47.1106 25.0882 47.1697 25.3153C47.2346 25.5425 47.3239 25.7372 47.4375 25.8995C47.5498 26.0506 47.6938 26.1752 47.8594 26.2646C48.0217 26.351 48.2059 26.3944 48.4111 26.3944C48.6168 26.3944 48.8034 26.3515 48.971 26.2646C49.139 26.1782 49.2821 26.0537 49.401 25.8914C49.5203 25.7291 49.6119 25.5344 49.6769 25.3072C49.7442 25.0614 49.777 24.8075 49.7742 24.5527C49.7742 24.282 49.7418 24.0362 49.6769 23.8143C49.6205 23.6097 49.527 23.4172 49.401 23.2464C49.2821 23.0841 49.139 22.96 48.971 22.8731C48.7992 22.7801 48.6065 22.7326 48.4111 22.7352ZM57.0149 26.0456H56.9825C56.7877 26.3214 56.5797 26.519 56.3577 26.6379C56.1415 26.7514 55.8843 26.8082 55.5869 26.8082C55.295 26.8114 55.0053 26.7562 54.735 26.646C54.4857 26.5358 54.2598 26.3788 54.0697 26.1835C53.8806 25.9747 53.732 25.7326 53.6315 25.4695C53.5266 25.1809 53.4744 24.8759 53.4774 24.5689C53.4774 24.2496 53.5289 23.9551 53.6315 23.6845C53.7308 23.4232 53.8796 23.1835 54.0697 22.9786C54.2591 22.7782 54.4835 22.6245 54.7431 22.5161C55.0094 22.4011 55.2968 22.3431 55.5869 22.3457C55.8466 22.3457 56.0766 22.3887 56.2766 22.4756C56.4823 22.5619 56.6794 22.6999 56.8689 22.8894V22.0618C56.8689 21.7534 56.8636 21.4967 56.8527 21.291C56.8474 21.0857 56.8364 20.9449 56.8202 20.8691C56.793 20.7497 56.7176 20.6662 56.593 20.6175C56.4684 20.5689 56.2656 20.5445 55.9845 20.5445V20.3011L57.6478 19.9928V24.6744C57.6478 25.0476 57.6507 25.3559 57.6559 25.5993C57.6612 25.8375 57.6774 26.0079 57.7046 26.1105C57.7177 26.1664 57.7367 26.2208 57.7614 26.2727C57.7886 26.3157 57.8234 26.351 57.8669 26.3782C57.9155 26.3997 57.9776 26.4164 58.0535 26.4269C58.1346 26.4379 58.2372 26.4431 58.3618 26.4431V26.719L57.0149 26.8082V26.0456ZM56.8527 24.2524C56.8527 23.9709 56.8364 23.7575 56.804 23.6115C56.7798 23.4722 56.7212 23.3411 56.6336 23.2301C56.5093 23.068 56.3441 22.942 56.1549 22.865C55.9772 22.7811 55.7834 22.7368 55.5869 22.7352C55.1975 22.7352 54.9001 22.8975 54.6944 23.222C54.4944 23.5413 54.3942 23.9766 54.3942 24.5283C54.3942 24.8147 54.4186 25.0748 54.4672 25.3072C54.5212 25.5397 54.5971 25.7401 54.6944 25.9076C54.797 26.0699 54.9216 26.1969 55.0676 26.289C55.2189 26.3754 55.3922 26.4188 55.5869 26.4188C55.6843 26.4188 55.7816 26.4078 55.879 26.3863C55.9816 26.3649 56.079 26.3324 56.1711 26.289C56.2685 26.2403 56.3577 26.1864 56.4389 26.1267C56.5174 26.0646 56.5859 25.9907 56.6417 25.9076C56.7176 25.7883 56.7715 25.6451 56.804 25.4776C56.8364 25.3101 56.8527 25.08 56.8527 24.7879V24.2524ZM61.0379 22.3457C61.3462 22.3457 61.6383 22.4025 61.9141 22.5161C62.182 22.6193 62.4273 22.7737 62.6362 22.9705C62.8472 23.1652 63.0118 23.3977 63.1312 23.6683C63.2553 23.9332 63.3178 24.2252 63.3178 24.5445C63.3212 24.8573 63.2575 25.1672 63.1312 25.4533C63.0166 25.7225 62.8482 25.9655 62.6362 26.1673C62.4305 26.3677 62.19 26.5243 61.9141 26.6379C61.6361 26.7519 61.3383 26.8098 61.0379 26.8082C60.7408 26.8094 60.4463 26.7543 60.1697 26.646C59.9041 26.5357 59.6618 26.376 59.4557 26.1754C59.2477 25.972 59.0823 25.7293 58.9689 25.4614C58.8479 25.171 58.7872 24.8591 58.7904 24.5445C58.7904 24.2252 58.8496 23.9308 58.9689 23.6602C59.0825 23.3972 59.2481 23.1598 59.4557 22.9624C59.6625 22.7667 59.9049 22.6125 60.1697 22.508C60.4463 22.3997 60.7408 22.3446 61.0379 22.3457ZM61.0379 22.7352C60.8374 22.7352 60.6536 22.7782 60.4861 22.865C60.3189 22.9557 60.1746 23.0834 60.0642 23.2382C59.9421 23.4132 59.8515 23.6082 59.7965 23.8143C59.7368 24.0362 59.7072 24.282 59.7072 24.5527C59.7072 24.8342 59.7368 25.0882 59.7965 25.3153C59.8614 25.5425 59.9506 25.7372 60.0642 25.8995C60.1831 26.0565 60.3239 26.1782 60.4861 26.2646C60.6484 26.351 60.8322 26.3944 61.0379 26.3944C61.2431 26.3944 61.4297 26.3515 61.5977 26.2646C61.7652 26.1782 61.9084 26.0537 62.0277 25.8914C62.1466 25.7291 62.2387 25.5344 62.3036 25.3072C62.3709 25.0614 62.4037 24.8075 62.4009 24.5527C62.4009 24.282 62.3685 24.0362 62.3036 23.8143C62.247 23.6098 62.1535 23.4173 62.0277 23.2464C61.9084 23.0841 61.7652 22.96 61.5977 22.8731C61.4259 22.7802 61.2332 22.7327 61.0379 22.7352ZM13.5487 33.145C13.5487 33.3502 13.5788 33.5397 13.638 33.7129C13.6927 33.8722 13.7751 34.0205 13.8814 34.1511C13.9897 34.2704 14.1167 34.3649 14.2632 34.4351C14.4145 34.5052 14.5768 34.5405 14.75 34.5405C14.939 34.5405 15.1094 34.4976 15.2607 34.4107C15.4202 34.3221 15.5565 34.197 15.6583 34.0456C15.7719 33.8833 15.8587 33.6915 15.9179 33.4695C15.9853 33.2238 16.0181 32.9698 16.0153 32.715C16.0153 32.4391 15.9828 32.1876 15.9179 31.9604C15.863 31.7493 15.7726 31.549 15.6506 31.3681C15.5448 31.2078 15.4029 31.0744 15.2364 30.9786C15.0789 30.8865 14.8995 30.8389 14.7171 30.8407C14.4956 30.8407 14.2981 30.8946 14.1253 31.003C13.9517 31.1059 13.8131 31.2585 13.7272 31.4411C13.6079 31.6793 13.5487 32.0062 13.5487 32.4229V33.145ZM13.5325 31.1166H13.565C13.7382 30.8894 13.9277 30.7243 14.1329 30.6217C14.3439 30.5133 14.5873 30.4594 14.8631 30.4594C15.1552 30.4594 15.4259 30.5162 15.6745 30.6298C15.9289 30.7434 16.148 30.9004 16.3317 31.1004C16.5212 31.3008 16.6672 31.5385 16.7699 31.8144C16.8796 32.0933 16.9347 32.3908 16.9321 32.6906C16.9321 33.0099 16.8782 33.3073 16.7699 33.5831C16.6673 33.8446 16.5159 34.0842 16.3236 34.289C16.1399 34.4895 15.9208 34.646 15.6664 34.7596C15.4058 34.8745 15.1236 34.9326 14.8388 34.93C14.5409 34.932 14.2457 34.8741 13.9706 34.7596C13.7199 34.6562 13.4954 34.4982 13.3134 34.2971L12.9321 34.8407H12.7536V29.9401C12.7536 29.3936 12.7188 29.0447 12.6486 28.8934C12.6353 28.8603 12.6159 28.8301 12.5913 28.8042C12.5653 28.7742 12.5317 28.7517 12.494 28.7393C12.437 28.7132 12.377 28.6941 12.3155 28.6825C12.2134 28.662 12.1105 28.6458 12.0071 28.6338V28.431L13.5325 28.1064V31.1166ZM20.9188 31.8387C20.9188 31.6168 20.9135 31.444 20.9026 31.3194C20.8921 31.1896 20.862 31.0922 20.8133 31.0273C20.7907 30.9917 20.7611 30.9611 20.7262 30.9374C20.6913 30.9136 20.6519 30.8973 20.6105 30.8894C20.4911 30.8563 20.3688 30.8346 20.2454 30.8245V30.5405H21.7139V33.0314C21.7139 33.3397 21.7168 33.5912 21.722 33.786C21.733 33.9807 21.7464 34.1267 21.7626 34.2241C21.7736 34.2943 21.7898 34.3511 21.8113 34.3945C21.8414 34.435 21.8802 34.4683 21.9249 34.4919C21.9736 34.5133 22.0361 34.53 22.1115 34.5405C22.1926 34.5458 22.2957 34.5487 22.4198 34.5487V34.8326L21.0811 34.93L20.9918 33.9564H20.9594C20.7541 34.2919 20.516 34.5377 20.2454 34.6947C19.9919 34.843 19.7037 34.9213 19.4101 34.9219C19.1825 34.9219 18.961 34.8789 18.7443 34.7921C18.5334 34.7057 18.374 34.5892 18.2656 34.4432C18.174 34.3239 18.1062 34.1592 18.0628 33.9482C18.0251 33.7373 18.006 33.4643 18.006 33.1288V31.8387C18.006 31.6168 18.0007 31.444 17.9898 31.3194C17.9793 31.1896 17.9492 31.0922 17.9005 31.0273C17.8779 30.9917 17.8483 30.9611 17.8134 30.9374C17.7785 30.9136 17.7391 30.8973 17.6977 30.8894C17.5783 30.8563 17.456 30.8346 17.3326 30.8245V30.5405H18.8011V32.7555C18.8011 33.345 18.8689 33.7721 19.004 34.0375C19.1448 34.3024 19.3667 34.4351 19.6693 34.4351C20.1456 34.4351 20.516 34.1239 20.7813 33.502C20.8316 33.388 20.867 33.268 20.8868 33.145C20.8982 33.0724 20.9062 32.9993 20.9107 32.9259C20.9167 32.8287 20.9194 32.7313 20.9188 32.6338V31.8387ZM23.1333 34.8407H22.9548V33.4452H23.1577C23.3686 34.2079 23.7528 34.5892 24.3098 34.5892C24.526 34.5892 24.6964 34.5377 24.821 34.4351C24.9508 34.3267 25.0157 34.1644 25.0157 33.9482C25.018 33.8784 25.0041 33.809 24.9751 33.7454C24.9453 33.675 24.8978 33.6135 24.8372 33.5669C24.75 33.4846 24.6549 33.4112 24.5532 33.3478C24.4339 33.2667 24.2745 33.1641 24.0745 33.0395C23.9113 32.9397 23.7516 32.8341 23.5958 32.7231C23.4733 32.6367 23.3592 32.5389 23.255 32.431C23.1675 32.335 23.0962 32.2254 23.0441 32.1064C22.9985 31.979 22.9765 31.8442 22.9792 31.7089C22.9792 31.5251 23.0088 31.3571 23.0684 31.2058C23.125 31.0594 23.211 30.9262 23.3213 30.8145C23.4316 30.7029 23.5637 30.6151 23.7094 30.5567C23.8603 30.4908 24.0234 30.4576 24.1881 30.4594C24.3341 30.4594 24.4854 30.4837 24.6425 30.5324C24.7995 30.5754 24.9374 30.635 25.0563 30.7109L25.2185 30.5405H25.3727V31.7089H25.1617C25.0424 31.3791 24.9131 31.1438 24.7723 31.003C24.7047 30.9342 24.6238 30.88 24.5345 30.8438C24.4452 30.8075 24.3494 30.7899 24.253 30.792C24.0693 30.792 23.9204 30.8407 23.8068 30.9381C23.6984 31.0354 23.6445 31.1705 23.6445 31.3438C23.6445 31.4359 23.6579 31.517 23.6851 31.5872C23.7175 31.6521 23.7662 31.717 23.8311 31.7819C23.896 31.8468 23.9771 31.9146 24.0745 31.9847C24.1771 32.0496 24.2988 32.1255 24.4396 32.2119C24.6721 32.358 24.8696 32.4878 25.0319 32.6014C25.1994 32.715 25.335 32.8286 25.4376 32.9422C25.5402 33.0505 25.6161 33.1641 25.6648 33.2829C25.7135 33.4022 25.7378 33.5373 25.7378 33.6886C25.7378 34.0728 25.6137 34.3759 25.3646 34.5973C25.1159 34.8135 24.7885 34.9219 24.3828 34.9219C23.9609 34.9219 23.5987 34.8002 23.2956 34.5568L23.1333 34.8407ZM27.8077 33.5507C27.8077 33.7616 27.8159 33.932 27.8316 34.0618C27.8536 34.1859 27.8913 34.2862 27.9457 34.362C27.9996 34.4322 28.0755 34.4814 28.1729 34.5081C28.2702 34.5353 28.4 34.551 28.5623 34.5568V34.8407H26.2332V34.5568C26.3955 34.5515 26.5282 34.5353 26.6313 34.5081C26.7339 34.4756 26.8126 34.4269 26.8666 34.362C26.9257 34.2919 26.9639 34.1969 26.9801 34.0781C27.0016 33.954 27.0126 33.7965 27.0126 33.6075V32.5689C27.0126 32.2554 27.0069 31.9981 26.9964 31.7981C26.9906 31.5929 26.9773 31.4521 26.9558 31.3762C26.9286 31.2521 26.8666 31.1681 26.7692 31.1247C26.6718 31.076 26.4876 31.0517 26.2175 31.0517V30.7677L27.8077 30.4594V33.5507ZM26.8747 28.8123C26.8747 28.6715 26.9234 28.5527 27.0207 28.4553C27.1181 28.3579 27.2369 28.3093 27.3777 28.3093C27.518 28.3093 27.6374 28.3579 27.7347 28.4553C27.8321 28.5527 27.8808 28.6715 27.8808 28.8123C27.8808 28.9531 27.8321 29.0719 27.7347 29.1693C27.6883 29.2168 27.6327 29.2542 27.5713 29.2793C27.5099 29.3044 27.444 29.3167 27.3777 29.3154C27.2369 29.3154 27.1181 29.2667 27.0207 29.1693C26.9733 29.1229 26.9358 29.0673 26.9107 29.0059C26.8856 28.9445 26.8733 28.8786 26.8747 28.8123ZM30.3134 33.5669C30.3134 33.7888 30.3187 33.9645 30.3296 34.0943C30.3401 34.2184 30.3674 34.3162 30.4108 34.3864C30.4609 34.4523 30.5328 34.4983 30.6136 34.5162C30.7053 34.5377 30.8298 34.5544 30.9869 34.5649V34.8407H28.8606V34.5649C29.0119 34.5539 29.1307 34.5377 29.2176 34.5162C29.3013 34.4997 29.3762 34.4536 29.4286 34.3864C29.4772 34.3215 29.5068 34.2294 29.5178 34.1105C29.534 33.9912 29.5417 33.8289 29.5417 33.6237V32.5446C29.5417 31.9007 29.5259 31.5089 29.4935 31.3681C29.4813 31.3081 29.4593 31.2506 29.4286 31.1977C29.4082 31.1503 29.3705 31.1126 29.3231 31.0922C29.2651 31.0627 29.2015 31.0461 29.1365 31.0436C29.0396 31.0315 28.942 31.0261 28.8444 31.0273V30.7677L30.1426 30.4594L30.2399 31.2626H30.2724C30.4776 31.0082 30.7186 30.8111 30.9945 30.6703C31.2735 30.5289 31.5823 30.4566 31.8951 30.4594C32.1438 30.4594 32.3709 30.4999 32.5766 30.5811C32.7819 30.6622 32.9389 30.7729 33.0472 30.9137C33.1389 31.0378 33.2038 31.2001 33.242 31.4006C33.2797 31.5953 33.2988 31.8659 33.2988 32.2119V33.5669C33.2988 33.7888 33.304 33.9645 33.315 34.0943C33.3312 34.2184 33.3608 34.3162 33.4042 34.3864C33.4501 34.453 33.5198 34.4995 33.599 34.5162C33.6906 34.5377 33.8099 34.5544 33.956 34.5649V34.8407H31.8545V34.5649C32.0058 34.5596 32.1247 34.5458 32.2115 34.5243C32.2935 34.5042 32.3655 34.4552 32.4144 34.3864C32.4631 34.3215 32.4926 34.2294 32.5036 34.1105C32.5217 33.9489 32.5297 33.7863 32.5275 33.6237V32.5527C32.5275 32.2444 32.5117 31.9847 32.4793 31.7738C32.4468 31.5628 32.3924 31.3924 32.317 31.2626C32.2558 31.1415 32.1558 31.0444 32.033 30.9868C31.9137 30.9271 31.7705 30.8975 31.603 30.8975C31.3596 30.8975 31.1353 30.9624 30.9296 31.0922C30.7291 31.2163 30.5726 31.3896 30.459 31.6115C30.4335 31.6624 30.4092 31.7138 30.386 31.7657C30.3681 31.8213 30.3545 31.8783 30.3454 31.9361C30.3333 32.0113 30.3252 32.0871 30.3211 32.1632C30.3153 32.2444 30.3129 32.3499 30.3129 32.4797L30.3134 33.5669ZM38.2276 34.0862C37.7679 34.6431 37.1971 34.9219 36.5156 34.9219C36.219 34.9259 35.9244 34.8736 35.6474 34.7677C35.3959 34.6648 35.1672 34.5131 34.9745 34.3215C34.7873 34.1219 34.6411 33.8876 34.544 33.6318C34.4385 33.3462 34.3863 33.0437 34.3898 32.7393C34.3898 32.4095 34.4442 32.1036 34.5521 31.8225C34.6526 31.5533 34.8073 31.3075 35.0064 31.1004C35.2069 30.8999 35.4422 30.7434 35.7128 30.6298C35.9987 30.5143 36.3046 30.4564 36.6129 30.4594C37.1379 30.4594 37.5436 30.6026 37.83 30.8894C38.1168 31.171 38.26 31.5767 38.26 32.1064C38.26 32.1823 38.2438 32.2281 38.2113 32.2444C38.1846 32.2606 38.1168 32.2687 38.0085 32.2687H35.3391C35.3286 32.3117 35.32 32.3661 35.3152 32.431C35.3094 32.4984 35.3065 32.5661 35.3066 32.6338C35.3066 32.9154 35.3391 33.1722 35.404 33.4046C35.4746 33.6318 35.572 33.8265 35.6961 33.9888C35.8259 34.1511 35.9777 34.278 36.1505 34.3702C36.329 34.4565 36.5266 34.5 36.7428 34.5C36.9699 34.5 37.1809 34.4513 37.3756 34.3539C37.5704 34.2513 37.7708 34.0862 37.976 33.859L38.2276 34.0862ZM36.8888 31.8955C36.9971 31.8955 37.0835 31.8926 37.1484 31.8874C37.1987 31.8854 37.2482 31.8744 37.2945 31.8549C37.3235 31.8422 37.3467 31.819 37.3594 31.79C37.3712 31.7506 37.3767 31.7095 37.3756 31.6683C37.3756 31.4196 37.2945 31.2221 37.1322 31.076C36.9757 30.9247 36.759 30.8488 36.4831 30.8488C35.8989 30.8488 35.5367 31.1977 35.3959 31.8955H36.8888ZM39.1783 34.8407H39.0003V33.4452H39.2026C39.4141 34.2079 39.7978 34.5892 40.3552 34.5892C40.5714 34.5892 40.7418 34.5377 40.8659 34.4351C40.9962 34.3267 41.0611 34.1644 41.0611 33.9482C41.0635 33.8784 41.0496 33.809 41.0206 33.7454C40.9906 33.675 40.9429 33.6135 40.8821 33.5669C40.7951 33.4847 40.7002 33.4113 40.5986 33.3478C40.4793 33.2667 40.3199 33.1641 40.1199 33.0395C39.9566 32.9397 39.7967 32.8341 39.6408 32.7231C39.5184 32.6367 39.4044 32.5389 39.3005 32.431C39.2129 32.335 39.1417 32.2254 39.0895 32.1064C39.0439 31.979 39.0219 31.8442 39.0246 31.7089C39.0246 31.5251 39.0542 31.3571 39.1134 31.2058C39.1699 31.0594 39.256 30.9262 39.3663 30.8145C39.4766 30.7029 39.6087 30.6151 39.7544 30.5567C39.9004 30.4918 40.0598 30.4594 40.2335 30.4594C40.3791 30.4594 40.5309 30.4837 40.6874 30.5324C40.8449 30.5754 40.9824 30.635 41.1017 30.7109L41.264 30.5405H41.4181V31.7089H41.2067C41.0879 31.3791 40.9585 31.1438 40.8172 31.003C40.7497 30.9342 40.6687 30.88 40.5794 30.8438C40.4901 30.8075 40.3943 30.7899 40.298 30.792C40.1142 30.792 39.9653 30.8407 39.8522 30.9381C39.7439 31.0354 39.6899 31.1705 39.6899 31.3438C39.6899 31.4359 39.7033 31.517 39.7305 31.5872C39.7625 31.6521 39.8116 31.717 39.8761 31.7819C39.941 31.8468 40.0221 31.9146 40.1195 31.9847C40.2226 32.0496 40.3438 32.1255 40.4851 32.2119C40.7175 32.358 40.9146 32.4878 41.0769 32.6014C41.2449 32.715 41.3799 32.8286 41.4826 32.9422C41.5856 33.0505 41.6611 33.1641 41.7102 33.2829C41.7589 33.4022 41.7832 33.5373 41.7832 33.6886C41.7832 34.0728 41.6587 34.3759 41.4095 34.5973C41.1614 34.8135 40.8335 34.9219 40.4283 34.9219C40.0064 34.9219 39.6436 34.8002 39.341 34.5568L39.1783 34.8407ZM42.7006 34.8407H42.5221V33.4452H42.7249C42.9358 34.2079 43.3201 34.5892 43.877 34.5892C44.0932 34.5892 44.2636 34.5377 44.3882 34.4351C44.518 34.3267 44.5829 34.1644 44.5829 33.9482C44.5853 33.8784 44.5714 33.809 44.5424 33.7454C44.5125 33.675 44.465 33.6135 44.4044 33.5669C44.3173 33.4846 44.2222 33.4112 44.1204 33.3478C44.0011 33.2667 43.8417 33.1641 43.6417 33.0395C43.458 32.9259 43.2981 32.8204 43.163 32.7231C43.0405 32.6367 42.9264 32.5389 42.8223 32.431C42.7347 32.335 42.6634 32.2254 42.6113 32.1064C42.5657 31.979 42.5437 31.8442 42.5464 31.7089C42.5464 31.5251 42.5765 31.3571 42.6356 31.2058C42.6922 31.0594 42.7783 30.9262 42.8886 30.8146C42.9989 30.7029 43.1309 30.6151 43.2766 30.5567C43.4275 30.4908 43.5907 30.4576 43.7553 30.4594C43.9014 30.4594 44.0531 30.4837 44.2097 30.5324C44.3667 30.5754 44.5047 30.635 44.6235 30.7109L44.7858 30.5405H44.9399V31.7089H44.729C44.6096 31.3791 44.4803 31.1438 44.3395 31.003C44.2719 30.9342 44.191 30.88 44.1017 30.8438C44.0124 30.8075 43.9166 30.7899 43.8202 30.792C43.6365 30.792 43.4876 30.8407 43.374 30.9381C43.2656 31.0354 43.2117 31.1705 43.2117 31.3438C43.2117 31.4359 43.2251 31.517 43.2523 31.5872C43.2847 31.6521 43.3334 31.717 43.3983 31.7819C43.4632 31.8468 43.5444 31.9146 43.6417 31.9847C43.7448 32.0496 43.8661 32.1255 44.0069 32.2119C44.2393 32.358 44.4369 32.4878 44.5991 32.6014C44.7671 32.715 44.9022 32.8286 45.0048 32.9422C45.1074 33.0505 45.1833 33.1641 45.232 33.2829C45.2807 33.4022 45.305 33.5373 45.305 33.6886C45.305 34.0728 45.1809 34.3759 44.9318 34.5973C44.6831 34.8135 44.3557 34.9219 43.9501 34.9219C43.5281 34.9219 43.1659 34.8002 42.8628 34.5568L42.7006 34.8407ZM49.7179 34.9219H49.4177L48.3629 31.5466C48.3246 31.4221 48.2785 31.3002 48.225 31.1815C48.1887 31.099 48.1363 31.0245 48.0708 30.9624C48.0116 30.9084 47.9386 30.8719 47.8599 30.8569C47.7616 30.8334 47.6607 30.8224 47.5597 30.8245V30.5405H49.7098V30.8245C49.4988 30.8245 49.3504 30.8488 49.2635 30.8975C49.1772 30.9462 49.1337 31.0302 49.1337 31.149C49.1337 31.203 49.1418 31.2684 49.1581 31.3438C49.1743 31.4139 49.1962 31.5032 49.223 31.6115L49.7747 33.5507H49.8071L50.9999 30.5405H51.2514L52.3305 33.5507H52.3629L52.8498 32.2363L53.012 31.79C53.0555 31.6659 53.0879 31.5628 53.1094 31.4817C53.1366 31.3953 53.1557 31.3247 53.1662 31.2707C53.1772 31.2168 53.1824 31.1653 53.1824 31.1166C53.1824 30.9973 53.1476 30.919 53.0769 30.8813C53.0068 30.8431 52.8607 30.8245 52.6388 30.8245V30.5405H54.2615V30.8245C54.1804 30.8245 54.1102 30.8379 54.0506 30.8651C53.9967 30.8865 53.9399 30.9328 53.8802 31.003C53.8128 31.0967 53.7557 31.1973 53.7098 31.3032C53.6506 31.433 53.5776 31.6034 53.4907 31.8144L52.2331 34.9219H51.9329L50.9431 31.9279H50.9106L49.7179 34.9219ZM56.0594 33.5507C56.0594 33.7616 56.0675 33.932 56.0838 34.0618C56.1052 34.1859 56.1434 34.2862 56.1974 34.362C56.2513 34.4322 56.3272 34.4814 56.4245 34.5081C56.5219 34.5353 56.6517 34.551 56.814 34.5568V34.8407H54.4854V34.5568C54.6476 34.5515 54.7803 34.5353 54.8829 34.5081C54.9856 34.4756 55.0643 34.4269 55.1182 34.362C55.1779 34.2919 55.2156 34.1969 55.2318 34.0781C55.2533 33.954 55.2643 33.7965 55.2643 33.6075V32.5689C55.2643 32.2554 55.259 31.9981 55.2481 31.7981C55.2428 31.5929 55.229 31.4521 55.2075 31.3762C55.1803 31.2521 55.1182 31.1681 55.0209 31.1247C54.9235 31.076 54.7398 31.0517 54.4691 31.0517V30.7677L56.0594 30.4594V33.5507ZM55.1264 28.8123C55.1264 28.6715 55.175 28.5527 55.2724 28.4553C55.3698 28.3579 55.4886 28.3093 55.6294 28.3093C55.7702 28.3093 55.889 28.3579 55.9864 28.4553C56.0838 28.5527 56.1324 28.6715 56.1324 28.8123C56.1324 28.9531 56.0838 29.0719 55.9864 29.1693C55.94 29.2168 55.8844 29.2542 55.823 29.2793C55.7616 29.3044 55.6957 29.3167 55.6294 29.3154C55.4886 29.3154 55.3698 29.2667 55.2724 29.1693C55.225 29.1229 55.1875 29.0673 55.1624 29.0059C55.1373 28.9445 55.125 28.8786 55.1264 28.8123ZM57.1371 31.0517V30.7515C57.4239 30.5839 57.6483 30.4159 57.8105 30.2484C57.9728 30.0809 58.0974 29.8809 58.1838 29.648H58.4191V30.6703H59.5063V31.0517H58.4191V33.5182C58.4191 33.7077 58.4272 33.8671 58.4434 33.9969C58.4649 34.1267 58.4973 34.2322 58.5408 34.3134C58.5842 34.3892 58.641 34.4432 58.7112 34.4756C58.7813 34.5081 58.8706 34.5243 58.9789 34.5243C59.114 34.5243 59.2276 34.4971 59.3197 34.4432C59.417 34.3835 59.5115 34.2862 59.6036 34.1511L59.8065 34.3052C59.7306 34.5057 59.5984 34.6594 59.4089 34.7677C59.2252 34.8703 58.9951 34.9219 58.7193 34.9219C58.3623 34.9219 58.0893 34.8379 57.8998 34.6704C57.716 34.4971 57.6239 34.2513 57.6239 33.932V31.0517H57.1371ZM61.4044 33.5507C61.4044 33.7726 61.4096 33.9482 61.4206 34.0781C61.4311 34.2079 61.4583 34.3081 61.5018 34.3783C61.5518 34.4442 61.6237 34.4902 61.7046 34.5081C61.791 34.5296 61.9127 34.5463 62.0697 34.5568V34.8407H59.9115V34.5568C60.068 34.5458 60.1926 34.5296 60.2847 34.5081C60.3683 34.4915 60.4432 34.4455 60.4957 34.3783C60.5444 34.3134 60.5739 34.2212 60.5849 34.1024C60.6011 33.9783 60.6093 33.8132 60.6093 33.6075V30.2079C60.6093 29.8886 60.6035 29.6347 60.593 29.4452C60.5919 29.3009 60.5784 29.1571 60.5525 29.0151C60.5452 28.9602 60.5258 28.9075 60.4957 28.861C60.4732 28.8171 60.4358 28.7825 60.3902 28.7636C60.3293 28.7329 60.2633 28.7137 60.1955 28.7068C60.0959 28.695 59.9956 28.6895 59.8953 28.6906V28.4147L61.3882 28.1064V31.1977H61.4206C61.5018 31.0894 61.6015 30.9925 61.7208 30.9056C61.8449 30.8137 61.9781 30.7349 62.1184 30.6703C62.2587 30.6054 62.4048 30.5539 62.5565 30.5162C62.7131 30.478 62.8648 30.4594 63.0109 30.4594C63.2596 30.4594 63.4867 30.5023 63.6924 30.5892C63.9034 30.6756 64.0657 30.792 64.1793 30.9381C64.2709 31.0622 64.3387 31.2273 64.3821 31.433C64.4251 31.6335 64.447 31.9065 64.447 32.2525V33.5507C64.447 33.7726 64.4523 33.9482 64.4632 34.0781C64.4737 34.2022 64.5009 34.3 64.5444 34.3702C64.5922 34.44 64.6647 34.4893 64.7472 34.5081C64.8336 34.5296 64.9553 34.5463 65.1123 34.5568V34.8407H62.9622V34.5568C63.1135 34.5515 63.2352 34.5377 63.3273 34.5162C63.4093 34.4959 63.4812 34.447 63.5302 34.3783C63.5788 34.3134 63.6084 34.2212 63.6194 34.1024C63.6356 33.9783 63.6438 33.8132 63.6438 33.6075V32.5852C63.6438 31.979 63.5731 31.5495 63.4328 31.2951C63.292 31.0354 63.0567 30.9056 62.7269 30.9056C62.4725 30.9056 62.2401 30.9705 62.0291 31.1004C61.8218 31.232 61.6537 31.4169 61.5423 31.6359C61.5166 31.692 61.4922 31.7488 61.4693 31.8062C61.4512 31.8619 61.4377 31.9188 61.4287 31.9766C61.4166 32.0519 61.4085 32.1277 61.4044 32.2038V33.5507Z" fill="var(--fill-0, #222222)"/>
<path id="Vector_8" d="M4.77255 42.9545C4.77255 42.7014 4.87312 42.4586 5.05213 42.2796C5.23114 42.1006 5.47393 42 5.7271 42H71.1135C71.3666 42 71.6094 42.1006 71.7884 42.2796C71.9674 42.4586 72.068 42.7014 72.068 42.9545V52.9773H4.77255V42.9545Z" fill="var(--fill-0, #45BE8B)"/>
<path id="Vector_9" d="M13.48 49.6365V45.4714H16.2863V46.1973H14.361V47.19H16.1427V47.9159H14.361V48.9106H16.2954V49.6365H13.4805H13.48ZM22.1888 45.4714V49.6365H21.4285L19.6158 47.0149H19.5853V49.6365H18.7047V45.4714H19.4774L21.2753 48.0906H21.312V45.4714H22.1888ZM24.4763 46.1973V45.4714H27.897V46.1973H26.6222V49.6365H25.7516V46.1973H24.4763ZM30.1788 49.6365V45.4714H31.8221C32.1366 45.4714 32.4048 45.5277 32.6272 45.6398C32.851 45.751 33.0214 45.909 33.1379 46.1138C33.2558 46.3176 33.3145 46.5567 33.3145 46.8321C33.3145 47.1089 33.2553 47.3466 33.136 47.5456C33.0167 47.7437 32.8434 47.8954 32.6172 48.0014C32.3919 48.1069 32.1194 48.1598 31.7996 48.1598H30.6995V47.452H31.6574C31.8254 47.452 31.9652 47.4291 32.076 47.3828C32.1872 47.337 32.2702 47.2678 32.3241 47.1757C32.38 47.0836 32.4077 46.969 32.4077 46.8321C32.4077 46.6937 32.38 46.5772 32.3241 46.4822C32.2669 46.3846 32.179 46.3087 32.074 46.2665C31.9628 46.2164 31.8225 46.1911 31.6531 46.1911H31.0594V49.6365H30.1788ZM32.4282 47.7408L33.4634 49.6365H32.4912L31.4784 47.7408H32.4282ZM35.6555 49.6365V45.4714H38.4619V46.1973H36.5361V47.19H38.3177V47.9159H36.5361V48.9106H38.47V49.6365H35.6555ZM40.8802 49.6365V45.4714H42.5235C42.8394 45.4714 43.1086 45.5315 43.331 45.6522C43.5534 45.7716 43.7228 45.9377 43.8398 46.1505C43.9577 46.3619 44.0164 46.6063 44.0164 46.8827C44.0164 47.1595 43.9567 47.4034 43.8374 47.6148C43.7181 47.8262 43.5453 47.9914 43.3191 48.1092C43.0938 48.2271 42.8213 48.2858 42.5015 48.2858H41.4539V47.5804H42.3588C42.5282 47.5804 42.6681 47.5513 42.7778 47.4931C42.889 47.433 42.9716 47.3513 43.026 47.2468C43.0814 47.1409 43.1095 47.0196 43.1095 46.8827C43.1095 46.7442 43.0814 46.6235 43.026 46.5209C42.9711 46.4159 42.8842 46.3311 42.7778 46.2789C42.6666 46.2202 42.5258 46.1911 42.355 46.1911H41.7608V49.6365H40.8802ZM46.3068 49.6365V45.4714H47.9501C48.2646 45.4714 48.5333 45.5277 48.7552 45.6398C48.979 45.751 49.1494 45.909 49.2659 46.1138C49.3838 46.3176 49.443 46.5567 49.443 46.8321C49.443 47.1089 49.3833 47.3466 49.264 47.5456C49.1447 47.7437 48.9719 47.8954 48.7452 48.0014C48.5204 48.1069 48.2479 48.1598 47.9276 48.1598H46.8275V47.452H47.7854C47.9534 47.452 48.0932 47.4291 48.2044 47.3828C48.3156 47.337 48.3982 47.2678 48.4521 47.1757C48.508 47.0836 48.5357 46.969 48.5357 46.8321C48.5357 46.6937 48.508 46.5772 48.4521 46.4822C48.395 46.3845 48.307 46.3087 48.2021 46.2665C48.0908 46.2164 47.9505 46.1911 47.7811 46.1911H47.1874V49.6365H46.3068ZM48.5562 47.7408L49.5914 49.6365H48.6192L47.6064 47.7408H48.5562ZM52.6641 45.4714V49.6365H51.7835V45.4714H52.6641ZM57.3662 46.6693C57.3614 46.5941 57.3401 46.5208 57.3039 46.4547C57.2677 46.3885 57.2174 46.3311 57.1566 46.2865C57.0335 46.1959 56.866 46.1505 56.6545 46.1505C56.5109 46.1505 56.3897 46.171 56.2904 46.2116C56.2007 46.2442 56.1218 46.3013 56.0627 46.3763C56.0115 46.4457 55.9843 46.53 55.9854 46.6163C55.9811 46.6846 55.9974 46.7526 56.0322 46.8115C56.0675 46.8669 56.1157 46.9151 56.1768 46.9557C56.2374 46.9953 56.308 47.0297 56.3882 47.0597C56.4679 47.0884 56.5534 47.1122 56.6445 47.1327L57.0187 47.2225C57.2001 47.263 57.3671 47.3174 57.5189 47.3847C57.6707 47.453 57.8024 47.536 57.9136 47.6353C58.0248 47.7341 58.1107 47.851 58.1718 47.9852C58.2343 48.1193 58.2658 48.273 58.2673 48.4467C58.2658 48.7015 58.2009 48.9225 58.072 49.1096C57.9446 49.2957 57.7604 49.4399 57.5189 49.543C57.2788 49.6446 56.9896 49.6957 56.6503 49.6957C56.3143 49.6957 56.0212 49.6442 55.7721 49.5411C55.5239 49.438 55.3296 49.2852 55.1903 49.0834C55.0519 48.88 54.9793 48.6285 54.9726 48.3288H55.8246C55.8341 48.4686 55.8742 48.5851 55.9448 48.6786C56.0164 48.7707 56.1124 48.8404 56.2317 48.8882C56.352 48.934 56.4885 48.9574 56.6402 48.9574C56.7896 48.9574 56.919 48.9354 57.0287 48.892C57.1399 48.8485 57.2258 48.7884 57.2869 48.7111C57.3474 48.6356 57.3798 48.5415 57.3786 48.4448C57.3813 48.3585 57.3515 48.2743 57.295 48.209C57.229 48.1366 57.1467 48.0808 57.055 48.0462C56.9305 47.9949 56.802 47.9541 56.6708 47.9241L56.2174 47.81C55.8661 47.7246 55.5888 47.5909 55.3855 47.4091C55.1822 47.2277 55.081 46.9829 55.0824 46.6755C55.081 46.423 55.1483 46.203 55.2838 46.014C55.4208 45.826 55.6084 45.6785 55.847 45.573C56.0856 45.4671 56.3567 45.4141 56.6608 45.4141C56.9695 45.4141 57.2397 45.4671 57.4702 45.573C57.7022 45.6785 57.8821 45.826 58.011 46.014C58.1398 46.2025 58.2062 46.4211 58.2105 46.6693H57.3662ZM60.5777 49.6365V45.4714H63.3846V46.1973H61.4583V47.19H63.24V47.9159H61.4583V48.9106H63.3927V49.6365H60.5777Z" fill="var(--fill-0, white)"/>
<path id="Vector_10" d="M45.0205 11.9733L39.1324 15.3205C38.916 15.4435 38.6713 15.5079 38.4223 15.5075C38.1734 15.5071 37.9289 15.4418 37.713 15.3181L31.7423 11.8975C31.5236 11.7721 31.3418 11.5912 31.2154 11.373C31.0891 11.1549 31.0225 10.9072 31.0226 10.6551V1.43182C31.0226 1.05208 31.1734 0.687888 31.4419 0.41937C31.7104 0.150852 32.0746 0 32.4544 0L44.3127 0C44.6924 0 45.0566 0.150852 45.3251 0.41937C45.5937 0.687888 45.7445 1.05208 45.7445 1.43182V10.7291C45.7444 10.9819 45.6774 11.2303 45.5502 11.4488C45.4231 11.6674 45.2403 11.8483 45.0205 11.9733Z" fill="var(--fill-0, #FF492C)"/>
<path id="Vector_11" d="M39.3469 2.60582C39.0386 2.52945 38.7302 2.52945 38.4219 2.52945H38.0368C35.5702 2.60629 33.7203 4.68768 33.7971 7.15422C33.8745 9.62077 35.9554 11.4707 38.4219 11.3934C39.3872 11.3963 40.3297 11.1002 41.1199 10.5457L40.1177 8.84997C39.6401 9.24435 39.0412 9.46212 38.4219 9.46661H38.1136C36.7262 9.38929 35.647 8.15602 35.7244 6.76859C35.8012 5.38116 37.0345 4.30204 38.4219 4.37936L39.3469 2.60582Z" fill="var(--fill-0, white)"/>
<path id="Vector_12" d="M42.7389 8.23217L41.583 6.30542H39.4248L38.2683 8.23217H40.5039L41.5825 10.0821L42.7389 8.23217ZM39.9641 4.76335C39.8104 4.99483 39.7331 5.30315 39.7331 5.61147L41.814 5.68879V5.14947H40.427C40.5039 4.91799 40.658 4.84067 40.8895 4.68651L41.1205 4.53235C41.583 4.37819 41.8145 4.06988 41.8145 3.68472C41.8145 3.45324 41.6598 3.22176 41.5057 3.06808C41.3515 2.91392 41.0437 2.8366 40.8122 2.8366C40.5812 2.8366 40.3497 2.8366 40.1187 2.99076C39.9641 3.14492 39.8099 3.29908 39.7331 3.45372L40.1187 3.83888C40.2724 3.53056 40.5039 3.37592 40.8122 3.37592C40.9664 3.37592 41.1978 3.53056 41.1978 3.68472C41.1978 3.83888 41.1205 3.91572 40.8122 4.06988L40.658 4.14719C40.427 4.30135 40.1187 4.53235 39.9641 4.76383V4.76335Z" fill="var(--fill-0, white)"/>
<path id="Vector_13" d="M4.77255 52.9773H7.15891V55.3636L4.77255 52.9773ZM72.068 52.9773H69.6816V55.3636L72.068 52.9773Z" fill="var(--fill-0, #237452)"/>
</g>
<defs>
<clipPath id="clip0_150_7548">
<rect width="76.3636" height="84" fill="white"/>
</clipPath>
</defs>
</svg>
