<svg preserveAspectRatio="none" width="100%" height="100%" overflow="visible" style="display: block;" viewBox="0 0 77 84" fill="none" xmlns="http://www.w3.org/2000/svg">
<g id="Ease of use -" clip-path="url(#clip0_150_7563)">
<path id="Vector" d="M76.1607 54.6382C76.2047 54.7105 76.2287 54.7933 76.2302 54.878C76.2317 54.9627 76.2106 55.0463 76.1691 55.1201C76.1276 55.194 76.0672 55.2555 75.9941 55.2983C75.921 55.3411 75.8378 55.3636 75.7531 55.3636H67.2953C67.1688 55.3636 67.0474 55.3134 66.9579 55.2238C66.8684 55.1343 66.8181 55.0129 66.8181 54.8864V44.8636C66.8181 44.7371 66.8684 44.6157 66.9579 44.5262C67.0474 44.4366 67.1688 44.3864 67.2953 44.3864H75.7531C75.8378 44.3864 75.921 44.4089 75.9941 44.4517C76.0672 44.4945 76.1276 44.556 76.1691 44.6299C76.2106 44.7037 76.2317 44.7873 76.2302 44.872C76.2287 44.9567 76.2047 45.0395 76.1607 45.1118L73.4121 49.6268C73.3666 49.7016 73.3426 49.7875 73.3426 49.875C73.3426 49.9625 73.3666 50.0484 73.4121 50.1232L76.1607 54.6382ZM0.441362 45.1118C0.39729 45.0394 0.373291 44.9566 0.37183 44.8719C0.37037 44.7871 0.391502 44.7035 0.433053 44.6296C0.474605 44.5558 0.535077 44.4943 0.608255 44.4516C0.681433 44.4088 0.764677 44.3863 0.84943 44.3864H9.3067C9.43328 44.3864 9.55468 44.4366 9.64419 44.5262C9.73369 44.6157 9.78398 44.7371 9.78398 44.8636V54.8864C9.78398 55.0129 9.73369 55.1343 9.64419 55.2238C9.55468 55.3134 9.43328 55.3636 9.3067 55.3636H0.84943C0.764677 55.3637 0.681433 55.3412 0.608255 55.2985C0.535077 55.2557 0.474605 55.1942 0.433053 55.1204C0.391502 55.0465 0.37037 54.9629 0.37183 54.8781C0.373291 54.7934 0.39729 54.7106 0.441362 54.6382L3.18998 50.1232C3.2355 50.0484 3.25958 49.9625 3.25958 49.875C3.25958 49.7875 3.2355 49.7016 3.18998 49.6268L0.441362 45.1118Z" fill="var(--fill-0, #EBC514)"/>
<path id="Vector_2" d="M7.15891 8.11364C7.15891 4.95075 9.7233 2.38636 12.8862 2.38636H63.9544C67.1173 2.38636 69.6816 4.95075 69.6816 8.11364V61.8526C69.6817 62.8416 69.4257 63.8137 68.9385 64.6744C68.4513 65.535 67.7495 66.2549 66.9015 66.7638L41.1512 82.2179C40.2553 82.7555 39.2294 83.0378 38.1846 83.0342C37.1397 83.0307 36.1158 82.7415 35.2235 82.1978L9.90562 66.769C9.06681 66.2578 8.37359 65.5395 7.89258 64.683C7.41156 63.8265 7.15891 62.8607 7.15891 61.8784V8.11364Z" fill="var(--fill-0, #FEFCF4)"/>
<path id="Vector_3" d="M69.6816 21.7159L19.054 72.3436L9.90562 66.769C9.06681 66.2578 8.37359 65.5394 7.89258 64.683C7.41156 63.8265 7.15891 62.8607 7.15891 61.8784V49.6364L54.4089 2.38636H63.9544C67.1173 2.38636 69.6816 4.95075 69.6816 8.11364V21.7159Z" fill="var(--fill-0, white)"/>
<path id="Vector_4" opacity="0.8" d="M26.467 76.8619L21.574 73.8799L69.6812 25.7727V33.6477L26.467 76.8619Z" fill="var(--fill-0, white)"/>
<path id="Vector_5" d="M12.8862 3.10227H63.9544C66.7221 3.10227 68.9657 5.34593 68.9657 8.11364V61.8526C68.9657 63.6128 68.0422 65.2441 66.5331 66.15L40.7833 81.6036C39.9993 82.0741 39.1016 82.3213 38.1874 82.3182C37.2731 82.3152 36.377 82.0621 35.5963 81.5864L10.2784 66.1576C9.54439 65.7104 8.93779 65.0818 8.51687 64.3324C8.09595 63.583 7.87485 62.7379 7.87482 61.8784V8.11364C7.87482 5.34593 10.1185 3.10227 12.8862 3.10227Z" stroke="var(--stroke-0, #EADEA6)" stroke-width="1.43182"/>
<path id="Vector_6" d="M4.77255 42.9545C4.77255 42.7014 4.87312 42.4586 5.05213 42.2796C5.23114 42.1006 5.47393 42 5.7271 42H71.1135C71.3666 42 71.6094 42.1006 71.7884 42.2796C71.9674 42.4586 72.068 42.7014 72.068 42.9545V52.9773H4.77255V42.9545Z" fill="var(--fill-0, #FFD200)"/>
<path id="Vector_7" d="M23.478 49.6366L22.2862 45.4714H23.2484L23.9376 48.3656H23.9724L24.7332 45.4714H25.5565L26.3154 48.3713H26.3521L27.0413 45.4714H28.0035L26.8117 49.6366H25.9531L25.1604 46.9133H25.1274L24.3366 49.6366H23.478ZM31.1883 45.4714V49.6366H30.3073V45.4714H31.1883ZM37.2292 45.4714V49.6366H36.4689L34.6567 47.0149H34.6261V49.6366H33.7455V45.4714H34.5182L36.3161 48.0907H36.3529V45.4714H37.2292ZM39.6308 46.1973V45.4714H43.0519V46.1973H41.7766V49.6366H40.9065V46.1973H39.6308ZM45.4483 49.6366V45.4714H48.2546V46.1973H46.3288V47.1901H48.1105V47.916H46.3288V48.9106H48.2627V49.6366H45.4483ZM50.7875 49.6366V45.4714H52.4308C52.7453 45.4714 53.014 45.5277 53.2364 45.6399C53.4602 45.7511 53.6302 45.9091 53.7466 46.1138C53.865 46.3176 53.9237 46.5567 53.9237 46.8321C53.9237 47.1089 53.864 47.3466 53.7447 47.5456C53.6254 47.7437 53.4526 47.8955 53.2264 48.0014C53.0011 48.1069 52.7286 48.1599 52.4088 48.1599H51.3082V47.4521H52.2661C52.4341 47.4521 52.574 47.4292 52.6852 47.3829C52.7964 47.3371 52.8789 47.2679 52.9333 47.1758C52.9887 47.0836 53.0169 46.9691 53.0169 46.8321C53.0169 46.6937 52.9887 46.5773 52.9333 46.4823C52.8761 46.3847 52.7882 46.3088 52.6832 46.2665C52.572 46.2164 52.4317 46.1911 52.2623 46.1911H51.6681V49.6366H50.7875ZM53.0369 47.7408L54.0721 49.6366H53.0999L52.0871 47.7408H53.0369Z" fill="var(--fill-0, #222222)"/>
<path id="Vector_8" d="M45.0205 11.9733L39.1324 15.3205C38.916 15.4435 38.6713 15.5079 38.4223 15.5075C38.1734 15.5071 37.9289 15.4418 37.713 15.3181L31.7423 11.8975C31.5236 11.7721 31.3418 11.5912 31.2154 11.373C31.0891 11.1549 31.0225 10.9072 31.0226 10.6551V1.43182C31.0226 1.05208 31.1734 0.687888 31.4419 0.41937C31.7104 0.150852 32.0746 0 32.4544 0L44.3127 0C44.6924 0 45.0566 0.150852 45.3251 0.41937C45.5937 0.687888 45.7445 1.05208 45.7445 1.43182V10.7291C45.7444 10.9819 45.6774 11.2303 45.5502 11.4488C45.4231 11.6674 45.2403 11.8483 45.0205 11.9733Z" fill="var(--fill-0, #FF492C)"/>
<path id="Vector_9" d="M39.3469 2.60582C39.0386 2.52945 38.7302 2.52945 38.4219 2.52945H38.0368C35.5702 2.60629 33.7203 4.68768 33.7971 7.15422C33.8745 9.62077 35.9554 11.4707 38.4219 11.3934C39.3872 11.3963 40.3297 11.1002 41.1199 10.5457L40.1177 8.84997C39.6401 9.24435 39.0412 9.46212 38.4219 9.46661H38.1136C36.7262 9.38929 35.647 8.15602 35.7244 6.76859C35.8012 5.38116 37.0345 4.30204 38.4219 4.37936L39.3469 2.60582Z" fill="var(--fill-0, white)"/>
<path id="Vector_10" d="M42.7389 8.23217L41.583 6.30542H39.4248L38.2683 8.23217H40.5039L41.5825 10.0821L42.7389 8.23217ZM39.9641 4.76335C39.8104 4.99483 39.7331 5.30315 39.7331 5.61147L41.814 5.68879V5.14947H40.427C40.5039 4.91799 40.658 4.84067 40.8895 4.68651L41.1205 4.53235C41.583 4.37819 41.8145 4.06988 41.8145 3.68472C41.8145 3.45324 41.6598 3.22176 41.5057 3.06808C41.3515 2.91392 41.0437 2.8366 40.8122 2.8366C40.5812 2.8366 40.3497 2.8366 40.1187 2.99076C39.9641 3.14492 39.8099 3.29908 39.7331 3.45372L40.1187 3.83888C40.2724 3.53056 40.5039 3.37592 40.8122 3.37592C40.9664 3.37592 41.1978 3.53056 41.1978 3.68472C41.1978 3.83888 41.1205 3.91572 40.8122 4.06988L40.658 4.14719C40.427 4.30135 40.1187 4.53235 39.9641 4.76383V4.76335Z" fill="var(--fill-0, white)"/>
<path id="Vector_11" d="M4.77255 52.9773H7.15891V55.3636L4.77255 52.9773ZM72.068 52.9773H69.6816V55.3636L72.068 52.9773Z" fill="var(--fill-0, #C0A421)"/>
<path id="Vector_12" d="M26.7005 23.0932C27.0097 23.0932 27.2675 23.076 27.4737 23.0417C27.6856 23.0016 27.8517 22.9414 27.9719 22.8613C28.0912 22.789 28.1845 22.6807 28.2382 22.552C28.2955 22.426 28.3242 22.2771 28.3242 22.1053H28.6248V24.4506H28.3242C28.3242 24.2788 28.2984 24.1298 28.2468 24.0038C28.1983 23.8746 28.1075 23.7656 27.9891 23.6946C27.8688 23.6087 27.7027 23.5457 27.4908 23.5056C27.2847 23.4598 27.0212 23.4368 26.7005 23.4368V25.3784C26.7005 25.5674 26.7234 25.7249 26.7692 25.8509C26.815 25.9712 26.8923 26.0714 27.0012 26.1516C27.1157 26.226 27.2646 26.2804 27.4479 26.3148C27.6312 26.3434 27.8574 26.3578 28.1266 26.3578C28.4301 26.3578 28.6878 26.3377 28.8997 26.2976C29.1117 26.2518 29.2892 26.1773 29.4324 26.0743C29.5756 25.9712 29.6901 25.8366 29.776 25.6705C29.8619 25.4987 29.9335 25.2868 29.9908 25.0348H30.3172L30.1884 26.7272H24.8534V26.4007C25.0539 26.395 25.2142 26.3778 25.3345 26.3492C25.4605 26.3205 25.5579 26.2718 25.6266 26.2031C25.6953 26.1344 25.7412 26.037 25.7641 25.911C25.787 25.785 25.7984 25.6218 25.7984 25.4213V21.418C25.7984 21.2175 25.787 21.0572 25.7641 20.9369C25.7469 20.8109 25.7068 20.7135 25.6438 20.6448C25.5865 20.5703 25.5006 20.5217 25.3861 20.4988C25.2392 20.4656 25.0897 20.4455 24.9393 20.4386V20.1122H29.9049L29.9822 21.6242H29.6815C29.6472 21.3951 29.5899 21.2089 29.5097 21.0658C29.4389 20.9209 29.3287 20.7988 29.1918 20.7135C29.0601 20.6276 28.8912 20.5675 28.685 20.5331C28.4376 20.4958 28.1877 20.4785 27.9376 20.4816H26.846C26.7487 20.4816 26.7 20.5303 26.7 20.6276L26.7005 23.0932ZM33.5264 24.1843C33.2 24.3103 32.9222 24.4334 32.6931 24.5537C32.4999 24.6536 32.3184 24.7746 32.1519 24.9145C32.0144 25.0348 31.9142 25.155 31.8512 25.2753C31.7939 25.3956 31.7653 25.5187 31.7653 25.6447C31.7653 25.8337 31.8283 25.9883 31.9543 26.1086C32.0803 26.2289 32.2464 26.289 32.4526 26.289C32.6015 26.289 32.7389 26.2518 32.8649 26.1773C32.9967 26.1029 33.1112 26.0027 33.2086 25.8767C33.3059 25.7449 33.3832 25.5932 33.4405 25.4213C33.4978 25.2438 33.5264 25.0577 33.5264 24.8629V24.1843ZM33.5264 23.8148V23.4626C33.5264 22.7639 33.2286 22.4145 32.633 22.4145C32.5492 22.4131 32.4655 22.4217 32.3838 22.4403C32.3205 22.4548 32.2616 22.4842 32.212 22.5262C32.1593 22.5754 32.1156 22.6336 32.0832 22.698C32.0431 22.7874 32.0087 22.8793 31.9801 22.9729C31.9171 23.139 31.8541 23.2507 31.7911 23.308C31.7338 23.3595 31.6479 23.3853 31.5333 23.3853C31.247 23.3853 31.1038 23.2421 31.1038 22.9558C31.1038 22.6808 31.2498 22.4689 31.5419 22.32C31.834 22.1654 32.2492 22.0881 32.7876 22.0881C33.3603 22.0881 33.767 22.1912 34.0075 22.3973C34.2481 22.5978 34.3683 22.9414 34.3683 23.4283V25.3526C34.3683 26.0055 34.4972 26.332 34.7549 26.332C34.8351 26.332 34.9124 26.3234 34.9869 26.3062C35.0613 26.2833 35.1243 26.2289 35.1759 26.143L35.2962 26.3492C35.2274 26.4809 35.1014 26.5926 34.9182 26.6842C34.7349 26.7701 34.543 26.8131 34.3426 26.8131C34.0906 26.8131 33.9016 26.7329 33.7756 26.5725C33.6553 26.4122 33.5952 26.1859 33.5952 25.8938H33.5522C33.4091 26.1681 33.1956 26.3994 32.9337 26.5639C32.6698 26.7244 32.3662 26.8077 32.0574 26.8045C31.6966 26.8045 31.4131 26.7128 31.2069 26.5296C31.0007 26.3463 30.8976 26.1 30.8976 25.7908C30.8976 25.6533 30.9205 25.5216 30.9663 25.3956C31.0233 25.2614 31.1049 25.139 31.2069 25.0348C31.3157 24.9202 31.4589 24.8085 31.6364 24.6997C31.814 24.5852 32.0316 24.4706 32.2893 24.3561L33.5264 23.8148ZM35.8522 26.7272H35.6632V25.2495H35.878C36.1013 26.0571 36.508 26.4608 37.0979 26.4608C37.327 26.4608 37.5074 26.4064 37.6391 26.2976C37.7765 26.1831 37.8453 26.0113 37.8453 25.7822C37.8453 25.6963 37.8309 25.6247 37.8023 25.5674C37.7794 25.5044 37.7307 25.4414 37.6563 25.3784C37.564 25.2913 37.4633 25.2136 37.3556 25.1464C37.2296 25.0605 37.0606 24.9517 36.8487 24.82C36.6759 24.7142 36.5069 24.6025 36.3419 24.4849C36.2121 24.3934 36.0913 24.2899 35.981 24.1757C35.8883 24.0741 35.8129 23.958 35.7577 23.832C35.7094 23.6971 35.6861 23.5544 35.6889 23.4111C35.6889 23.2163 35.7204 23.0388 35.7834 22.8784C35.8433 22.7234 35.9345 22.5824 36.0512 22.4641C36.168 22.3459 36.3079 22.253 36.4621 22.1912C36.6219 22.1214 36.7947 22.0862 36.969 22.0881C37.1236 22.0881 37.284 22.1138 37.4501 22.1654C37.6162 22.2112 37.7622 22.2742 37.8882 22.3544L38.06 22.174H38.2233V23.4111H37.9999C37.8739 23.0617 37.7364 22.8126 37.5875 22.6637C37.516 22.5909 37.4303 22.5335 37.3357 22.4951C37.2412 22.4567 37.1398 22.438 37.0377 22.4403C36.843 22.4403 36.6855 22.4918 36.5652 22.5949C36.4507 22.698 36.3934 22.8412 36.3934 23.0245C36.3934 23.1218 36.4077 23.2078 36.4364 23.2822C36.4707 23.3509 36.5223 23.4197 36.591 23.4884C36.6597 23.5571 36.7456 23.6287 36.8487 23.7032C36.9575 23.7719 37.0864 23.8521 37.2353 23.9437C37.4816 24.0983 37.6906 24.2358 37.8624 24.3561C38.04 24.4763 38.1832 24.5966 38.292 24.7169C38.4008 24.8314 38.481 24.9517 38.5325 25.0777C38.5841 25.2037 38.6099 25.3469 38.6099 25.5073C38.6099 25.9139 38.4781 26.2346 38.2147 26.4694C37.9512 26.6985 37.6047 26.8131 37.1752 26.8131C36.7284 26.8131 36.3447 26.6842 36.024 26.4265L35.8522 26.7272ZM40.8015 25.3612C40.8015 25.5846 40.8101 25.765 40.8273 25.9024C40.8502 26.0342 40.8903 26.1401 40.9475 26.2203C41.0048 26.2948 41.085 26.3463 41.1881 26.3749C41.2912 26.4036 41.4286 26.4208 41.6004 26.4265V26.7272H39.1349V26.4265C39.3067 26.4208 39.447 26.4036 39.5558 26.3749C39.6646 26.3406 39.7477 26.289 39.8049 26.2203C39.8679 26.1458 39.908 26.0456 39.9252 25.9196C39.9481 25.7879 39.9596 25.6218 39.9596 25.4213V24.3217C39.9596 23.9895 39.9539 23.7175 39.9424 23.5056C39.9367 23.2879 39.9224 23.139 39.8994 23.0588C39.8708 22.9271 39.8049 22.8383 39.7019 22.7925C39.5988 22.741 39.404 22.7152 39.1177 22.7152V22.4145L40.8015 22.0881V25.3612ZM39.8135 20.3441C39.8135 20.1952 39.8651 20.0692 39.9682 19.9661C40.0713 19.863 40.1973 19.8115 40.3462 19.8115C40.4951 19.8115 40.6211 19.863 40.7242 19.9661C40.8273 20.0692 40.8788 20.1952 40.8788 20.3441C40.8788 20.493 40.8273 20.619 40.7242 20.7221C40.6211 20.8252 40.4951 20.8768 40.3462 20.8768C40.1973 20.8768 40.0713 20.8252 39.9682 20.7221C39.9179 20.673 39.8783 20.6141 39.8517 20.5491C39.8251 20.4841 39.8121 20.4143 39.8135 20.3441ZM46.083 25.9282C45.5962 26.5181 44.9924 26.8131 44.2708 26.8131C43.9324 26.8131 43.6265 26.7587 43.3511 26.6498C43.0848 26.5408 42.8426 26.3803 42.6385 26.1773C42.4405 25.966 42.2859 25.7179 42.1832 25.4471C42.0714 25.1448 42.0159 24.8245 42.0195 24.5021C42.0195 24.1528 42.0768 23.8292 42.1913 23.5313C42.2978 23.2463 42.4615 22.9861 42.6724 22.7668C42.8867 22.5533 43.1408 22.384 43.4203 22.2685C43.7232 22.1461 44.0472 22.0848 44.3739 22.0881C44.9289 22.0881 45.359 22.2398 45.6625 22.5434C45.9661 22.8412 46.1178 23.2708 46.1178 23.832C46.1178 23.9122 46.1002 23.9609 46.0658 23.9781C46.0372 23.9953 45.9656 24.0038 45.851 24.0038H43.0256C43.0123 24.0603 43.0036 24.1178 42.9993 24.1757C42.9934 24.2471 42.9907 24.3188 42.9912 24.3904C42.9912 24.6883 43.0256 24.9603 43.0943 25.2066C43.1683 25.4471 43.2714 25.6533 43.4031 25.8251C43.5406 25.9969 43.7009 26.1315 43.8842 26.2289C44.0802 26.322 44.2949 26.369 44.5118 26.3663C44.7519 26.3663 44.9752 26.3148 45.1814 26.2117C45.3881 26.1029 45.6 25.9282 45.8176 25.6877L46.0839 25.9282H46.083ZM44.6655 23.6087C44.78 23.6087 44.8722 23.6058 44.9404 23.6001C44.9938 23.5981 45.0463 23.5864 45.0955 23.5657C45.1262 23.5522 45.1508 23.5277 45.1642 23.497C45.1766 23.4552 45.1822 23.4117 45.1809 23.3681C45.1809 23.1047 45.095 22.8956 44.9232 22.741C44.7571 22.5806 44.528 22.5004 44.2359 22.5004C43.6174 22.5004 43.2337 22.8698 43.0848 23.6087H44.6655ZM47.09 26.7272H46.9015V25.2495H47.1163C47.3397 26.0571 47.7463 26.4608 48.3362 26.4608C48.5653 26.4608 48.7457 26.4064 48.8774 26.2976C49.0149 26.1831 49.0836 26.0113 49.0836 25.7822C49.0836 25.6963 49.0693 25.6247 49.0407 25.5674C49.0177 25.5044 48.9691 25.4414 48.8946 25.3784C48.8023 25.2913 48.7016 25.2136 48.5939 25.1464C48.4679 25.0605 48.299 24.9517 48.0871 24.82C47.9143 24.7142 47.7452 24.6025 47.5802 24.4849C47.4505 24.3934 47.3297 24.2899 47.2194 24.1757C47.1267 24.0741 47.0512 23.958 46.996 23.832C46.9477 23.6971 46.9244 23.5544 46.9273 23.4111C46.9273 23.2163 46.9588 23.0388 47.0218 22.8784C47.0817 22.7234 47.1728 22.5824 47.2896 22.4641C47.4063 22.3459 47.5462 22.253 47.7005 22.1912C47.8602 22.1214 48.033 22.0862 48.2073 22.0881C48.362 22.0881 48.5223 22.1138 48.6884 22.1654C48.8545 22.2112 49.0006 22.2742 49.1266 22.3544L49.2984 22.174H49.4616V23.4111H49.2382C49.1122 23.0617 48.9748 22.8126 48.8259 22.6637C48.7543 22.5909 48.6687 22.5335 48.5741 22.4951C48.4795 22.4567 48.3781 22.438 48.2761 22.4403C48.0813 22.4403 47.9238 22.4918 47.8036 22.5949C47.689 22.698 47.6317 22.8412 47.6317 23.0245C47.6317 23.1218 47.6461 23.2078 47.6747 23.2822C47.7091 23.3509 47.7606 23.4197 47.8293 23.4884C47.8981 23.5571 47.984 23.6287 48.0871 23.7032C48.1959 23.7719 48.3247 23.8521 48.4737 23.9437C48.7199 24.0983 48.929 24.2358 49.1008 24.3561C49.2783 24.4763 49.4215 24.5966 49.5303 24.7169C49.6392 24.8314 49.7193 24.9517 49.7709 25.0777C49.8224 25.2037 49.8482 25.3469 49.8482 25.5073C49.8482 25.9139 49.7165 26.2346 49.453 26.4694C49.1896 26.6985 48.8431 26.8131 48.4135 26.8131C47.9668 26.8131 47.5831 26.6842 47.2623 26.4265L47.09 26.7272ZM50.4247 22.7152V22.3973C50.7283 22.2198 50.966 22.0423 51.1378 21.8647C51.3124 21.6827 51.447 21.4661 51.533 21.229H51.7821V22.3114H52.9333V22.7152H51.7821V25.3268C51.7821 25.5273 51.7907 25.6963 51.8079 25.8337C51.8308 25.9712 51.8652 26.0828 51.911 26.1688C51.9513 26.2438 52.0145 26.3039 52.0914 26.3406C52.1658 26.3749 52.2603 26.3921 52.3749 26.3921C52.5181 26.3921 52.6383 26.3635 52.7357 26.3062C52.8388 26.2432 52.939 26.1401 53.0364 25.9969L53.2512 26.1602C53.174 26.3685 53.0246 26.5423 52.8302 26.6498C52.6355 26.7587 52.3921 26.8131 52.1 26.8131C51.722 26.8131 51.4327 26.7243 51.2323 26.5468C51.0376 26.3635 50.9402 26.1029 50.9402 25.765V22.7152H50.4247ZM26.7129 31.3061V30.9883C27.0164 30.8107 27.2541 30.6332 27.4259 30.4556C27.6005 30.2736 27.7351 30.057 27.8211 29.8199H28.0702V30.9023H29.2214V31.3061H28.0702V33.9178C28.0702 34.1182 28.0788 34.2872 28.096 34.4246C28.1189 34.5621 28.1533 34.6738 28.1991 34.7597C28.2394 34.8347 28.3026 34.8948 28.3795 34.9315C28.454 34.9658 28.5485 34.983 28.663 34.983C28.8062 34.983 28.9265 34.9544 29.0238 34.8971C29.1269 34.8341 29.2272 34.731 29.3245 34.5878L29.5393 34.7511C29.4621 34.9594 29.3128 35.1332 29.1183 35.2408C28.9236 35.3496 28.6802 35.404 28.3881 35.404C28.0101 35.404 27.7209 35.3152 27.5204 35.1377C27.3257 34.9544 27.2283 34.6938 27.2283 34.3559V31.3061H26.7129ZM32.2359 30.679C32.5623 30.679 32.8716 30.7391 33.1637 30.8594C33.4558 30.9739 33.7107 31.1343 33.9283 31.3405C34.1517 31.5467 34.3263 31.7929 34.4523 32.0793C34.5841 32.3599 34.6499 32.6692 34.6499 33.0071C34.6499 33.3565 34.5841 33.6772 34.4523 33.9693C34.3311 34.2545 34.1528 34.5118 33.9283 34.7253C33.7079 34.939 33.4482 35.1082 33.1637 35.2236C32.8693 35.3443 32.554 35.4056 32.2359 35.404C31.9152 35.404 31.6087 35.3467 31.3167 35.2322C31.0303 35.1119 30.7783 34.9458 30.5607 34.7339C30.3406 34.5184 30.1654 34.2615 30.0452 33.9779C29.9173 33.6704 29.853 33.3402 29.8562 33.0071C29.8562 32.6692 29.9192 32.3571 30.0452 32.0707C30.1656 31.7923 30.3409 31.541 30.5607 31.3319C30.7797 31.1248 31.0363 30.9615 31.3167 30.8508C31.6095 30.7361 31.9214 30.6778 32.2359 30.679ZM32.2359 31.0913C32.024 31.0913 31.8292 31.1372 31.6517 31.2288C31.4799 31.3204 31.331 31.4522 31.205 31.624C31.0847 31.7901 30.9902 31.9934 30.9215 32.2339C30.8559 32.4893 30.8242 32.7521 30.827 33.0157C30.827 33.3135 30.8585 33.5827 30.9215 33.8233C30.9902 34.0638 31.0847 34.27 31.205 34.4418C31.331 34.6079 31.4799 34.7368 31.6517 34.8284C31.8235 34.92 32.0182 34.9658 32.2359 34.9658C32.4535 34.9658 32.6511 34.92 32.8287 34.8284C33.0062 34.7368 33.158 34.605 33.284 34.4332C33.41 34.2614 33.5073 34.0552 33.5761 33.8147C33.6474 33.5544 33.6821 33.2855 33.6792 33.0157C33.6792 32.7293 33.6448 32.4688 33.5761 32.2339C33.5162 32.0173 33.4173 31.8135 33.284 31.6326C33.1652 31.467 33.0093 31.3317 32.8287 31.2374C32.6468 31.1389 32.4427 31.0887 32.2359 31.0913ZM41.1657 32.1394C41.1657 31.9046 41.1599 31.7213 41.1485 31.5896C41.137 31.4522 41.1055 31.3491 41.054 31.2803C41.03 31.2426 40.9986 31.2102 40.9617 31.1851C40.9248 31.16 40.8831 31.1427 40.8392 31.1343C40.7128 31.0992 40.5834 31.0762 40.4526 31.0656V30.7649H42.0076V33.4023C42.0076 33.7288 42.0104 33.9951 42.0162 34.2013C42.0276 34.4074 42.0419 34.5621 42.0591 34.6652C42.0706 34.7396 42.0877 34.7998 42.1107 34.8456C42.1425 34.8885 42.1836 34.9237 42.2309 34.9487C42.2825 34.9716 42.3483 34.9888 42.4285 35.0002C42.5144 35.0059 42.6232 35.0088 42.755 35.0088V35.3095L41.3375 35.4126L41.243 34.3817H41.2086C40.991 34.7368 40.739 34.9973 40.4526 35.1634C40.1841 35.3205 39.8788 35.4035 39.5677 35.404C39.3272 35.404 39.0924 35.3582 38.8633 35.2665C38.6399 35.1749 38.471 35.0518 38.3564 34.8971C38.2591 34.7711 38.1875 34.5964 38.1417 34.3731C38.1016 34.1497 38.0815 33.8605 38.0815 33.5054V32.1394C38.0815 31.9046 38.0758 31.7213 38.0643 31.5896C38.0529 31.4522 38.0214 31.3491 37.9698 31.2803C37.9459 31.2426 37.9145 31.2102 37.8776 31.1851C37.8406 31.16 37.7989 31.1427 37.7551 31.1343C37.6287 31.0992 37.4992 31.0762 37.3685 31.0656V30.7649H38.9234V33.1102C38.9234 33.7345 38.995 34.1869 39.1382 34.4676C39.2871 34.7482 39.5219 34.8885 39.8427 34.8885C40.3467 34.8885 40.739 34.5592 41.0196 33.9006C41.0729 33.7799 41.1104 33.6528 41.1313 33.5226C41.1427 33.4538 41.1513 33.3765 41.1571 33.2906C41.1628 33.2047 41.1657 33.1016 41.1657 32.9813V32.1394ZM43.51 35.3181H43.321V33.8404H43.5358C43.7592 34.648 44.1658 35.0518 44.7557 35.0518C44.9848 35.0518 45.1652 34.9973 45.2969 34.8885C45.4344 34.774 45.5031 34.6022 45.5031 34.3731C45.5031 34.2872 45.4888 34.2156 45.4602 34.1583C45.4372 34.0953 45.3886 34.0323 45.3141 33.9693C45.2218 33.8822 45.1211 33.8045 45.0134 33.7373C44.8874 33.6514 44.7185 33.5426 44.5066 33.4109C44.3338 33.3051 44.1647 33.1934 43.9997 33.0758C43.87 32.9843 43.7492 32.8808 43.6389 32.7666C43.5462 32.665 43.4707 32.5489 43.4155 32.4229C43.3672 32.288 43.3439 32.1453 43.3468 32.002C43.3468 31.8073 43.3783 31.6297 43.4413 31.4693C43.5012 31.3143 43.5923 31.1733 43.7091 31.055C43.8258 30.9368 43.9657 30.8439 44.12 30.7821C44.2797 30.7123 44.4525 30.6771 44.6268 30.679C44.7815 30.679 44.9418 30.7048 45.1079 30.7563C45.274 30.8021 45.4201 30.8651 45.5461 30.9453L45.7179 30.7649H45.8811V32.002H45.6577C45.5317 31.6526 45.3943 31.4035 45.2454 31.2546C45.1738 31.1818 45.0882 31.1244 44.9936 31.086C44.899 31.0476 44.7976 31.0289 44.6956 31.0312C44.5008 31.0312 44.3433 31.0828 44.2231 31.1858C44.1085 31.2889 44.0512 31.4321 44.0512 31.6154C44.0512 31.7128 44.0656 31.7987 44.0942 31.8731C44.1286 31.9418 44.1801 32.0106 44.2488 32.0793C44.3176 32.148 44.4035 32.2196 44.5066 32.2941C44.6154 32.3628 44.7442 32.443 44.8932 32.5346C45.1394 32.6893 45.3485 32.8267 45.5203 32.947C45.6978 33.0673 45.841 33.1875 45.9498 33.3078C46.0587 33.4223 46.1388 33.5426 46.1904 33.6686C46.2419 33.7946 46.2677 33.9378 46.2677 34.0982C46.2677 34.5048 46.136 34.8255 45.8725 35.0603C45.6091 35.2894 45.2626 35.404 44.833 35.404C44.3863 35.404 44.0026 35.2751 43.6818 35.0174L43.51 35.3181ZM50.9851 34.5191C50.4982 35.109 49.894 35.404 49.1724 35.404C48.8345 35.404 48.5281 35.3496 48.2532 35.2408C47.9866 35.1318 47.7443 34.9712 47.5401 34.7683C47.3421 34.5569 47.1875 34.3088 47.0848 34.038C46.9732 33.7356 46.9178 33.4153 46.9216 33.093C46.9216 32.7437 46.9788 32.4201 47.0934 32.1223C47.1999 31.8372 47.3636 31.577 47.5745 31.3577C47.7886 31.1443 48.0425 30.975 48.3219 30.8594C48.6248 30.737 48.9488 30.6757 49.2755 30.679C49.831 30.679 50.2606 30.8308 50.5641 31.1343C50.8677 31.4321 51.0194 31.8617 51.0194 32.4229C51.0194 32.5031 51.0022 32.5518 50.9679 32.569C50.9392 32.5862 50.8677 32.5948 50.7531 32.5948H47.9267C47.9136 32.6513 47.905 32.7087 47.9009 32.7666C47.8949 32.838 47.892 32.9097 47.8923 32.9813C47.8923 33.2792 47.9267 33.5512 47.9954 33.7975C48.0699 34.038 48.173 34.2442 48.3047 34.416C48.4422 34.5878 48.6025 34.7224 48.7858 34.8198C48.9748 34.9114 49.1838 34.9573 49.4129 34.9573C49.6535 34.9573 49.8768 34.9057 50.083 34.8026C50.2892 34.6938 50.5011 34.5191 50.7187 34.2786L50.9851 34.5191ZM49.5676 32.1996C49.6821 32.1996 49.7737 32.1967 49.8425 32.191C49.8957 32.1889 49.948 32.1773 49.9971 32.1566C50.0278 32.1431 50.0524 32.1186 50.0658 32.0879C50.0783 32.0461 50.0841 32.0026 50.083 31.959C50.083 31.6956 49.9971 31.4865 49.8253 31.3319C49.6592 31.1715 49.4301 31.0913 49.138 31.0913C48.5195 31.0913 48.1357 31.4608 47.9868 32.1996H49.5676ZM29.5407 65.9762H31.2503C31.3878 65.9762 31.508 65.9647 31.6111 65.9418C31.7142 65.9132 31.8059 65.8616 31.886 65.7872C31.9662 65.7127 32.0378 65.6125 32.1008 65.4865C32.1752 65.325 32.2384 65.1585 32.2898 64.9882H32.6077L32.2812 66.8181H28.2864V66.5346C28.9394 65.9504 29.4749 65.4407 29.8929 65.0054C30.3168 64.5644 30.6489 64.1692 30.8895 63.8198C31.13 63.4705 31.2961 63.1498 31.3878 62.8577C31.4785 62.5656 31.5249 62.2615 31.5252 61.9556C31.5252 61.5089 31.4193 61.1567 31.2074 60.8989C31.0012 60.6412 30.7177 60.5123 30.3569 60.5123C30.0132 60.5123 29.7326 60.624 29.5149 60.8474C29.303 61.0708 29.1971 61.36 29.1971 61.7151C29.1971 62.0243 29.2801 62.2706 29.4462 62.4539C29.618 62.6372 29.85 62.7288 30.1421 62.7288C30.1134 62.8663 30.039 62.9779 29.9187 63.0638C29.7984 63.144 29.6495 63.1841 29.472 63.1841C29.318 63.1855 29.1655 63.1532 29.0253 63.0896C28.8914 63.025 28.7717 62.9345 28.673 62.8233C28.5726 62.7034 28.4941 62.5667 28.4411 62.4195C28.3881 62.2499 28.3621 62.0731 28.3638 61.8955C28.3638 61.6378 28.4182 61.4001 28.527 61.1824C28.6358 60.9648 28.7847 60.7787 28.9737 60.624C29.1722 60.4583 29.3993 60.3302 29.6438 60.246C29.9176 60.1527 30.2051 60.1062 30.4943 60.1086C30.7979 60.1086 31.0756 60.1544 31.3276 60.246C31.5796 60.3377 31.7973 60.4665 31.9805 60.6326C32.1638 60.7987 32.3041 60.9963 32.4015 61.2254C32.5046 61.4488 32.5561 61.6979 32.5561 61.9728C32.5561 62.3279 32.4759 62.6773 32.3156 63.0209C32.1457 63.3827 31.9291 63.7206 31.6713 64.026C31.3756 64.3735 31.0539 64.698 30.7091 64.9968C30.3425 65.3118 29.9502 65.6239 29.5321 65.9332L29.5407 65.9762ZM36.2178 60.1172C36.5671 60.1172 36.8964 60.2059 37.2057 60.3835C37.5228 60.568 37.7978 60.8168 38.0133 61.1137C38.2424 61.423 38.4228 61.7867 38.5545 62.2048C38.6919 62.6228 38.7607 63.0753 38.7607 63.5621C38.7607 64.026 38.6919 64.4613 38.5545 64.8679C38.4228 65.2746 38.2424 65.6297 38.0133 65.9332C37.7942 66.2222 37.5196 66.4646 37.2057 66.6463C36.8964 66.8181 36.5671 66.904 36.2178 66.904C35.8684 66.904 35.5391 66.8181 35.2298 66.6463C34.9159 66.4646 34.6414 66.2222 34.4223 65.9332C34.1829 65.61 33.9973 65.2503 33.8724 64.8679C33.7383 64.4458 33.6717 64.0051 33.6749 63.5621C33.6749 63.0753 33.7407 62.6228 33.8724 62.2048C34.0099 61.7867 34.1932 61.423 34.4223 61.1137C34.6377 60.8168 34.9127 60.568 35.2298 60.3835C35.5296 60.2085 35.8706 60.1166 36.2178 60.1172ZM36.2178 66.4916C36.4411 66.4916 36.6387 66.4458 36.8105 66.3542C36.9881 66.2625 37.137 66.105 37.2573 65.8817C37.3833 65.6583 37.4778 65.3605 37.5408 64.9882C37.6095 64.6159 37.6439 64.1492 37.6439 63.5879C37.6439 63.0037 37.6095 62.5169 37.5408 62.1274C37.4778 61.738 37.3861 61.4259 37.2659 61.191C37.1456 60.9505 36.9967 60.7815 36.8191 60.6842C36.6362 60.5797 36.4285 60.5262 36.2178 60.5295C35.9944 60.5295 35.7939 60.5811 35.6164 60.6842C35.4389 60.7815 35.2899 60.9505 35.1697 61.191C35.0494 61.4259 34.9549 61.738 34.8862 62.1274C34.8232 62.5169 34.7917 63.0037 34.7917 63.5879C34.7917 64.1492 34.8232 64.6159 34.8862 64.9882C34.9549 65.3605 35.0494 65.6583 35.1697 65.8817C35.2899 66.105 35.4389 66.2625 35.6164 66.3542C35.7939 66.4458 35.9944 66.4916 36.2178 66.4916ZM40.9676 65.9762H42.6772C42.8146 65.9762 42.9349 65.9647 43.038 65.9418C43.1411 65.9132 43.2327 65.8616 43.3129 65.7872C43.3931 65.7127 43.4647 65.6125 43.5277 65.4865C43.6021 65.325 43.6652 65.1585 43.7167 64.9882H44.0345L43.7081 66.8181H39.7133V66.5346C40.3662 65.9504 40.9017 65.4407 41.3198 65.0054C41.7436 64.5644 42.0758 64.1692 42.3164 63.8198C42.5569 63.4705 42.723 63.1498 42.8146 62.8577C42.9054 62.5656 42.9517 62.2615 42.9521 61.9556C42.9521 61.5089 42.8461 61.1567 42.6342 60.8989C42.428 60.6412 42.1445 60.5123 41.7837 60.5123C41.4401 60.5123 41.1594 60.624 40.9418 60.8474C40.7299 61.0708 40.6239 61.36 40.6239 61.7151C40.6239 62.0243 40.707 62.2706 40.8731 62.4539C41.0449 62.6372 41.2769 62.7288 41.5689 62.7288C41.5403 62.8663 41.4659 62.9779 41.3456 63.0638C41.2253 63.144 41.0764 63.1841 40.8989 63.1841C40.7449 63.1855 40.5924 63.1532 40.4521 63.0896C40.3183 63.025 40.1985 62.9345 40.0999 62.8233C39.9994 62.7034 39.9209 62.5667 39.8679 62.4195C39.815 62.2499 39.7889 62.0731 39.7906 61.8955C39.7906 61.6378 39.845 61.4001 39.9539 61.1824C40.0627 60.9648 40.2116 60.7787 40.4006 60.624C40.5991 60.4583 40.8262 60.3302 41.0707 60.246C41.3444 60.1527 41.632 60.1062 41.9212 60.1086C42.2247 60.1086 42.5025 60.1544 42.7545 60.246C43.0065 60.3377 43.2241 60.4665 43.4074 60.6326C43.5907 60.7987 43.731 60.9963 43.8284 61.2254C43.9314 61.4488 43.983 61.6979 43.983 61.9728C43.983 62.3279 43.9028 62.6773 43.7424 63.0209C43.5726 63.3827 43.356 63.7206 43.0981 64.026C42.8024 64.3735 42.4808 64.698 42.136 64.9968C41.7694 65.3118 41.3771 65.6239 40.959 65.9332L40.9676 65.9762ZM46.2782 62.6773L46.2954 62.703C46.3813 62.64 46.5073 62.5885 46.6734 62.5484C46.8356 62.5031 47.0032 62.48 47.1717 62.4797C47.4151 62.4777 47.6559 62.5306 47.8761 62.6343C48.0937 62.7317 48.2799 62.8691 48.4345 63.0467C48.5949 63.2242 48.7209 63.4361 48.8125 63.6824C48.9042 63.9229 48.95 64.1835 48.95 64.4642C48.95 64.8078 48.8841 65.1285 48.7524 65.4263C48.6276 65.7167 48.4466 65.9795 48.2197 66.1995C47.9894 66.4216 47.7181 66.5967 47.4208 66.715C47.1073 66.8429 46.7714 66.9072 46.4328 66.904C46.2066 66.9058 45.9812 66.8769 45.7627 66.8181C45.5734 66.763 45.3937 66.679 45.2301 66.5689C45.0869 66.4658 44.9724 66.3427 44.8865 66.1995C44.8066 66.0518 44.7652 65.8864 44.7662 65.7184C44.7662 65.5638 44.8006 65.4435 44.8693 65.3576C44.9437 65.2717 45.0468 65.2288 45.1786 65.2288C45.2988 65.2288 45.3876 65.2603 45.4449 65.3233C45.5079 65.3863 45.5566 65.4664 45.5909 65.5638C45.6253 65.6612 45.6568 65.7671 45.6854 65.8817C45.7141 65.9905 45.7542 66.0936 45.8057 66.1909C45.863 66.2883 45.9424 66.3707 46.0377 66.4315C46.1407 66.4945 46.2811 66.526 46.4586 66.526C46.682 66.526 46.8824 66.4744 47.06 66.3713C47.2429 66.2571 47.396 66.1011 47.5067 65.916C47.627 65.7156 47.7186 65.4779 47.7816 65.203C47.8533 64.8961 47.8879 64.5817 47.8847 64.2666C47.8847 63.7798 47.816 63.4218 47.6785 63.1927C47.5468 62.9636 47.3234 62.8491 47.0084 62.8491C46.7679 62.8491 46.5703 62.9149 46.4157 63.0467C46.2667 63.1727 46.1436 63.3788 46.0462 63.6652C46.0119 63.7683 45.9804 63.8342 45.9517 63.8628C45.937 63.8772 45.9195 63.8884 45.9003 63.8958C45.8811 63.9032 45.8606 63.9066 45.8401 63.9058C45.7141 63.9058 45.6511 63.8485 45.6511 63.7339C45.6511 63.7053 45.6539 63.6824 45.6597 63.6652L46.5789 60.1172C46.7049 60.1687 46.8481 60.2088 47.0084 60.2374C47.1688 60.2603 47.3607 60.2718 47.584 60.2718C48.1167 60.2718 48.4975 60.2174 48.7266 60.1086L48.7782 60.1172C48.7094 60.4436 48.5577 60.6956 48.3228 60.8732C48.0937 61.0507 47.7988 61.1395 47.438 61.1395H46.682L46.2782 62.6773Z" fill="var(--fill-0, #222222)"/>
</g>
<defs>
<clipPath id="clip0_150_7563">
<rect width="76.3636" height="84" fill="white"/>
</clipPath>
</defs>
</svg>
