<svg preserveAspectRatio="none" width="100%" height="100%" overflow="visible" style="display: block;" viewBox="0 0 77 84" fill="none" xmlns="http://www.w3.org/2000/svg">
<g id="G2 - high performer" clip-path="url(#clip0_150_7510)">
<path id="Vector" d="M76.1607 54.6382C76.2047 54.7105 76.2287 54.7933 76.2302 54.878C76.2317 54.9627 76.2106 55.0463 76.1691 55.1201C76.1276 55.194 76.0672 55.2555 75.9941 55.2983C75.921 55.3411 75.8378 55.3636 75.7531 55.3636H67.2953C67.1688 55.3636 67.0474 55.3134 66.9579 55.2238C66.8684 55.1343 66.8181 55.0129 66.8181 54.8864V44.8636C66.8181 44.7371 66.8684 44.6157 66.9579 44.5262C67.0474 44.4366 67.1688 44.3864 67.2953 44.3864H75.7531C75.8378 44.3864 75.921 44.4089 75.9941 44.4517C76.0672 44.4945 76.1276 44.556 76.1691 44.6299C76.2106 44.7037 76.2317 44.7873 76.2302 44.872C76.2287 44.9567 76.2047 45.0395 76.1607 45.1118L73.4121 49.6268C73.3666 49.7016 73.3426 49.7875 73.3426 49.875C73.3426 49.9625 73.3666 50.0484 73.4121 50.1232L76.1607 54.6382ZM0.441362 45.1118C0.39729 45.0394 0.373291 44.9566 0.37183 44.8719C0.37037 44.7871 0.391502 44.7035 0.433053 44.6296C0.474605 44.5558 0.535077 44.4943 0.608255 44.4516C0.681433 44.4088 0.764677 44.3863 0.84943 44.3864H9.3067C9.43328 44.3864 9.55468 44.4366 9.64419 44.5262C9.73369 44.6157 9.78398 44.7371 9.78398 44.8636V54.8864C9.78398 55.0129 9.73369 55.1343 9.64419 55.2238C9.55468 55.3134 9.43328 55.3636 9.3067 55.3636H0.84943C0.764677 55.3637 0.681433 55.3412 0.608255 55.2985C0.535077 55.2557 0.474605 55.1942 0.433053 55.1204C0.391502 55.0465 0.37037 54.9629 0.37183 54.8781C0.373291 54.7934 0.39729 54.7106 0.441362 54.6382L3.18998 50.1232C3.2355 50.0484 3.25958 49.9625 3.25958 49.875C3.25958 49.7875 3.2355 49.7016 3.18998 49.6268L0.441362 45.1118Z" fill="var(--fill-0, #852E94)"/>
<path id="Vector_2" d="M7.15891 8.11364C7.15891 4.95075 9.7233 2.38636 12.8862 2.38636H63.9544C67.1173 2.38636 69.6816 4.95075 69.6816 8.11364V61.8526C69.6817 62.8416 69.4257 63.8137 68.9385 64.6744C68.4513 65.535 67.7495 66.2549 66.9015 66.7638L41.1512 82.2179C40.2553 82.7555 39.2294 83.0378 38.1846 83.0342C37.1397 83.0307 36.1158 82.7415 35.2235 82.1978L9.90562 66.769C9.06681 66.2578 8.37359 65.5395 7.89258 64.683C7.41156 63.8265 7.15891 62.8607 7.15891 61.8784V8.11364Z" fill="var(--fill-0, #FBF2FD)"/>
<path id="Vector_3" d="M69.6816 21.7159L19.054 72.3436L9.90562 66.769C9.06681 66.2578 8.37359 65.5394 7.89258 64.683C7.41156 63.8265 7.15891 62.8607 7.15891 61.8784V49.6364L54.4089 2.38636H63.9544C67.1173 2.38636 69.6816 4.95075 69.6816 8.11364V21.7159Z" fill="var(--fill-0, white)"/>
<path id="Vector_4" d="M34.5667 24.8838C34.5667 25.1015 34.5781 25.279 34.6011 25.4165C34.624 25.5482 34.6669 25.6513 34.7299 25.7257C34.7986 25.7945 34.8931 25.8432 35.0134 25.8718C35.1394 25.9004 35.3026 25.9176 35.5031 25.9233V26.2498H32.7196V25.9233C32.9201 25.9176 33.0805 25.9004 33.2007 25.8718C33.3267 25.8432 33.4241 25.7945 33.4928 25.7257C33.5616 25.657 33.6074 25.5597 33.6303 25.4337C33.6532 25.3077 33.6646 25.1444 33.6646 24.944V23.0798H30.1853V24.8838C30.1853 25.1015 30.1968 25.279 30.2197 25.4165C30.2426 25.5482 30.2856 25.6513 30.3486 25.7257C30.4173 25.7945 30.5118 25.8432 30.6321 25.8718C30.7581 25.9004 30.9213 25.9176 31.1217 25.9233V26.2498H28.3383V25.9233C28.5387 25.9176 28.6991 25.9004 28.8194 25.8718C28.9454 25.8432 29.0427 25.7945 29.1115 25.7257C29.1802 25.657 29.226 25.5597 29.2489 25.4337C29.2718 25.3077 29.2833 25.1444 29.2833 24.944V20.9406C29.2833 20.7402 29.2718 20.5798 29.2489 20.4595C29.2317 20.3335 29.1916 20.2362 29.1286 20.1674C29.0714 20.093 28.9855 20.0443 28.8709 20.0214C28.7241 19.9882 28.5746 19.9681 28.4242 19.9612V19.6348H31.0358V19.9612C30.8855 19.963 30.7358 19.9803 30.5891 20.0128C30.4803 20.0414 30.3944 20.093 30.3314 20.1674C30.2741 20.2419 30.234 20.345 30.2111 20.4767C30.1917 20.6507 30.1831 20.8257 30.1853 21.0007V22.6502H33.6646V20.9406C33.6646 20.7402 33.6532 20.5798 33.6303 20.4595C33.6131 20.3335 33.573 20.2362 33.51 20.1674C33.4527 20.093 33.3668 20.0443 33.2523 20.0214C33.1054 19.9882 32.9559 19.9681 32.8056 19.9612V19.6348H35.4172V19.9612C35.2669 19.963 35.1172 19.9803 34.9705 20.0128C34.8616 20.0414 34.7757 20.093 34.7127 20.1674C34.6555 20.2419 34.6154 20.345 34.5925 20.4767C34.573 20.6507 34.5644 20.8257 34.5667 21.0007V24.8838ZM37.6833 24.8838C37.6833 25.1072 37.6923 25.2876 37.7095 25.4251C37.7324 25.5568 37.7725 25.6627 37.8298 25.7429C37.8871 25.8174 37.9673 25.8689 38.0703 25.8976C38.1734 25.9262 38.3109 25.9434 38.4827 25.9491V26.2498H36.0171V25.9491C36.1889 25.9434 36.3293 25.9262 36.4381 25.8976C36.5469 25.8632 36.6299 25.8117 36.6872 25.7429C36.7502 25.6685 36.7903 25.5682 36.8075 25.4422C36.8304 25.3105 36.8418 25.1444 36.8418 24.944V23.8443C36.8418 23.5122 36.8361 23.2401 36.8247 23.0282C36.8189 22.8106 36.8046 22.6617 36.7817 22.5815C36.7531 22.4497 36.6872 22.361 36.5841 22.3152C36.481 22.2636 36.2863 22.2378 35.9999 22.2378V21.9372L37.6838 21.6107L37.6833 24.8838ZM36.6953 19.8667C36.6953 19.7178 36.7473 19.5918 36.8504 19.4887C36.9535 19.3857 37.0795 19.3341 37.2284 19.3341C37.3773 19.3341 37.5033 19.3857 37.6064 19.4887C37.7095 19.5918 37.7611 19.7178 37.7611 19.8667C37.7611 20.0157 37.7095 20.1417 37.6064 20.2447C37.5033 20.3478 37.3773 20.3994 37.2284 20.3994C37.0795 20.3994 36.9535 20.3478 36.8504 20.2447C36.8002 20.1957 36.7606 20.1368 36.734 20.0718C36.7074 20.0068 36.6939 19.937 36.6953 19.8667ZM40.8352 24.4028C41.0757 24.4028 41.2619 24.2939 41.3936 24.0763C41.5311 23.8587 41.5998 23.5522 41.5998 23.1571C41.5998 22.7676 41.5311 22.4669 41.3936 22.255C41.2619 22.0374 41.0729 21.9286 40.8266 21.9286C40.5803 21.9286 40.3827 22.0374 40.2338 22.255C40.0906 22.4727 40.0191 22.7705 40.0191 23.1485C40.0191 23.5265 40.0935 23.83 40.2424 24.0591C40.3913 24.2882 40.5889 24.4028 40.8352 24.4028ZM40.3627 25.4079C40.5001 25.4193 40.6261 25.4308 40.7407 25.4422L41.0757 25.4766C41.1903 25.4881 41.302 25.5024 41.4108 25.5196C41.5253 25.5368 41.6485 25.5539 41.7802 25.5711C42.1926 25.6341 42.5219 25.7945 42.7681 26.0522C43.0201 26.3042 43.1461 26.6221 43.1461 27.0058C43.1461 27.4869 42.9543 27.8534 42.5706 28.1054C42.1926 28.3574 41.6427 28.4834 40.9211 28.4834C40.6004 28.4834 40.3054 28.4548 40.0362 28.3975C39.7986 28.3498 39.5696 28.2658 39.3576 28.1484C39.1824 28.0571 39.0298 27.928 38.9108 27.7704C38.8095 27.6272 38.7555 27.4561 38.7562 27.2807C38.7562 27.1604 38.7762 27.0487 38.8163 26.9457C38.8547 26.8454 38.9099 26.7525 38.9796 26.6707C39.0483 26.5963 39.1285 26.5362 39.2201 26.4903C39.3175 26.4445 39.4177 26.4216 39.5208 26.4216C39.7155 26.4216 39.8902 26.4817 40.0448 26.602C39.8922 26.6351 39.7574 26.7239 39.6668 26.8512C39.5701 26.9864 39.519 27.1489 39.5208 27.3151C39.5208 27.5671 39.6439 27.7618 39.8902 27.8993C40.1422 28.0367 40.4973 28.1054 40.9555 28.1054C41.9348 28.1054 42.4245 27.8048 42.4245 27.2034C42.4245 26.9743 42.3472 26.7824 42.1926 26.6278C42.0432 26.4815 41.8501 26.388 41.6427 26.3615C41.4993 26.3435 41.3561 26.3234 41.2132 26.3013L40.7836 26.2498C40.655 26.2336 40.5261 26.2193 40.3971 26.2068C40.2994 26.1981 40.202 26.1866 40.105 26.1725C39.7842 26.1381 39.5408 26.0522 39.3747 25.9147C39.2086 25.7773 39.1256 25.5883 39.1256 25.3477C39.1256 25.1473 39.2086 24.9697 39.3747 24.8151C39.5408 24.6605 39.7499 24.5631 40.0019 24.523V24.4887C39.8739 24.4359 39.7551 24.3635 39.6496 24.2739C39.5417 24.1775 39.4464 24.0678 39.3661 23.9474C39.2912 23.826 39.2306 23.6963 39.1857 23.5608C39.1402 23.4193 39.117 23.2714 39.117 23.1227C39.117 22.9051 39.1571 22.7046 39.2373 22.5213C39.3232 22.3381 39.4406 22.1806 39.5895 22.0488C39.7441 21.9114 39.9246 21.8054 40.1307 21.731C40.3475 21.6489 40.5777 21.6081 40.8094 21.6107C41.0614 21.6107 41.2991 21.6508 41.5225 21.731C41.7458 21.8054 41.9377 21.9171 42.0981 22.066C42.2928 21.9057 42.4646 21.7911 42.6135 21.7224C42.7624 21.6479 42.9027 21.6107 43.0345 21.6107C43.2406 21.6107 43.4039 21.6594 43.5241 21.7567C43.5847 21.799 43.6337 21.8557 43.6668 21.9217C43.6998 21.9877 43.7157 22.061 43.7131 22.1347C43.7149 22.1787 43.7066 22.2225 43.6887 22.2628C43.6708 22.303 43.6439 22.3386 43.6101 22.3667C43.5439 22.4252 43.4578 22.4559 43.3695 22.4526C43.3011 22.4553 43.2331 22.4405 43.1719 22.4097C43.1204 22.381 43.0717 22.3524 43.0259 22.3237C42.9853 22.2891 42.9423 22.2575 42.897 22.2292C42.8449 22.199 42.7854 22.1841 42.7252 22.1863C42.5877 22.1863 42.4474 22.235 42.3042 22.3323C42.4417 22.5442 42.5104 22.8106 42.5104 23.1313C42.5104 23.6181 42.3586 24.0018 42.0551 24.2825C41.7516 24.5574 41.2962 24.7178 40.6891 24.7636C40.3398 24.7922 40.0964 24.8294 39.9589 24.8752C39.8215 24.9211 39.7527 25.0041 39.7527 25.1244C39.7527 25.216 39.8043 25.2848 39.9074 25.3306C40.0105 25.3707 40.1622 25.3964 40.3627 25.4079ZM45.239 24.8838C45.239 25.1187 45.2447 25.3048 45.2562 25.4422C45.2676 25.5797 45.2963 25.6857 45.3421 25.7601C45.3936 25.8288 45.4652 25.8747 45.5569 25.8976C45.6485 25.9205 45.7773 25.9377 45.9434 25.9491V26.2498H43.6583V25.9491C43.7911 25.9422 43.9232 25.9249 44.0534 25.8976C44.142 25.8801 44.2213 25.8313 44.2768 25.7601C44.3283 25.6914 44.3598 25.594 44.3713 25.468C44.3885 25.3363 44.3971 25.1616 44.3971 24.944V21.3444C44.3971 21.0065 44.3913 20.7373 44.3799 20.5368C44.3742 20.3364 44.3599 20.1846 44.3369 20.0815C44.3295 20.0233 44.3089 19.9675 44.2768 19.9183C44.2531 19.8717 44.2135 19.8351 44.1651 19.8152C44.1007 19.7827 44.0308 19.7623 43.9589 19.7551C43.8535 19.7425 43.7473 19.7368 43.6411 19.7379V19.4458L45.2218 19.1193V22.3925H45.2562C45.3421 22.2779 45.448 22.1748 45.574 22.0832C45.7058 21.9858 45.8461 21.9028 45.995 21.8341C46.1439 21.7653 46.2985 21.7109 46.4589 21.6708C46.6163 21.6318 46.7778 21.6116 46.94 21.6107C47.2034 21.6107 47.444 21.6565 47.6616 21.7482C47.885 21.8398 48.0568 21.9629 48.1771 22.1176C48.2744 22.2493 48.346 22.424 48.3918 22.6416C48.4377 22.8535 48.4606 23.1427 48.4606 23.5093V24.8838C48.4606 25.1187 48.4663 25.3048 48.4778 25.4422C48.4892 25.574 48.5178 25.6771 48.5637 25.7515C48.6144 25.8254 48.6911 25.8776 48.7784 25.8976C48.8701 25.9205 48.9989 25.9377 49.165 25.9491V26.2498H46.8884V25.9491C47.0488 25.9434 47.1777 25.9291 47.275 25.9062C47.3618 25.8848 47.4381 25.833 47.4898 25.7601C47.5413 25.6914 47.5728 25.594 47.5843 25.468C47.6015 25.3363 47.6101 25.1616 47.6101 24.944V23.8615C47.6101 23.2201 47.5356 22.7647 47.3867 22.4956C47.2378 22.2207 46.9887 22.0832 46.6393 22.0832C46.3701 22.0832 46.1238 22.1519 45.9005 22.2894C45.681 22.4288 45.503 22.6246 45.385 22.8564C45.3564 22.9194 45.3306 22.9795 45.3077 23.0368C45.2888 23.0957 45.2744 23.156 45.2648 23.2172C45.2521 23.2969 45.2435 23.3772 45.239 23.4578V24.8838ZM21.9743 29.8837C21.9743 30.1873 21.9256 30.4593 21.8283 30.6999C21.7309 30.9404 21.5763 31.1437 21.3644 31.3098C21.1582 31.4759 20.8861 31.6048 20.5482 31.6964C20.2161 31.7881 19.8094 31.8339 19.3283 31.8339H18.5551V33.4919C18.5551 33.7038 18.5666 33.8785 18.5895 34.016C18.6181 34.1477 18.6726 34.2508 18.7527 34.3252C18.8386 34.3997 18.9589 34.4513 19.1136 34.4799C19.2739 34.5028 19.483 34.5143 19.7407 34.5143V34.8407H16.7081V34.5143C16.9086 34.5085 17.0689 34.4913 17.1892 34.4627C17.3152 34.4341 17.4126 34.3854 17.4813 34.3167C17.55 34.2479 17.5958 34.1506 17.6187 34.0246C17.6416 33.8986 17.6531 33.7353 17.6531 33.5349V29.5315C17.6531 29.3311 17.6416 29.1707 17.6187 29.0504C17.6016 28.9244 17.5615 28.8271 17.4985 28.7583C17.4412 28.6839 17.3553 28.6352 17.2407 28.6123C17.0939 28.5791 16.9444 28.559 16.794 28.5522V28.2257H19.4916C20.2819 28.2257 20.8919 28.3717 21.3214 28.6638C21.7567 28.9559 21.9743 29.3626 21.9743 29.8837ZM18.5551 31.4043H19.1651C19.7378 31.4043 20.1616 31.2955 20.4366 31.0779C20.7172 30.8545 20.8575 30.4908 20.8575 29.9868C20.8575 29.5 20.7458 29.1535 20.5225 28.9473C20.3048 28.7354 19.9612 28.6295 19.4916 28.6295H18.7012C18.6038 28.6295 18.5551 28.6782 18.5551 28.7755V31.4043ZM26.2717 34.0417C25.7849 34.6317 25.1806 34.9266 24.459 34.9266C24.1211 34.9266 23.8147 34.8722 23.5398 34.7634C23.2733 34.6544 23.0309 34.4938 22.8267 34.2909C22.6288 34.0795 22.4741 33.8314 22.3714 33.5607C22.2598 33.2583 22.2045 32.938 22.2082 32.6157C22.2082 32.2663 22.2655 31.9427 22.38 31.6449C22.4865 31.3599 22.6502 31.0996 22.8611 30.8803C23.0752 30.6669 23.3292 30.4976 23.6085 30.382C23.9114 30.2597 24.2355 30.1984 24.5621 30.2016C25.1176 30.2016 25.5472 30.3534 25.8507 30.6569C26.1543 30.9548 26.3061 31.3843 26.3061 31.9456C26.3061 32.0257 26.2889 32.0744 26.2545 32.0916C26.2259 32.1088 26.1543 32.1174 26.0397 32.1174H23.2133C23.2002 32.1739 23.1916 32.2313 23.1876 32.2892C23.1815 32.3606 23.1786 32.4323 23.179 32.504C23.179 32.8018 23.2133 33.0738 23.2821 33.3201C23.3565 33.5607 23.4596 33.7668 23.5913 33.9387C23.7288 34.1105 23.8891 34.2451 24.0724 34.3424C24.2614 34.4341 24.4705 34.4799 24.6996 34.4799C24.9401 34.4799 25.1635 34.4283 25.3696 34.3252C25.5758 34.2164 25.7877 34.0417 26.0054 33.8012L26.2717 34.0417ZM24.8542 31.7222C24.9687 31.7222 25.0604 31.7193 25.1291 31.7136C25.1823 31.7115 25.2347 31.6999 25.2837 31.6792C25.3145 31.6658 25.339 31.6412 25.3525 31.6105C25.365 31.5687 25.3708 31.5253 25.3696 31.4817C25.3696 31.2182 25.2837 31.0092 25.1119 30.8545C24.9458 30.6942 24.7167 30.614 24.4246 30.614C23.8061 30.614 23.4224 30.9834 23.2735 31.7222H24.8542ZM28.4476 33.4748C28.4476 33.7096 28.4533 33.8957 28.4648 34.0332C28.4762 34.1706 28.5048 34.2766 28.5507 34.351C28.6022 34.4197 28.6738 34.4656 28.7654 34.4885C28.8571 34.5114 28.9859 34.5286 29.152 34.54V34.8407H26.8668V34.54C27.0329 34.5343 27.1647 34.52 27.262 34.4971C27.3505 34.4743 27.429 34.423 27.4854 34.351C27.5369 34.2823 27.5684 34.1849 27.5799 34.0589C27.5971 33.9272 27.6057 33.7525 27.6057 33.5349V32.5297C27.6057 32.1403 27.5999 31.8367 27.5885 31.6191C27.5828 31.4015 27.5541 31.2411 27.5026 31.138C27.4845 31.0909 27.4544 31.0495 27.4151 31.0178C27.3759 30.9861 27.329 30.9654 27.2792 30.9576C27.1376 30.9313 26.9937 30.9198 26.8497 30.9232V30.6226L28.3531 30.2961L28.4733 31.3614H28.5077C28.5822 31.1896 28.6738 31.0321 28.7826 30.8889C28.8972 30.7457 29.0203 30.6254 29.152 30.5281C29.2838 30.425 29.4212 30.3448 29.5644 30.2875C29.7076 30.2302 29.8536 30.2016 30.0025 30.2016C30.1858 30.2016 30.329 30.2474 30.4321 30.3391C30.5409 30.425 30.5953 30.5424 30.5953 30.6913C30.5953 30.8287 30.5523 30.9376 30.4664 31.0177C30.3805 31.0922 30.2574 31.1294 30.097 31.1294C30.0054 31.1294 29.9281 31.118 29.8651 31.0951C29.807 31.0741 29.7497 31.0512 29.6933 31.0263C29.6487 30.9984 29.6028 30.9726 29.5558 30.949C29.5138 30.9256 29.4664 30.9138 29.4183 30.9147C29.2637 30.9147 29.1091 31.0149 28.9544 31.2153C28.7998 31.4101 28.6795 31.6592 28.5936 31.9628C28.5438 32.149 28.5065 32.3385 28.4819 32.5297C28.4585 32.7466 28.447 32.9646 28.4476 33.1827V33.4748ZM30.6516 30.425H31.6224V29.8064C31.6224 29.1478 31.7942 28.6352 32.1378 28.2687C32.4872 27.8964 32.9826 27.7103 33.6241 27.7103C33.9792 27.7103 34.2684 27.7647 34.4918 27.8735C34.7151 27.9823 34.8268 28.1226 34.8268 28.2944C34.8268 28.409 34.7896 28.5063 34.7151 28.5865C34.6814 28.6232 34.6401 28.6522 34.5942 28.6715C34.5482 28.6907 34.4986 28.6999 34.4488 28.6982C34.3801 28.6982 34.3056 28.6782 34.2254 28.6381C34.1207 28.5699 34.0202 28.4953 33.9248 28.4147C33.7816 28.2944 33.6699 28.2171 33.5897 28.1827C33.5012 28.1408 33.4041 28.1202 33.3062 28.1226C32.9626 28.1226 32.7163 28.2973 32.5674 28.6467C32.5158 28.7612 32.4786 28.9015 32.4557 29.0676C32.4385 29.2337 32.4299 29.4628 32.4299 29.7549V30.425H33.8131V30.8288H32.4299V33.4576C32.4299 33.6695 32.4414 33.8442 32.4643 33.9816C32.4929 34.1191 32.5388 34.2308 32.6018 34.3167C32.6705 34.3968 32.7621 34.4541 32.8767 34.4885C32.9912 34.5171 33.1401 34.5343 33.3234 34.54V34.8407H30.8836V34.54C31.0439 34.5343 31.1728 34.52 31.2702 34.4971C31.3587 34.4743 31.4372 34.423 31.4935 34.351C31.5451 34.2766 31.5794 34.1763 31.5966 34.0503C31.6138 33.9186 31.6224 33.7439 31.6224 33.5263V30.8288H30.6516V30.425ZM36.5221 30.2016C36.849 30.2016 37.1583 30.2618 37.4504 30.382C37.7425 30.4966 37.9973 30.6569 38.215 30.8631C38.4383 31.0693 38.613 31.3156 38.739 31.6019C38.8707 31.8826 38.9366 32.1918 38.9366 32.5297C38.9366 32.8791 38.8707 33.1998 38.739 33.4919C38.6178 33.7771 38.4395 34.0344 38.215 34.2479C37.9945 34.4617 37.7349 34.6308 37.4504 34.7462C37.156 34.8669 36.8407 34.9282 36.5226 34.9266C36.2018 34.9266 35.8954 34.8693 35.6033 34.7548C35.317 34.6345 35.065 34.4684 34.8473 34.2565C34.6272 34.0411 34.4521 33.7841 34.3319 33.5005C34.204 33.193 34.1397 32.8628 34.1429 32.5297C34.1429 32.1918 34.2059 31.8797 34.3319 31.5933C34.4523 31.3149 34.6276 31.0637 34.8473 30.8545C35.0664 30.6474 35.323 30.4841 35.6033 30.3734C35.8962 30.2587 36.2076 30.2004 36.5221 30.2016ZM36.5221 30.614C36.3106 30.614 36.1159 30.6598 35.9384 30.7514C35.7666 30.8431 35.6176 30.9748 35.4916 31.1466C35.3714 31.3127 35.2769 31.516 35.2081 31.7566C35.1426 32.0119 35.1108 32.2747 35.1136 32.5383C35.1136 32.8362 35.1451 33.1053 35.2081 33.3459C35.2769 33.5864 35.3714 33.7926 35.4916 33.9644C35.6176 34.1305 35.7666 34.2594 35.9384 34.351C36.1102 34.4427 36.3049 34.4885 36.5226 34.4885C36.7402 34.4885 36.9378 34.4427 37.1153 34.351C37.2929 34.2594 37.4446 34.1277 37.5706 33.9558C37.6966 33.784 37.794 33.5778 37.8627 33.3373C37.9341 33.0771 37.9688 32.8082 37.9658 32.5383C37.9658 32.252 37.9315 31.9914 37.8627 31.7566C37.8029 31.54 37.7039 31.3361 37.5706 31.1552C37.4519 30.9897 37.2959 30.8543 37.1153 30.76C36.9334 30.6616 36.7289 30.6113 36.5221 30.614ZM41.0867 33.4748C41.0867 33.7096 41.0924 33.8957 41.1039 34.0332C41.1153 34.1706 41.144 34.2766 41.1898 34.351C41.2413 34.4197 41.3129 34.4656 41.4046 34.4885C41.4962 34.5114 41.6251 34.5286 41.7912 34.54V34.8407H39.506V34.54C39.6721 34.5343 39.8038 34.52 39.9012 34.4971C39.9897 34.4743 40.0682 34.423 40.1245 34.351C40.1761 34.2823 40.2076 34.1849 40.219 34.0589C40.2362 33.9272 40.2448 33.7525 40.2448 33.5349V32.5297C40.2448 32.1403 40.2391 31.8367 40.2276 31.6191C40.2219 31.4015 40.1933 31.2411 40.1417 31.138C40.1237 31.0909 40.0935 31.0495 40.0543 31.0178C40.0151 30.9861 39.9682 30.9654 39.9183 30.9576C39.7767 30.9313 39.6328 30.9198 39.4888 30.9232V30.6226L40.9922 30.2961L41.1125 31.3614H41.1468C41.2213 31.1896 41.3129 31.0321 41.4218 30.8889C41.5363 30.7457 41.6594 30.6254 41.7912 30.5281C41.9229 30.425 42.0603 30.3448 42.2035 30.2875C42.3467 30.2302 42.4928 30.2016 42.6417 30.2016C42.8249 30.2016 42.9681 30.2474 43.0712 30.3391C43.18 30.425 43.2344 30.5424 43.2344 30.6913C43.2344 30.8287 43.1915 30.9376 43.1056 31.0177C43.0197 31.0922 42.8965 31.1294 42.7362 31.1294C42.6445 31.1294 42.5672 31.118 42.5042 31.0951C42.4462 31.0741 42.3889 31.0512 42.3324 31.0263C42.2878 30.9984 42.242 30.9726 42.1949 30.949C42.153 30.9256 42.1055 30.9138 42.0575 30.9147C41.9028 30.9147 41.7482 31.0149 41.5936 31.2153C41.4389 31.4101 41.3187 31.6592 41.2328 31.9628C41.1829 32.149 41.1456 32.3385 41.1211 32.5297C41.0976 32.7466 41.0861 32.9646 41.0867 33.1827V33.4748ZM45.0004 33.4662C45.0004 33.7067 45.0061 33.8957 45.0175 34.0332C45.029 34.1706 45.0576 34.2766 45.1034 34.351C45.155 34.4197 45.2266 34.4656 45.3182 34.4885C45.4099 34.5114 45.5387 34.5286 45.7048 34.54V34.8407H43.4196V34.54C43.5525 34.5331 43.6846 34.5158 43.8148 34.4885C43.9034 34.471 43.9827 34.4222 44.0382 34.351C44.0897 34.2823 44.1212 34.1849 44.1327 34.0589C44.1498 33.9272 44.1584 33.7525 44.1584 33.5349V32.4352C44.1584 32.1088 44.1527 31.8367 44.1413 31.6191C44.1355 31.4015 44.1212 31.2526 44.0983 31.1724C44.0864 31.1126 44.0661 31.0547 44.0382 31.0006C44.0144 30.954 43.9748 30.9174 43.9265 30.8975C43.8623 30.8655 43.792 30.8479 43.7203 30.8459C43.6149 30.833 43.5087 30.8273 43.4024 30.8288V30.5281L44.8028 30.2016L44.9144 31.0607H44.9574C45.2151 30.7686 45.4843 30.5538 45.7649 30.4164C46.0513 30.2732 46.3663 30.2016 46.7099 30.2016C47.0708 30.2016 47.3743 30.2761 47.6206 30.425C47.8668 30.5682 48.0387 30.7772 48.136 31.0521H48.1704C48.3772 30.7871 48.6416 30.5726 48.9436 30.425C49.2455 30.2764 49.5778 30.2 49.9143 30.2016C50.1835 30.2016 50.4269 30.2474 50.6446 30.3391C50.8679 30.425 51.0369 30.5452 51.1514 30.6999C51.2545 30.8316 51.3261 31.0063 51.3662 31.2239C51.412 31.4358 51.4349 31.7279 51.4349 32.1002V33.4662C51.4349 33.701 51.4407 33.8871 51.4521 34.0246C51.4693 34.162 51.5008 34.268 51.5466 34.3424C51.5924 34.4169 51.6612 34.4656 51.7528 34.4885C51.883 34.5158 52.0151 34.5331 52.148 34.54V34.8407H49.8628V34.54C50.0232 34.5343 50.152 34.52 50.2494 34.4971C50.3379 34.4743 50.4164 34.423 50.4728 34.351C50.5243 34.2766 50.5558 34.1763 50.5673 34.0503C50.5844 33.9243 50.593 33.7525 50.593 33.5349V32.4524C50.593 32.126 50.5759 31.8511 50.5415 31.6277C50.5071 31.3986 50.4499 31.2153 50.3697 31.0779C50.2895 30.9347 50.1835 30.8316 50.0518 30.7686C49.9258 30.7056 49.7712 30.6741 49.5879 30.6741C49.3359 30.6741 49.0982 30.7457 48.8749 30.8889C48.6025 31.0607 48.3942 31.3173 48.2821 31.6191C48.2631 31.678 48.2488 31.7384 48.2391 31.7995C48.2261 31.8763 48.2175 31.9537 48.2133 32.0315V33.4662C48.2133 33.701 48.2191 33.8871 48.2305 34.0246C48.242 34.162 48.2706 34.268 48.3164 34.3424C48.3695 34.4179 48.4494 34.4702 48.5398 34.4885C48.67 34.5158 48.8021 34.5331 48.935 34.54V34.8407H46.6498V34.54C46.8102 34.5286 46.939 34.5114 47.0364 34.4885C47.1232 34.4725 47.2003 34.4231 47.2512 34.351C47.3027 34.2823 47.3342 34.1849 47.3457 34.0589C47.3628 33.9272 47.3714 33.7525 47.3714 33.5349V32.4524C47.3714 32.1203 47.3543 31.8425 47.3199 31.6191C47.2855 31.39 47.2283 31.2067 47.1481 31.0693C47.0736 30.9261 46.9734 30.8259 46.8474 30.7686C46.7214 30.7056 46.5668 30.6741 46.3835 30.6741C46.1258 30.6741 45.8823 30.7457 45.6533 30.8889C45.4338 31.022 45.2577 31.216 45.1464 31.4473C45.1178 31.5046 45.092 31.5618 45.0691 31.6191C45.0501 31.678 45.0358 31.7384 45.0261 31.7995C45.0131 31.8763 45.0045 31.9537 45.0004 32.0315V33.4662ZM56.6348 34.0417C56.148 34.6317 55.5438 34.9266 54.8221 34.9266C54.4842 34.9266 54.1778 34.8722 53.9029 34.7634C53.6364 34.6544 53.3941 34.4938 53.1899 34.2909C52.9919 34.0795 52.8372 33.8314 52.7346 33.5607C52.6229 33.2583 52.5676 32.938 52.5713 32.6157C52.5713 32.2663 52.6286 31.9427 52.7431 31.6449C52.8496 31.3599 53.0134 31.0996 53.2242 30.8803C53.4384 30.6669 53.6923 30.4976 53.9716 30.382C54.2745 30.2597 54.5986 30.1984 54.9252 30.2016C55.4808 30.2016 55.9103 30.3534 56.2139 30.6569C56.5174 30.9548 56.6692 31.3843 56.6692 31.9456C56.6692 32.0257 56.652 32.0744 56.6176 32.0916C56.589 32.1088 56.5174 32.1174 56.4029 32.1174H53.5765C53.5634 32.1739 53.5547 32.2313 53.5507 32.2892C53.5446 32.3606 53.5417 32.4323 53.5421 32.504C53.5421 32.8018 53.5765 33.0738 53.6452 33.3201C53.7196 33.5607 53.8227 33.7668 53.9545 33.9387C54.0919 34.1105 54.2523 34.2451 54.4356 34.3424C54.6246 34.4341 54.8336 34.4799 55.0627 34.4799C55.3032 34.4799 55.5266 34.4283 55.7328 34.3252C55.939 34.2164 56.1509 34.0417 56.3685 33.8012L56.6348 34.0417ZM55.2173 31.7222C55.3319 31.7222 55.4235 31.7193 55.4922 31.7136C55.5454 31.7115 55.5978 31.6999 55.6469 31.6792C55.6776 31.6658 55.7021 31.6412 55.7156 31.6105C55.7281 31.5687 55.7339 31.5253 55.7328 31.4817C55.7328 31.2182 55.6469 31.0092 55.4751 30.8545C55.309 30.6942 55.0799 30.614 54.7878 30.614C54.1692 30.614 53.7855 30.9834 53.6366 31.7222H55.2173ZM58.8102 33.4748C58.8102 33.7096 58.816 33.8957 58.8274 34.0332C58.8389 34.1706 58.8675 34.2766 58.9133 34.351C58.9649 34.4197 59.0365 34.4656 59.1281 34.4885C59.2197 34.5114 59.3486 34.5286 59.5147 34.54V34.8407H57.2295V34.54C57.3956 34.5343 57.5273 34.52 57.6247 34.4971C57.7132 34.4743 57.7917 34.423 57.8481 34.351C57.8996 34.2823 57.9311 34.1849 57.9426 34.0589C57.9597 33.9272 57.9683 33.7525 57.9683 33.5349V32.5297C57.9683 32.1403 57.9626 31.8367 57.9511 31.6191C57.9454 31.4015 57.9168 31.2411 57.8652 31.138C57.8472 31.0909 57.817 31.0495 57.7778 31.0178C57.7386 30.9861 57.6917 30.9654 57.6419 30.9576C57.5003 30.9313 57.3563 30.9198 57.2123 30.9232V30.6226L58.7157 30.2961L58.836 31.3614H58.8704C58.9448 31.1896 59.0365 31.0321 59.1453 30.8889C59.2598 30.7457 59.383 30.6254 59.5147 30.5281C59.6464 30.425 59.7839 30.3448 59.9271 30.2875C60.0702 30.2302 60.2163 30.2016 60.3652 30.2016C60.5485 30.2016 60.6916 30.2474 60.7947 30.3391C60.9036 30.425 60.958 30.5424 60.958 30.6913C60.958 30.8287 60.915 30.9376 60.8291 31.0177C60.7432 31.0922 60.6201 31.1294 60.4597 31.1294C60.3681 31.1294 60.2907 31.118 60.2277 31.0951C60.1697 31.0741 60.1124 31.0512 60.0559 31.0263C60.0114 30.9984 59.9655 30.9726 59.9185 30.949C59.8765 30.9256 59.8291 30.9138 59.781 30.9147C59.6264 30.9147 59.4717 31.0149 59.3171 31.2153C59.1625 31.4101 59.0422 31.6592 58.9563 31.9628C58.9064 32.149 58.8691 32.3385 58.8446 32.5297C58.8211 32.7466 58.8097 32.9646 58.8102 33.1827V33.4748Z" fill="var(--fill-0, #222222)"/>
<path id="Vector_5" opacity="0.8" d="M26.467 76.8619L21.574 73.8799L69.6812 25.7727V33.6477L26.467 76.8619Z" fill="var(--fill-0, white)"/>
<path id="Vector_6" d="M12.8862 3.10227H63.9544C66.7221 3.10227 68.9657 5.34593 68.9657 8.11364V61.8526C68.9657 63.6128 68.0422 65.2441 66.5331 66.15L40.7833 81.6036C39.9993 82.0741 39.1016 82.3213 38.1874 82.3182C37.2731 82.3152 36.377 82.0621 35.5963 81.5864L10.2784 66.1576C9.54439 65.7104 8.93779 65.0818 8.51687 64.3324C8.09595 63.583 7.87485 62.7379 7.87482 61.8784V8.11364C7.87482 5.34593 10.1185 3.10227 12.8862 3.10227Z" stroke="var(--stroke-0, #D9BADE)" stroke-width="1.43182"/>
<path id="Vector_7" d="M23.478 49.6366L22.2862 45.4714H23.2484L23.9376 48.3656H23.9724L24.7332 45.4714H25.5565L26.3154 48.3713H26.3521L27.0413 45.4714H28.0035L26.8117 49.6366H25.9531L25.1604 46.9133H25.1274L24.3366 49.6366H23.478ZM31.1883 45.4714V49.6366H30.3073V45.4714H31.1883ZM37.2292 45.4714V49.6366H36.4689L34.6567 47.0149H34.6261V49.6366H33.7455V45.4714H34.5182L36.3161 48.0907H36.3529V45.4714H37.2292ZM39.6308 46.1973V45.4714H43.0519V46.1973H41.7766V49.6366H40.9065V46.1973H39.6308ZM45.4483 49.6366V45.4714H48.2546V46.1973H46.3288V47.1901H48.1105V47.916H46.3288V48.9106H48.2627V49.6366H45.4483ZM50.7875 49.6366V45.4714H52.4308C52.7453 45.4714 53.014 45.5277 53.2364 45.6399C53.4602 45.7511 53.6302 45.9091 53.7466 46.1138C53.865 46.3176 53.9237 46.5567 53.9237 46.8321C53.9237 47.1089 53.864 47.3466 53.7447 47.5456C53.6254 47.7437 53.4526 47.8955 53.2264 48.0014C53.0011 48.1069 52.7286 48.1599 52.4088 48.1599H51.3082V47.4521H52.2661C52.4341 47.4521 52.574 47.4292 52.6852 47.3829C52.7964 47.3371 52.8789 47.2679 52.9333 47.1758C52.9887 47.0836 53.0169 46.9691 53.0169 46.8321C53.0169 46.6937 52.9887 46.5773 52.9333 46.4823C52.8761 46.3847 52.7882 46.3088 52.6832 46.2665C52.572 46.2164 52.4317 46.1911 52.2623 46.1911H51.6681V49.6366H50.7875ZM53.0369 47.7408L54.0721 49.6366H53.0999L52.0871 47.7408H53.0369Z" fill="var(--fill-0, white)"/>
<path id="Vector_8" d="M34.2558 61.4603C34.2558 61.6297 34.2644 61.7676 34.2825 61.8745C34.3045 61.9771 34.3494 62.0573 34.4162 62.1151C34.483 62.1685 34.5765 62.2062 34.6968 62.2287C34.8214 62.2511 34.9841 62.2645 35.1846 62.2688V62.5227H32.8192V62.2688C32.9748 62.2645 33.0999 62.2511 33.1934 62.2287C33.2783 62.213 33.3571 62.1736 33.4206 62.1151C33.4786 62.0521 33.516 61.9728 33.5275 61.8879C33.5452 61.7901 33.5542 61.6631 33.5542 61.507V58.3933C33.5542 58.2372 33.5452 58.1127 33.5275 58.0191C33.5141 57.9213 33.4826 57.8454 33.434 57.7919C33.3835 57.7306 33.3121 57.6901 33.2335 57.6784C33.1193 57.6526 33.003 57.6369 32.886 57.6316V57.3777H36.7481L36.8216 58.6539H36.5878C36.561 58.4625 36.5186 58.3064 36.4608 58.1862C36.4076 58.067 36.3219 57.9651 36.2136 57.8922C36.111 57.8211 35.9797 57.7719 35.8194 57.7452C35.6208 57.7109 35.4195 57.6953 35.218 57.6984H34.3694C34.2935 57.6984 34.2558 57.7361 34.2558 57.812V59.8299C34.4696 59.8299 34.652 59.8189 34.8037 59.7965C34.9593 59.7698 35.0863 59.7254 35.1846 59.6629C35.2852 59.6023 35.3663 59.5141 35.4185 59.4089C35.4719 59.302 35.5053 59.1641 35.5187 58.9947H35.7525V60.9524H35.5187C35.5028 60.8078 35.4669 60.6661 35.4118 60.5315C35.3662 60.4244 35.2894 60.3336 35.1913 60.2709C35.0977 60.2084 34.9751 60.164 34.8238 60.1373C34.6359 60.1078 34.4459 60.0944 34.2558 60.0972V61.4603ZM39.0853 60.5449C38.864 60.6282 38.6476 60.7242 38.4372 60.8322C38.287 60.9099 38.1458 61.004 38.0163 61.1128C37.9218 61.1912 37.8425 61.2864 37.7824 61.3934C37.7375 61.487 37.7156 61.5829 37.7156 61.6808C37.7156 61.8278 37.7643 61.948 37.8626 62.0416C37.9604 62.1351 38.0898 62.1819 38.2501 62.1819C38.3629 62.1826 38.4738 62.1526 38.5708 62.095C38.6735 62.0373 38.7622 61.959 38.8381 61.8612C38.9135 61.7586 38.9737 61.6407 39.0185 61.507C39.0629 61.3691 39.0853 61.224 39.0853 61.0727V60.5449ZM39.0853 60.2575V59.9836C39.0853 59.44 38.8534 59.1684 38.3904 59.1684C38.3145 59.1684 38.2501 59.1751 38.1967 59.1884C38.1474 59.1998 38.1016 59.2227 38.063 59.2553C38.022 59.2935 37.988 59.3388 37.9628 59.3889C37.9317 59.4584 37.9049 59.5299 37.8826 59.6027C37.8335 59.7321 37.7843 59.8189 37.7356 59.8633C37.6908 59.9034 37.6239 59.9234 37.5352 59.9234C37.3123 59.9234 37.2011 59.8122 37.2011 59.5894C37.2011 59.3755 37.3147 59.2109 37.5418 59.0949C37.769 58.9746 38.0921 58.9145 38.5107 58.9145C38.956 58.9145 39.2724 58.9947 39.4595 59.155C39.6466 59.3111 39.7402 59.5784 39.7402 59.9569V61.4536C39.7402 61.9614 39.8404 62.2153 40.0408 62.2153C40.1029 62.2153 40.1635 62.2086 40.2213 62.1953C40.2845 62.173 40.3371 62.1277 40.3683 62.0683L40.4618 62.2287C40.4083 62.3313 40.31 62.4181 40.1678 62.4893C40.0251 62.5561 39.8757 62.5895 39.7201 62.5895C39.5244 62.5895 39.377 62.527 39.2791 62.4024C39.1856 62.2778 39.1388 62.1017 39.1388 61.8745H39.1054C38.994 62.0878 38.828 62.2677 38.6243 62.3957C38.419 62.5204 38.1829 62.5852 37.9428 62.5828C37.6621 62.5828 37.4416 62.5117 37.2813 62.369C37.1209 62.2263 37.0407 62.0349 37.0407 61.7944C37.0407 61.6874 37.0584 61.5848 37.0942 61.487C37.1343 61.3891 37.1968 61.2956 37.2813 61.2064C37.3808 61.1053 37.4931 61.0177 37.6153 60.9458C37.7776 60.8439 37.9474 60.7546 38.1232 60.6785L39.0853 60.2575ZM41.8497 61.4803C41.8497 61.6497 41.8564 61.7853 41.8698 61.8879C41.8831 61.9905 41.9098 62.0707 41.9499 62.1284C41.9943 62.1862 42.0549 62.2263 42.1303 62.2487C42.2105 62.2711 42.315 62.2845 42.4444 62.2888V62.5227H40.6002V62.2888C40.7338 62.2845 40.8408 62.2711 40.9209 62.2487C40.9934 62.227 41.0582 62.1853 41.108 62.1284C41.1609 62.0662 41.1935 61.9892 41.2016 61.9079C41.2192 61.8101 41.2283 61.6831 41.2283 61.5271V58.6472C41.2283 58.4067 41.2235 58.2062 41.2149 58.0459C41.2102 57.8812 41.2016 57.7695 41.1882 57.7118C41.1658 57.6091 41.1123 57.5404 41.0278 57.5046C40.9477 57.4688 40.8007 57.4512 40.5868 57.4512V57.224L41.8497 56.9768V61.4803ZM44.0223 61.4803C44.0223 61.6497 44.0289 61.7853 44.0428 61.8879C44.0557 61.9905 44.0829 62.0707 44.1225 62.1284C44.1673 62.1862 44.2275 62.2263 44.3034 62.2487C44.3835 62.2711 44.4881 62.2845 44.6169 62.2888V62.5227H42.7732V62.2888C42.9069 62.2845 43.0138 62.2711 43.094 62.2487C43.1662 62.2269 43.2309 62.1853 43.2806 62.1284C43.3336 62.0662 43.3664 61.9893 43.3746 61.9079C43.3923 61.8101 43.4008 61.6831 43.4008 61.5271V58.6472C43.4008 58.4067 43.3965 58.2062 43.3875 58.0459C43.3832 57.8812 43.3741 57.7695 43.3612 57.7118C43.3388 57.6091 43.2849 57.5404 43.2004 57.5046C43.1202 57.4688 42.9732 57.4512 42.7594 57.4512V57.224L44.0227 56.9768L44.0223 61.4803ZM31.5115 70.4588H32.8412C32.9481 70.4588 33.0416 70.4497 33.1218 70.432C33.2017 70.4097 33.2751 70.3685 33.3356 70.3118C33.3977 70.254 33.454 70.1757 33.5027 70.0779C33.5605 69.9523 33.6097 69.8228 33.6497 69.6904H33.8969L33.643 71.1136H30.536V70.8931C30.9669 70.5121 31.3837 70.1153 31.7855 69.7037C32.1148 69.3606 32.3735 69.0532 32.5605 68.7816C32.7476 68.5101 32.877 68.2604 32.9481 68.0333C33.0187 67.8061 33.0548 67.5696 33.055 67.3317C33.055 66.9842 32.9729 66.7103 32.8078 66.5098C32.6474 66.3094 32.4269 66.2091 32.1463 66.2091C31.879 66.2091 31.6609 66.296 31.4915 66.4697C31.3268 66.6434 31.2442 66.8682 31.2442 67.1446C31.2442 67.3851 31.3091 67.5765 31.438 67.7192C31.5716 67.8619 31.752 67.933 31.9792 67.933C31.9575 68.0392 31.8951 68.1327 31.8055 68.1936C31.712 68.2562 31.5965 68.2872 31.458 68.2872C31.3383 68.2883 31.2197 68.2632 31.1106 68.2137C31.0065 68.1634 30.9134 68.093 30.8366 68.0065C30.7585 67.9133 30.6975 67.807 30.6562 67.6925C30.6151 67.5606 30.5948 67.4231 30.5961 67.2849C30.5961 67.0844 30.6386 66.8997 30.723 66.7303C30.8066 66.5625 30.9251 66.4144 31.0705 66.296C31.2249 66.1671 31.4015 66.0674 31.5917 66.002C31.7969 65.9309 32.0174 65.8951 32.2532 65.8951C32.4894 65.8951 32.7056 65.9309 32.9013 66.002C33.097 66.0731 33.2669 66.1733 33.4091 66.3027C33.5518 66.432 33.6611 66.5857 33.7365 66.7637C33.8167 66.9374 33.8568 67.1312 33.8568 67.345C33.8555 67.6273 33.7916 67.9057 33.6697 68.1602C33.5377 68.4417 33.3692 68.7045 33.1686 68.942C32.9548 69.1959 32.7056 69.4474 32.4202 69.697C32.124 69.9508 31.8187 70.1937 31.5048 70.4254L31.5115 70.4588ZM36.7047 65.9018C36.9768 65.9018 37.2326 65.971 37.4731 66.1089C37.7198 66.2524 37.9337 66.4458 38.1012 66.6769C38.288 66.9342 38.4303 67.221 38.5222 67.5254C38.6291 67.8505 38.6825 68.2027 38.6825 68.5812C38.6825 68.942 38.6291 69.2804 38.5222 69.5968C38.4291 69.8946 38.2868 70.1746 38.1012 70.4254C37.9308 70.6501 37.7173 70.8387 37.4731 70.9799C37.2326 71.1136 36.9768 71.1804 36.7047 71.1804C36.4327 71.1804 36.1768 71.1136 35.9363 70.9799C35.6921 70.8387 35.4786 70.6501 35.3082 70.4254C35.1221 70.1739 34.9777 69.8942 34.8806 69.5968C34.7763 69.2685 34.7244 68.9257 34.7269 68.5812C34.7269 68.2027 34.7784 67.8505 34.8806 67.5254C34.9768 67.2215 35.1211 66.935 35.3082 66.6769C35.4757 66.4458 35.6896 66.2524 35.9363 66.1089C36.1695 65.9729 36.4347 65.9014 36.7047 65.9018ZM36.7047 70.8597C36.8784 70.8597 37.0321 70.8239 37.1658 70.7528C37.3042 70.6816 37.4197 70.559 37.5132 70.3853C37.6115 70.2115 37.685 69.9801 37.7337 69.6904C37.7872 69.4007 37.8139 69.0379 37.8139 68.6012C37.8139 68.1468 37.7872 67.7684 37.7337 67.4653C37.685 67.1622 37.6134 66.9198 37.5199 66.737C37.4263 66.5499 37.3104 66.4186 37.1724 66.3428C37.0301 66.2615 36.8686 66.2199 36.7047 66.2225C36.531 66.2225 36.3754 66.2626 36.237 66.3428C36.0986 66.4186 35.9831 66.5499 35.8895 66.737C35.796 66.9198 35.7225 67.1622 35.669 67.4653C35.6199 67.7684 35.5955 68.1468 35.5955 68.6012C35.5955 69.0379 35.6203 69.4007 35.669 69.6904C35.7225 69.9801 35.796 70.2115 35.8895 70.3853C35.9831 70.559 36.099 70.6816 36.237 70.7528C36.3754 70.8239 36.531 70.8597 36.7047 70.8597ZM40.3988 70.4588H41.7285C41.8354 70.4588 41.9289 70.4497 42.0091 70.432C42.0893 70.4096 42.1609 70.3695 42.2229 70.3118C42.2855 70.254 42.3413 70.1757 42.39 70.0779C42.4479 69.9523 42.497 69.8228 42.537 69.6904H42.7842L42.5303 71.1136H39.4233V70.8931C39.8542 70.5121 40.271 70.1154 40.6728 69.7037C41.0025 69.3606 41.2608 69.0532 41.4478 68.7816C41.6349 68.5101 41.7643 68.2604 41.8354 68.0333C41.907 67.8018 41.9423 67.5679 41.9423 67.3317C41.9423 66.9842 41.8602 66.7103 41.6951 66.5098C41.5347 66.3094 41.3142 66.2091 41.0336 66.2091C40.7663 66.2091 40.5482 66.296 40.3788 66.4697C40.2141 66.6434 40.1315 66.8682 40.1315 67.1446C40.1315 67.3851 40.1964 67.5765 40.3253 67.7192C40.4589 67.8619 40.6393 67.933 40.8665 67.933C40.8448 68.0392 40.7824 68.1327 40.6928 68.1936C40.5993 68.2562 40.4838 68.2872 40.3453 68.2872C40.2208 68.2872 40.1048 68.2628 39.9979 68.2137C39.8938 68.1634 39.8007 68.093 39.7239 68.0065C39.6459 67.9132 39.5848 67.8069 39.5435 67.6925C39.5023 67.5606 39.4821 67.4231 39.4834 67.2849C39.4834 67.0844 39.5259 66.8997 39.6103 66.7303C39.6939 66.5625 39.8124 66.4144 39.9578 66.296C40.1122 66.1671 40.2888 66.0674 40.479 66.002C40.6919 65.9295 40.9155 65.8933 41.1405 65.8951C41.3767 65.8951 41.5929 65.9309 41.7886 66.002C41.9848 66.0731 42.1542 66.1733 42.2964 66.3027C42.4391 66.432 42.5484 66.5857 42.6238 66.7637C42.704 66.9374 42.7441 67.1312 42.7441 67.345C42.7428 67.6273 42.6789 67.9057 42.557 68.1602C42.425 68.4417 42.2565 68.7045 42.0559 68.942C41.8421 69.1959 41.5929 69.4474 41.3075 69.697C41.0113 69.9508 40.706 70.1938 40.3921 70.4254L40.3988 70.4588ZM43.3269 69.5834L45.6789 65.9018H45.886V69.5968C46.0244 69.5925 46.1332 69.5834 46.2134 69.5701C46.2984 69.5524 46.3604 69.5233 46.4005 69.4832C46.4476 69.4336 46.478 69.3705 46.4874 69.3028C46.5007 69.2226 46.5074 69.1181 46.5074 68.9888H46.7413V70.4788H46.5074C46.509 70.3804 46.5023 70.2821 46.4874 70.1848C46.479 70.1187 46.4483 70.0575 46.4005 70.0111C46.3604 69.9667 46.2984 69.9376 46.2134 69.9242C46.1055 69.9034 45.9959 69.8922 45.886 69.8908V70.0311C45.886 70.2049 45.8927 70.3452 45.906 70.4521C45.9194 70.559 45.9442 70.6435 45.9795 70.706C46.0182 70.7627 46.0746 70.805 46.1399 70.8263C46.2115 70.8487 46.3027 70.8597 46.4139 70.8597V71.1136H44.5363V70.8597C44.6833 70.8597 44.8016 70.8487 44.8904 70.8263C44.9728 70.8102 45.0478 70.7681 45.1042 70.706C45.1585 70.6362 45.1931 70.5531 45.2045 70.4654C45.2243 70.3373 45.2333 70.2076 45.2312 70.0779V69.9175H43.3269V69.5834ZM45.2312 67.2047H45.1978L43.661 69.5834H45.2312V67.2047Z" fill="var(--fill-0, #222222)"/>
<path id="Vector_9" d="M4.77255 42.9545C4.77255 42.7014 4.87312 42.4586 5.05213 42.2796C5.23114 42.1006 5.47393 42 5.7271 42H71.1135C71.3666 42 71.6094 42.1006 71.7884 42.2796C71.9674 42.4586 72.068 42.7014 72.068 42.9545V52.9773H4.77255V42.9545Z" fill="var(--fill-0, #9132A2)"/>
<path id="Vector_10" d="M22.9173 49.6365V45.4714H25.7246V46.1973H23.7988V47.19H25.58V47.9159H23.7988V48.9106H25.7327V49.6365H22.9173ZM30.7155 45.4714H31.596V48.1761C31.596 48.4801 31.5235 48.7459 31.3784 48.9736C31.2311 49.2044 31.0217 49.389 30.7742 49.5062C30.515 49.6322 30.2134 49.6957 29.8693 49.6957C29.5232 49.6957 29.2211 49.6322 28.9624 49.5062C28.715 49.389 28.5055 49.2044 28.3582 48.9736C28.2146 48.7459 28.1425 48.4801 28.1425 48.1761V45.4714H29.0231V48.1011C29.0231 48.2596 29.0579 48.4009 29.1266 48.524C29.1973 48.6476 29.2965 48.7445 29.424 48.8147C29.5514 48.8853 29.6998 48.9206 29.8693 48.9206C30.0401 48.9206 30.1886 48.8853 30.3146 48.8147C30.442 48.7445 30.5403 48.6476 30.6095 48.524C30.6816 48.3949 30.7182 48.249 30.7155 48.1011V45.4714ZM34.0387 49.6365V45.4714H35.682C35.997 45.4714 36.2652 45.5277 36.4876 45.6398C36.702 45.7423 36.8802 45.9076 36.9983 46.1138C37.1157 46.3176 37.1749 46.5567 37.1749 46.8321C37.1749 47.1089 37.1152 47.3466 36.9959 47.5456C36.8766 47.7437 36.7038 47.8954 36.4771 48.0014C36.2523 48.1069 35.9798 48.1598 35.6595 48.1598H34.5594V47.452H35.5173C35.6853 47.452 35.8251 47.4291 35.9363 47.3828C36.0476 47.337 36.1301 47.2678 36.1845 47.1757C36.2399 47.0836 36.2676 46.969 36.2676 46.8321C36.2676 46.6937 36.2399 46.5772 36.1845 46.4822C36.1272 46.3846 36.0391 46.3087 35.934 46.2665C35.8228 46.2164 35.6829 46.1911 35.513 46.1911H34.9193V49.6365H34.0387ZM36.2881 47.7408L37.3233 49.6365H36.3511L35.3383 47.7408H36.2881ZM43.3431 47.5537C43.3431 48.0081 43.2572 48.3947 43.0849 48.713C42.9268 49.0186 42.6839 49.2722 42.3853 49.4432C42.0908 49.6103 41.76 49.6933 41.3925 49.6933C41.0226 49.6933 40.6905 49.6093 40.396 49.4413C40.1015 49.2733 39.8691 49.0299 39.6982 48.7111C39.5273 48.3923 39.4419 48.0066 39.4419 47.5537C39.4419 47.0998 39.5278 46.7132 39.6982 46.3944C39.8691 46.0761 40.102 45.8331 40.396 45.6666C40.6905 45.4981 41.0226 45.4141 41.3925 45.4141C41.76 45.4141 42.0908 45.4981 42.3853 45.6666C42.6807 45.8336 42.9141 46.0761 43.0845 46.3944C43.2568 46.7132 43.3431 47.0993 43.3431 47.5537ZM42.4502 47.5537C42.4502 47.2597 42.4063 47.0115 42.318 46.8092C42.2311 46.6073 42.1084 46.4541 41.95 46.35C41.784 46.2433 41.5898 46.1887 41.3925 46.193C41.1797 46.193 40.994 46.2455 40.8356 46.35C40.6766 46.4541 40.5535 46.6077 40.4652 46.8096C40.3783 47.0115 40.3349 47.2597 40.3349 47.5542C40.3349 47.8482 40.3783 48.0964 40.4652 48.2982C40.5535 48.5001 40.6766 48.6533 40.8356 48.7579C40.994 48.8624 41.1797 48.9144 41.3925 48.9144C41.6054 48.9144 41.7911 48.8624 41.95 48.7579C42.1084 48.6533 42.2316 48.5001 42.318 48.2982C42.4063 48.0964 42.4502 47.8482 42.4502 47.5537ZM45.7138 49.6365V45.4714H47.357C47.673 45.4714 47.9421 45.5315 48.1646 45.6522C48.3865 45.7716 48.5564 45.9377 48.6728 46.1505C48.7907 46.3619 48.8499 46.6063 48.8499 46.8827C48.8499 47.1595 48.7903 47.4034 48.6709 47.6148C48.5506 47.8272 48.3701 47.9993 48.1521 48.1092C47.9269 48.2271 47.6543 48.2858 47.3346 48.2858H46.287V47.5804H47.1923C47.3618 47.5804 47.5011 47.5513 47.6109 47.4931C47.7171 47.4386 47.8038 47.3526 47.8591 47.2468C47.9165 47.1341 47.9452 47.0091 47.9426 46.8827C47.9426 46.7442 47.9149 46.6235 47.8591 46.5209C47.8043 46.4158 47.7174 46.331 47.6109 46.2789C47.4997 46.2202 47.3589 46.1911 47.1881 46.1911H46.5943V49.6365H45.7138ZM51.1399 49.6365V45.4714H53.9467V46.1973H52.0204V47.19H53.8021V47.9159H52.0204V48.9106H53.9548V49.6365H51.1399Z" fill="var(--fill-0, white)"/>
<path id="Vector_11" d="M45.0205 11.9733L39.1324 15.3205C38.916 15.4435 38.6713 15.5079 38.4223 15.5075C38.1734 15.5071 37.9289 15.4418 37.713 15.3181L31.7423 11.8975C31.5236 11.7721 31.3418 11.5912 31.2154 11.373C31.0891 11.1549 31.0225 10.9072 31.0226 10.6551V1.43182C31.0226 1.05208 31.1734 0.687888 31.4419 0.41937C31.7104 0.150852 32.0746 0 32.4544 0L44.3127 0C44.6924 0 45.0566 0.150852 45.3251 0.41937C45.5937 0.687888 45.7445 1.05208 45.7445 1.43182V10.7291C45.7444 10.9819 45.6774 11.2303 45.5502 11.4488C45.4231 11.6674 45.2403 11.8483 45.0205 11.9733Z" fill="var(--fill-0, #9132A2)"/>
<path id="Vector_12" d="M39.3469 2.60582C39.0386 2.52945 38.7302 2.52945 38.4219 2.52945H38.0368C35.5702 2.60629 33.7203 4.68768 33.7971 7.15422C33.8745 9.62077 35.9554 11.4707 38.4219 11.3934C39.3872 11.3963 40.3297 11.1002 41.1199 10.5457L40.1177 8.84997C39.6401 9.24435 39.0412 9.46212 38.4219 9.46661H38.1136C36.7262 9.38929 35.647 8.15602 35.7244 6.76859C35.8012 5.38116 37.0345 4.30204 38.4219 4.37936L39.3469 2.60582Z" fill="var(--fill-0, white)"/>
<path id="Vector_13" d="M42.7389 8.23217L41.583 6.30542H39.4248L38.2683 8.23217H40.5039L41.5825 10.0821L42.7389 8.23217ZM39.9641 4.76335C39.8104 4.99483 39.7331 5.30315 39.7331 5.61147L41.814 5.68879V5.14947H40.427C40.5039 4.91799 40.658 4.84067 40.8895 4.68651L41.1205 4.53235C41.583 4.37819 41.8145 4.06988 41.8145 3.68472C41.8145 3.45324 41.6598 3.22176 41.5057 3.06808C41.3515 2.91392 41.0437 2.8366 40.8122 2.8366C40.5812 2.8366 40.3497 2.8366 40.1187 2.99076C39.9641 3.14492 39.8099 3.29908 39.7331 3.45372L40.1187 3.83888C40.2724 3.53056 40.5039 3.37592 40.8122 3.37592C40.9664 3.37592 41.1978 3.53056 41.1978 3.68472C41.1978 3.83888 41.1205 3.91572 40.8122 4.06988L40.658 4.14719C40.427 4.30135 40.1187 4.53235 39.9641 4.76383V4.76335Z" fill="var(--fill-0, white)"/>
<path id="Vector_14" d="M4.77255 52.9773H7.15891V55.3636L4.77255 52.9773ZM72.068 52.9773H69.6816V55.3636L72.068 52.9773Z" fill="var(--fill-0, #70267D)"/>
</g>
<defs>
<clipPath id="clip0_150_7510">
<rect width="76.3636" height="84" fill="white"/>
</clipPath>
</defs>
</svg>
