<svg preserveAspectRatio="none" width="100%" height="100%" overflow="visible" style="display: block;" viewBox="0 0 44 44" fill="none" xmlns="http://www.w3.org/2000/svg">
<g id="g2.com logo">
<g clip-path="url(#clip0_150_7542)">
<path id="Vector" d="M44.352 0H0V44.352H44.352V0Z" fill="var(--fill-0, #FF492C)"/>
<path id="Vector_2" d="M31.5233 16.8523H27.7657C27.8669 16.2627 28.2321 15.9327 28.9713 15.5587L29.6621 15.2067C30.8985 14.5731 31.5585 13.8559 31.5585 12.6855C31.5585 11.9507 31.2725 11.3699 30.7049 10.9519C30.1373 10.5339 29.4685 10.3271 28.6853 10.3271C28.0781 10.3183 27.4841 10.4899 26.9737 10.8155C26.4589 11.1323 26.0761 11.5415 25.8385 12.0519L26.9253 13.1431C27.3477 12.2895 27.9593 11.8715 28.7645 11.8715C29.4465 11.8715 29.8645 12.2235 29.8645 12.7119C29.8645 13.1211 29.6621 13.4599 28.8789 13.8559L28.4345 14.0715C27.4709 14.5599 26.8021 15.1187 26.4149 15.7523C26.0277 16.3859 25.8385 17.1823 25.8385 18.1459V18.4099H31.5233V16.8523Z" fill="var(--fill-0, white)"/>
<path id="Vector_3" d="M22.2244 29.185C18.2644 29.185 15.0392 25.9598 15.0392 21.9998C15.0392 18.0398 18.2644 14.8146 22.2244 14.8146L24.684 9.67096C23.8744 9.50816 23.0516 9.42896 22.2244 9.42896C15.2812 9.42896 9.65365 15.0566 9.65365 21.9998C9.65365 28.943 15.2812 34.5706 22.2244 34.5706C24.8864 34.575 27.478 33.7302 29.6252 32.1594L26.906 27.4426C25.6036 28.5646 23.9448 29.185 22.2244 29.185Z" fill="var(--fill-0, white)"/>
<path id="Vector_4" d="M31.0209 20.2043H24.7993L21.6885 25.5899H27.9101L31.0209 30.9799L34.1317 25.5899L31.0209 20.2043Z" fill="var(--fill-0, white)"/>
</g>
</g>
<defs>
<clipPath id="clip0_150_7542">
<rect width="44" height="44" rx="22" fill="white"/>
</clipPath>
</defs>
</svg>
