<svg preserveAspectRatio="none" width="100%" height="100%" overflow="visible" style="display: block;" viewBox="0 0 77 84" fill="none" xmlns="http://www.w3.org/2000/svg">
<g id="G2 -leaders" clip-path="url(#clip0_150_7577)">
<path id="Vector" d="M76.1616 54.6382C76.2057 54.7105 76.2297 54.7933 76.2311 54.878C76.2326 54.9627 76.2115 55.0463 76.17 55.1201C76.1285 55.194 76.0681 55.2555 75.995 55.2983C75.9219 55.3411 75.8387 55.3636 75.754 55.3636H67.2963C67.1697 55.3636 67.0483 55.3134 66.9588 55.2238C66.8693 55.1343 66.819 55.0129 66.819 54.8864V44.8636C66.819 44.7371 66.8693 44.6157 66.9588 44.5262C67.0483 44.4366 67.1697 44.3864 67.2963 44.3864H75.754C75.8387 44.3864 75.9219 44.4089 75.995 44.4517C76.0681 44.4945 76.1285 44.556 76.17 44.6299C76.2115 44.7037 76.2326 44.7873 76.2311 44.872C76.2297 44.9567 76.2057 45.0395 76.1616 45.1118L73.413 49.6268C73.3676 49.7016 73.3436 49.7875 73.3436 49.875C73.3436 49.9625 73.3676 50.0484 73.413 50.1232L76.1616 54.6382ZM0.442294 45.1118C0.398222 45.0394 0.374223 44.9566 0.372763 44.8719C0.371302 44.7871 0.392434 44.7035 0.433985 44.6296C0.475537 44.5558 0.536009 44.4943 0.609187 44.4516C0.682365 44.4088 0.765609 44.3863 0.850363 44.3864H9.30764C9.43422 44.3864 9.55561 44.4366 9.64512 44.5262C9.73462 44.6157 9.78491 44.7371 9.78491 44.8636V54.8864C9.78491 55.0129 9.73462 55.1343 9.64512 55.2238C9.55561 55.3134 9.43422 55.3636 9.30764 55.3636H0.850363C0.765609 55.3637 0.682365 55.3412 0.609187 55.2985C0.536009 55.2557 0.475537 55.1942 0.433985 55.1204C0.392434 55.0465 0.371302 54.9629 0.372763 54.8781C0.374223 54.7934 0.398222 54.7106 0.442294 54.6382L3.19091 50.1232C3.23643 50.0484 3.26051 49.9625 3.26051 49.875C3.26051 49.7875 3.23643 49.7016 3.19091 49.6268L0.442294 45.1118Z" fill="var(--fill-0, #DF3F25)"/>
<path id="Vector_2" d="M7.15891 8.11364C7.15891 4.95075 9.7233 2.38636 12.8862 2.38636H63.9544C67.1173 2.38636 69.6816 4.95075 69.6816 8.11364V61.8526C69.6817 62.8416 69.4257 63.8137 68.9385 64.6744C68.4513 65.535 67.7495 66.2549 66.9015 66.7638L41.1512 82.2179C40.2553 82.7555 39.2294 83.0378 38.1846 83.0342C37.1397 83.0307 36.1158 82.7415 35.2235 82.1978L9.90562 66.769C9.06681 66.2578 8.37359 65.5395 7.89258 64.683C7.41156 63.8265 7.15891 62.8607 7.15891 61.8784V8.11364Z" fill="var(--fill-0, #FEF6F4)"/>
<path id="Vector_3" d="M69.6816 21.7159L19.054 72.3436L9.90562 66.769C9.06681 66.2578 8.37359 65.5394 7.89258 64.683C7.41156 63.8265 7.15891 62.8607 7.15891 61.8784V49.6364L54.4089 2.38636H63.9544C67.1173 2.38636 69.6816 4.95075 69.6816 8.11364V21.7159Z" fill="var(--fill-0, white)"/>
<path id="Vector_4" opacity="0.8" d="M26.467 76.8619L21.574 73.8799L69.6812 25.7727V33.6477L26.467 76.8619Z" fill="var(--fill-0, white)"/>
<path id="Vector_5" d="M12.8862 3.10227H63.9544C66.7221 3.10227 68.9657 5.34593 68.9657 8.11364V61.8526C68.9657 63.6128 68.0422 65.2441 66.5331 66.15L40.7833 81.6036C39.9993 82.0741 39.1016 82.3213 38.1874 82.3182C37.2731 82.3152 36.377 82.0621 35.5963 81.5864L10.2784 66.1576C9.54439 65.7104 8.93779 65.0818 8.51687 64.3324C8.09595 63.583 7.87485 62.7379 7.87482 61.8784V8.11364C7.87482 5.34593 10.1185 3.10227 12.8862 3.10227Z" stroke="var(--stroke-0, #DEB4B2)" stroke-width="1.43182"/>
<path id="Vector_6" d="M4.77255 42.9545C4.77255 42.7014 4.87312 42.4586 5.05213 42.2796C5.23114 42.1006 5.47393 42 5.7271 42H71.1135C71.3666 42 71.6094 42.1006 71.7884 42.2796C71.9674 42.4586 72.068 42.7014 72.068 42.9545V52.9773H4.77255V42.9545Z" fill="var(--fill-0, #FF4C2F)"/>
<path id="Vector_7" d="M23.478 49.6366L22.2862 45.4714H23.2484L23.9376 48.3656H23.9724L24.7332 45.4714H25.5565L26.3154 48.3713H26.3521L27.0413 45.4714H28.0035L26.8117 49.6366H25.9531L25.1604 46.9133H25.1274L24.3366 49.6366H23.478ZM31.1883 45.4714V49.6366H30.3073V45.4714H31.1883ZM37.2292 45.4714V49.6366H36.4689L34.6567 47.0149H34.6261V49.6366H33.7455V45.4714H34.5182L36.3161 48.0907H36.3529V45.4714H37.2292ZM39.6308 46.1973V45.4714H43.0519V46.1973H41.7766V49.6366H40.9065V46.1973H39.6308ZM45.4483 49.6366V45.4714H48.2546V46.1973H46.3288V47.1901H48.1105V47.916H46.3288V48.9106H48.2627V49.6366H45.4483ZM50.7875 49.6366V45.4714H52.4308C52.7453 45.4714 53.014 45.5277 53.2364 45.6399C53.4602 45.7511 53.6302 45.9091 53.7466 46.1138C53.865 46.3176 53.9237 46.5567 53.9237 46.8321C53.9237 47.1089 53.864 47.3466 53.7447 47.5456C53.6254 47.7437 53.4526 47.8955 53.2264 48.0014C53.0011 48.1069 52.7286 48.1599 52.4088 48.1599H51.3082V47.4521H52.2661C52.4341 47.4521 52.574 47.4292 52.6852 47.3829C52.7964 47.3371 52.8789 47.2679 52.9333 47.1758C52.9887 47.0836 53.0169 46.9691 53.0169 46.8321C53.0169 46.6937 52.9887 46.5773 52.9333 46.4823C52.8761 46.3847 52.7882 46.3088 52.6832 46.2665C52.572 46.2164 52.4317 46.1911 52.2623 46.1911H51.6681V49.6366H50.7875ZM53.0369 47.7408L54.0721 49.6366H53.0999L52.0871 47.7408H53.0369Z" fill="var(--fill-0, white)"/>
<path id="Vector_8" d="M45.0205 11.9733L39.1324 15.3205C38.916 15.4435 38.6713 15.5079 38.4223 15.5075C38.1734 15.5071 37.9289 15.4418 37.713 15.3181L31.7423 11.8975C31.5236 11.7721 31.3418 11.5912 31.2154 11.373C31.0891 11.1549 31.0225 10.9072 31.0226 10.6551V1.43182C31.0226 1.05208 31.1734 0.687888 31.4419 0.41937C31.7104 0.150852 32.0746 0 32.4544 0L44.3127 0C44.6924 0 45.0566 0.150852 45.3251 0.41937C45.5937 0.687888 45.7445 1.05208 45.7445 1.43182V10.7291C45.7444 10.9819 45.6774 11.2303 45.5502 11.4488C45.4231 11.6674 45.2403 11.8483 45.0205 11.9733Z" fill="var(--fill-0, #FF492C)"/>
<path id="Vector_9" d="M39.3469 2.60628C39.0386 2.52992 38.7302 2.52992 38.4219 2.52992H38.0368C35.5702 2.60676 33.7203 4.68815 33.7971 7.15469C33.8745 9.62124 35.9554 11.4711 38.4219 11.3938C39.3872 11.3968 40.3297 11.1007 41.1199 10.5462L40.1177 8.85044C39.6401 9.24482 39.0412 9.46259 38.4219 9.46708H38.1136C36.7262 9.38976 35.647 8.15649 35.7244 6.76905C35.8012 5.38162 37.0345 4.30251 38.4219 4.37983L39.3469 2.60628Z" fill="var(--fill-0, white)"/>
<path id="Vector_10" d="M42.738 8.23217L41.5821 6.30542H39.4238L38.2674 8.23217H40.5029L41.5816 10.0821L42.738 8.23217ZM39.9631 4.76335C39.8095 4.99483 39.7321 5.30315 39.7321 5.61147L41.8131 5.68879V5.14947H40.4261C40.5029 4.91799 40.6571 4.84067 40.8886 4.68651L41.1196 4.53235C41.5821 4.37819 41.8135 4.06988 41.8135 3.68472C41.8135 3.45324 41.6589 3.22176 41.5047 3.06808C41.3506 2.91392 41.0427 2.8366 40.8113 2.8366C40.5803 2.8366 40.3488 2.8366 40.1178 2.99076C39.9631 3.14492 39.809 3.29908 39.7321 3.45372L40.1178 3.83888C40.2715 3.53056 40.5029 3.37592 40.8113 3.37592C40.9654 3.37592 41.1969 3.53056 41.1969 3.68472C41.1969 3.83888 41.1196 3.91572 40.8113 4.06988L40.6571 4.14719C40.4261 4.30135 40.1178 4.53235 39.9631 4.76383V4.76335Z" fill="var(--fill-0, white)"/>
<path id="Vector_11" d="M4.77255 52.9773H7.15891V55.3636L4.77255 52.9773ZM72.068 52.9773H69.6816V55.3636L72.068 52.9773Z" fill="var(--fill-0, #BF3721)"/>
<path id="Vector_12" d="M24.6531 33.409H16.0202V32.9012C16.3323 32.8921 16.5814 32.8654 16.7685 32.821C16.9642 32.7766 17.116 32.7007 17.2229 32.5938C17.3298 32.4869 17.4014 32.3356 17.4367 32.1394C17.4725 31.9438 17.4902 31.6894 17.4902 31.3777V25.1503C17.4902 24.8386 17.4725 24.589 17.4367 24.4019C17.41 24.2062 17.3479 24.0544 17.2496 23.9475C17.1608 23.8315 17.0272 23.7561 16.8487 23.7203C16.6707 23.676 16.4392 23.6445 16.1538 23.6268V23.119H20.2163V23.6268C19.9314 23.6359 19.6999 23.6626 19.5214 23.707C19.3525 23.7514 19.2188 23.8315 19.1205 23.9475C19.0317 24.0635 18.9692 24.2239 18.9334 24.4286C18.9067 24.6338 18.8933 24.9054 18.8933 25.2438V31.0035C18.8933 31.3777 18.9291 31.6851 19.0002 31.9256C19.0804 32.1571 19.2098 32.3399 19.3878 32.4735C19.5749 32.5981 19.8202 32.6873 20.1228 32.7408C20.4259 32.7852 20.8091 32.8076 21.2721 32.8076C21.7799 32.8076 22.2075 32.7809 22.555 32.7274C22.9024 32.6654 23.1921 32.5628 23.4236 32.4201C23.663 32.2699 23.857 32.0574 23.9849 31.8053C24.1276 31.5381 24.2474 31.1949 24.3457 30.7763H24.8535L24.6531 33.409ZM31.837 32.1662C31.0795 33.084 30.1398 33.5426 29.0172 33.5426C28.4918 33.5426 28.015 33.4581 27.5873 33.2887C27.1728 33.1192 26.7958 32.8694 26.4782 32.5537C26.1702 32.2249 25.9296 31.839 25.7699 31.4178C25.6004 30.9725 25.516 30.4823 25.516 29.9478C25.516 29.4042 25.6052 28.9011 25.7832 28.4377C25.9489 27.9943 26.2036 27.5896 26.5316 27.2483C26.8647 26.9164 27.2597 26.6531 27.6942 26.4733C28.1486 26.2862 28.6431 26.1926 29.1776 26.1926C30.0415 26.1926 30.7097 26.4289 31.1822 26.9009C31.6547 27.3638 31.8904 28.032 31.8904 28.9054C31.8904 29.03 31.8637 29.1059 31.8102 29.1326C31.7659 29.1593 31.6542 29.1727 31.4762 29.1727H27.0795C27.0592 29.2606 27.0457 29.35 27.0394 29.44C27.03 29.5511 27.0255 29.6626 27.0261 29.7741C27.0261 30.237 27.0795 30.6604 27.1864 31.0436C27.3024 31.4178 27.4628 31.7385 27.6675 32.0058C27.8813 32.2731 28.1305 32.4826 28.4159 32.6339C28.7204 32.7788 29.0542 32.8519 29.3914 32.8477C29.7656 32.8477 30.1131 32.7675 30.4338 32.6072C30.7545 32.4377 31.0843 32.1662 31.4227 31.792L31.837 32.1662ZM29.632 28.558C29.81 28.558 29.9527 28.5532 30.0596 28.5446C30.1665 28.5355 30.2467 28.5179 30.3002 28.4912C30.3479 28.4702 30.3861 28.432 30.4071 28.3843C30.4247 28.3308 30.4338 28.264 30.4338 28.1838C30.4338 27.7738 30.3002 27.4488 30.0329 27.2083C29.7747 26.9586 29.4182 26.8341 28.9638 26.8341C28.0016 26.8341 27.4045 27.4087 27.1731 28.558H29.632ZM36.9185 29.4533C36.4759 29.6203 36.0431 29.8121 35.6222 30.028C35.2748 30.2151 34.9941 30.4022 34.7803 30.5893C34.5665 30.7763 34.4104 30.9634 34.3126 31.1505C34.2233 31.3376 34.1789 31.529 34.1789 31.7252C34.1789 32.0192 34.2768 32.2597 34.4729 32.4468C34.6686 32.6339 34.9273 32.7274 35.248 32.7274C35.4795 32.7274 35.6933 32.6697 35.8895 32.5537C36.0947 32.4377 36.2723 32.2817 36.424 32.086C36.5753 31.8808 36.6961 31.645 36.7849 31.3777C36.8747 31.097 36.9198 30.8038 36.9185 30.5091V29.4533ZM36.9185 28.8787V28.3308C36.9185 27.244 36.4555 26.7004 35.5287 26.7004C35.3774 26.7004 35.248 26.7138 35.1411 26.7405C35.0426 26.763 34.9509 26.8088 34.8739 26.8742C34.8023 26.9362 34.7354 27.0255 34.6734 27.1414C34.6112 27.2805 34.5576 27.4233 34.513 27.5691C34.4147 27.8273 34.3174 28.001 34.219 28.0903C34.1298 28.1704 33.9962 28.2105 33.8181 28.2105C33.3728 28.2105 33.1499 27.9876 33.1499 27.5423C33.1499 27.1147 33.3771 26.7849 33.8315 26.5534C34.2859 26.3129 34.9316 26.1926 35.7692 26.1926C36.6603 26.1926 37.2927 26.353 37.6669 26.6737C38.041 26.9854 38.2281 27.5199 38.2281 28.2773V31.2708C38.2281 32.2864 38.4286 32.7943 38.8295 32.7943C38.9541 32.7943 39.0743 32.7809 39.1903 32.7542C39.3063 32.7184 39.4041 32.6339 39.4843 32.5003L39.6714 32.821C39.5645 33.0262 39.3683 33.1995 39.0834 33.3422C38.7985 33.4758 38.4997 33.5426 38.188 33.5426C37.7957 33.5426 37.5017 33.418 37.306 33.1684C37.1189 32.9188 37.0254 32.5671 37.0254 32.1127H36.9586C36.7361 32.5394 36.404 32.8992 35.9964 33.1551C35.5859 33.4047 35.1137 33.5344 34.6333 33.5293C34.072 33.5293 33.631 33.3865 33.3103 33.1016C32.9896 32.8167 32.8292 32.4334 32.8292 31.9523C32.8292 31.7385 32.865 31.5338 32.9361 31.3376C33.0163 31.1419 33.1414 30.9544 33.3103 30.7763C33.4793 30.5983 33.7022 30.4246 33.9785 30.2552C34.303 30.0514 34.6425 29.8727 34.9941 29.7206L36.9185 28.8787ZM45.8549 32.2864H45.8015C45.4808 32.7408 45.1376 33.0658 44.7725 33.262C44.416 33.4491 43.9926 33.5426 43.5029 33.5426C42.9951 33.5426 42.5274 33.4534 42.0998 33.2753C41.6891 33.0939 41.3171 32.8353 41.0039 32.5136C40.6922 32.17 40.4473 31.7711 40.2818 31.3376C40.1124 30.8833 40.0279 30.3888 40.0279 29.8543C40.0279 29.3288 40.1124 28.8429 40.2818 28.3976C40.4599 27.9433 40.7004 27.5557 41.0035 27.235C41.3151 26.9054 41.6932 26.6458 42.1127 26.4733C42.5513 26.2839 43.0247 26.1883 43.5025 26.1926C43.9301 26.1926 44.3086 26.2642 44.6384 26.4064C44.9768 26.5491 45.3018 26.7763 45.6139 27.088V25.7249C45.6139 25.2171 45.6049 24.7942 45.5872 24.4553C45.5781 24.1165 45.5605 23.885 45.5337 23.7604C45.4889 23.5648 45.3643 23.4263 45.1596 23.3462C44.9543 23.266 44.6202 23.2259 44.1573 23.2259V22.825L46.8968 22.3172V30.028C46.8968 30.6427 46.9011 31.1505 46.9102 31.5514C46.9188 31.9433 46.9455 32.2244 46.9904 32.3933C47.0171 32.5003 47.0481 32.589 47.0839 32.6606C47.1283 32.7322 47.1861 32.7895 47.2577 32.8343C47.3378 32.8701 47.44 32.8964 47.565 32.9145C47.6987 32.9322 47.8676 32.9413 48.0728 32.9413V33.3956L45.8545 33.5426V32.2864H45.8549ZM45.5877 29.3331C45.5877 28.8701 45.5609 28.5179 45.5075 28.2773C45.4679 28.0478 45.3714 27.8319 45.2269 27.6493C45.0222 27.3822 44.7501 27.1746 44.4384 27.0479C44.1458 26.9097 43.8266 26.8367 43.5029 26.8341C42.8615 26.8341 42.3713 27.1013 42.0329 27.6359C41.7032 28.1614 41.5385 28.8787 41.5385 29.7874C41.5385 30.2599 41.5786 30.6871 41.6588 31.0703C41.7475 31.4536 41.8726 31.7829 42.0329 32.0593C42.2019 32.3265 42.4071 32.536 42.6477 32.6873C42.8968 32.83 43.1822 32.9012 43.5029 32.9012C43.6633 32.9012 43.8237 32.8835 43.984 32.8477C44.153 32.8119 44.3134 32.7585 44.4651 32.6873C44.6255 32.6072 44.7725 32.5179 44.9061 32.4201C45.0398 32.3132 45.151 32.1929 45.2402 32.0593C45.3648 31.8636 45.454 31.6273 45.5075 31.351C45.5609 31.0746 45.5877 30.6962 45.5877 30.2151V29.3331ZM55.1131 32.1662C54.3561 33.084 53.4159 33.5426 52.2934 33.5426C51.7679 33.5426 51.2911 33.4581 50.8634 33.2887C50.4489 33.1191 50.072 32.8693 49.7543 32.5537C49.4465 32.2248 49.2059 31.8389 49.046 31.4178C48.877 30.9725 48.7921 30.4823 48.7921 29.9478C48.7921 29.4042 48.8813 28.9011 49.0594 28.4377C49.2379 27.9748 49.487 27.5781 49.8077 27.2483C50.1409 26.9165 50.5359 26.6531 50.9704 26.4733C51.4247 26.2862 51.9192 26.1926 52.4537 26.1926C53.3181 26.1926 53.9862 26.4289 54.4583 26.9009C54.9308 27.3638 55.1665 28.032 55.1665 28.9054C55.1665 29.03 55.1398 29.1059 55.0864 29.1326C55.042 29.1593 54.9308 29.1727 54.7523 29.1727H50.3556C50.338 29.2443 50.3246 29.3331 50.3155 29.44C50.3062 29.5511 50.3018 29.6626 50.3022 29.7741C50.3022 30.237 50.3556 30.6604 50.4625 31.0436C50.5785 31.4178 50.7389 31.7385 50.9436 32.0058C51.1574 32.2731 51.4071 32.4826 51.692 32.6339C51.9966 32.7788 52.3303 32.8519 52.6675 32.8477C53.0417 32.8477 53.3892 32.7675 53.7099 32.6072C54.0306 32.4377 54.3604 32.1662 54.6988 31.792L55.1131 32.1662ZM52.9081 28.558C53.0866 28.558 53.2288 28.5532 53.3357 28.5446C53.4426 28.5355 53.5228 28.5179 53.5763 28.4912C53.6241 28.4702 53.6622 28.4321 53.6832 28.3843C53.7013 28.3308 53.7099 28.264 53.7099 28.1838C53.7099 27.7738 53.5763 27.4488 53.309 27.2083C53.0508 26.9586 52.6943 26.8341 52.2399 26.8341C51.2777 26.8341 50.6811 27.4087 50.4492 28.558H52.9081ZM58.4974 31.2842C58.4974 31.6493 58.5065 31.939 58.5242 32.1528C58.5418 32.3666 58.5867 32.5313 58.6578 32.6473C58.738 32.7542 58.8492 32.8253 58.9919 32.8611C59.1346 32.8969 59.335 32.9231 59.5932 32.9413V33.409H56.0385V32.9413C56.2967 32.9322 56.5019 32.9102 56.6532 32.8744C56.8045 32.83 56.9205 32.7542 57.0007 32.6473C57.0809 32.5403 57.13 32.3891 57.1477 32.1929C57.1744 31.9877 57.1878 31.7161 57.1878 31.3777V29.8142C57.1878 29.208 57.1787 28.736 57.1611 28.3976C57.152 28.0588 57.1076 27.8096 57.0274 27.6493C56.9563 27.4889 56.8403 27.3953 56.68 27.3686C56.5196 27.3328 56.2967 27.3152 56.0118 27.3152V26.8474L58.3504 26.3396L58.5375 27.9967H58.591C58.7069 27.7294 58.8492 27.4846 59.0186 27.2617C59.185 27.0505 59.3781 26.8618 59.5932 26.7004C59.7882 26.5458 60.0042 26.4198 60.2347 26.3263C60.4512 26.2383 60.6826 26.193 60.9162 26.1926C61.2012 26.1926 61.4241 26.2642 61.5844 26.4064C61.7539 26.5401 61.8383 26.7229 61.8383 26.9543C61.8383 27.1682 61.7715 27.3376 61.6379 27.4622C61.5042 27.5781 61.3129 27.6359 61.0632 27.6359C60.9205 27.6359 60.8003 27.6182 60.7024 27.5824C60.6121 27.5499 60.523 27.5142 60.4352 27.4755C60.3658 27.4321 60.2945 27.392 60.2213 27.3553C60.156 27.3189 60.0823 27.3004 60.0075 27.3018C59.767 27.3018 59.5264 27.4579 59.2859 27.7695C59.0453 28.0726 58.8582 28.4601 58.7246 28.9322C58.6471 29.222 58.589 29.5166 58.5509 29.8142C58.5143 30.1515 58.4964 30.4905 58.4974 30.8298V31.2842ZM29.5413 65.9762H31.2509C31.3883 65.9762 31.5086 65.9647 31.6117 65.9418C31.7148 65.9132 31.8064 65.8616 31.8866 65.7872C31.9668 65.7127 32.0384 65.6125 32.1014 65.4865C32.1758 65.325 32.2389 65.1585 32.2904 64.9882H32.6082L32.2818 66.8181H28.287V66.5346C28.9399 65.9504 29.4754 65.4407 29.8935 65.0054C30.3173 64.5644 30.6495 64.1692 30.8901 63.8198C31.1306 63.4705 31.2967 63.1498 31.3883 62.8577C31.4791 62.5656 31.5254 62.2615 31.5258 61.9556C31.5258 61.5089 31.4198 61.1567 31.2079 60.8989C31.0017 60.6412 30.7182 60.5123 30.3574 60.5123C30.0138 60.5123 29.7332 60.624 29.5155 60.8474C29.3036 61.0707 29.1977 61.36 29.1977 61.7151C29.1977 62.0243 29.2807 62.2706 29.4468 62.4539C29.6186 62.6372 29.8506 62.7288 30.1427 62.7288C30.114 62.8663 30.0396 62.9779 29.9193 63.0638C29.799 63.144 29.6501 63.1841 29.4726 63.1841C29.3186 63.1855 29.1661 63.1532 29.0258 63.0896C28.892 63.025 28.7723 62.9345 28.6736 62.8233C28.5731 62.7034 28.4946 62.5667 28.4417 62.4195C28.3887 62.2499 28.3626 62.0731 28.3643 61.8955C28.3643 61.6378 28.4187 61.4001 28.5276 61.1824C28.6364 60.9648 28.7853 60.7787 28.9743 60.624C29.1728 60.4583 29.3999 60.3302 29.6444 60.246C29.9181 60.1527 30.2057 60.1062 30.4949 60.1086C30.7984 60.1086 31.0762 60.1544 31.3282 60.246C31.5802 60.3377 31.7978 60.4665 31.9811 60.6326C32.1644 60.7987 32.3047 60.9963 32.4021 61.2254C32.5052 61.4488 32.5567 61.6979 32.5567 61.9728C32.5567 62.3279 32.4765 62.6773 32.3162 63.0209C32.1463 63.3827 31.9297 63.7206 31.6718 64.026C31.3761 64.3735 31.0545 64.698 30.7097 64.9968C30.3431 65.3118 29.9508 65.6239 29.5327 65.9332L29.5413 65.9762ZM36.2183 60.1172C36.5677 60.1172 36.897 60.2059 37.2063 60.3835C37.5234 60.568 37.7984 60.8167 38.0138 61.1137C38.2429 61.423 38.4233 61.7867 38.5551 62.2048C38.6925 62.6228 38.7612 63.0753 38.7612 63.5621C38.7612 64.026 38.6925 64.4613 38.5551 64.8679C38.4233 65.2746 38.2429 65.6297 38.0138 65.9332C37.7947 66.2222 37.5202 66.4646 37.2063 66.6463C36.897 66.8181 36.5677 66.904 36.2183 66.904C35.869 66.904 35.5397 66.8181 35.2304 66.6463C34.9165 66.4646 34.6419 66.2222 34.4228 65.9332C34.1835 65.61 33.9979 65.2503 33.873 64.8679C33.7389 64.4458 33.6722 64.0051 33.6754 63.5621C33.6754 63.0753 33.7413 62.6228 33.873 62.2048C34.0105 61.7867 34.1937 61.423 34.4228 61.1137C34.6383 60.8167 34.9133 60.568 35.2304 60.3835C35.5302 60.2085 35.8712 60.1166 36.2183 60.1172ZM36.2183 66.4916C36.4417 66.4916 36.6393 66.4458 36.8111 66.3542C36.9887 66.2625 37.1376 66.105 37.2578 65.8817C37.3838 65.6583 37.4783 65.3605 37.5413 64.9882C37.6101 64.6159 37.6444 64.1492 37.6444 63.5879C37.6444 63.0037 37.6101 62.5169 37.5413 62.1274C37.4783 61.738 37.3867 61.4258 37.2664 61.191C37.1462 60.9505 36.9972 60.7815 36.8197 60.6842C36.6367 60.5796 36.429 60.5262 36.2183 60.5295C35.995 60.5295 35.7945 60.5811 35.617 60.6842C35.4394 60.7815 35.2905 60.9505 35.1702 61.191C35.05 61.4258 34.9555 61.738 34.8867 62.1274C34.8237 62.5169 34.7922 63.0037 34.7922 63.5879C34.7922 64.1492 34.8237 64.6159 34.8867 64.9882C34.9555 65.3605 35.05 65.6583 35.1702 65.8817C35.2905 66.105 35.4394 66.2625 35.617 66.3542C35.7945 66.4458 35.995 66.4916 36.2183 66.4916ZM40.9682 65.9762H42.6777C42.8152 65.9762 42.9355 65.9647 43.0386 65.9418C43.1417 65.9132 43.2333 65.8616 43.3135 65.7872C43.3937 65.7127 43.4652 65.6125 43.5282 65.4865C43.6027 65.325 43.6658 65.1585 43.7172 64.9882H44.0351L43.7087 66.8181H39.7139V66.5346C40.3668 65.9504 40.9023 65.4407 41.3204 65.0054C41.7442 64.5644 42.0764 64.1692 42.3169 63.8198C42.5575 63.4705 42.7236 63.1498 42.8152 62.8577C42.906 62.5656 42.9523 62.2615 42.9527 61.9556C42.9527 61.5089 42.8467 61.1567 42.6348 60.8989C42.4286 60.6412 42.1451 60.5123 41.7843 60.5123C41.4407 60.5123 41.16 60.624 40.9424 60.8474C40.7305 61.0707 40.6245 61.36 40.6245 61.7151C40.6245 62.0243 40.7076 62.2706 40.8737 62.4539C41.0455 62.6372 41.2774 62.7288 41.5695 62.7288C41.5409 62.8663 41.4664 62.9779 41.3462 63.0638C41.2259 63.144 41.077 63.1841 40.8994 63.1841C40.7454 63.1855 40.593 63.1532 40.4527 63.0896C40.3188 63.025 40.1991 62.9345 40.1005 62.8233C40 62.7034 39.9215 62.5667 39.8685 62.4195C39.8156 62.2499 39.7895 62.0731 39.7912 61.8955C39.7912 61.6378 39.8456 61.4001 39.9544 61.1824C40.0632 60.9648 40.2122 60.7787 40.4012 60.624C40.5996 60.4583 40.8267 60.3302 41.0712 60.246C41.345 60.1527 41.6325 60.1062 41.9217 60.1086C42.2253 60.1086 42.5031 60.1544 42.7551 60.246C43.0071 60.3377 43.2247 60.4665 43.408 60.6326C43.5912 60.7987 43.7316 60.9963 43.8289 61.2254C43.932 61.4488 43.9836 61.6979 43.9836 61.9728C43.9836 62.3279 43.9034 62.6773 43.743 63.0209C43.5732 63.3827 43.3565 63.7206 43.0987 64.026C42.803 64.3735 42.4814 64.698 42.1365 64.9968C41.77 65.3118 41.3777 65.6239 40.9596 65.9332L40.9682 65.9762ZM46.2788 62.6773L46.2959 62.703C46.3819 62.64 46.5079 62.5885 46.6739 62.5484C46.8362 62.5031 47.0038 62.48 47.1722 62.4797C47.4157 62.4777 47.6564 62.5306 47.8767 62.6343C48.0943 62.7317 48.2804 62.8691 48.4351 63.0467C48.5954 63.2242 48.7214 63.4361 48.8131 63.6824C48.9047 63.9229 48.9505 64.1835 48.9505 64.4642C48.9505 64.8078 48.8847 65.1285 48.7529 65.4263C48.6282 65.7167 48.4471 65.9795 48.2203 66.1995C47.99 66.4216 47.7186 66.5967 47.4214 66.715C47.1078 66.8429 46.772 66.9072 46.4334 66.904C46.2072 66.9058 45.9818 66.8769 45.7633 66.8181C45.574 66.763 45.3943 66.679 45.2307 66.5689C45.0875 66.4658 44.9729 66.3427 44.887 66.1995C44.8071 66.0518 44.7658 65.8864 44.7668 65.7184C44.7668 65.5638 44.8011 65.4435 44.8699 65.3576C44.9443 65.2717 45.0474 65.2288 45.1791 65.2288C45.2994 65.2288 45.3882 65.2603 45.4454 65.3233C45.5084 65.3863 45.5571 65.4664 45.5915 65.5638C45.6259 65.6612 45.6574 65.7671 45.686 65.8817C45.7146 65.9905 45.7547 66.0936 45.8063 66.1909C45.8635 66.2883 45.943 66.3707 46.0382 66.4315C46.1413 66.4945 46.2816 66.526 46.4592 66.526C46.6825 66.526 46.883 66.4744 47.0605 66.3713C47.2434 66.2571 47.3966 66.1011 47.5073 65.916C47.6275 65.7156 47.7192 65.4779 47.7822 65.203C47.8539 64.8961 47.8885 64.5817 47.8853 64.2666C47.8853 63.7798 47.8165 63.4218 47.6791 63.1927C47.5474 62.9636 47.324 62.8491 47.009 62.8491C46.7684 62.8491 46.5709 62.9149 46.4162 63.0467C46.2673 63.1727 46.1442 63.3788 46.0468 63.6652C46.0124 63.7683 45.9809 63.8342 45.9523 63.8628C45.9376 63.8772 45.9201 63.8884 45.9009 63.8958C45.8817 63.9032 45.8612 63.9066 45.8406 63.9058C45.7146 63.9058 45.6516 63.8485 45.6516 63.7339C45.6516 63.7053 45.6545 63.6824 45.6602 63.6652L46.5794 60.1172C46.7054 60.1687 46.8486 60.2088 47.009 60.2374C47.1694 60.2603 47.3612 60.2718 47.5846 60.2718C48.1172 60.2718 48.4981 60.2174 48.7272 60.1086L48.7787 60.1172C48.71 60.4436 48.5582 60.6956 48.3234 60.8732C48.0943 61.0507 47.7994 61.1395 47.4385 61.1395H46.6825L46.2788 62.6773Z" fill="var(--fill-0, #222222)"/>
</g>
<defs>
<clipPath id="clip0_150_7577">
<rect width="76.3636" height="84" fill="white"/>
</clipPath>
</defs>
</svg>
