<svg preserveAspectRatio="none" width="100%" height="100%" overflow="visible" style="display: block;" viewBox="0 0 77 84" fill="none" xmlns="http://www.w3.org/2000/svg">
<g id="G2 momentom leader" clip-path="url(#clip0_150_7496)">
<path id="Vector" d="M76.1607 54.6382C76.2047 54.7105 76.2287 54.7933 76.2302 54.878C76.2317 54.9627 76.2106 55.0463 76.1691 55.1201C76.1276 55.194 76.0672 55.2555 75.9941 55.2983C75.921 55.3411 75.8378 55.3636 75.7531 55.3636H67.2953C67.1688 55.3636 67.0474 55.3134 66.9579 55.2238C66.8684 55.1343 66.8181 55.0129 66.8181 54.8864V44.8636C66.8181 44.7371 66.8684 44.6157 66.9579 44.5262C67.0474 44.4366 67.1688 44.3864 67.2953 44.3864H75.7531C75.8378 44.3864 75.921 44.4089 75.9941 44.4517C76.0672 44.4945 76.1276 44.556 76.1691 44.6299C76.2106 44.7037 76.2317 44.7873 76.2302 44.872C76.2287 44.9567 76.2047 45.0395 76.1607 45.1118L73.4121 49.6268C73.3666 49.7016 73.3426 49.7875 73.3426 49.875C73.3426 49.9625 73.3666 50.0484 73.4121 50.1232L76.1607 54.6382ZM0.441362 45.1118C0.39729 45.0394 0.373291 44.9566 0.37183 44.8719C0.37037 44.7871 0.391502 44.7035 0.433053 44.6296C0.474605 44.5558 0.535077 44.4943 0.608255 44.4516C0.681433 44.4088 0.764677 44.3863 0.84943 44.3864H9.3067C9.43328 44.3864 9.55468 44.4366 9.64419 44.5262C9.73369 44.6157 9.78398 44.7371 9.78398 44.8636V54.8864C9.78398 55.0129 9.73369 55.1343 9.64419 55.2238C9.55468 55.3134 9.43328 55.3636 9.3067 55.3636H0.84943C0.764677 55.3637 0.681433 55.3412 0.608255 55.2985C0.535077 55.2557 0.474605 55.1942 0.433053 55.1204C0.391502 55.0465 0.37037 54.9629 0.37183 54.8781C0.373291 54.7934 0.39729 54.7106 0.441362 54.6382L3.18998 50.1232C3.2355 50.0484 3.25958 49.9625 3.25958 49.875C3.25958 49.7875 3.2355 49.7016 3.18998 49.6268L0.441362 45.1118Z" fill="var(--fill-0, #DF3F25)"/>
<path id="Vector_2" d="M7.15891 8.11364C7.15891 4.95075 9.7233 2.38636 12.8862 2.38636H63.9544C67.1173 2.38636 69.6816 4.95075 69.6816 8.11364V61.8526C69.6817 62.8416 69.4257 63.8137 68.9385 64.6744C68.4513 65.535 67.7495 66.2549 66.9015 66.7638L41.1512 82.2179C40.2553 82.7555 39.2294 83.0378 38.1846 83.0342C37.1397 83.0307 36.1158 82.7415 35.2235 82.1978L9.90562 66.769C9.06681 66.2578 8.37359 65.5395 7.89258 64.683C7.41156 63.8265 7.15891 62.8607 7.15891 61.8784V8.11364Z" fill="var(--fill-0, #FEF6F4)"/>
<path id="Vector_3" d="M69.6816 21.7159L19.054 72.3436L9.90562 66.769C9.06681 66.2578 8.37359 65.5394 7.89258 64.683C7.41156 63.8265 7.15891 62.8607 7.15891 61.8784V49.6364L54.4089 2.38636H63.9544C67.1173 2.38636 69.6816 4.95075 69.6816 8.11364V21.7159Z" fill="var(--fill-0, white)"/>
<path id="Vector_4" opacity="0.8" d="M26.467 76.8619L21.574 73.8799L69.6812 25.7727V33.6477L26.467 76.8619Z" fill="var(--fill-0, white)"/>
<path id="Vector_5" d="M12.8862 3.10227H63.9544C66.7221 3.10227 68.9657 5.34593 68.9657 8.11364V61.8526C68.9657 63.6128 68.0422 65.2441 66.5331 66.15L40.7833 81.6036C39.9993 82.0741 39.1016 82.3213 38.1874 82.3182C37.2731 82.3152 36.377 82.0621 35.5963 81.5864L10.2784 66.1576C9.54439 65.7104 8.93779 65.0818 8.51687 64.3324C8.09595 63.583 7.87485 62.7379 7.87482 61.8784V8.11364C7.87482 5.34593 10.1185 3.10227 12.8862 3.10227Z" stroke="var(--stroke-0, #DEB4B2)" stroke-width="1.43182"/>
<path id="Vector_6" d="M4.77255 42.9545C4.77255 42.7014 4.87312 42.4586 5.05213 42.2796C5.23114 42.1006 5.47393 42 5.7271 42H71.1135C71.3666 42 71.6094 42.1006 71.7884 42.2796C71.9674 42.4586 72.068 42.7014 72.068 42.9545V52.9773H4.77255V42.9545Z" fill="var(--fill-0, #FF4C2F)"/>
<path id="Vector_7" d="M23.478 49.6366L22.2862 45.4714H23.2484L23.9376 48.3656H23.9724L24.7332 45.4714H25.5565L26.3154 48.3713H26.3521L27.0413 45.4714H28.0035L26.8117 49.6366H25.9531L25.1604 46.9133H25.1274L24.3366 49.6366H23.478ZM31.1883 45.4714V49.6366H30.3073V45.4714H31.1883ZM37.2292 45.4714V49.6366H36.4689L34.6567 47.0149H34.6261V49.6366H33.7455V45.4714H34.5182L36.3161 48.0907H36.3529V45.4714H37.2292ZM39.6308 46.1973V45.4714H43.0519V46.1973H41.7766V49.6366H40.9065V46.1973H39.6308ZM45.4483 49.6366V45.4714H48.2546V46.1973H46.3288V47.1901H48.1105V47.916H46.3288V48.9106H48.2627V49.6366H45.4483ZM50.7875 49.6366V45.4714H52.4308C52.7453 45.4714 53.014 45.5277 53.2364 45.6399C53.4602 45.7511 53.6302 45.9091 53.7466 46.1138C53.865 46.3176 53.9237 46.5567 53.9237 46.8321C53.9237 47.1089 53.864 47.3466 53.7447 47.5456C53.6254 47.7437 53.4526 47.8955 53.2264 48.0014C53.0011 48.1069 52.7286 48.1599 52.4088 48.1599H51.3082V47.4521H52.2661C52.4341 47.4521 52.574 47.4292 52.6852 47.3829C52.7964 47.3371 52.8789 47.2679 52.9333 47.1758C52.9887 47.0836 53.0169 46.9691 53.0169 46.8321C53.0169 46.6937 52.9887 46.5773 52.9333 46.4823C52.8761 46.3847 52.7882 46.3088 52.6832 46.2665C52.572 46.2164 52.4317 46.1911 52.2623 46.1911H51.6681V49.6366H50.7875ZM53.0369 47.7408L54.0721 49.6366H53.0999L52.0871 47.7408H53.0369Z" fill="var(--fill-0, white)"/>
<path id="Vector_8" d="M45.0205 11.9733L39.1324 15.3205C38.916 15.4435 38.6713 15.5079 38.4223 15.5075C38.1734 15.5071 37.9289 15.4418 37.713 15.3181L31.7423 11.8975C31.5236 11.7721 31.3418 11.5912 31.2154 11.373C31.0891 11.1549 31.0225 10.9072 31.0226 10.6551V1.43182C31.0226 1.05208 31.1734 0.687888 31.4419 0.41937C31.7104 0.150852 32.0746 0 32.4544 0L44.3127 0C44.6924 0 45.0566 0.150852 45.3251 0.41937C45.5937 0.687888 45.7445 1.05208 45.7445 1.43182V10.7291C45.7444 10.9819 45.6774 11.2303 45.5502 11.4488C45.4231 11.6674 45.2403 11.8483 45.0205 11.9733Z" fill="var(--fill-0, #FF492C)"/>
<path id="Vector_9" d="M39.3469 2.60582C39.0386 2.52945 38.7302 2.52945 38.4219 2.52945H38.0368C35.5702 2.60629 33.7203 4.68768 33.7971 7.15422C33.8745 9.62077 35.9554 11.4707 38.4219 11.3934C39.3872 11.3963 40.3297 11.1002 41.1199 10.5457L40.1177 8.84997C39.6401 9.24435 39.0412 9.46212 38.4219 9.46661H38.1136C36.7262 9.38929 35.647 8.15602 35.7244 6.76859C35.8012 5.38116 37.0345 4.30204 38.4219 4.37936L39.3469 2.60582Z" fill="var(--fill-0, white)"/>
<path id="Vector_10" d="M42.7389 8.23217L41.583 6.30542H39.4248L38.2683 8.23217H40.5039L41.5825 10.0821L42.7389 8.23217ZM39.9641 4.76335C39.8104 4.99483 39.7331 5.30315 39.7331 5.61147L41.814 5.68879V5.14947H40.427C40.5039 4.91799 40.658 4.84067 40.8895 4.68651L41.1205 4.53235C41.583 4.37819 41.8145 4.06988 41.8145 3.68472C41.8145 3.45324 41.6598 3.22176 41.5057 3.06808C41.3515 2.91392 41.0437 2.8366 40.8122 2.8366C40.5812 2.8366 40.3497 2.8366 40.1187 2.99076C39.9641 3.14492 39.8099 3.29908 39.7331 3.45372L40.1187 3.83888C40.2724 3.53056 40.5039 3.37592 40.8122 3.37592C40.9664 3.37592 41.1978 3.53056 41.1978 3.68472C41.1978 3.83888 41.1205 3.91572 40.8122 4.06988L40.658 4.14719C40.427 4.30135 40.1187 4.53235 39.9641 4.76383V4.76335Z" fill="var(--fill-0, white)"/>
<path id="Vector_11" d="M4.77255 52.9773H7.15891V55.3636L4.77255 52.9773ZM72.068 52.9773H69.6816V55.3636L72.068 52.9773Z" fill="var(--fill-0, #BF3721)"/>
<path id="Vector_12" d="M17.7047 25.1893L19.9383 20.1121H21.8622V20.4386C21.6789 20.4443 21.53 20.4672 21.4155 20.5073C21.309 20.5455 21.2183 20.618 21.1577 20.7135C21.1005 20.8051 21.0604 20.934 21.0375 21.1001C21.0208 21.2661 21.0122 21.4781 21.0122 21.7358V25.1034C21.0122 25.3898 21.0231 25.616 21.0461 25.7821C21.069 25.9482 21.1124 26.0771 21.1749 26.1687C21.2441 26.2603 21.3386 26.3205 21.4589 26.3491C21.5844 26.3777 21.7476 26.3949 21.9481 26.4007V26.7271H19.1651V26.4007C19.3656 26.3949 19.5255 26.3777 19.6462 26.3491C19.7603 26.322 19.8626 26.2587 19.9378 26.1687C20.007 26.0828 20.0524 25.9625 20.0753 25.8079C20.0982 25.6475 20.1096 25.4327 20.1096 25.1636V21.1774H20.0237L17.5157 26.813H17.3262L14.8611 21.1774H14.8262V25.1034C14.8262 25.3898 14.8377 25.616 14.8606 25.7821C14.884 25.9482 14.9269 26.0771 14.9895 26.1687C15.0587 26.2603 15.1532 26.3205 15.2734 26.3491C15.3994 26.3777 15.5622 26.3949 15.7631 26.4007V26.7271H13.3663V26.4007C13.5667 26.3949 13.7271 26.3777 13.8473 26.3491C13.9615 26.322 14.0637 26.2587 14.139 26.1687C14.2082 26.0828 14.2535 25.9625 14.2764 25.8079C14.2998 25.6475 14.3108 25.4327 14.3108 25.1636V21.6757C14.3108 21.4351 14.2998 21.2375 14.2764 21.0829C14.2597 20.9225 14.2191 20.7965 14.1561 20.7049C14.097 20.6118 14.005 20.5444 13.8984 20.5159C13.7839 20.4758 13.6354 20.45 13.4522 20.4386V20.1121H15.5049L17.6698 25.1893H17.7047ZM24.7273 22.088C25.0454 22.0864 25.3607 22.1478 25.6551 22.2684C25.9467 22.383 26.2016 22.5433 26.4192 22.7495C26.6433 22.9568 26.8219 23.2084 26.9437 23.4883C27.0754 23.769 27.1408 24.0782 27.1408 24.4162C27.1408 24.7655 27.075 25.0862 26.9437 25.3783C26.8224 25.6635 26.6439 25.9208 26.4192 26.1343C26.1988 26.3481 25.9391 26.5172 25.6546 26.6326C25.3602 26.7533 25.0449 26.8146 24.7268 26.813C24.4124 26.8142 24.1007 26.7559 23.808 26.6412C23.5217 26.5209 23.2697 26.3548 23.052 26.1429C22.832 25.9275 22.6568 25.6705 22.5366 25.3869C22.4087 25.0794 22.3444 24.7492 22.3476 24.4162C22.3476 24.0782 22.4101 23.7661 22.5361 23.4797C22.6565 23.2013 22.8318 22.9501 23.0516 22.7409C23.2707 22.5338 23.5275 22.3705 23.808 22.2598C24.1007 22.1452 24.4124 22.0869 24.7268 22.088H24.7273ZM24.7273 22.5004C24.5153 22.5004 24.3206 22.5462 24.1431 22.6378C23.9713 22.7295 23.8219 22.8612 23.6959 23.033C23.5756 23.1991 23.4811 23.4024 23.4128 23.643C23.3471 23.8983 23.3152 24.1611 23.3179 24.4247C23.3179 24.7226 23.3498 24.9917 23.4128 25.2323C23.4811 25.4728 23.5756 25.679 23.6959 25.8508C23.8219 26.0169 23.9713 26.1458 24.1431 26.2374C24.3149 26.3291 24.5091 26.3749 24.7268 26.3749C24.9444 26.3749 25.142 26.3291 25.3196 26.2374C25.5003 26.1432 25.6564 26.0078 25.7753 25.8422C25.9087 25.6551 26.0075 25.4456 26.067 25.2237C26.1383 24.9635 26.173 24.6946 26.1701 24.4247C26.1701 24.1384 26.1357 23.8778 26.067 23.643C26.0073 23.4264 25.9085 23.2226 25.7753 23.0416C25.6566 22.8761 25.5006 22.7407 25.32 22.6464C25.1381 22.548 24.9341 22.4977 24.7273 22.5004ZM29.2828 25.3526C29.2828 25.5931 29.2886 25.7821 29.3 25.9196C29.3115 26.057 29.3401 26.163 29.3859 26.2374C29.4375 26.3061 29.5091 26.352 29.6007 26.3749C29.6923 26.3978 29.8212 26.415 29.9873 26.4264V26.7271H27.7021V26.4264C27.835 26.4195 27.9671 26.4022 28.0973 26.3749C28.1858 26.3574 28.2652 26.3086 28.3206 26.2374C28.3722 26.1687 28.4037 26.0713 28.4151 25.9453C28.4323 25.8136 28.4409 25.6389 28.4409 25.4213V24.3216C28.4409 23.9952 28.4352 23.7232 28.4237 23.5055C28.418 23.2879 28.4037 23.139 28.3808 23.0588C28.3689 22.999 28.3486 22.9411 28.3206 22.887C28.2969 22.8404 28.2573 22.8038 28.209 22.7839C28.1448 22.7519 28.0744 22.7344 28.0028 22.7323C27.8973 22.7194 27.7911 22.7137 27.6849 22.7152V22.4145L29.0852 22.088L29.1969 22.9471H29.2399C29.4976 22.655 29.7668 22.4402 30.0474 22.3028C30.3338 22.1596 30.6488 22.088 30.9924 22.088C31.3532 22.088 31.6568 22.1625 31.9031 22.3114C32.1493 22.4546 32.3211 22.6636 32.4185 22.9385H32.4529C32.6597 22.6735 32.9241 22.459 33.2261 22.3114C33.528 22.1628 33.8603 22.0864 34.1968 22.088C34.466 22.088 34.7094 22.1338 34.9271 22.2255C35.1504 22.3114 35.3194 22.4317 35.4339 22.5863C35.537 22.718 35.6086 22.8927 35.6487 23.1103C35.6945 23.3222 35.7174 23.6143 35.7174 23.9866V25.3526C35.7174 25.5874 35.7231 25.7735 35.7346 25.911C35.7518 26.0484 35.7833 26.1544 35.8291 26.2288C35.8749 26.3033 35.9436 26.352 36.0353 26.3749C36.1655 26.4022 36.2976 26.4195 36.4305 26.4264V26.7271H34.1453V26.4264C34.3056 26.4207 34.4345 26.4064 34.5319 26.3835C34.6204 26.3607 34.6989 26.3094 34.7552 26.2374C34.8068 26.163 34.8383 26.0627 34.8497 25.9367C34.8669 25.8107 34.8755 25.6389 34.8755 25.4213V24.3388C34.8755 24.0124 34.8583 23.7375 34.824 23.5141C34.7896 23.285 34.7323 23.1017 34.6521 22.9643C34.572 22.8211 34.466 22.718 34.3343 22.655C34.2083 22.592 34.0536 22.5605 33.8704 22.5605C33.6184 22.5605 33.3807 22.6321 33.1573 22.7753C32.885 22.9471 32.6767 23.2037 32.5646 23.5055C32.5456 23.5644 32.5312 23.6248 32.5216 23.6859C32.5086 23.7627 32.5 23.8401 32.4958 23.9179V25.3526C32.4958 25.5874 32.5016 25.7735 32.513 25.911C32.5245 26.0484 32.5531 26.1544 32.5989 26.2288C32.6519 26.3043 32.7319 26.3566 32.8223 26.3749C32.9525 26.4022 33.0846 26.4195 33.2175 26.4264V26.7271H30.9323V26.4264C31.0926 26.415 31.2215 26.3978 31.3189 26.3749C31.4057 26.3589 31.4827 26.3095 31.5336 26.2374C31.5852 26.1687 31.6167 26.0713 31.6281 25.9453C31.6453 25.8136 31.6539 25.6389 31.6539 25.4213V24.3388C31.6539 24.0066 31.6367 23.7289 31.6024 23.5055C31.568 23.2764 31.5107 23.0931 31.4306 22.9557C31.3561 22.8125 31.2559 22.7123 31.1299 22.655C31.0039 22.592 30.8492 22.5605 30.666 22.5605C30.4082 22.5605 30.1648 22.6321 29.9357 22.7753C29.7163 22.9084 29.5402 23.1024 29.4289 23.3337C29.4002 23.391 29.3745 23.4482 29.3516 23.5055C29.3326 23.5644 29.3182 23.6248 29.3086 23.6859C29.2956 23.7627 29.287 23.8401 29.2828 23.9179V25.3526ZM40.9168 25.9282C40.43 26.5181 39.8258 26.813 39.1041 26.813C38.7662 26.813 38.4598 26.7586 38.1849 26.6498C37.9184 26.5408 37.6761 26.3802 37.4719 26.1773C37.2739 25.9659 37.1192 25.7178 37.0166 25.4471C36.9049 25.1447 36.8496 24.8244 36.8533 24.5021C36.8533 24.1527 36.9106 23.8291 37.0251 23.5313C37.1316 23.2463 37.2954 22.986 37.5062 22.7667C37.7204 22.5533 37.9743 22.384 38.2536 22.2684C38.5565 22.1461 38.8806 22.0848 39.2072 22.088C39.7628 22.088 40.1923 22.2398 40.4959 22.5433C40.7994 22.8412 40.9512 23.2707 40.9512 23.832C40.9512 23.9121 40.934 23.9608 40.8996 23.978C40.871 23.9952 40.7994 24.0038 40.6849 24.0038H37.8585C37.8454 24.0603 37.8367 24.1177 37.8327 24.1756C37.8266 24.247 37.8237 24.3187 37.8241 24.3904C37.8241 24.6882 37.8585 24.9602 37.9272 25.2065C38.0016 25.4471 38.1047 25.6532 38.2365 25.8251C38.3739 25.9969 38.5343 26.1315 38.7176 26.2288C38.9066 26.3205 39.1156 26.3663 39.3447 26.3663C39.5852 26.3663 39.8086 26.3147 40.0148 26.2116C40.221 26.1028 40.4329 25.9281 40.6505 25.6876L40.9168 25.9282ZM39.4993 23.6086C39.6139 23.6086 39.7055 23.6057 39.7742 23.6C39.8274 23.5979 39.8798 23.5863 39.9289 23.5656C39.9596 23.5522 39.9841 23.5276 39.9976 23.4969C40.0101 23.4551 40.0159 23.4117 40.0148 23.3681C40.0148 23.1046 39.9289 22.8956 39.7571 22.7409C39.591 22.5806 39.3619 22.5004 39.0698 22.5004C38.4512 22.5004 38.0675 22.8698 37.9186 23.6086H39.4993ZM43.0407 25.3783C43.0407 25.6131 43.0469 25.7993 43.0583 25.9367C43.0698 26.0685 43.0984 26.1716 43.1443 26.246C43.1958 26.3147 43.2674 26.3606 43.359 26.3835C43.4892 26.4108 43.6214 26.4281 43.7542 26.435V26.7271H41.5034V26.435C41.6638 26.4236 41.7898 26.4064 41.8814 26.3835C41.97 26.366 42.0493 26.3172 42.1048 26.246C42.1563 26.1773 42.1878 26.0799 42.1993 25.9539C42.2164 25.8279 42.225 25.6561 42.225 25.4385V24.2959C42.225 23.6143 42.2078 23.1991 42.1735 23.0502C42.1606 22.9867 42.1374 22.9258 42.1048 22.8698C42.0832 22.8196 42.0432 22.7796 41.9931 22.7581C41.9317 22.7268 41.8643 22.7092 41.7955 22.7066C41.6929 22.6938 41.5896 22.688 41.4862 22.6894V22.4145L42.8608 22.088L42.9638 22.9385H42.9982C43.2057 22.6776 43.4664 22.4638 43.7628 22.3114C44.0582 22.1617 44.3852 22.0851 44.7164 22.088C44.9799 22.088 45.2204 22.131 45.438 22.2169C45.6557 22.3028 45.8218 22.4202 45.9363 22.5691C46.0337 22.7008 46.1024 22.8727 46.1425 23.0846C46.1826 23.2907 46.2026 23.5771 46.2026 23.9436V25.3783C46.2026 25.6131 46.2083 25.7993 46.2198 25.9367C46.237 26.0685 46.2685 26.1716 46.3143 26.246C46.3601 26.3147 46.4288 26.3606 46.5205 26.3835C46.6178 26.4064 46.7438 26.4236 46.8985 26.435V26.7271H44.6734V26.435C44.8338 26.4293 44.9598 26.415 45.0514 26.3921C45.1382 26.3707 45.2145 26.3189 45.2662 26.246C45.3178 26.1773 45.3493 26.0799 45.3607 25.9539C45.3779 25.8222 45.3865 25.6504 45.3865 25.4385V24.3045C45.3865 23.978 45.3693 23.7031 45.3349 23.4797C45.3006 23.2564 45.2433 23.076 45.1631 22.9385C45.0983 22.8103 44.9924 22.7075 44.8624 22.6464C44.7364 22.5834 44.5847 22.5519 44.4071 22.5519C44.1494 22.5519 43.9117 22.6206 43.6941 22.7581C43.4822 22.8898 43.3161 23.0731 43.1958 23.3079C43.1672 23.3652 43.1414 23.4196 43.1185 23.4712C43.0995 23.5301 43.0852 23.5904 43.0755 23.6516C43.0629 23.7313 43.0543 23.8115 43.0498 23.8921C43.044 23.978 43.0412 24.0897 43.0412 24.2272L43.0407 25.3783ZM47.2803 22.7152V22.3973C47.5838 22.2197 47.8215 22.0422 47.9933 21.8647C48.168 21.6826 48.3026 21.4661 48.3885 21.2289H48.6377V22.3114H49.7888V22.7152H48.6377V25.3268C48.6377 25.5272 48.6463 25.6962 48.6634 25.8336C48.6863 25.9711 48.7207 26.0828 48.7665 26.1687C48.8069 26.2437 48.8701 26.3039 48.9469 26.3405C49.0214 26.3749 49.1159 26.3921 49.2304 26.3921C49.3736 26.3921 49.4939 26.3634 49.5913 26.3062C49.6943 26.2432 49.7946 26.1401 49.8919 25.9969L50.1067 26.1601C50.0296 26.3685 49.8802 26.5422 49.6858 26.6498C49.491 26.7586 49.2476 26.813 48.9555 26.813C48.5775 26.813 48.2883 26.7242 48.0878 26.5467C47.8931 26.3634 47.7958 26.1028 47.7958 25.7649V22.7152H47.2803ZM53.9888 23.5485C53.9888 23.3137 53.9831 23.1304 53.9717 22.9986C53.9602 22.8612 53.9287 22.7581 53.8772 22.6894C53.8532 22.6517 53.8218 22.6192 53.7849 22.5941C53.748 22.569 53.7063 22.5517 53.6624 22.5433C53.536 22.5083 53.4065 22.4853 53.2758 22.4746V22.1739H54.8308V24.8113C54.8308 25.1378 54.8336 25.4041 54.8393 25.6103C54.8508 25.8165 54.8651 25.9711 54.8823 26.0742C54.8938 26.1487 54.9109 26.2088 54.9338 26.2546C54.9657 26.2975 55.0068 26.3327 55.0541 26.3577C55.1057 26.3806 55.1715 26.3978 55.2517 26.4092C55.3376 26.415 55.4464 26.4178 55.5782 26.4178V26.7185L54.1607 26.8216L54.0662 25.7907H54.0318C53.8142 26.1458 53.5622 26.4064 53.2758 26.5725C53.0073 26.7295 52.702 26.8125 52.3909 26.813C52.1504 26.813 51.9156 26.7672 51.6865 26.6756C51.4631 26.5839 51.2942 26.4608 51.1796 26.3062C51.0823 26.1802 51.0107 26.0055 50.9648 25.7821C50.9248 25.5587 50.9047 25.2695 50.9047 24.9144V23.5485C50.9047 23.3137 50.899 23.1304 50.8875 22.9986C50.8761 22.8612 50.8446 22.7581 50.793 22.6894C50.7691 22.6517 50.7377 22.6192 50.7008 22.5941C50.6638 22.569 50.6221 22.5517 50.5783 22.5433C50.4519 22.5083 50.3224 22.4853 50.1917 22.4746V22.1739H51.7466V24.5192C51.7466 25.1435 51.8182 25.596 51.9614 25.8766C52.1103 26.1572 52.3451 26.2976 52.6658 26.2976C53.1698 26.2976 53.5622 25.9682 53.8428 25.3096C53.8961 25.1889 53.9336 25.0619 53.9545 24.9316C53.9659 24.8629 53.9745 24.7856 53.9803 24.6996C53.986 24.6137 53.9888 24.5107 53.9888 24.3904V23.5485ZM57.4935 25.3526C57.4935 25.5931 57.4992 25.7821 57.5106 25.9196C57.5221 26.057 57.5507 26.163 57.5966 26.2374C57.6481 26.3061 57.7197 26.352 57.8113 26.3749C57.903 26.3978 58.0318 26.415 58.1979 26.4264V26.7271H55.9127V26.4264C56.0456 26.4195 56.1777 26.4022 56.3079 26.3749C56.3965 26.3574 56.4758 26.3086 56.5313 26.2374C56.5828 26.1687 56.6143 26.0713 56.6258 25.9453C56.643 25.8136 56.6515 25.6389 56.6515 25.4213V24.3216C56.6515 23.9952 56.6458 23.7232 56.6344 23.5055C56.6286 23.2879 56.6143 23.139 56.5914 23.0588C56.5795 22.999 56.5593 22.9411 56.5313 22.887C56.5075 22.8404 56.4679 22.8038 56.4196 22.7839C56.3554 22.7519 56.2851 22.7344 56.2134 22.7323C56.108 22.7194 56.0018 22.7137 55.8956 22.7152V22.4145L57.2959 22.088L57.4075 22.9471H57.4505C57.7082 22.655 57.9774 22.4402 58.2581 22.3028C58.5444 22.1596 58.8594 22.088 59.2031 22.088C59.5639 22.088 59.8674 22.1625 60.1137 22.3114C60.36 22.4546 60.5318 22.6636 60.6291 22.9385H60.6635C60.8703 22.6735 61.1347 22.459 61.4367 22.3114C61.7387 22.1628 62.071 22.0864 62.4075 22.088C62.6766 22.088 62.9201 22.1338 63.1377 22.2255C63.3611 22.3114 63.53 22.4317 63.6446 22.5863C63.7476 22.718 63.8192 22.8927 63.8593 23.1103C63.9051 23.3222 63.9281 23.6143 63.9281 23.9866V25.3526C63.9281 25.5874 63.9338 25.7735 63.9452 25.911C63.9624 26.0484 63.9939 26.1544 64.0397 26.2288C64.0856 26.3033 64.1543 26.352 64.2459 26.3749C64.3761 26.4022 64.5082 26.4195 64.6411 26.4264V26.7271H62.3559V26.4264C62.5163 26.4207 62.6451 26.4064 62.7425 26.3835C62.831 26.3607 62.9095 26.3094 62.9659 26.2374C63.0174 26.163 63.0489 26.0627 63.0604 25.9367C63.0776 25.8107 63.0861 25.6389 63.0861 25.4213V24.3388C63.0861 24.0124 63.069 23.7375 63.0346 23.5141C63.0002 23.285 62.943 23.1017 62.8628 22.9643C62.7826 22.8211 62.6766 22.718 62.5449 22.655C62.4189 22.592 62.2643 22.5605 62.081 22.5605C61.829 22.5605 61.5913 22.6321 61.368 22.7753C61.0956 22.9471 60.8874 23.2037 60.7752 23.5055C60.7562 23.5644 60.7419 23.6248 60.7322 23.6859C60.7192 23.7627 60.7106 23.8401 60.7065 23.9179V25.3526C60.7065 25.5874 60.7122 25.7735 60.7236 25.911C60.7351 26.0484 60.7637 26.1544 60.8096 26.2288C60.8626 26.3043 60.9425 26.3566 61.0329 26.3749C61.1631 26.4022 61.2952 26.4195 61.4281 26.4264V26.7271H59.1429V26.4264C59.3033 26.415 59.4321 26.3978 59.5295 26.3749C59.6163 26.3589 59.6934 26.3095 59.7443 26.2374C59.7958 26.1687 59.8273 26.0713 59.8388 25.9453C59.856 25.8136 59.8646 25.6389 59.8646 25.4213V24.3388C59.8646 24.0066 59.8474 23.7289 59.813 23.5055C59.7786 23.2764 59.7214 23.0931 59.6412 22.9557C59.5667 22.8125 59.4665 22.7123 59.3405 22.655C59.2145 22.592 59.0599 22.5605 58.8766 22.5605C58.6189 22.5605 58.3755 22.6321 58.1464 22.7753C57.9269 22.9084 57.7508 23.1024 57.6395 23.3337C57.6109 23.391 57.5851 23.4482 57.5622 23.5055C57.5432 23.5644 57.5289 23.6248 57.5192 23.6859C57.5062 23.7627 57.4976 23.8401 57.4935 23.9179V25.3526ZM29.8933 35.318H24.3445V34.9916C24.5449 34.9858 24.7053 34.9686 24.8256 34.94C24.9516 34.9114 25.0489 34.8627 25.1177 34.794C25.1864 34.7252 25.2322 34.6279 25.2551 34.5019C25.278 34.3759 25.2895 34.2126 25.2895 34.0122V30.0088C25.2895 29.8084 25.278 29.648 25.2551 29.5277C25.2379 29.4017 25.1978 29.3044 25.1348 29.2357C25.0776 29.1612 24.9917 29.1125 24.8771 29.0896C24.7303 29.0565 24.5808 29.0363 24.4304 29.0295V28.703H27.042V29.0295C26.8917 29.0312 26.742 29.0485 26.5953 29.081C26.4865 29.1096 26.4006 29.1612 26.3376 29.2357C26.2803 29.3101 26.2402 29.4132 26.2173 29.5449C26.1979 29.7189 26.1893 29.8939 26.1915 30.069V33.7717C26.1915 34.0122 26.2144 34.2098 26.2603 34.3644C26.3118 34.5133 26.3948 34.6307 26.5094 34.7166C26.6297 34.7968 26.7872 34.8541 26.9819 34.8885C27.1766 34.9171 27.4229 34.9314 27.7207 34.9314C28.0472 34.9314 28.3221 34.9142 28.5454 34.8799C28.7688 34.8398 28.9549 34.7739 29.1038 34.6823C29.2585 34.5849 29.3788 34.4532 29.4647 34.2871C29.5563 34.1153 29.6336 33.8948 29.6966 33.6256H30.0231L29.8933 35.318ZM34.5118 34.5191C34.025 35.109 33.4208 35.4039 32.6991 35.4039C32.3612 35.4039 32.0548 35.3495 31.7799 35.2407C31.5134 35.1317 31.2711 34.9712 31.0669 34.7682C30.8689 34.5568 30.7142 34.3088 30.6116 34.038C30.4999 33.7356 30.4446 33.4153 30.4483 33.093C30.4483 32.7436 30.5056 32.42 30.6201 32.1222C30.7266 31.8372 30.8904 31.577 31.1012 31.3576C31.3154 31.1442 31.5693 30.9749 31.8486 30.8593C32.1515 30.737 32.4756 30.6757 32.8022 30.6789C33.3578 30.6789 33.7873 30.8307 34.0909 31.1342C34.3944 31.4321 34.5462 31.8616 34.5462 32.4229C34.5462 32.5031 34.529 32.5517 34.4946 32.5689C34.466 32.5861 34.3944 32.5947 34.2799 32.5947H31.4535C31.4404 32.6512 31.4317 32.7087 31.4277 32.7665C31.4216 32.8379 31.4187 32.9096 31.4191 32.9813C31.4191 33.2791 31.4535 33.5512 31.5222 33.7974C31.5966 34.038 31.6997 34.2442 31.8315 34.416C31.9689 34.5878 32.1293 34.7224 32.3126 34.8197C32.5016 34.9114 32.7106 34.9572 32.9397 34.9572C33.1802 34.9572 33.4036 34.9056 33.6098 34.8026C33.816 34.6937 34.0279 34.5191 34.2455 34.2785L34.5118 34.5191ZM33.0943 32.1995C33.2089 32.1995 33.3005 32.1966 33.3692 32.1909C33.4224 32.1889 33.4748 32.1772 33.5239 32.1566C33.5546 32.1431 33.5791 32.1186 33.5926 32.0878C33.6051 32.0461 33.6109 32.0026 33.6098 31.959C33.6098 31.6955 33.5239 31.4865 33.3521 31.3318C33.186 31.1715 32.9569 31.0913 32.6648 31.0913C32.0462 31.0913 31.6625 31.4607 31.5136 32.1995H33.0943ZM37.7783 32.7751C37.4518 32.9011 37.1741 33.0242 36.945 33.1445C36.7518 33.2445 36.5703 33.3655 36.4037 33.5053C36.2663 33.6256 36.1661 33.7459 36.1031 33.8662C36.0458 33.9864 36.0171 34.1096 36.0171 34.2356C36.0171 34.4246 36.0801 34.5792 36.2061 34.6995C36.3321 34.8197 36.4982 34.8799 36.7044 34.8799C36.8533 34.8799 36.9908 34.8426 37.1168 34.7682C37.2485 34.6937 37.3631 34.5935 37.4604 34.4675C37.5578 34.3358 37.6351 34.184 37.6924 34.0122C37.7496 33.8346 37.7783 33.6485 37.7783 33.4538V32.7751ZM37.7783 32.4057V32.0535C37.7783 31.3547 37.4805 31.0054 36.8848 31.0054C36.801 31.0039 36.7174 31.0126 36.6357 31.0311C36.5724 31.0456 36.5134 31.0751 36.4639 31.1171C36.4111 31.1663 36.3675 31.2244 36.335 31.2889C36.295 31.3783 36.2606 31.4701 36.2319 31.5638C36.1689 31.7299 36.1059 31.8416 36.0429 31.8988C35.9856 31.9504 35.8997 31.9762 35.7852 31.9762C35.4988 31.9762 35.3556 31.833 35.3556 31.5466C35.3556 31.2717 35.5017 31.0598 35.7938 30.9109C36.0859 30.7562 36.5011 30.6789 37.0395 30.6789C37.6122 30.6789 38.0188 30.782 38.2594 30.9882C38.4999 31.1887 38.6202 31.5323 38.6202 32.0191V33.9435C38.6202 34.5964 38.7491 34.9228 39.0068 34.9228C39.087 34.9228 39.1643 34.9142 39.2387 34.8971C39.3132 34.8741 39.3762 34.8197 39.4277 34.7338L39.548 34.94C39.4793 35.0717 39.3533 35.1834 39.17 35.2751C38.9867 35.361 38.7949 35.4039 38.5944 35.4039C38.3424 35.4039 38.1534 35.3237 38.0274 35.1634C37.9071 35.003 37.847 34.7768 37.847 34.4847H37.8041C37.661 34.759 37.4475 34.9903 37.1855 35.1548C36.9216 35.3153 36.6181 35.3986 36.3092 35.3953C35.9484 35.3953 35.6649 35.3037 35.4587 35.1204C35.2526 34.9371 35.1495 34.6909 35.1495 34.3816C35.1495 34.2442 35.1724 34.1124 35.2182 33.9864C35.2752 33.8522 35.3568 33.7298 35.4587 33.6256C35.5676 33.5111 35.7107 33.3994 35.8883 33.2906C36.0658 33.176 36.2835 33.0615 36.5412 32.9469L37.7783 32.4057ZM43.5232 34.5964H43.4888C43.2827 34.8885 43.0622 35.0975 42.8273 35.2235C42.5983 35.3438 42.3262 35.4039 42.0112 35.4039C41.6848 35.4039 41.3841 35.3466 41.1092 35.2321C40.8452 35.1154 40.606 34.9492 40.4047 34.7424C40.2044 34.5215 40.0471 34.2651 39.9408 33.9864C39.8297 33.6809 39.7744 33.3579 39.7776 33.0328C39.7776 32.6949 39.832 32.3828 39.9408 32.0964C40.0553 31.8043 40.21 31.5552 40.4047 31.349C40.6052 31.1371 40.8428 30.9739 41.1178 30.8593C41.3998 30.7376 41.7041 30.6762 42.0112 30.6789C42.2861 30.6789 42.5295 30.7247 42.7414 30.8164C42.9591 30.908 43.1681 31.0541 43.3686 31.2545V30.3782C43.3686 30.0518 43.3628 29.7797 43.3514 29.5621C43.3457 29.3445 43.3342 29.1956 43.317 29.1154C43.2884 28.9894 43.2082 28.9006 43.0765 28.8491C42.9448 28.7975 42.73 28.7717 42.4322 28.7717V28.514L44.1933 28.1876V33.1445C44.1933 33.5397 44.1962 33.8662 44.2019 34.1239C44.2076 34.3759 44.2248 34.5563 44.2534 34.6651C44.2706 34.7338 44.2907 34.7911 44.3136 34.8369C44.3422 34.8827 44.3794 34.92 44.4253 34.9486C44.4768 34.9715 44.5427 34.9887 44.6229 35.0001C44.7088 35.0116 44.8176 35.0173 44.9493 35.0173V35.3094L43.5232 35.4039V34.5964ZM43.3514 32.6978C43.3514 32.4 43.3342 32.1737 43.2998 32.0191C43.2744 31.8716 43.2124 31.7327 43.1194 31.6153C42.9877 31.4435 42.8188 31.3146 42.6126 31.2287C42.4244 31.1399 42.2193 31.093 42.0112 31.0913C41.5988 31.0913 41.2838 31.2631 41.0662 31.6067C40.8543 31.9446 40.7483 32.4057 40.7483 32.9899C40.7483 33.2934 40.7741 33.5683 40.8257 33.8146C40.8829 34.0609 40.9631 34.2728 41.0662 34.4503C41.175 34.6221 41.3068 34.7567 41.4614 34.8541C41.6218 34.9457 41.805 34.9916 42.0112 34.9916C42.1143 34.9916 42.2174 34.9801 42.3205 34.9572C42.4293 34.9343 42.5324 34.8999 42.6298 34.8541C42.7289 34.8049 42.8238 34.7475 42.9133 34.6823C42.9992 34.6136 43.0708 34.5362 43.128 34.4503C43.2082 34.3243 43.2655 34.1726 43.2998 33.995C43.3342 33.8175 43.3514 33.5741 43.3514 33.2648V32.6978ZM49.4753 34.5191C48.9885 35.109 48.3842 35.4039 47.6626 35.4039C47.3247 35.4039 47.0183 35.3495 46.7434 35.2407C46.4769 35.1317 46.2345 34.9712 46.0303 34.7682C45.8324 34.5568 45.6777 34.3088 45.575 34.038C45.4634 33.7356 45.408 33.4153 45.4118 33.093C45.4118 32.7436 45.4691 32.42 45.5836 32.1222C45.6901 31.8372 45.8538 31.577 46.0647 31.3576C46.2788 31.1442 46.5328 30.9749 46.8121 30.8593C47.115 30.737 47.439 30.6757 47.7657 30.6789C48.3212 30.6789 48.7508 30.8307 49.0543 31.1342C49.3579 31.4321 49.5096 31.8616 49.5096 32.4229C49.5096 32.5031 49.4925 32.5517 49.4581 32.5689C49.4295 32.5861 49.3579 32.5947 49.2433 32.5947H46.4169C46.4038 32.6512 46.3952 32.7087 46.3911 32.7665C46.3851 32.8379 46.3822 32.9096 46.3826 32.9813C46.3826 33.2791 46.4169 33.5512 46.4856 33.7974C46.5601 34.038 46.6632 34.2442 46.7949 34.416C46.9324 34.5878 47.0927 34.7224 47.276 34.8197C47.465 34.9114 47.6741 34.9572 47.9031 34.9572C48.1437 34.9572 48.3671 34.9056 48.5732 34.8026C48.7794 34.6937 48.9913 34.5191 49.209 34.2785L49.4753 34.5191ZM48.0578 32.1995C48.1723 32.1995 48.264 32.1966 48.3327 32.1909C48.3859 32.1889 48.4383 32.1772 48.4873 32.1566C48.5181 32.1431 48.5426 32.1186 48.5561 32.0878C48.5686 32.0461 48.5743 32.0026 48.5732 31.959C48.5732 31.6955 48.4873 31.4865 48.3155 31.3318C48.1494 31.1715 47.9203 31.0913 47.6282 31.0913C47.0097 31.0913 46.626 31.4607 46.4771 32.1995H48.0578ZM51.6507 33.9521C51.6507 34.1869 51.6564 34.373 51.6679 34.5105C51.6793 34.6479 51.708 34.7539 51.7538 34.8283C51.8053 34.8971 51.8769 34.9429 51.9686 34.9658C52.0602 34.9887 52.1891 35.0059 52.3551 35.0173V35.318H50.07V35.0173C50.2361 35.0116 50.3678 34.9973 50.4651 34.9744C50.5536 34.9516 50.6322 34.9003 50.6885 34.8283C50.7401 34.7596 50.7716 34.6622 50.783 34.5362C50.8002 34.4045 50.8088 34.2298 50.8088 34.0122V33.0071C50.8088 32.6176 50.803 32.3141 50.7916 32.0964C50.7859 31.8788 50.7572 31.7184 50.7057 31.6153C50.6876 31.5683 50.6575 31.5268 50.6183 31.4951C50.579 31.4634 50.5321 31.4427 50.4823 31.4349C50.3407 31.4087 50.1968 31.3971 50.0528 31.4006V31.0999L51.5562 30.7734L51.6765 31.8387H51.7108C51.7853 31.6669 51.8769 31.5094 51.9857 31.3662C52.1003 31.223 52.2234 31.1027 52.3551 31.0054C52.4869 30.9023 52.6243 30.8221 52.7675 30.7648C52.9107 30.7076 53.0567 30.6789 53.2056 30.6789C53.3889 30.6789 53.5321 30.7247 53.6352 30.8164C53.744 30.9023 53.7984 31.0197 53.7984 31.1686C53.7984 31.3061 53.7555 31.4149 53.6695 31.4951C53.5836 31.5695 53.4605 31.6067 53.3001 31.6067C53.2085 31.6067 53.1312 31.5953 53.0682 31.5724C53.0101 31.5515 52.9528 31.5285 52.8964 31.5037C52.8518 31.4757 52.8059 31.4499 52.7589 31.4263C52.7169 31.4029 52.6695 31.3911 52.6215 31.392C52.4668 31.392 52.3122 31.4922 52.1575 31.6926C52.0029 31.8874 51.8826 32.1365 51.7967 32.4401C51.7469 32.6264 51.7096 32.8158 51.6851 33.0071C51.6616 33.2239 51.6501 33.4419 51.6507 33.66V33.9521ZM29.541 65.9761H31.2506C31.3881 65.9761 31.5083 65.9647 31.6114 65.9417C31.7145 65.9131 31.8062 65.8616 31.8863 65.7871C31.9665 65.7126 32.0381 65.6124 32.1011 65.4864C32.1755 65.3249 32.2387 65.1584 32.2901 64.9881H32.608L32.2815 66.818H28.2868V66.5345C28.9397 65.9503 29.4752 65.4406 29.8933 65.0053C30.3171 64.5643 30.6493 64.1692 30.8898 63.8198C31.1303 63.4704 31.2964 63.1497 31.3881 62.8576C31.4788 62.5655 31.5252 62.2614 31.5255 61.9556C31.5255 61.5088 31.4196 61.1566 31.2077 60.8989C31.0015 60.6411 30.718 60.5123 30.3572 60.5123C30.0135 60.5123 29.7329 60.624 29.5153 60.8473C29.3033 61.0707 29.1974 61.3599 29.1974 61.715C29.1974 62.0243 29.2804 62.2706 29.4465 62.4538C29.6183 62.6371 29.8503 62.7287 30.1424 62.7287C30.1138 62.8662 30.0393 62.9779 29.919 63.0638C29.7988 63.144 29.6498 63.1841 29.4723 63.1841C29.3183 63.1854 29.1658 63.1532 29.0256 63.0896C28.8917 63.025 28.772 62.9344 28.6733 62.8232C28.5729 62.7033 28.4944 62.5666 28.4414 62.4195C28.3885 62.2499 28.3624 62.0731 28.3641 61.8954C28.3641 61.6377 28.4185 61.4 28.5273 61.1824C28.6361 60.9647 28.785 60.7786 28.974 60.624C29.1725 60.4582 29.3996 60.3301 29.6441 60.246C29.9179 60.1526 30.2054 60.1062 30.4946 60.1085C30.7982 60.1085 31.0759 60.1543 31.3279 60.246C31.5799 60.3376 31.7976 60.4665 31.9808 60.6326C32.1641 60.7986 32.3044 60.9962 32.4018 61.2253C32.5049 61.4487 32.5564 61.6978 32.5564 61.9727C32.5564 62.3278 32.4763 62.6772 32.3159 63.0208C32.146 63.3826 31.9294 63.7206 31.6716 64.026C31.3759 64.3734 31.0542 64.698 30.7094 64.9967C30.3428 65.3117 29.9505 65.6239 29.5324 65.9331L29.541 65.9761ZM36.2181 60.1171C36.5674 60.1171 36.8968 60.2059 37.206 60.3834C37.5231 60.568 37.7982 60.8167 38.0136 61.1137C38.2427 61.4229 38.4231 61.7866 38.5548 62.2047C38.6923 62.6228 38.761 63.0752 38.761 63.5621C38.761 64.026 38.6923 64.4612 38.5548 64.8679C38.4231 65.2745 38.2427 65.6296 38.0136 65.9331C37.7945 66.2222 37.5199 66.4646 37.206 66.6462C36.8968 66.818 36.5674 66.9039 36.2181 66.9039C35.8687 66.9039 35.5394 66.818 35.2301 66.6462C34.9162 66.4646 34.6417 66.2222 34.4226 65.9331C34.1832 65.6099 33.9976 65.2502 33.8728 64.8679C33.7386 64.4457 33.672 64.005 33.6752 63.5621C33.6752 63.0752 33.741 62.6228 33.8728 62.2047C34.0102 61.7866 34.1935 61.4229 34.4226 61.1137C34.638 60.8167 34.913 60.568 35.2301 60.3834C35.5299 60.2084 35.8709 60.1165 36.2181 60.1171ZM36.2181 66.4916C36.4414 66.4916 36.639 66.4457 36.8108 66.3541C36.9884 66.2625 37.1373 66.105 37.2576 65.8816C37.3836 65.6582 37.4781 65.3604 37.5411 64.9881C37.6098 64.6159 37.6442 64.1491 37.6442 63.5878C37.6442 63.0036 37.6098 62.5168 37.5411 62.1274C37.4781 61.7379 37.3864 61.4258 37.2662 61.191C37.1459 60.9504 36.997 60.7815 36.8194 60.6841C36.6365 60.5796 36.4288 60.5262 36.2181 60.5295C35.9947 60.5295 35.7943 60.581 35.6167 60.6841C35.4392 60.7815 35.2903 60.9504 35.17 61.191C35.0497 61.4258 34.9552 61.7379 34.8865 62.1274C34.8235 62.5168 34.792 63.0036 34.792 63.5878C34.792 64.1491 34.8235 64.6159 34.8865 64.9881C34.9552 65.3604 35.0497 65.6582 35.17 65.8816C35.2903 66.105 35.4392 66.2625 35.6167 66.3541C35.7943 66.4457 35.9947 66.4916 36.2181 66.4916ZM40.9679 65.9761H42.6775C42.8149 65.9761 42.9352 65.9647 43.0383 65.9417C43.1414 65.9131 43.233 65.8616 43.3132 65.7871C43.3934 65.7126 43.465 65.6124 43.528 65.4864C43.6024 65.3249 43.6655 65.1584 43.717 64.9881H44.0348L43.7084 66.818H39.7136V66.5345C40.3665 65.9503 40.902 65.4406 41.3201 65.0053C41.7439 64.5643 42.0761 64.1692 42.3167 63.8198C42.5572 63.4704 42.7233 63.1497 42.8149 62.8576C42.9057 62.5655 42.952 62.2614 42.9524 61.9556C42.9524 61.5088 42.8464 61.1566 42.6345 60.8989C42.4283 60.6411 42.1448 60.5123 41.784 60.5123C41.4404 60.5123 41.1598 60.624 40.9421 60.8473C40.7302 61.0707 40.6243 61.3599 40.6243 61.715C40.6243 62.0243 40.7073 62.2706 40.8734 62.4538C41.0452 62.6371 41.2772 62.7287 41.5693 62.7287C41.5406 62.8662 41.4662 62.9779 41.3459 63.0638C41.2256 63.144 41.0767 63.1841 40.8992 63.1841C40.7452 63.1854 40.5927 63.1532 40.4524 63.0896C40.3186 63.025 40.1989 62.9344 40.1002 62.8232C39.9998 62.7033 39.9212 62.5666 39.8683 62.4195C39.8153 62.2499 39.7892 62.0731 39.7909 61.8954C39.7909 61.6377 39.8453 61.4 39.9542 61.1824C40.063 60.9647 40.2119 60.7786 40.4009 60.624C40.5994 60.4582 40.8265 60.3301 41.071 60.246C41.3447 60.1526 41.6323 60.1062 41.9215 60.1085C42.225 60.1085 42.5028 60.1543 42.7548 60.246C43.0068 60.3376 43.2244 60.4665 43.4077 60.6326C43.591 60.7986 43.7313 60.9962 43.8287 61.2253C43.9318 61.4487 43.9833 61.6978 43.9833 61.9727C43.9833 62.3278 43.9031 62.6772 43.7428 63.0208C43.5729 63.3826 43.3563 63.7206 43.0984 64.026C42.8027 64.3734 42.4811 64.698 42.1363 64.9967C41.7697 65.3117 41.3774 65.6239 40.9593 65.9331L40.9679 65.9761ZM46.2785 62.6772L46.2957 62.703C46.3816 62.64 46.5076 62.5884 46.6737 62.5483C46.8359 62.503 47.0035 62.4799 47.172 62.4796C47.4154 62.4777 47.6562 62.5305 47.8764 62.6342C48.0941 62.7316 48.2802 62.8691 48.4348 63.0466C48.5952 63.2242 48.7212 63.4361 48.8128 63.6823C48.9045 63.9229 48.9503 64.1835 48.9503 64.4641C48.9503 64.8077 48.8844 65.1285 48.7527 65.4263C48.6279 65.7166 48.4469 65.9794 48.22 66.1995C47.9897 66.4216 47.7184 66.5966 47.4211 66.7149C47.1076 66.8429 46.7717 66.9071 46.4331 66.9039C46.2069 66.9058 45.9815 66.8769 45.7631 66.818C45.5737 66.763 45.394 66.6789 45.2304 66.5689C45.0872 66.4658 44.9727 66.3426 44.8868 66.1995C44.8069 66.0518 44.7655 65.8863 44.7665 65.7184C44.7665 65.5637 44.8009 65.4435 44.8696 65.3576C44.9441 65.2717 45.0471 65.2287 45.1789 65.2287C45.2991 65.2287 45.3879 65.2602 45.4452 65.3232C45.5082 65.3862 45.5569 65.4664 45.5912 65.5637C45.6256 65.6611 45.6571 65.7671 45.6857 65.8816C45.7144 65.9904 45.7545 66.0935 45.806 66.1909C45.8633 66.2882 45.9428 66.3707 46.038 66.4314C46.1411 66.4944 46.2814 66.5259 46.4589 66.5259C46.6823 66.5259 46.8827 66.4744 47.0603 66.3713C47.2432 66.2571 47.3963 66.101 47.507 65.916C47.6273 65.7155 47.7189 65.4778 47.7819 65.2029C47.8536 64.896 47.8882 64.5817 47.885 64.2665C47.885 63.7797 47.8163 63.4217 47.6788 63.1927C47.5471 62.9636 47.3237 62.849 47.0087 62.849C46.7682 62.849 46.5706 62.9149 46.416 63.0466C46.267 63.1726 46.1439 63.3788 46.0465 63.6651C46.0122 63.7682 45.9807 63.8341 45.952 63.8627C45.9373 63.8771 45.9198 63.8883 45.9006 63.8957C45.8814 63.9031 45.8609 63.9065 45.8404 63.9057C45.7144 63.9057 45.6514 63.8484 45.6514 63.7339C45.6514 63.7052 45.6542 63.6823 45.66 63.6651L46.5792 60.1171C46.7052 60.1686 46.8484 60.2087 47.0087 60.2374C47.1691 60.2603 47.361 60.2717 47.5843 60.2717C48.117 60.2717 48.4978 60.2173 48.7269 60.1085L48.7785 60.1171C48.7097 60.4436 48.558 60.6956 48.3231 60.8731C48.0941 61.0506 47.7991 61.1394 47.4383 61.1394H46.6823L46.2785 62.6772Z" fill="var(--fill-0, #222222)"/>
</g>
<defs>
<clipPath id="clip0_150_7496">
<rect width="76.3636" height="84" fill="white"/>
</clipPath>
</defs>
</svg>
