<svg preserveAspectRatio="none" width="100%" height="100%" overflow="visible" style="display: block;" viewBox="0 0 77 84" fill="none" xmlns="http://www.w3.org/2000/svg">
<g id="G2 -support" clip-path="url(#clip0_150_7526)">
<path id="Vector" d="M76.1607 54.6382C76.2047 54.7105 76.2287 54.7933 76.2302 54.878C76.2317 54.9627 76.2106 55.0463 76.1691 55.1201C76.1276 55.194 76.0672 55.2555 75.9941 55.2983C75.921 55.3411 75.8378 55.3636 75.7531 55.3636H67.2953C67.1688 55.3636 67.0474 55.3134 66.9579 55.2238C66.8684 55.1343 66.8181 55.0129 66.8181 54.8864V44.8636C66.8181 44.7371 66.8684 44.6157 66.9579 44.5262C67.0474 44.4366 67.1688 44.3864 67.2953 44.3864H75.7531C75.8378 44.3864 75.921 44.4089 75.9941 44.4517C76.0672 44.4945 76.1276 44.556 76.1691 44.6299C76.2106 44.7037 76.2317 44.7873 76.2302 44.872C76.2287 44.9567 76.2047 45.0395 76.1607 45.1118L73.4121 49.6268C73.3666 49.7016 73.3426 49.7875 73.3426 49.875C73.3426 49.9625 73.3666 50.0484 73.4121 50.1232L76.1607 54.6382ZM0.441362 45.1118C0.39729 45.0394 0.373291 44.9566 0.37183 44.8719C0.37037 44.7871 0.391502 44.7035 0.433053 44.6296C0.474605 44.5558 0.535077 44.4943 0.608255 44.4516C0.681433 44.4088 0.764677 44.3863 0.84943 44.3864H9.3067C9.43328 44.3864 9.55468 44.4366 9.64419 44.5262C9.73369 44.6157 9.78398 44.7371 9.78398 44.8636V54.8864C9.78398 55.0129 9.73369 55.1343 9.64419 55.2238C9.55468 55.3134 9.43328 55.3636 9.3067 55.3636H0.84943C0.764677 55.3637 0.681433 55.3412 0.608255 55.2985C0.535077 55.2557 0.474605 55.1942 0.433053 55.1204C0.391502 55.0465 0.37037 54.9629 0.37183 54.8781C0.373291 54.7934 0.39729 54.7106 0.441362 54.6382L3.18998 50.1232C3.2355 50.0484 3.25958 49.9625 3.25958 49.875C3.25958 49.7875 3.2355 49.7016 3.18998 49.6268L0.441362 45.1118Z" fill="var(--fill-0, #2C9469)"/>
<path id="Vector_2" d="M7.15891 8.11364C7.15891 4.95075 9.7233 2.38636 12.8862 2.38636H63.9544C67.1173 2.38636 69.6816 4.95075 69.6816 8.11364V61.8526C69.6817 62.8416 69.4257 63.8137 68.9385 64.6744C68.4513 65.535 67.7495 66.2549 66.9015 66.7638L41.1512 82.2179C40.2553 82.7555 39.2294 83.0378 38.1846 83.0342C37.1397 83.0307 36.1158 82.7415 35.2235 82.1978L9.90562 66.769C9.06681 66.2578 8.37359 65.5395 7.89258 64.683C7.41156 63.8265 7.15891 62.8607 7.15891 61.8784V8.11364Z" fill="var(--fill-0, #EAFBF2)"/>
<path id="Vector_3" d="M69.6816 21.7159L19.054 72.3436L9.90562 66.769C9.06681 66.2578 8.37359 65.5394 7.89258 64.683C7.41156 63.8265 7.15891 62.8607 7.15891 61.8784V49.6364L54.4089 2.38636H63.9544C67.1173 2.38636 69.6816 4.95075 69.6816 8.11364V21.7159Z" fill="var(--fill-0, white)"/>
<path id="Vector_4" d="M29.9139 26.2498V25.9234C30.1372 25.9177 30.3148 25.9005 30.4465 25.8718C30.584 25.8432 30.6871 25.7945 30.7558 25.7258C30.8302 25.6571 30.8789 25.5597 30.9018 25.4337C30.9305 25.3077 30.9448 25.1445 30.9448 24.944V20.9407C30.9448 20.7402 30.9333 20.5798 30.9104 20.4596C30.8932 20.3336 30.8531 20.2362 30.7901 20.1675C30.7329 20.093 30.647 20.0443 30.5324 20.0214C30.3856 19.9883 30.2361 19.9682 30.0857 19.9613V19.6348H32.6544C33.4275 19.6348 34.0289 19.7723 34.4585 20.0472C34.888 20.3221 35.1028 20.7087 35.1028 21.207C35.1028 21.585 34.9825 21.8942 34.742 22.1348C34.5071 22.3753 34.132 22.5729 33.6165 22.7276V22.7619C33.7941 22.7791 33.9487 22.7992 34.0805 22.8221C34.2122 22.845 34.3296 22.8736 34.4327 22.908C34.5358 22.9366 34.6303 22.9738 34.7162 23.0196C34.8078 23.0655 34.8966 23.117 34.9825 23.1743C35.4922 23.5351 35.7471 23.9876 35.7471 24.5317C35.7471 24.8352 35.6612 25.1187 35.4894 25.3822C35.3233 25.6399 35.0885 25.8432 34.7849 25.9921C34.6884 26.0433 34.5878 26.0864 34.4842 26.121C34.3811 26.1496 34.2609 26.1754 34.1234 26.1983C33.986 26.2155 33.8256 26.2298 33.6423 26.2412C33.4648 26.247 33.2529 26.2498 33.0066 26.2498H29.9139ZM33.0324 25.8804C34.069 25.8804 34.5873 25.4366 34.5873 24.5488C34.5873 23.9017 34.321 23.4492 33.7884 23.1915C33.7012 23.1531 33.6123 23.1187 33.522 23.0884C33.4361 23.0597 33.3359 23.0397 33.2214 23.0282C33.0847 23.0092 32.947 22.9977 32.809 22.9939C32.6172 22.9876 32.4253 22.9847 32.2334 22.9853H31.8468V24.9011C31.8468 25.2504 31.9385 25.5024 32.1217 25.6571C32.305 25.806 32.6085 25.8804 33.0324 25.8804ZM32.3279 22.5557C32.5055 22.5557 32.6544 22.5529 32.7746 22.5472C32.8949 22.5414 32.998 22.5328 33.0839 22.5214C33.1698 22.5042 33.2443 22.4842 33.3073 22.4612C33.376 22.4326 33.4447 22.3954 33.5135 22.3496C33.6967 22.235 33.8256 22.0976 33.9 21.9372C33.9802 21.7768 34.0203 21.5678 34.0203 21.3101C34.0203 20.8576 33.9086 20.534 33.6853 20.3393C33.4676 20.1388 33.124 20.0386 32.6544 20.0386H31.9929C31.8955 20.0386 31.8468 20.0873 31.8468 20.1847V22.5557H32.3279ZM40.4859 25.4509C39.9991 26.0408 39.3949 26.3357 38.6733 26.3357C38.3353 26.3357 38.0289 26.2813 37.754 26.1725C37.4875 26.0636 37.2452 25.903 37.041 25.7C36.843 25.4887 36.6883 25.2406 36.5857 24.9698C36.474 24.6674 36.4187 24.3471 36.4224 24.0248C36.4224 23.6754 36.4797 23.3518 36.5943 23.054C36.7007 22.769 36.8645 22.5088 37.0753 22.2894C37.2895 22.076 37.5434 21.9067 37.8228 21.7912C38.1256 21.6688 38.4497 21.6075 38.7763 21.6107C39.3319 21.6107 39.7614 21.7625 40.065 22.0661C40.3685 22.3639 40.5203 22.7934 40.5203 23.3547C40.5203 23.4349 40.5031 23.4836 40.4688 23.5007C40.4401 23.5179 40.3685 23.5265 40.254 23.5265H37.4276C37.4145 23.583 37.4059 23.6405 37.4018 23.6983C37.3957 23.7698 37.3929 23.8414 37.3932 23.9131C37.3932 24.2109 37.4276 24.483 37.4963 24.7292C37.5708 24.9698 37.6738 25.176 37.8056 25.3478C37.943 25.5196 38.1034 25.6542 38.2867 25.7516C38.4757 25.8432 38.6847 25.889 38.9138 25.889C39.1543 25.889 39.3777 25.8375 39.5839 25.7344C39.7901 25.6256 40.002 25.4509 40.2196 25.2103L40.4859 25.4509ZM39.0684 23.1313C39.183 23.1313 39.2746 23.1285 39.3433 23.1227C39.3965 23.1207 39.4489 23.109 39.498 23.0884C39.5287 23.0749 39.5532 23.0504 39.5667 23.0196C39.5792 22.9779 39.585 22.9344 39.5839 22.8908C39.5839 22.6273 39.498 22.4183 39.3262 22.2637C39.1601 22.1033 38.931 22.0231 38.6389 22.0231C38.0203 22.0231 37.6366 22.3925 37.4877 23.1313H39.0684ZM41.493 26.2498H41.304V24.7722H41.5188C41.7421 25.5797 42.1488 25.9835 42.7387 25.9835C42.9678 25.9835 43.1482 25.9291 43.2799 25.8203C43.4173 25.7057 43.4861 25.5339 43.4861 25.3048C43.4861 25.2189 43.4718 25.1473 43.4431 25.0901C43.4202 25.0271 43.3715 24.9641 43.2971 24.9011C43.2048 24.8139 43.1041 24.7362 42.9964 24.6691C42.8704 24.5832 42.7014 24.4744 42.4895 24.3427C42.3167 24.2369 42.1477 24.1252 41.9827 24.0076C41.8529 23.9161 41.7321 23.8125 41.6218 23.6983C41.5291 23.5967 41.4537 23.4807 41.3985 23.3547C41.3502 23.2197 41.3269 23.0771 41.3298 22.9337C41.3298 22.739 41.3613 22.5615 41.4243 22.4011C41.4841 22.2461 41.5753 22.105 41.692 21.9868C41.8088 21.8686 41.9487 21.7756 42.1029 21.7138C42.2627 21.644 42.4355 21.6089 42.6098 21.6107C42.7644 21.6107 42.9248 21.6365 43.0909 21.6881C43.257 21.7339 43.403 21.7969 43.529 21.8771L43.7008 21.6967H43.8641V22.9337H43.6407C43.5147 22.5844 43.3773 22.3352 43.2283 22.1863C43.1568 22.1135 43.0711 22.0562 42.9766 22.0177C42.882 21.9793 42.7806 21.9607 42.6785 21.963C42.4838 21.963 42.3263 22.0145 42.206 22.1176C42.0915 22.2207 42.0342 22.3639 42.0342 22.5472C42.0342 22.6445 42.0485 22.7304 42.0772 22.8049C42.1115 22.8736 42.1631 22.9423 42.2318 23.0111C42.3005 23.0798 42.3864 23.1514 42.4895 23.2258C42.5983 23.2946 42.7272 23.3747 42.8761 23.4664C43.1224 23.621 43.3314 23.7585 43.5033 23.8787C43.6808 23.999 43.824 24.1193 43.9328 24.2396C44.0416 24.3541 44.1218 24.4744 44.1733 24.6004C44.2249 24.7264 44.2507 24.8696 44.2507 25.0299C44.2507 25.4366 44.1189 25.7573 43.8555 25.9921C43.592 26.2212 43.2455 26.3357 42.816 26.3357C42.3693 26.3357 41.9855 26.2069 41.6648 25.9491L41.493 26.2498ZM44.8272 22.2379V21.92C45.1308 21.7425 45.3684 21.5649 45.5403 21.3874C45.7149 21.2053 45.8495 20.9888 45.9354 20.7517H46.1846V21.8341H47.3358V22.2379H46.1846V24.8495C46.1846 25.05 46.1932 25.2189 46.2103 25.3564C46.2333 25.4938 46.2676 25.6055 46.3134 25.6914C46.3538 25.7664 46.417 25.8266 46.4938 25.8632C46.5683 25.8976 46.6628 25.9148 46.7773 25.9148C46.9205 25.9148 47.0408 25.8862 47.1382 25.8289C47.2413 25.7659 47.3415 25.6628 47.4388 25.5196L47.6536 25.6828C47.5765 25.8912 47.4271 26.065 47.2327 26.1725C47.0379 26.2813 46.7945 26.3357 46.5024 26.3357C46.1244 26.3357 45.8352 26.247 45.6348 26.0694C45.44 25.8862 45.3427 25.6256 45.3427 25.2877V22.2379H44.8272ZM21.7148 32.8219H22.0327C22.0728 33.0796 22.1472 33.3116 22.256 33.5177C22.3706 33.7239 22.5109 33.8986 22.677 34.0418C22.8488 34.185 23.0435 34.2966 23.2612 34.3768C23.4845 34.4513 23.7251 34.4885 23.9828 34.4885C24.4066 34.4885 24.7417 34.3883 24.9879 34.1878C25.2342 33.9874 25.3573 33.7153 25.3573 33.3717C25.3573 33.2285 25.3316 33.0968 25.28 32.9765C25.2267 32.8453 25.1445 32.7279 25.0395 32.6329C24.9249 32.5183 24.7703 32.4066 24.5756 32.2978C24.3866 32.189 24.146 32.0716 23.8539 31.9456C23.5472 31.8153 23.2488 31.6661 22.9605 31.4989C22.7199 31.3557 22.5281 31.2068 22.3849 31.0521C22.2502 30.9111 22.1451 30.7446 22.0756 30.5625C22.0158 30.3677 21.9868 30.1648 21.9897 29.9611C21.9897 29.6977 22.0355 29.4542 22.1272 29.2309C22.2245 29.0075 22.3591 28.8157 22.5309 28.6553C22.7028 28.4892 22.9061 28.3632 23.1409 28.2773C23.3877 28.1835 23.65 28.1369 23.9141 28.1398C24.1661 28.1398 24.4009 28.1799 24.6185 28.2601C24.8362 28.3403 25.0567 28.4691 25.28 28.6467L25.5034 28.2601H25.701L25.7955 29.9697H25.4776C25.3402 29.5001 25.1397 29.1507 24.8763 28.9216C24.6185 28.6925 24.3064 28.578 23.9398 28.578C23.5905 28.578 23.3127 28.6639 23.1065 28.8357C22.9003 29.0075 22.7973 29.2395 22.7973 29.5316C22.7973 29.669 22.8202 29.795 22.866 29.9096C22.9118 30.0184 22.9863 30.1243 23.0893 30.2274C23.1924 30.3248 23.327 30.425 23.4931 30.5281C23.6592 30.6255 23.8654 30.7286 24.1117 30.8374C24.5355 31.0264 24.8877 31.2039 25.1683 31.37C25.449 31.5304 25.6723 31.6936 25.8384 31.8597C26.0045 32.0201 26.1219 32.1919 26.1907 32.3751C26.2594 32.5527 26.2938 32.7532 26.2938 32.9765C26.2938 33.2629 26.2365 33.5263 26.1219 33.7669C26.0087 34.0057 25.8445 34.2169 25.6408 34.3854C25.4347 34.5572 25.1884 34.6918 24.902 34.7892C24.5961 34.8837 24.2772 34.9301 23.957 34.9266C23.6565 34.9308 23.3573 34.8843 23.0722 34.7892C22.8144 34.6976 22.551 34.5429 22.2818 34.3253L22.0413 34.7462H21.8437L21.7148 32.8219ZM30.5596 31.6621C30.5596 31.4273 30.5539 31.244 30.5424 31.1123C30.531 30.9748 30.4995 30.8717 30.4479 30.803C30.424 30.7653 30.3926 30.7329 30.3557 30.7077C30.3187 30.6826 30.277 30.6653 30.2332 30.657C30.1068 30.6219 29.9773 30.5989 29.8466 30.5882V30.2876H31.4015V32.925C31.4015 33.2514 31.4044 33.5177 31.4101 33.7239C31.4216 33.9301 31.4359 34.0847 31.4531 34.1878C31.4645 34.2623 31.4817 34.3224 31.5046 34.3682C31.5365 34.4112 31.5776 34.4464 31.6249 34.4713C31.6764 34.4942 31.7423 34.5114 31.8225 34.5229C31.9084 34.5286 32.0172 34.5315 32.1489 34.5315V34.8322L30.7314 34.9352L30.6369 33.9043H30.6026C30.3849 34.2594 30.1329 34.52 29.8466 34.6861C29.5781 34.8432 29.2727 34.9262 28.9617 34.9266C28.7212 34.9266 28.4863 34.8808 28.2573 34.7892C28.0339 34.6976 27.8649 34.5744 27.7504 34.4198C27.653 34.2938 27.5814 34.1191 27.5356 33.8957C27.4955 33.6724 27.4755 33.3832 27.4755 33.0281V31.6621C27.4755 31.4273 27.4698 31.244 27.4583 31.1123C27.4468 30.9748 27.4153 30.8717 27.3638 30.803C27.3399 30.7653 27.3085 30.7329 27.2715 30.7077C27.2346 30.6826 27.1929 30.6653 27.149 30.657C27.0226 30.6219 26.8932 30.5989 26.7624 30.5882V30.2876H28.3174V32.6329C28.3174 33.2572 28.389 33.7096 28.5322 33.9902C28.6811 34.2709 28.9159 34.4112 29.2366 34.4112C29.7406 34.4112 30.1329 34.0819 30.4136 33.4232C30.4668 33.3025 30.5044 33.1755 30.5253 33.0452C30.5367 32.9765 30.5453 32.8992 30.551 32.8133C30.5568 32.7274 30.5596 32.6243 30.5596 32.504V31.6621ZM33.9693 30.9061H34.0036C34.1709 30.7023 34.3713 30.528 34.5964 30.3906C34.8083 30.2646 35.0546 30.2016 35.3352 30.2016C35.6617 30.2016 35.9595 30.2618 36.2287 30.3821C36.5036 30.4966 36.7413 30.6598 36.9417 30.8717C37.1422 31.0836 37.2968 31.3356 37.4056 31.6277C37.5202 31.9141 37.5774 32.2291 37.5774 32.5727C37.5774 32.9221 37.5202 33.2428 37.4056 33.5349C37.2911 33.8213 37.1336 34.0676 36.9331 34.2737C36.7308 34.4812 36.4881 34.6449 36.2201 34.7548C35.9452 34.8694 35.6473 34.9266 35.3266 34.9266C35.0632 34.9266 34.8226 34.8837 34.605 34.7978C34.3931 34.7062 34.1926 34.5601 34.0036 34.3596V35.6139C34.0036 35.843 34.0151 36.0263 34.038 36.1637C34.0609 36.3012 34.1067 36.4072 34.1754 36.4816C34.2442 36.5561 34.3415 36.6076 34.4675 36.6362C34.5993 36.6649 34.7711 36.6821 34.983 36.6878V36.9885H32.337V36.6878C32.5088 36.6821 32.6463 36.6649 32.7493 36.6362C32.8475 36.6143 32.9353 36.5598 32.9985 36.4816C33.0615 36.4072 33.1044 36.3041 33.1273 36.1723C33.1503 36.0463 33.1617 35.8802 33.1617 35.6741V32.4611C33.1617 32.1289 33.156 31.8568 33.1445 31.6449C33.1388 31.433 33.1245 31.287 33.1016 31.2068C33.0729 31.0693 33.0071 30.9777 32.904 30.9319C32.8009 30.8803 32.6062 30.8546 32.3198 30.8546V30.5625L33.9693 30.236V30.9061ZM34.227 31.1552C34.1525 31.2698 34.0953 31.4072 34.0552 31.5676C34.0208 31.7222 34.0036 31.9256 34.0036 32.1776V32.8476C34.0036 33.0023 34.0065 33.1369 34.0122 33.2514C34.0237 33.3602 34.038 33.4547 34.0552 33.5349C34.0723 33.6151 34.0953 33.6867 34.1239 33.7497C34.1525 33.8127 34.1898 33.8728 34.2356 33.9301C34.3673 34.1134 34.5248 34.2566 34.7081 34.3596C34.8913 34.457 35.0832 34.5057 35.2837 34.5057C35.6788 34.5057 35.9967 34.3396 36.2373 34.0074C36.4835 33.6752 36.6067 33.2085 36.6067 32.6071C36.6067 32.3093 36.5723 32.0401 36.5036 31.7996C36.4406 31.5533 36.3489 31.3442 36.2287 31.1724C36.1167 31.0027 35.9667 30.8615 35.7905 30.7601C35.621 30.6618 35.428 30.6113 35.2321 30.614C35.0259 30.614 34.8341 30.6627 34.6565 30.7601C34.4847 30.8517 34.3415 30.9834 34.227 31.1552ZM39.6283 30.9061H39.6626C39.8299 30.7023 40.0303 30.528 40.2554 30.3906C40.4673 30.2646 40.7136 30.2016 40.9942 30.2016C41.3207 30.2016 41.6185 30.2618 41.8877 30.3821C42.1626 30.4966 42.4003 30.6598 42.6007 30.8717C42.8012 31.0836 42.9558 31.3356 43.0646 31.6277C43.1792 31.9141 43.2365 32.2291 43.2365 32.5727C43.2365 32.9221 43.1792 33.2428 43.0646 33.5349C42.9501 33.8213 42.7926 34.0676 42.5921 34.2737C42.3898 34.4812 42.1472 34.6449 41.8791 34.7548C41.6042 34.8694 41.3064 34.9266 40.9856 34.9266C40.7222 34.9266 40.4816 34.8837 40.264 34.7978C40.0521 34.7062 39.8516 34.5601 39.6626 34.3596V35.6139C39.6626 35.843 39.6741 36.0263 39.697 36.1637C39.7199 36.3012 39.7657 36.4072 39.8345 36.4816C39.9032 36.5561 40.0005 36.6076 40.1265 36.6362C40.2583 36.6649 40.4301 36.6821 40.642 36.6878V36.9885H37.996V36.6878C38.1678 36.6821 38.3053 36.6649 38.4084 36.6362C38.5065 36.6143 38.5943 36.5598 38.6575 36.4816C38.7205 36.4072 38.7635 36.3041 38.7864 36.1723C38.8093 36.0463 38.8207 35.8802 38.8207 35.6741V32.4611C38.8207 32.1289 38.815 31.8568 38.8035 31.6449C38.7978 31.433 38.7835 31.287 38.7606 31.2068C38.732 31.0693 38.6661 30.9777 38.563 30.9319C38.4599 30.8803 38.2652 30.8546 37.9788 30.8546V30.5625L39.6283 30.236V30.9061ZM39.886 31.1552C39.8115 31.2698 39.7543 31.4072 39.7142 31.5676C39.6798 31.7222 39.6626 31.9256 39.6626 32.1776V32.8476C39.6626 33.0023 39.6655 33.1369 39.6712 33.2514C39.6827 33.3602 39.697 33.4547 39.7142 33.5349C39.7314 33.6151 39.7543 33.6867 39.7829 33.7497C39.8116 33.8127 39.8488 33.8728 39.8946 33.9301C40.0263 34.1134 40.1838 34.2566 40.3671 34.3596C40.5504 34.457 40.7422 34.5057 40.9427 34.5057C41.3379 34.5057 41.6557 34.3396 41.8963 34.0074C42.1425 33.6752 42.2657 33.2085 42.2657 32.6071C42.2657 32.3093 42.2313 32.0401 42.1626 31.7996C42.0996 31.5533 42.008 31.3442 41.8877 31.1724C41.7758 31.0027 41.6257 30.8615 41.4495 30.7601C41.28 30.6618 41.0871 30.6113 40.8911 30.614C40.685 30.614 40.4931 30.6627 40.3155 30.7601C40.1437 30.8517 40.0005 30.9834 39.886 31.1552ZM46.2753 30.2016C46.6017 30.2016 46.911 30.2618 47.2031 30.3821C47.4952 30.4966 47.75 30.657 47.9677 30.8632C48.191 31.0693 48.3657 31.3156 48.4917 31.602C48.6234 31.8826 48.6893 32.1919 48.6893 32.5298C48.6893 32.8791 48.6234 33.1999 48.4917 33.492C48.3705 33.7771 48.1922 34.0344 47.9677 34.248C47.7472 34.4617 47.4876 34.6309 47.2031 34.7462C46.9087 34.867 46.5934 34.9283 46.2753 34.9266C45.9545 34.9266 45.6481 34.8694 45.356 34.7548C45.0697 34.6346 44.8177 34.4685 44.6 34.2566C44.3799 34.0411 44.2048 33.7841 44.0846 33.5006C43.9567 33.1931 43.8924 32.8628 43.8956 32.5298C43.8956 32.1919 43.9586 31.8797 44.0846 31.5934C44.205 31.315 44.3803 31.0637 44.6 30.8546C44.8191 30.6475 45.0757 30.4842 45.356 30.3735C45.6489 30.2588 45.9608 30.2005 46.2753 30.2016ZM46.2753 30.614C46.0633 30.614 45.8686 30.6598 45.6911 30.7515C45.5193 30.8431 45.3703 30.9748 45.2443 31.1467C45.1241 31.3127 45.0296 31.5161 44.9608 31.7566C44.8953 32.0119 44.8635 32.2748 44.8663 32.5384C44.8663 32.8362 44.8978 33.1054 44.9608 33.3459C45.0296 33.5865 45.1241 33.7927 45.2443 33.9645C45.3703 34.1306 45.5193 34.2594 45.6911 34.3511C45.8629 34.4427 46.0576 34.4885 46.2753 34.4885C46.4929 34.4885 46.6905 34.4427 46.868 34.3511C47.0456 34.2594 47.1973 34.1277 47.3233 33.9559C47.4493 33.7841 47.5467 33.5779 47.6154 33.3373C47.6868 33.0771 47.7215 32.8082 47.7185 32.5384C47.7185 32.252 47.6842 31.9914 47.6154 31.7566C47.5556 31.54 47.4566 31.3362 47.3233 31.1552C47.2046 30.9897 47.0486 30.8543 46.868 30.7601C46.6861 30.6616 46.4821 30.6113 46.2753 30.614ZM50.8394 33.4748C50.8394 33.7096 50.8451 33.8957 50.8566 34.0332C50.868 34.1706 50.8967 34.2766 50.9425 34.3511C50.994 34.4198 51.0656 34.4656 51.1573 34.4885C51.2489 34.5114 51.3778 34.5286 51.5439 34.5401V34.8407H49.2587V34.5401C49.4248 34.5343 49.5565 34.52 49.6539 34.4971C49.7424 34.4743 49.8209 34.423 49.8772 34.3511C49.9288 34.2823 49.9603 34.185 49.9717 34.059C49.9889 33.9272 49.9975 33.7526 49.9975 33.5349V32.5298C49.9975 32.1403 49.9918 31.8368 49.9803 31.6191C49.9746 31.4015 49.946 31.2411 49.8944 31.1381C49.8764 31.091 49.8462 31.0495 49.807 31.0178C49.7678 30.9862 49.7209 30.9654 49.671 30.9576C49.5294 30.9314 49.3855 30.9199 49.2415 30.9233V30.6226L50.7449 30.2962L50.8652 31.3614H50.8996C50.974 31.1896 51.0656 31.0321 51.1745 30.8889C51.289 30.7457 51.4121 30.6255 51.5439 30.5281C51.6756 30.425 51.813 30.3448 51.9562 30.2876C52.0994 30.2303 52.2455 30.2016 52.3944 30.2016C52.5776 30.2016 52.7208 30.2475 52.8239 30.3391C52.9327 30.425 52.9871 30.5424 52.9871 30.6913C52.9871 30.8288 52.9442 30.9376 52.8583 31.0178C52.7724 31.0922 52.6492 31.1295 52.4889 31.1295C52.3972 31.1295 52.3199 31.118 52.2569 31.0951C52.1989 31.0742 52.1416 31.0513 52.0851 31.0264C52.0405 30.9984 51.9947 30.9726 51.9476 30.9491C51.9057 30.9257 51.8582 30.9138 51.8102 30.9147C51.6555 30.9147 51.5009 31.0149 51.3463 31.2154C51.1916 31.4101 51.0714 31.6592 50.9855 31.9628C50.9356 32.1491 50.8983 32.3385 50.8738 32.5298C50.8503 32.7466 50.8388 32.9646 50.8394 33.1827V33.4748ZM53.1981 30.8288V30.5109C53.5016 30.3334 53.7393 30.1558 53.9111 29.9783C54.0858 29.7962 54.2204 29.5797 54.3063 29.3426H54.5555V30.425H55.7066V30.8288H54.5555V33.4404C54.5555 33.6409 54.564 33.8098 54.5812 33.9473C54.6041 34.0847 54.6385 34.1964 54.6843 34.2823C54.7247 34.3573 54.7879 34.4175 54.8647 34.4542C54.9392 34.4885 55.0337 34.5057 55.1482 34.5057C55.2914 34.5057 55.4117 34.4771 55.509 34.4198C55.6121 34.3568 55.7124 34.2537 55.8097 34.1105L56.0245 34.2737C55.9473 34.4821 55.798 34.6559 55.6035 34.7634C55.4088 34.8722 55.1654 34.9266 54.8733 34.9266C54.4953 34.9266 54.2061 34.8379 54.0056 34.6603C53.8109 34.4771 53.7135 34.2165 53.7135 33.8786V30.8288H53.1981Z" fill="var(--fill-0, #222222)"/>
<path id="Vector_5" opacity="0.8" d="M26.467 76.8619L21.574 73.8799L69.6812 25.7727V33.6477L26.467 76.8619Z" fill="var(--fill-0, white)"/>
<path id="Vector_6" d="M12.8862 3.10227H63.9544C66.7221 3.10227 68.9657 5.34593 68.9657 8.11364V61.8526C68.9657 63.6128 68.0422 65.2441 66.5331 66.15L40.7833 81.6036C39.9993 82.0741 39.1016 82.3213 38.1874 82.3182C37.2731 82.3152 36.377 82.0621 35.5963 81.5864L10.2784 66.1576C9.54439 65.7104 8.93779 65.0818 8.51687 64.3324C8.09595 63.583 7.87485 62.7379 7.87482 61.8784V8.11364C7.87482 5.34593 10.1185 3.10227 12.8862 3.10227Z" stroke="var(--stroke-0, #BADED1)" stroke-width="1.43182"/>
<path id="Vector_7" d="M23.478 49.6366L22.2862 45.4714H23.2484L23.9376 48.3656H23.9724L24.7332 45.4714H25.5565L26.3154 48.3713H26.3521L27.0413 45.4714H28.0035L26.8117 49.6366H25.9531L25.1604 46.9133H25.1274L24.3366 49.6366H23.478ZM31.1883 45.4714V49.6366H30.3073V45.4714H31.1883ZM37.2292 45.4714V49.6366H36.4689L34.6567 47.0149H34.6261V49.6366H33.7455V45.4714H34.5182L36.3161 48.0907H36.3529V45.4714H37.2292ZM39.6308 46.1973V45.4714H43.0519V46.1973H41.7766V49.6366H40.9065V46.1973H39.6308ZM45.4483 49.6366V45.4714H48.2546V46.1973H46.3288V47.1901H48.1105V47.916H46.3288V48.9106H48.2627V49.6366H45.4483ZM50.7875 49.6366V45.4714H52.4308C52.7453 45.4714 53.014 45.5277 53.2364 45.6399C53.4602 45.7511 53.6302 45.9091 53.7466 46.1138C53.865 46.3176 53.9237 46.5567 53.9237 46.8321C53.9237 47.1089 53.864 47.3466 53.7447 47.5456C53.6254 47.7437 53.4526 47.8955 53.2264 48.0014C53.0011 48.1069 52.7286 48.1599 52.4088 48.1599H51.3082V47.4521H52.2661C52.4341 47.4521 52.574 47.4292 52.6852 47.3829C52.7964 47.3371 52.8789 47.2679 52.9333 47.1758C52.9887 47.0836 53.0169 46.9691 53.0169 46.8321C53.0169 46.6937 52.9887 46.5773 52.9333 46.4823C52.8761 46.3847 52.7882 46.3088 52.6832 46.2665C52.572 46.2164 52.4317 46.1911 52.2623 46.1911H51.6681V49.6366H50.7875ZM53.0369 47.7408L54.0721 49.6366H53.0999L52.0871 47.7408H53.0369Z" fill="var(--fill-0, white)"/>
<path id="Vector_8" d="M32.3565 61.5136L33.3988 58.6137C33.4609 58.44 33.5057 58.302 33.5325 58.1994C33.5592 58.0968 33.5725 58.008 33.5725 57.9322C33.5725 57.8162 33.5344 57.7384 33.4589 57.6983C33.3874 57.6539 33.2585 57.6315 33.0714 57.6315V57.3776H34.6951V57.6315C34.4899 57.6315 34.3343 57.6739 34.2274 57.7584C34.1247 57.8429 34.0379 57.9813 33.9668 58.1727L32.2896 62.5894H32.0558L30.7729 58.7874L29.3496 62.5894H29.1158L27.726 58.754C27.6594 58.5731 27.5858 58.3947 27.5055 58.2195C27.4557 58.0932 27.3857 57.9759 27.2983 57.872C27.2327 57.7917 27.1476 57.7295 27.0511 57.6916C26.9417 57.6533 26.8262 57.6352 26.7103 57.6382V57.3776H28.8886V57.6382C28.6614 57.6382 28.501 57.6582 28.4075 57.6983C28.3182 57.7384 28.2739 57.8162 28.2739 57.9322C28.2739 57.9899 28.2829 58.0567 28.3006 58.1326C28.3187 58.2085 28.345 58.2973 28.3808 58.3999L29.3964 61.4936L30.2183 59.1817C30.2803 59.0079 30.3409 58.8476 30.3987 58.7006C30.4543 58.5672 30.5034 58.4312 30.5457 58.293C30.4938 58.1829 30.4358 58.0758 30.372 57.9722C30.331 57.8981 30.2792 57.8306 30.2183 57.7718C30.174 57.7256 30.1189 57.6911 30.0579 57.6716C30.0028 57.6489 29.9437 57.6375 29.8842 57.6382V57.3776H31.9288V57.6382C31.8 57.6382 31.695 57.6424 31.6148 57.6515C31.5502 57.6564 31.4869 57.6722 31.4277 57.6983C31.39 57.7137 31.3592 57.7422 31.3408 57.7785C31.3266 57.8193 31.3198 57.8622 31.3208 57.9054C31.3208 57.9722 31.3317 58.0548 31.3542 58.1527C31.3809 58.2462 31.4162 58.3665 31.4611 58.5135L32.3565 61.5136ZM36.1116 61.4602C36.1116 61.6339 36.1183 61.7742 36.1317 61.8811C36.1493 61.9837 36.1804 62.0658 36.2252 62.1283C36.2726 62.1879 36.3384 62.2302 36.4123 62.2486C36.4925 62.271 36.5994 62.2844 36.733 62.2887V62.5226H34.8154V62.2887C34.949 62.2844 35.0578 62.271 35.1428 62.2486C35.2176 62.2281 35.2849 62.1863 35.3365 62.1283C35.3895 62.0609 35.4219 61.9798 35.4301 61.8945C35.4477 61.7919 35.4568 61.663 35.4568 61.5069V60.6517C35.4568 60.3934 35.452 60.1815 35.4435 60.0169C35.4387 59.8474 35.4277 59.7319 35.41 59.6694C35.3876 59.5668 35.3365 59.4981 35.2564 59.4623C35.1762 59.4222 35.0244 59.4022 34.802 59.4022V59.1683L36.1116 58.9144V61.4602ZM35.3432 57.558C35.3432 57.442 35.3833 57.3442 35.4635 57.264C35.5017 57.2249 35.5475 57.1941 35.598 57.1734C35.6486 57.1527 35.7029 57.1426 35.7575 57.1437C35.873 57.1437 35.9713 57.1838 36.0515 57.264C36.0906 57.3021 36.1214 57.3479 36.1421 57.3985C36.1628 57.4491 36.1729 57.5033 36.1718 57.558C36.1729 57.6126 36.1628 57.6669 36.1421 57.7174C36.1214 57.768 36.0906 57.8138 36.0515 57.852C36.0133 57.891 35.9675 57.9219 35.9169 57.9425C35.8664 57.9632 35.8121 57.9733 35.7575 57.9722C35.7029 57.9733 35.6486 57.9632 35.598 57.9425C35.5475 57.9219 35.5017 57.891 35.4635 57.852C35.4244 57.8138 35.3936 57.768 35.3729 57.7174C35.3522 57.6669 35.3421 57.6126 35.3432 57.558ZM38.3085 61.4735C38.3085 61.6563 38.3133 61.8009 38.3219 61.9078C38.331 62.0105 38.3534 62.0906 38.3887 62.1484C38.4288 62.2018 38.4842 62.2376 38.5557 62.2553C38.6316 62.2729 38.7338 62.2863 38.8631 62.2954V62.5226H37.113V62.2954C37.2375 62.2863 37.3358 62.2729 37.407 62.2553C37.4759 62.2418 37.5376 62.2038 37.5807 62.1484C37.6208 62.0949 37.6451 62.019 37.6542 61.9212C37.6695 61.7881 37.6761 61.6542 37.6742 61.5203V60.6316C37.6742 60.1014 37.6609 59.7787 37.6341 59.6627C37.624 59.6134 37.606 59.566 37.5807 59.5224C37.564 59.4834 37.5329 59.4523 37.4938 59.4356C37.4461 59.4111 37.3937 59.3974 37.3401 59.3955C37.2604 59.3854 37.18 59.381 37.0996 59.3821V59.1683L38.1687 58.9144L38.2489 59.5759H38.2756C38.445 59.3664 38.6431 59.2041 38.8703 59.0881C39.1 58.9716 39.3544 58.912 39.612 58.9144C39.8172 58.9144 40.0043 58.9478 40.1732 59.0146C40.3427 59.0814 40.4715 59.1726 40.5608 59.2886C40.6367 59.3912 40.6896 59.5248 40.7211 59.6895C40.7526 59.8498 40.7679 60.0727 40.7679 60.3577V61.4735C40.7679 61.6563 40.7727 61.8009 40.7813 61.9078C40.7946 62.0105 40.8195 62.0906 40.8548 62.1484C40.8925 62.2033 40.9499 62.2416 41.0151 62.2553C41.091 62.2729 41.1889 62.2863 41.3091 62.2954V62.5226H39.5785V62.2954C39.6774 62.294 39.7759 62.2828 39.8725 62.262C39.94 62.2453 39.9993 62.205 40.0396 62.1484C40.0797 62.0949 40.104 62.019 40.1131 61.9212C40.1281 61.7881 40.1348 61.6542 40.1331 61.5203V60.6383C40.1331 60.3844 40.1198 60.1706 40.093 59.9968C40.0663 59.8231 40.0215 59.6828 39.9594 59.5759C39.909 59.4762 39.8267 59.3962 39.7255 59.3487C39.6149 59.2969 39.4936 59.2717 39.3714 59.2752C39.1754 59.2766 38.9836 59.3323 38.8173 59.4361C38.651 59.5399 38.5167 59.6877 38.4293 59.8632C38.4082 59.905 38.3882 59.9474 38.3691 59.9902C38.3544 60.036 38.3432 60.0829 38.3357 60.1305C38.3259 60.1925 38.3192 60.2549 38.3157 60.3176C38.3109 60.3844 38.309 60.4712 38.309 60.5782L38.3085 61.4735ZM41.7396 59.4022V59.1549C41.9754 59.017 42.1606 58.8786 42.2942 58.7407C42.4279 58.6027 42.53 58.4376 42.6016 58.2462H42.7954V59.0881H43.6907V59.4022H42.7954V61.4334C42.7954 61.5895 42.802 61.7207 42.8154 61.8277C42.8331 61.9346 42.8598 62.0214 42.8956 62.0882C42.9269 62.1466 42.9761 62.1935 43.0359 62.2219C43.1057 62.251 43.1809 62.2646 43.2564 62.262C43.3676 62.262 43.4612 62.2395 43.537 62.1952C43.6172 62.146 43.6945 62.0658 43.7709 61.9546L43.938 62.0816C43.8754 62.2462 43.7661 62.3732 43.6105 62.4624C43.4588 62.5469 43.2698 62.5894 43.0426 62.5894C42.7486 62.5894 42.5233 62.5202 42.3677 62.3822C42.2159 62.2395 42.1405 62.0372 42.1405 61.7742V59.4022H41.7396ZM47.4855 61.9012C47.1066 62.3598 46.6369 62.5894 46.0757 62.5894C45.8127 62.5894 45.5745 62.5469 45.3607 62.4624C45.1534 62.3777 44.9649 62.2528 44.8061 62.0949C44.6522 61.9305 44.5318 61.7376 44.452 61.527C44.3651 61.2918 44.3221 61.0427 44.325 60.792C44.325 60.5204 44.3694 60.2684 44.4587 60.0369C44.5415 59.8152 44.6688 59.6128 44.8328 59.4422C44.9994 59.2763 45.1969 59.1447 45.4142 59.0547C45.6497 58.9595 45.9018 58.9119 46.1558 58.9144C46.5878 58.9144 46.9219 59.0323 47.1581 59.2685C47.3939 59.5 47.5122 59.8341 47.5122 60.2708C47.5122 60.3333 47.4989 60.371 47.4722 60.3844C47.4497 60.3977 47.3939 60.4044 47.3051 60.4044H45.1068C45.0966 60.4484 45.0899 60.4931 45.0867 60.5381C45.0651 60.8076 45.09 61.0788 45.1602 61.3399C45.2175 61.527 45.2982 61.6873 45.4008 61.821C45.5077 61.9546 45.6323 62.0591 45.775 62.135C45.922 62.2061 46.0842 62.2419 46.2627 62.2419C46.4498 62.2419 46.6236 62.2018 46.7839 62.1217C46.9443 62.0372 47.1085 61.9012 47.2784 61.7141L47.4855 61.9012ZM46.383 60.0971C46.4718 60.0971 46.5434 60.0947 46.5968 60.0904C46.6382 60.0889 46.679 60.0798 46.7171 60.0637C46.741 60.0532 46.7601 60.0341 46.7706 60.0102C46.7803 59.9777 46.7848 59.9439 46.7839 59.91C46.7839 59.7052 46.7171 59.5425 46.5835 59.4222C46.4541 59.2976 46.2761 59.2351 46.0489 59.2351C45.5678 59.2351 45.2691 59.5224 45.1536 60.0971H46.383ZM49.3111 61.4602C49.3111 61.6429 49.3154 61.7876 49.3245 61.8945C49.3335 62.0014 49.3555 62.0839 49.3913 62.1417C49.4326 62.196 49.4917 62.2338 49.5583 62.2486C49.6294 62.2663 49.7297 62.2796 49.859 62.2887V62.5226H48.0816V62.2887C48.211 62.2844 48.3131 62.2729 48.389 62.2553C48.4578 62.2376 48.5189 62.1976 48.5627 62.1417C48.6028 62.0882 48.6272 62.0124 48.6362 61.9145C48.6496 61.8119 48.6563 61.6764 48.6563 61.5069V60.7252C48.6563 60.4221 48.652 60.1863 48.6429 60.0169C48.6386 59.8474 48.6162 59.7229 48.5761 59.6427C48.562 59.6061 48.5386 59.5738 48.5081 59.5492C48.4776 59.5246 48.4411 59.5084 48.4024 59.5024C48.2922 59.482 48.1803 59.4731 48.0683 59.4757V59.2418L49.2376 58.9879L49.3311 59.8164H49.3579C49.4156 59.6828 49.4872 59.5601 49.5717 59.4489C49.6609 59.3377 49.7564 59.2442 49.859 59.1683C49.9616 59.0881 50.0685 59.0256 50.1797 58.9812C50.2909 58.9368 50.4045 58.9144 50.5205 58.9144C50.6632 58.9144 50.7744 58.9502 50.8546 59.0213C50.9391 59.0881 50.9815 59.1793 50.9815 59.2952C50.9815 59.4022 50.9481 59.4866 50.8813 59.5492C50.8145 59.6069 50.7186 59.636 50.594 59.636C50.5229 59.636 50.4627 59.627 50.4136 59.6093C50.3684 59.593 50.3239 59.5752 50.28 59.5558C50.2454 59.534 50.2097 59.5139 50.173 59.4957C50.1404 59.4776 50.1035 59.4683 50.0661 59.469C49.9459 59.469 49.8256 59.5468 49.7053 59.7028C49.585 59.8541 49.4915 60.0479 49.4247 60.2842C49.3859 60.4291 49.3569 60.5764 49.3378 60.7252C49.3196 60.8938 49.3107 61.0633 49.3111 61.233V61.4602ZM31.7508 70.4587H33.0805C33.1874 70.4587 33.2809 70.4496 33.3611 70.4319C33.441 70.4096 33.5144 70.3684 33.5749 70.3117C33.637 70.2539 33.6933 70.1756 33.742 70.0778C33.7998 69.9521 33.8489 69.8227 33.889 69.6902H34.1362L33.8823 71.1135H30.7752V70.893C31.2062 70.5119 31.623 70.1152 32.0247 69.7036C32.3541 69.3605 32.6127 69.0531 32.7998 68.7815C32.9869 68.5099 33.1163 68.2603 33.1874 68.0332C33.258 67.806 33.294 67.5695 33.2943 67.3316C33.2943 66.9841 33.2122 66.7102 33.0471 66.5097C32.8867 66.3092 32.6662 66.209 32.3856 66.209C32.1183 66.209 31.9002 66.2959 31.7307 66.4696C31.5661 66.6433 31.4835 66.8681 31.4835 67.1445C31.4835 67.385 31.5484 67.5764 31.6773 67.7191C31.8109 67.8618 31.9913 67.9329 32.2185 67.9329C32.1967 68.0391 32.1344 68.1326 32.0448 68.1935C31.9512 68.256 31.8357 68.2871 31.6973 68.2871C31.5775 68.2882 31.4589 68.2631 31.3499 68.2136C31.2458 68.1633 31.1526 68.0929 31.0759 68.0064C30.9978 67.9132 30.9367 67.8068 30.8955 67.6924C30.8543 67.5605 30.8341 67.423 30.8354 67.2848C30.8354 67.0843 30.8779 66.8996 30.9623 66.7302C31.0459 66.5623 31.1644 66.4143 31.3098 66.2959C31.4642 66.167 31.6408 66.0673 31.831 66.0019C32.0362 65.9308 32.2567 65.895 32.4925 65.895C32.7287 65.895 32.9449 65.9308 33.1406 66.0019C33.3363 66.073 33.5062 66.1732 33.6484 66.3026C33.7911 66.4319 33.9004 66.5856 33.9758 66.7636C34.056 66.9373 34.0961 67.1311 34.0961 67.3449C34.0948 67.6271 34.0309 67.9055 33.909 68.1601C33.777 68.4415 33.6085 68.7044 33.4079 68.9419C33.1941 69.1958 32.9449 69.4473 32.6595 69.6969C32.3633 69.9507 32.058 70.1936 31.7441 70.4252L31.7508 70.4587ZM36.944 65.9017C37.216 65.9017 37.4719 65.9709 37.7124 66.1088C37.9591 66.2523 38.173 66.4457 38.3405 66.6767C38.5273 66.934 38.6696 67.2209 38.7615 67.5253C38.8684 67.8504 38.9218 68.2026 38.9218 68.5811C38.9218 68.9419 38.8684 69.2803 38.7615 69.5967C38.6684 69.8945 38.5261 70.1745 38.3405 70.4252C38.1701 70.65 37.9566 70.8386 37.7124 70.9798C37.4719 71.1135 37.216 71.1803 36.944 71.1803C36.672 71.1803 36.4161 71.1135 36.1756 70.9798C35.9314 70.8386 35.7179 70.65 35.5475 70.4252C35.3614 70.1738 35.217 69.8941 35.1199 69.5967C35.0156 69.2683 34.9637 68.9256 34.9662 68.5811C34.9662 68.2026 35.0177 67.8504 35.1199 67.5253C35.216 67.2214 35.3604 66.9349 35.5475 66.6767C35.715 66.4457 35.9289 66.2523 36.1756 66.1088C36.4088 65.9728 36.674 65.9013 36.944 65.9017ZM36.944 70.8596C37.1177 70.8596 37.2714 70.8238 37.405 70.7527C37.5435 70.6815 37.659 70.5589 37.7525 70.3852C37.8508 70.2114 37.9243 69.98 37.973 69.6902C38.0264 69.4005 38.0532 69.0378 38.0532 68.6011C38.0532 68.1467 38.0264 67.7683 37.973 67.4652C37.9243 67.1621 37.8527 66.9197 37.7592 66.7369C37.6656 66.5498 37.5497 66.4185 37.4117 66.3427C37.2694 66.2613 37.1079 66.2198 36.944 66.2224C36.7703 66.2224 36.6147 66.2625 36.4763 66.3427C36.3379 66.4185 36.2224 66.5498 36.1288 66.7369C36.0353 66.9197 35.9618 67.1621 35.9083 67.4652C35.8592 67.7683 35.8348 68.1467 35.8348 68.6011C35.8348 69.0378 35.8596 69.4005 35.9083 69.6902C35.9618 69.98 36.0353 70.2114 36.1288 70.3852C36.2224 70.5589 36.3383 70.6815 36.4763 70.7527C36.6147 70.8238 36.7703 70.8596 36.944 70.8596ZM40.6381 70.4587H41.9678C42.0747 70.4587 42.1682 70.4496 42.2484 70.4319C42.3286 70.4095 42.4002 70.3694 42.4622 70.3117C42.5247 70.2539 42.5806 70.1756 42.6293 70.0778C42.6872 69.9522 42.7363 69.8227 42.7763 69.6902H43.0235L42.7696 71.1135H39.6625V70.893C40.0935 70.512 40.5103 70.1152 40.912 69.7036C41.2418 69.3605 41.5 69.0531 41.6871 68.7815C41.8742 68.5099 42.0036 68.2603 42.0747 68.0332C42.1463 67.8017 42.1816 67.5678 42.1816 67.3316C42.1816 66.9841 42.0995 66.7102 41.9344 66.5097C41.774 66.3092 41.5535 66.209 41.2729 66.209C41.0056 66.209 40.7875 66.2959 40.618 66.4696C40.4534 66.6433 40.3708 66.8681 40.3708 67.1445C40.3708 67.385 40.4357 67.5764 40.5646 67.7191C40.6982 67.8618 40.8786 67.9329 41.1058 67.9329C41.084 68.0391 41.0217 68.1326 40.9321 68.1935C40.8385 68.256 40.723 68.2871 40.5846 68.2871C40.4601 68.2871 40.3441 68.2627 40.2372 68.2136C40.1331 68.1633 40.04 68.0929 39.9632 68.0064C39.8851 67.9131 39.8241 67.8068 39.7828 67.6924C39.7416 67.5605 39.7213 67.423 39.7227 67.2848C39.7227 67.0843 39.7652 66.8996 39.8496 66.7302C39.9332 66.5623 40.0517 66.4143 40.1971 66.2959C40.3515 66.167 40.5281 66.0673 40.7183 66.0019C40.9312 65.9294 41.1548 65.8932 41.3798 65.895C41.616 65.895 41.8322 65.9308 42.0279 66.0019C42.2241 66.073 42.3935 66.1732 42.5357 66.3026C42.6784 66.4319 42.7877 66.5856 42.8631 66.7636C42.9433 66.9373 42.9834 67.1311 42.9834 67.3449C42.9821 67.6271 42.9182 67.9055 42.7963 68.1601C42.6643 68.4415 42.4958 68.7044 42.2952 68.9419C42.0814 69.1958 41.8322 69.4473 41.5468 69.6969C41.2506 69.9507 40.9453 70.1936 40.6314 70.4252L40.6381 70.4587ZM43.5662 69.5833L45.9182 65.9017H46.1253V69.5967C46.2637 69.5924 46.3725 69.5833 46.4527 69.57C46.5377 69.5523 46.5997 69.5232 46.6398 69.4831C46.6869 69.4335 46.7173 69.3704 46.7267 69.3027C46.74 69.2225 46.7467 69.118 46.7467 68.9887H46.9806V70.4787H46.7467C46.7483 70.3803 46.7416 70.282 46.7267 70.1847C46.7183 70.1186 46.6876 70.0573 46.6398 70.011C46.5997 69.9666 46.5377 69.9375 46.4527 69.9241C46.3448 69.9033 46.2352 69.8921 46.1253 69.8907V70.031C46.1253 70.2047 46.132 70.3451 46.1453 70.452C46.1587 70.5589 46.1835 70.6434 46.2188 70.7059C46.2575 70.7626 46.3139 70.8049 46.3792 70.8261C46.4508 70.8486 46.542 70.8596 46.6532 70.8596V71.1135H44.7756V70.8596C44.9226 70.8596 45.0409 70.8486 45.1297 70.8261C45.2121 70.8101 45.2871 70.768 45.3435 70.7059C45.3978 70.6361 45.4324 70.553 45.4437 70.4653C45.4636 70.3371 45.4726 70.2075 45.4705 70.0778V69.9174H43.5662V69.5833ZM45.4705 67.2046H45.4371L43.9002 69.5833H45.4705V67.2046Z" fill="var(--fill-0, #222222)"/>
<path id="Vector_9" d="M4.77255 42.9545C4.77255 42.7014 4.87312 42.4586 5.05213 42.2796C5.23114 42.1006 5.47393 42 5.7271 42H71.1135C71.3666 42 71.6094 42.1006 71.7884 42.2796C71.9674 42.4586 72.068 42.7014 72.068 42.9545V52.9773H4.77255V42.9545Z" fill="var(--fill-0, #45BE8B)"/>
<path id="Vector_10" d="M13.48 49.6365V45.4714H16.2863V46.1973H14.361V47.19H16.1427V47.9159H14.361V48.9106H16.2954V49.6365H13.4805H13.48ZM22.1888 45.4714V49.6365H21.4285L19.6158 47.0149H19.5853V49.6365H18.7047V45.4714H19.4774L21.2753 48.0906H21.312V45.4714H22.1888ZM24.4763 46.1973V45.4714H27.897V46.1973H26.6222V49.6365H25.7516V46.1973H24.4763ZM30.1788 49.6365V45.4714H31.8221C32.1366 45.4714 32.4048 45.5277 32.6272 45.6398C32.851 45.751 33.0214 45.909 33.1379 46.1138C33.2558 46.3176 33.3145 46.5567 33.3145 46.8321C33.3145 47.1089 33.2553 47.3466 33.136 47.5456C33.0167 47.7437 32.8434 47.8954 32.6172 48.0014C32.3919 48.1069 32.1194 48.1598 31.7996 48.1598H30.6995V47.452H31.6574C31.8254 47.452 31.9652 47.4291 32.076 47.3828C32.1872 47.337 32.2702 47.2678 32.3241 47.1757C32.38 47.0836 32.4077 46.969 32.4077 46.8321C32.4077 46.6937 32.38 46.5772 32.3241 46.4822C32.2669 46.3846 32.179 46.3087 32.074 46.2665C31.9628 46.2164 31.8225 46.1911 31.6531 46.1911H31.0594V49.6365H30.1788ZM32.4282 47.7408L33.4634 49.6365H32.4912L31.4784 47.7408H32.4282ZM35.6555 49.6365V45.4714H38.4619V46.1973H36.5361V47.19H38.3177V47.9159H36.5361V48.9106H38.47V49.6365H35.6555ZM40.8802 49.6365V45.4714H42.5235C42.8394 45.4714 43.1086 45.5315 43.331 45.6522C43.5534 45.7716 43.7228 45.9377 43.8398 46.1505C43.9577 46.3619 44.0164 46.6063 44.0164 46.8827C44.0164 47.1595 43.9567 47.4034 43.8374 47.6148C43.7181 47.8262 43.5453 47.9914 43.3191 48.1092C43.0938 48.2271 42.8213 48.2858 42.5015 48.2858H41.4539V47.5804H42.3588C42.5282 47.5804 42.6681 47.5513 42.7778 47.4931C42.889 47.433 42.9716 47.3513 43.026 47.2468C43.0814 47.1409 43.1095 47.0196 43.1095 46.8827C43.1095 46.7442 43.0814 46.6235 43.026 46.5209C42.9711 46.4159 42.8842 46.3311 42.7778 46.2789C42.6666 46.2202 42.5258 46.1911 42.355 46.1911H41.7608V49.6365H40.8802ZM46.3068 49.6365V45.4714H47.9501C48.2646 45.4714 48.5333 45.5277 48.7552 45.6398C48.979 45.751 49.1494 45.909 49.2659 46.1138C49.3838 46.3176 49.443 46.5567 49.443 46.8321C49.443 47.1089 49.3833 47.3466 49.264 47.5456C49.1447 47.7437 48.9719 47.8954 48.7452 48.0014C48.5204 48.1069 48.2479 48.1598 47.9276 48.1598H46.8275V47.452H47.7854C47.9534 47.452 48.0932 47.4291 48.2044 47.3828C48.3156 47.337 48.3982 47.2678 48.4521 47.1757C48.508 47.0836 48.5357 46.969 48.5357 46.8321C48.5357 46.6937 48.508 46.5772 48.4521 46.4822C48.395 46.3845 48.307 46.3087 48.2021 46.2665C48.0908 46.2164 47.9505 46.1911 47.7811 46.1911H47.1874V49.6365H46.3068ZM48.5562 47.7408L49.5914 49.6365H48.6192L47.6064 47.7408H48.5562ZM52.6641 45.4714V49.6365H51.7835V45.4714H52.6641ZM57.3662 46.6693C57.3614 46.5941 57.3401 46.5208 57.3039 46.4547C57.2677 46.3885 57.2174 46.3311 57.1566 46.2865C57.0335 46.1959 56.866 46.1505 56.6545 46.1505C56.5109 46.1505 56.3897 46.171 56.2904 46.2116C56.2007 46.2442 56.1218 46.3013 56.0627 46.3763C56.0115 46.4457 55.9843 46.53 55.9854 46.6163C55.9811 46.6846 55.9974 46.7526 56.0322 46.8115C56.0675 46.8669 56.1157 46.9151 56.1768 46.9557C56.2374 46.9953 56.308 47.0297 56.3882 47.0597C56.4679 47.0884 56.5534 47.1122 56.6445 47.1327L57.0187 47.2225C57.2001 47.263 57.3671 47.3174 57.5189 47.3847C57.6707 47.453 57.8024 47.536 57.9136 47.6353C58.0248 47.7341 58.1107 47.851 58.1718 47.9852C58.2343 48.1193 58.2658 48.273 58.2673 48.4467C58.2658 48.7015 58.2009 48.9225 58.072 49.1096C57.9446 49.2957 57.7604 49.4399 57.5189 49.543C57.2788 49.6446 56.9896 49.6957 56.6503 49.6957C56.3143 49.6957 56.0212 49.6442 55.7721 49.5411C55.5239 49.438 55.3296 49.2852 55.1903 49.0834C55.0519 48.88 54.9793 48.6285 54.9726 48.3288H55.8246C55.8341 48.4686 55.8742 48.5851 55.9448 48.6786C56.0164 48.7707 56.1124 48.8404 56.2317 48.8882C56.352 48.934 56.4885 48.9574 56.6402 48.9574C56.7896 48.9574 56.919 48.9354 57.0287 48.892C57.1399 48.8485 57.2258 48.7884 57.2869 48.7111C57.3474 48.6356 57.3798 48.5415 57.3786 48.4448C57.3813 48.3585 57.3515 48.2743 57.295 48.209C57.229 48.1366 57.1467 48.0808 57.055 48.0462C56.9305 47.9949 56.802 47.9541 56.6708 47.9241L56.2174 47.81C55.8661 47.7246 55.5888 47.5909 55.3855 47.4091C55.1822 47.2277 55.081 46.9829 55.0824 46.6755C55.081 46.423 55.1483 46.203 55.2838 46.014C55.4208 45.826 55.6084 45.6785 55.847 45.573C56.0856 45.4671 56.3567 45.4141 56.6608 45.4141C56.9695 45.4141 57.2397 45.4671 57.4702 45.573C57.7022 45.6785 57.8821 45.826 58.011 46.014C58.1398 46.2025 58.2062 46.4211 58.2105 46.6693H57.3662ZM60.5777 49.6365V45.4714H63.3846V46.1973H61.4583V47.19H63.24V47.9159H61.4583V48.9106H63.3927V49.6365H60.5777Z" fill="var(--fill-0, white)"/>
<path id="Vector_11" d="M45.0205 11.9733L39.1324 15.3205C38.916 15.4435 38.6713 15.5079 38.4223 15.5075C38.1734 15.5071 37.9289 15.4418 37.713 15.3181L31.7423 11.8975C31.5236 11.7721 31.3418 11.5912 31.2154 11.373C31.0891 11.1549 31.0225 10.9072 31.0226 10.6551V1.43182C31.0226 1.05208 31.1734 0.687888 31.4419 0.41937C31.7104 0.150852 32.0746 0 32.4544 0L44.3127 0C44.6924 0 45.0566 0.150852 45.3251 0.41937C45.5937 0.687888 45.7445 1.05208 45.7445 1.43182V10.7291C45.7444 10.9819 45.6774 11.2303 45.5502 11.4488C45.4231 11.6674 45.2403 11.8483 45.0205 11.9733Z" fill="var(--fill-0, #FF492C)"/>
<path id="Vector_12" d="M39.3469 2.60582C39.0386 2.52945 38.7302 2.52945 38.4219 2.52945H38.0368C35.5702 2.60629 33.7203 4.68768 33.7971 7.15422C33.8745 9.62077 35.9554 11.4707 38.4219 11.3934C39.3872 11.3963 40.3297 11.1002 41.1199 10.5457L40.1177 8.84997C39.6401 9.24435 39.0412 9.46212 38.4219 9.46661H38.1136C36.7262 9.38929 35.647 8.15602 35.7244 6.76859C35.8012 5.38116 37.0345 4.30204 38.4219 4.37936L39.3469 2.60582Z" fill="var(--fill-0, white)"/>
<path id="Vector_13" d="M42.7389 8.23217L41.583 6.30542H39.4248L38.2683 8.23217H40.5039L41.5825 10.0821L42.7389 8.23217ZM39.9641 4.76335C39.8104 4.99483 39.7331 5.30315 39.7331 5.61147L41.814 5.68879V5.14947H40.427C40.5039 4.91799 40.658 4.84067 40.8895 4.68651L41.1205 4.53235C41.583 4.37819 41.8145 4.06988 41.8145 3.68472C41.8145 3.45324 41.6598 3.22176 41.5057 3.06808C41.3515 2.91392 41.0437 2.8366 40.8122 2.8366C40.5812 2.8366 40.3497 2.8366 40.1187 2.99076C39.9641 3.14492 39.8099 3.29908 39.7331 3.45372L40.1187 3.83888C40.2724 3.53056 40.5039 3.37592 40.8122 3.37592C40.9664 3.37592 41.1978 3.53056 41.1978 3.68472C41.1978 3.83888 41.1205 3.91572 40.8122 4.06988L40.658 4.14719C40.427 4.30135 40.1187 4.53235 39.9641 4.76383V4.76335Z" fill="var(--fill-0, white)"/>
<path id="Vector_14" d="M4.77255 52.9773H7.15891V55.3636L4.77255 52.9773ZM72.068 52.9773H69.6816V55.3636L72.068 52.9773Z" fill="var(--fill-0, #237452)"/>
</g>
<defs>
<clipPath id="clip0_150_7526">
<rect width="76.3636" height="84" fill="white"/>
</clipPath>
</defs>
</svg>
