<svg preserveAspectRatio="none" width="100%" height="100%" overflow="visible" style="display: block;" viewBox="0 0 55 16" fill="none" xmlns="http://www.w3.org/2000/svg">
<g id="HubSpot logo" clip-path="url(#clip0_122_5601)">
<path id="Vector" d="M0.00686836 2.97526H1.92265V7.23157H5.96315V2.97526H7.8814V13.4232H5.96315V9.07749H1.92265V13.4232H0.00686836V2.97526ZM13.9506 10.0201C13.9506 10.8948 13.238 11.6065 12.3636 11.6065C11.4889 11.6065 10.7767 10.8948 10.7767 10.0201V5.52194H8.95991V10.0201C8.95991 11.8967 10.4869 13.4232 12.3636 13.4232C14.2399 13.4232 15.7668 11.8967 15.7668 10.0201V5.52194H13.9506V10.0201ZM20.8387 5.57463C19.9374 5.57463 19.3084 5.83616 18.7008 6.43251V2.97526H16.8781V9.38248C16.8781 11.7807 18.6121 13.4232 20.5602 13.4232C22.7259 13.4232 24.6234 11.7514 24.6234 9.49902C24.6234 7.27514 22.8737 5.57463 20.8387 5.57463ZM20.8839 11.737C19.6489 11.737 18.7044 10.7054 18.7044 9.49902C18.7044 8.29237 19.6489 7.26054 20.8839 7.26054C21.9305 7.26054 22.8755 8.29237 22.8755 9.49902C22.8755 10.7054 21.9305 11.737 20.8839 11.737ZM27.6848 6.03383C27.6848 5.11758 28.2953 4.82708 28.9637 4.82708C29.5017 4.82708 30.2138 5.23402 30.6784 5.72831L31.87 4.33311C31.2745 3.53383 30.0684 2.98138 29.08 2.98138C27.1031 2.98138 25.6788 4.12964 25.6788 6.03383C25.6788 9.56555 30.0247 8.44605 30.0247 10.4232C30.0247 11.033 29.429 11.5713 28.7462 11.5713C27.6703 11.5713 27.3213 11.048 26.8273 10.4955L25.5045 11.8615C26.348 12.8936 27.3941 13.4171 28.6442 13.4171C30.519 13.4171 32.0306 12.2543 32.0306 10.4373C32.0306 6.51321 27.6848 7.73423 27.6848 6.03383ZM36.8291 5.47226C34.8812 5.47226 33.147 7.11374 33.147 9.51254V15.9363H34.9696V12.4626C35.5772 13.0585 36.206 13.3205 37.1075 13.3205C39.1424 13.3205 40.8924 11.6202 40.8924 9.39632C40.8924 7.14357 38.9944 5.47226 36.8291 5.47226ZM37.1529 11.6348C35.918 11.6348 34.9734 10.6019 34.9734 9.39632C34.9734 8.18967 35.918 7.15784 37.1529 7.15784C38.1993 7.15784 39.1444 8.18967 39.1444 9.39632C39.1444 10.6019 38.1993 11.6348 37.1529 11.6348ZM54.309 11.737C53.2339 11.737 52.9287 11.2721 52.9287 10.5596V7.40585H54.5998V5.80729H52.9287V3.69963L51.0834 4.52789V10.9521C51.0834 12.5946 52.2167 13.4232 53.7711 13.4232C54.0037 13.4232 54.3238 13.4082 54.4984 13.3651L54.949 11.7084C54.7456 11.7225 54.5131 11.737 54.309 11.737Z" fill="var(--fill-0, black)"/>
<path id="Vector_2" d="M49.5018 7.49888C49.1523 6.8977 48.6608 6.41575 48.0464 6.05292C47.5872 5.7856 47.111 5.61593 46.5744 5.54307V3.63287C47.111 3.40504 47.444 2.90077 47.444 2.31247C47.444 1.51062 46.801 0.860827 45.9998 0.860827C45.1979 0.860827 44.5436 1.51062 44.5436 2.31247C44.5436 2.90077 44.8574 3.40504 45.394 3.63287V5.54393C44.9647 5.60595 44.5196 5.73978 44.1131 5.94539C43.2828 5.31481 40.5602 3.24611 38.9675 2.03785C39.0053 1.90167 39.0344 1.7613 39.0344 1.61321C39.0344 0.725074 38.3152 0.00520833 37.4267 0.00520833C36.5383 0.00520833 35.8194 0.725074 35.8194 1.61321C35.8194 2.50124 36.539 3.22132 37.4275 3.22132C37.7305 3.22132 38.0108 3.13268 38.2527 2.98694L38.5888 3.24192L43.2072 6.56953C42.9631 6.79371 42.7357 7.04869 42.5538 7.33479C42.1852 7.91805 41.9599 8.55979 41.9599 9.2598V9.40585C41.9599 9.89725 42.0533 10.3612 42.2123 10.797C42.3524 11.1775 42.5571 11.5235 42.8107 11.8363L41.2779 13.3728C41.0558 13.2902 40.8145 13.2732 40.583 13.324C40.3515 13.3747 40.1395 13.4911 39.9723 13.6592C39.8566 13.7743 39.7649 13.9113 39.7025 14.0622C39.6401 14.213 39.6082 14.3748 39.6088 14.5381C39.6089 14.87 39.7382 15.182 39.973 15.4166C40.0881 15.5325 40.225 15.6243 40.3758 15.6868C40.5267 15.7493 40.6884 15.7813 40.8517 15.7809C41.015 15.7813 41.1768 15.7493 41.3277 15.6868C41.4785 15.6243 41.6155 15.5325 41.7307 15.4166C41.8463 15.3015 41.938 15.1646 42.0005 15.0138C42.0629 14.863 42.0949 14.7013 42.0945 14.5381C42.0945 14.4096 42.0746 14.2843 42.0373 14.1651L43.6216 12.5806C43.8388 12.7307 44.0734 12.857 44.3255 12.9659C44.823 13.181 45.372 13.312 45.9728 13.312H46.0829C46.7472 13.312 47.3738 13.156 47.9629 12.8368C48.5836 12.4995 49.0694 12.0383 49.4364 11.4494C49.8054 10.859 50.0085 10.2066 50.0085 9.48892V9.45307C50.0085 8.74705 49.8451 8.09565 49.5018 7.49888ZM47.566 10.8227C47.136 11.3006 46.6417 11.595 46.0829 11.595H45.9909C45.6717 11.595 45.3595 11.5068 45.0539 11.3463C44.7094 11.1697 44.4476 10.9177 44.2333 10.5987C44.0118 10.2855 43.8916 9.94361 43.8916 9.5811V9.47099C43.8916 9.1146 43.9599 8.77667 44.1323 8.45752C44.3165 8.10864 44.5654 7.83735 44.8964 7.62164C45.2213 7.40744 45.5684 7.30238 45.9549 7.30238H45.9909C46.3413 7.30238 46.6732 7.37149 46.9863 7.53171C47.3054 7.70256 47.566 7.93597 47.7681 8.24299C47.9644 8.55013 48.0811 8.88141 48.1187 9.24231C48.1246 9.31732 48.1276 9.39416 48.1276 9.46756C48.1276 9.95734 47.9404 10.411 47.566 10.8227Z" fill="var(--fill-0, #F8761F)"/>
</g>
<defs>
<clipPath id="clip0_122_5601">
<rect width="54.9451" height="16" fill="white"/>
</clipPath>
</defs>
</svg>
