<svg preserveAspectRatio="none" width="100%" height="100%" overflow="visible" style="display: block;" viewBox="0 0 66 20" fill="none" xmlns="http://www.w3.org/2000/svg">
<g id="HubSpot logo" clip-path="url(#clip0_122_5645)">
<path id="Vector" d="M0.00976562 3.57227H2.30996V8.68263H7.16121V3.57227H9.46437V16.1166H7.16121V10.8989H2.30996V16.1166H0.00976562V3.57227ZM16.7514 12.0307C16.7514 13.0809 15.8958 13.9354 14.846 13.9354C13.7957 13.9354 12.9407 13.0809 12.9407 12.0307V6.62995H10.7593V12.0307C10.7593 14.2839 12.5927 16.1166 14.846 16.1166C17.0987 16.1166 18.932 14.2839 18.932 12.0307V6.62995H16.7514V12.0307ZM25.0216 6.69322C23.9395 6.69322 23.1842 7.00722 22.4548 7.72323V3.57227H20.2663V11.2651C20.2663 14.1446 22.3483 16.1166 24.6872 16.1166C27.2875 16.1166 29.5658 14.1094 29.5658 11.4051C29.5658 8.73494 27.4649 6.69322 25.0216 6.69322ZM25.076 14.0921C23.5931 14.0921 22.4591 12.8536 22.4591 11.4051C22.4591 9.95629 23.5931 8.71742 25.076 8.71742C26.3325 8.71742 27.4671 9.95629 27.4671 11.4051C27.4671 12.8536 26.3325 14.0921 25.076 14.0921ZM33.2414 7.24456C33.2414 6.14446 33.9745 5.79567 34.7769 5.79567C35.423 5.79567 36.2779 6.28426 36.8358 6.87773L38.2664 5.20258C37.5514 4.24292 36.1033 3.57961 34.9166 3.57961C32.5431 3.57961 30.8329 4.95828 30.8329 7.24456C30.8329 11.4849 36.0508 10.1408 36.0508 12.5147C36.0508 13.2468 35.3356 13.8931 34.5159 13.8931C33.224 13.8931 32.805 13.2648 32.2119 12.6015L30.6236 14.2416C31.6364 15.4808 32.8924 16.1093 34.3933 16.1093C36.6443 16.1093 38.4593 14.7132 38.4593 12.5316C38.4593 7.82012 33.2414 9.28615 33.2414 7.24456ZM44.2206 6.5703C41.8819 6.5703 39.7997 8.54116 39.7997 11.4213V19.134H41.988V14.9633C42.7176 15.6788 43.4725 15.9933 44.5549 15.9933C46.9981 15.9933 49.0993 13.9519 49.0993 11.2818C49.0993 8.57698 46.8203 6.5703 44.2206 6.5703ZM44.6094 13.9694C43.1267 13.9694 41.9925 12.7292 41.9925 11.2818C41.9925 9.83298 43.1267 8.59411 44.6094 8.59411C45.8657 8.59411 47.0005 9.83298 47.0005 11.2818C47.0005 12.7292 45.8657 13.9694 44.6094 13.9694ZM65.208 14.0921C63.9172 14.0921 63.5507 13.5339 63.5507 12.6785V8.89188H65.5571V6.97256H63.5507V4.44199L61.3352 5.43644V13.1497C61.3352 15.1218 62.6958 16.1166 64.5622 16.1166C64.8414 16.1166 65.2257 16.0986 65.4354 16.0469L65.9764 14.0578C65.7321 14.0747 65.453 14.0921 65.208 14.0921Z" fill="var(--fill-0, black)"/>
<path id="Vector_2" d="M59.4376 9.00367C59.0181 8.28186 58.428 7.7032 57.6902 7.26757C57.1388 6.94661 56.5671 6.7429 55.9229 6.65541V4.36192C56.5671 4.08838 56.967 3.48292 56.967 2.77658C56.967 1.81383 56.1949 1.03365 55.2329 1.03365C54.2702 1.03365 53.4846 1.81383 53.4846 2.77658C53.4846 3.48292 53.8613 4.08838 54.5056 4.36192V6.65644C53.9902 6.73092 53.4557 6.89159 52.9676 7.13846C51.9707 6.38135 48.7019 3.89755 46.7896 2.44686C46.835 2.28335 46.8699 2.11481 46.8699 1.937C46.8699 0.870659 46.0064 0.00634766 44.9396 0.00634766C43.8729 0.00634766 43.0098 0.870659 43.0098 1.937C43.0098 3.00322 43.8738 3.86779 44.9406 3.86779C45.3044 3.86779 45.641 3.76136 45.9314 3.58639L46.3349 3.89253L51.88 7.88784C51.5869 8.15701 51.3139 8.46315 51.0955 8.80666C50.6529 9.50695 50.3824 10.2775 50.3824 11.1179V11.2933C50.3824 11.8833 50.4945 12.4403 50.6855 12.9635C50.8536 13.4204 51.0995 13.8358 51.4039 14.2114L49.5636 16.0563C49.2969 15.957 49.0073 15.9366 48.7293 15.9976C48.4513 16.0586 48.1967 16.1983 47.9961 16.4001C47.8571 16.5383 47.747 16.7028 47.672 16.8839C47.5971 17.0651 47.5589 17.2593 47.5595 17.4553C47.5596 17.8538 47.7149 18.2284 47.9968 18.5102C48.135 18.6493 48.2994 18.7595 48.4805 18.8346C48.6616 18.9096 48.8558 18.948 49.0518 18.9475C49.2479 18.948 49.4422 18.9096 49.6233 18.8345C49.8045 18.7595 49.969 18.6492 50.1072 18.5102C50.2461 18.3719 50.3562 18.2075 50.4312 18.0265C50.5061 17.8454 50.5445 17.6513 50.544 17.4553C50.544 17.3011 50.5202 17.1506 50.4753 17.0076L52.3775 15.1051C52.6383 15.2853 52.92 15.4369 53.2228 15.5677C53.82 15.8259 54.4792 15.9832 55.2006 15.9832H55.3328C56.1303 15.9832 56.8827 15.7959 57.5899 15.4127C58.3352 15.0077 58.9185 14.4539 59.3591 13.7469C59.8021 13.038 60.046 12.2548 60.046 11.393V11.35C60.046 10.5023 59.8498 9.72019 59.4376 9.00367ZM57.1135 12.9945C56.5972 13.5682 56.0037 13.9217 55.3328 13.9217H55.2222C54.839 13.9217 54.4642 13.8157 54.0973 13.6231C53.6837 13.411 53.3693 13.1085 53.112 12.7254C52.846 12.3495 52.7017 11.939 52.7017 11.5037V11.3715C52.7017 10.9436 52.7838 10.5379 52.9907 10.1547C53.2119 9.73578 53.5107 9.41005 53.9081 9.15107C54.2983 8.89389 54.715 8.76775 55.1791 8.76775H55.2222C55.643 8.76775 56.0414 8.85072 56.4174 9.04309C56.8005 9.24822 57.1135 9.52846 57.3561 9.8971C57.5917 10.2659 57.7319 10.6636 57.777 11.0969C57.7841 11.187 57.7877 11.2792 57.7877 11.3674C57.7877 11.9554 57.563 12.5001 57.1135 12.9945Z" fill="var(--fill-0, #F8761F)"/>
</g>
<defs>
<clipPath id="clip0_122_5645">
<rect width="65.9701" height="19.2105" fill="white"/>
</clipPath>
</defs>
</svg>
