<svg preserveAspectRatio="none" width="100%" height="100%" overflow="visible" style="display: block;" viewBox="0 0 58 17" fill="none" xmlns="http://www.w3.org/2000/svg">
<g id="HubSpot logo" clip-path="url(#clip0_140_5938)">
<path id="Vector" d="M0.0078125 3.1123H2.01189V7.56478H6.23861V3.1123H8.24527V14.0418H6.23861V9.49578H2.01189V14.0418H0.0078125V3.1123ZM14.5942 10.4819C14.5942 11.3968 13.8488 12.1413 12.9341 12.1413C12.019 12.1413 11.2741 11.3968 11.2741 10.4819V5.77636H9.37349V10.4819C9.37349 12.445 10.9708 14.0418 12.9341 14.0418C14.8968 14.0418 16.4941 12.445 16.4941 10.4819V5.77636H14.5942V10.4819ZM21.7997 5.83148C20.857 5.83148 20.1989 6.10506 19.5634 6.72889V3.1123H17.6566V9.81482C17.6566 12.3236 19.4705 14.0418 21.5084 14.0418C23.7739 14.0418 25.7589 12.293 25.7589 9.93674C25.7589 7.61036 23.9285 5.83148 21.7997 5.83148ZM21.8471 12.2778C20.5551 12.2778 19.5671 11.1988 19.5671 9.93674C19.5671 8.67448 20.5551 7.59509 21.8471 7.59509C22.9419 7.59509 23.9304 8.67448 23.9304 9.93674C23.9304 11.1988 22.9419 12.2778 21.8471 12.2778ZM28.9614 6.31184C28.9614 5.35336 29.6 5.04947 30.2992 5.04947C30.8621 5.04947 31.6069 5.47517 32.093 5.99224L33.3394 4.53274C32.7165 3.69662 31.4548 3.1187 30.4209 3.1187C28.3529 3.1187 26.8629 4.31989 26.8629 6.31184C26.8629 10.0063 31.4091 8.83524 31.4091 10.9035C31.4091 11.5414 30.786 12.1045 30.0718 12.1045C28.9462 12.1045 28.5812 11.5571 28.0644 10.9792L26.6806 12.4082C27.563 13.4878 28.6573 14.0354 29.965 14.0354C31.9262 14.0354 33.5075 12.819 33.5075 10.9182C33.5075 6.81331 28.9614 8.09061 28.9614 6.31184ZM38.5271 5.72438C36.4895 5.72438 34.6753 7.44152 34.6753 9.95088V16.6707H36.582V13.0369C37.2176 13.6603 37.8753 13.9343 38.8184 13.9343C40.9471 13.9343 42.7777 12.1557 42.7777 9.8293C42.7777 7.47273 40.7922 5.72438 38.5271 5.72438ZM38.8659 12.1709C37.574 12.1709 36.5859 11.0904 36.5859 9.8293C36.5859 8.56705 37.574 7.48766 38.8659 7.48766C39.9605 7.48766 40.9491 8.56705 40.9491 9.8293C40.9491 11.0904 39.9605 12.1709 38.8659 12.1709ZM56.8127 12.2778C55.6881 12.2778 55.3688 11.7915 55.3688 11.0462V7.74709H57.1169V6.07486H55.3688V3.87006L53.4385 4.73649V11.4567C53.4385 13.175 54.6239 14.0418 56.25 14.0418C56.4933 14.0418 56.8282 14.0261 57.0108 13.981L57.4822 12.248C57.2694 12.2627 57.0262 12.2778 56.8127 12.2778Z" fill="var(--fill-0, black)"/>
<path id="Vector_2" d="M51.7857 7.84441C51.4201 7.21553 50.906 6.71137 50.2632 6.33182C49.7828 6.05217 49.2847 5.87469 48.7234 5.79847V3.80023C49.2847 3.5619 49.6331 3.03439 49.6331 2.41897C49.6331 1.58016 48.9604 0.900425 48.1223 0.900425C47.2834 0.900425 46.599 1.58016 46.599 2.41897C46.599 3.03439 46.9272 3.5619 47.4885 3.80023V5.79936C47.0395 5.86425 46.5738 6.00424 46.1486 6.21933C45.28 5.55969 42.432 3.39564 40.7659 2.1317C40.8054 1.98924 40.8359 1.8424 40.8359 1.68748C40.8359 0.758415 40.0835 0.00537109 39.1541 0.00537109C38.2247 0.00537109 37.4727 0.758415 37.4727 1.68748C37.4727 2.61644 38.2255 3.36971 39.1549 3.36971C39.4719 3.36971 39.7651 3.27698 40.0182 3.12453L40.3698 3.39126L45.201 6.87224C44.9456 7.10675 44.7077 7.37348 44.5175 7.67277C44.1318 8.2829 43.8962 8.95422 43.8962 9.6865V9.83928C43.8962 10.3533 43.9939 10.8386 44.1602 11.2945C44.3067 11.6926 44.5209 12.0545 44.7862 12.3818L43.1828 13.9891C42.9504 13.9026 42.6981 13.8849 42.4559 13.938C42.2137 13.9911 41.9919 14.1128 41.817 14.2886C41.696 14.4091 41.6 14.5524 41.5347 14.7102C41.4694 14.868 41.4361 15.0372 41.4367 15.208C41.4368 15.5553 41.5721 15.8816 41.8177 16.1271C41.9381 16.2483 42.0813 16.3443 42.2391 16.4097C42.3969 16.4751 42.5661 16.5086 42.7369 16.5081C42.9077 16.5086 43.077 16.4751 43.2348 16.4097C43.3927 16.3443 43.536 16.2483 43.6564 16.1271C43.7774 16.0066 43.8733 15.8634 43.9387 15.7056C44.004 15.5479 44.0374 15.3788 44.037 15.208C44.037 15.0737 44.0162 14.9425 43.9771 14.8179L45.6345 13.1604C45.8617 13.3173 46.1071 13.4495 46.3709 13.5634C46.8912 13.7884 47.4655 13.9255 48.0941 13.9255H48.2093C48.9042 13.9255 49.5596 13.7622 50.1758 13.4284C50.8252 13.0755 51.3334 12.593 51.7173 11.9771C52.1032 11.3594 52.3158 10.677 52.3158 9.92617V9.88868C52.3158 9.15012 52.1448 8.4687 51.7857 7.84441ZM49.7607 11.3215C49.3109 11.8214 48.7938 12.1293 48.2093 12.1293H48.1129C47.7791 12.1293 47.4525 12.037 47.1328 11.8692C46.7724 11.6844 46.4985 11.4208 46.2743 11.0871C46.0426 10.7595 45.9169 10.4018 45.9169 10.0226V9.90743C45.9169 9.53461 45.9884 9.1811 46.1687 8.84724C46.3615 8.48228 46.6218 8.19848 46.968 7.97284C47.3079 7.74877 47.671 7.63887 48.0753 7.63887H48.1129C48.4796 7.63887 48.8267 7.71116 49.1543 7.87877C49.488 8.05749 49.7607 8.30165 49.9721 8.62283C50.1774 8.94412 50.2996 9.29067 50.3388 9.6682C50.345 9.74667 50.3482 9.82705 50.3482 9.90384C50.3482 10.4162 50.1524 10.8907 49.7607 11.3215Z" fill="var(--fill-0, #F8761F)"/>
</g>
<defs>
<clipPath id="clip0_140_5938">
<rect width="57.4774" height="16.7374" fill="white"/>
</clipPath>
</defs>
</svg>
