<svg preserveAspectRatio="none" width="100%" height="100%" overflow="visible" style="display: block;" viewBox="0 0 37 15" fill="none" xmlns="http://www.w3.org/2000/svg">
<g id="IBM logo" clip-path="url(#clip0_140_5980)">
<path id="Vector" d="M-0.0683594 -0.00292969V1.01275H7.15606V-0.00292969H-0.0683594ZM8.18027 -0.00292969V1.01275H18.4764C18.4764 1.01275 17.4247 -0.00292969 16.0319 -0.00292969H8.18027ZM20.4959 -0.00292969V1.01275H26.7241L26.3545 -0.00292969H20.4959ZM31.1904 -0.00292969L30.8209 1.01275H36.9936V-0.00292969H31.1904ZM-0.0683594 1.97253V2.98822H7.15606V1.97253H-0.0683594ZM8.18027 1.97396V2.98774H19.6702C19.6702 2.98774 19.5361 2.20609 19.3021 1.97396H8.18027ZM20.4959 1.97396V2.98774H27.4124L27.0704 1.97396H20.4959ZM30.4509 1.97396L30.1089 2.98774H36.9932V1.97396H30.4509ZM2.00801 3.948V4.9651H5.13701V3.948H2.00801ZM10.2566 3.948V4.9651H13.3856V3.948H10.2566ZM16.4294 3.948V4.9651H19.5584C19.5584 4.9651 19.7573 4.42789 19.7573 3.948H16.4294ZM22.5727 3.948V4.9651H28.1154L27.7459 3.948H22.5727ZM29.7702 3.948L29.3988 4.9651H34.9736V3.948H29.7702ZM2.00848 5.92489V6.94057H5.13749V5.92489H2.00848ZM10.2571 5.92489V6.94057H18.249C18.249 6.94057 18.9169 6.41946 19.1301 5.92489H10.2571ZM22.5727 5.92489V6.94057H25.7017V6.37493L25.9007 6.94057H31.6329L31.8461 6.37493V6.94057H34.9751V5.92489H29.1008L28.7891 6.78518L28.4764 5.92489H22.5727ZM2.00801 7.90035V8.91603H5.13701V7.90035H2.00801ZM10.2566 7.90035V8.91603H19.1297C18.9165 8.42335 18.2485 7.90035 18.2485 7.90035H10.2566ZM22.5723 7.90035V8.91603H25.7013V7.90035H22.5723ZM26.2697 7.90035L26.6487 8.91603H30.9464L31.3065 7.90035H26.2697ZM31.8446 7.90035V8.91603H34.9736V7.90035H31.8446ZM2.00896 9.87581V10.8915H5.13796V9.87581H2.00896ZM10.2576 9.87581V10.8915H13.3866V9.87581H10.2576ZM16.4303 9.87581V10.8915H19.7578C19.7578 10.4121 19.5589 9.87581 19.5589 9.87581H16.4303ZM22.5737 9.87581V10.8915H25.7027V9.87581H22.5737ZM26.9813 9.87581L27.348 10.8915H30.2283L30.5978 9.87581H26.9813ZM31.8456 9.87581V10.8915H34.9746V9.87581H31.8456ZM-0.0105641 11.8513V12.8684H7.21386V11.8513H-0.0105641ZM8.18169 11.8513V12.8684H19.304C19.538 12.6353 19.6721 11.8513 19.6721 11.8513H8.18169ZM20.5537 11.8513V12.8684H25.7008V11.8513H20.5537ZM27.6928 11.8513L28.0699 12.8684H29.5357L29.8895 11.8513H27.6928ZM31.8456 11.8513V12.8684H37.051V11.8513H31.8456ZM-0.0105641 13.8282V14.8438H7.21386V13.8282H-0.0105641ZM8.18169 13.8282V14.842H16.0319C17.4247 14.842 18.4764 13.8282 18.4764 13.8282H8.18169ZM20.5537 13.8282V14.8438H25.7008V13.8282H20.5537ZM28.4082 13.8282L28.7706 14.841L28.8331 14.8424L29.2012 13.8286L28.4082 13.8282ZM31.8461 13.8282V14.8438H37.0514V13.8282H31.8461Z" fill="var(--fill-0, #0084FF)"/>
</g>
<defs>
<clipPath id="clip0_140_5980">
<rect width="37.0083" height="14.8777" fill="white"/>
</clipPath>
</defs>
</svg>
