<svg preserveAspectRatio="none" width="100%" height="100%" overflow="visible" style="display: block;" viewBox="0 0 43 18" fill="none" xmlns="http://www.w3.org/2000/svg">
<g id="IBM logo" clip-path="url(#clip0_122_5676)">
<path id="Vector" d="M-0.0800188 -0.00364147V1.16212H8.21186V-0.00364147H-0.0800188ZM9.38741 -0.00364147V1.16212H21.2048C21.2048 1.16212 19.9978 -0.00364147 18.3992 -0.00364147H9.38741ZM23.5228 -0.00364147V1.16212H30.6712L30.2471 -0.00364147H23.5228ZM35.7975 -0.00364147L35.3733 1.16212H42.4581V-0.00364147H35.7975ZM-0.0800188 2.26371V3.42947H8.21186V2.26371H-0.0800188ZM9.38741 2.26534V3.42893H22.575C22.575 3.42893 22.4212 2.53177 22.1526 2.26534H9.38741ZM23.5228 2.26534V3.42893H31.4612L31.0686 2.26534H23.5228ZM34.9487 2.26534L34.5561 3.42893H42.4576V2.26534H34.9487ZM2.30315 4.53107V5.69845H5.89449V4.53107H2.30315ZM11.7706 4.53107V5.69845H15.3619V4.53107H11.7706ZM18.8554 4.53107V5.69845H22.4467C22.4467 5.69845 22.6751 5.08186 22.6751 4.53107H18.8554ZM25.9065 4.53107V5.69845H32.2681L31.844 4.53107H25.9065ZM34.1674 4.53107L33.7411 5.69845H40.1397V4.53107H34.1674ZM2.30369 6.80005V7.96581H5.89503V6.80005H2.30369ZM11.7711 6.80005V7.96581H20.9438C20.9438 7.96581 21.7105 7.36771 21.9552 6.80005H11.7711ZM25.9065 6.80005V7.96581H29.4978V7.31659L29.7262 7.96581H36.3053L36.55 7.31659V7.96581H40.1413V6.80005H33.3991L33.0413 7.78746L32.6824 6.80005H25.9065ZM2.30315 9.0674V10.2332H5.89449V9.0674H2.30315ZM11.7706 9.0674V10.2332H21.9546C21.71 9.66768 20.9433 9.0674 20.9433 9.0674H11.7706ZM25.9059 9.0674V10.2332H29.4973V9.0674H25.9059ZM30.1497 9.0674L30.5847 10.2332H35.5174L35.9307 9.0674H30.1497ZM36.5483 9.0674V10.2332H40.1397V9.0674H36.5483ZM2.30424 11.3348V12.5005H5.89557V11.3348H2.30424ZM11.7717 11.3348V12.5005H15.363V11.3348H11.7717ZM18.8565 11.3348V12.5005H22.6756C22.6756 11.9503 22.4473 11.3348 22.4473 11.3348H18.8565ZM25.9076 11.3348V12.5005H29.4989V11.3348H25.9076ZM30.9664 11.3348L31.3873 12.5005H34.6931L35.1172 11.3348H30.9664ZM36.5494 11.3348V12.5005H40.1408V11.3348H36.5494ZM-0.0136839 13.6021V14.7695H8.2782V13.6021H-0.0136839ZM9.38904 13.6021V14.7695H22.1547C22.4233 14.502 22.5772 13.6021 22.5772 13.6021H9.38904ZM23.5891 13.6021V14.7695H29.4967V13.6021H23.5891ZM31.7831 13.6021L32.2159 14.7695H33.8982L34.3044 13.6021H31.7831ZM36.5494 13.6021V14.7695H42.5239V13.6021H36.5494ZM-0.0136839 15.8711V17.0369H8.2782V15.8711H-0.0136839ZM9.38904 15.8711V17.0347H18.3992C19.9978 17.0347 21.2048 15.8711 21.2048 15.8711H9.38904ZM23.5891 15.8711V17.0369H29.4967V15.8711H23.5891ZM32.6041 15.8711L33.0201 17.0336L33.0919 17.0352L33.5143 15.8716L32.6041 15.8711ZM36.55 15.8711V17.0369H42.5245V15.8711H36.55Z" fill="var(--fill-0, #0084FF)"/>
</g>
<defs>
<clipPath id="clip0_122_5676">
<rect width="42.4766" height="17.076" fill="white"/>
</clipPath>
</defs>
</svg>
