<svg preserveAspectRatio="none" width="100%" height="100%" overflow="visible" style="display: block;" viewBox="0 0 79 21" fill="none" xmlns="http://www.w3.org/2000/svg">
<g id="Group">
<path id="Vector" d="M17.3522 5.45274e-05C17.6757 -0.00138012 17.9963 0.0632103 18.2957 0.190221C18.5951 0.317232 18.8675 0.50414 19.0972 0.740284C19.327 0.976456 19.5096 1.25722 19.6347 1.56659C19.7599 1.87595 19.825 2.20783 19.8264 2.54331V17.8081C19.8243 18.1436 19.7584 18.4753 19.6327 18.7844C19.5069 19.0935 19.3236 19.3739 19.0934 19.6095C18.8631 19.8451 18.5904 20.0314 18.2907 20.1577C17.991 20.2841 17.6703 20.3478 17.3468 20.3457H2.47967C2.15571 20.3478 1.83452 20.2839 1.53449 20.1572C1.23443 20.0305 0.961451 19.8437 0.731112 19.6075C0.500773 19.3713 0.317635 19.0902 0.192198 18.7805C0.0667335 18.4708 0.00143775 18.1384 0 17.8025V2.54331C0.00143775 2.20736 0.0667335 1.875 0.192198 1.56528C0.317635 1.25554 0.500773 0.97453 0.731112 0.738277C0.961451 0.502051 1.23443 0.315251 1.53449 0.188593C1.83452 0.0619082 2.15571 -0.00213968 2.47967 5.45274e-05H17.3522ZM3.23894 14.256C3.06537 14.2697 2.90413 14.3541 2.7903 14.4907C2.73504 14.5581 2.69319 14.6363 2.66712 14.7206C2.64105 14.8048 2.63128 14.8936 2.63836 14.9818C2.64547 15.07 2.66926 15.1559 2.70843 15.2346C2.7476 15.3132 2.80134 15.3831 2.86661 15.4401C2.97016 15.5305 5.4062 17.6386 9.90231 17.6386C14.3984 17.6386 16.8508 15.5193 16.938 15.4288L16.9435 15.4345C17.0721 15.3178 17.1511 15.1533 17.1633 14.9765C17.1756 14.7998 17.1201 14.6252 17.0089 14.4907C16.8933 14.355 16.7313 14.2715 16.5573 14.2578C16.3833 14.244 16.2109 14.3012 16.0769 14.4172C16.0551 14.4342 13.848 16.2879 9.89685 16.2879C5.94574 16.2879 3.75493 14.4455 3.71676 14.4172C3.58427 14.3002 3.4125 14.2422 3.23894 14.256ZM66.0979 6.40859C68.1884 6.40859 69.0925 7.84827 69.0925 10.1599C69.0925 12.5019 68.1783 13.9113 66.0979 13.9113C63.9787 13.9113 63.0936 12.5019 63.0936 10.1599C63.0936 7.88896 63.988 6.40859 66.0979 6.40859ZM9.92412 2.70719C9.74923 2.70719 9.5815 2.77924 9.45782 2.9075C9.33415 3.03573 9.26468 3.20967 9.26468 3.39104V13.2247C9.26468 13.4061 9.33415 13.58 9.45782 13.7083C9.5815 13.8365 9.74923 13.9086 9.92412 13.9086C10.099 13.9086 10.2667 13.8365 10.3904 13.7083C10.5141 13.58 10.5835 13.4061 10.5835 13.2247V3.39104C10.5835 3.20967 10.5141 3.03573 10.3904 2.9075C10.2667 2.77924 10.099 2.70719 9.92412 2.70719ZM59.0784 6.40859C59.8464 6.40859 60.4397 6.59138 60.8867 6.98665C61.2758 7.31091 61.5576 7.76754 61.7228 8.40634C61.8102 8.7409 61.5866 9.07546 61.2174 9.14651C60.8675 9.20725 60.5859 8.97406 60.4787 8.6395C60.3621 8.31527 60.2061 8.08208 60.0217 7.91932C59.7688 7.68616 59.4579 7.58476 59.0491 7.58476C58.6118 7.58476 58.2323 7.71651 57.9505 8.01039C57.5422 8.43604 57.367 9.19691 57.367 10.1599C57.367 11.1133 57.5324 11.8735 57.9602 12.2991C58.2421 12.593 58.6118 12.7248 59.0394 12.7248C59.4864 12.7248 59.8266 12.6033 60.109 12.3295C60.2544 12.1874 60.3814 12.0052 60.4687 11.7921C60.5951 11.4775 60.8577 11.2444 61.1976 11.3258C61.5378 11.4071 61.7521 11.7514 61.645 12.086C61.4697 12.6434 61.1686 13.0897 60.7603 13.3939C60.3133 13.7285 59.7591 13.9009 59.0592 13.9009C58.1648 13.9009 57.6005 13.6271 57.1725 13.2421C56.4435 12.5626 56.1129 11.4982 56.1129 10.1599C56.1129 8.8113 56.4338 7.75721 57.1535 7.08805C57.6005 6.68244 58.203 6.40859 59.0784 6.40859ZM50.0768 6.51942L50.115 6.52033H52.4189C54.004 6.52033 54.6648 7.59509 54.6648 8.68987C54.6648 9.71627 54.1012 10.4782 53.1312 10.6966L53.0797 10.7076L54.295 12.9579C54.4605 13.2518 54.3534 13.6271 54.0132 13.8099C53.6928 13.9769 53.345 13.8585 53.1739 13.5837L53.1579 13.5567L51.8064 10.9511H50.5232L50.533 13.1614C50.533 13.5063 50.2805 13.7898 49.9205 13.7898C49.5815 13.7898 49.3339 13.5231 49.3187 13.1935L49.318 13.1614V7.32124C49.318 6.82053 49.5723 6.53028 50.0395 6.51967L50.0768 6.51942ZM29.4846 6.51968C30.0971 6.51968 30.3496 6.8646 30.593 7.37162L31.7983 9.83568L32.8288 12.2287L32.7998 9.93709L32.79 7.16946C32.79 6.82454 33.0426 6.541 33.4026 6.541C33.7517 6.54035 34.0045 6.82391 34.0045 7.16881V12.644C34.0045 13.3842 33.6256 13.8002 33.0228 13.8002H32.9745C32.401 13.8002 32.1284 13.4553 31.8856 12.9482L30.6605 10.4641L29.5716 7.8993L29.6009 10.3834L29.6107 13.1511C29.6107 13.496 29.3581 13.7795 28.9982 13.7795C28.6482 13.7795 28.3957 13.4953 28.3957 13.1511V7.67582C28.3957 6.99636 28.7746 6.51968 29.436 6.51968H29.4846ZM25.5465 6.54035C25.8964 6.54035 26.1492 6.82454 26.1492 7.16881V13.1607C26.1492 13.5056 25.8964 13.7892 25.5367 13.7892C25.1867 13.7892 24.9339 13.505 24.9339 13.1607V7.16881C24.9339 6.82389 25.1868 6.54035 25.5465 6.54035ZM77.4532 6.541C78.1338 6.541 78.5128 6.96663 78.5128 7.7275L78.5228 13.151C78.5228 13.496 78.27 13.7795 77.9103 13.7795C77.5604 13.7795 77.3075 13.4953 77.3075 13.151V10.4338L77.3368 7.78756L76.4907 10.4745L75.6354 13.1207C75.49 13.587 75.1883 13.7698 74.8091 13.7698C74.4103 13.7698 74.1187 13.5773 73.9633 13.111L73.0881 10.4751L72.2811 7.8289L72.3101 10.4344V13.1517C72.3101 13.4966 72.0573 13.7802 71.6976 13.7802C71.3476 13.7802 71.0951 13.496 71.0951 13.1517V7.7275C71.0951 6.97697 71.4838 6.541 72.1644 6.541C72.8063 6.541 73.166 6.89558 73.3697 7.54472L74.2641 10.3124L74.8086 12.1983L75.3628 10.3124L76.2572 7.54472C76.4617 6.89558 76.8116 6.541 77.4532 6.541ZM40.3825 6.541C40.6933 6.541 40.9462 6.7845 40.9462 7.13908C40.9462 7.48401 40.6933 7.72685 40.3825 7.72685H38.8755V13.1511C38.8755 13.496 38.623 13.7795 38.263 13.7795C37.9133 13.7795 37.6605 13.4953 37.6605 13.1511V7.72685H36.1536C35.8427 7.72685 35.5901 7.48335 35.5901 7.12874C35.5901 6.78385 35.8427 6.541 36.1536 6.541H40.3825ZM43.3282 6.52033H46.8282C47.1391 6.52033 47.3917 6.77351 47.3917 7.11844C47.3917 7.46333 47.1391 7.70618 46.8282 7.70618H43.7362V9.45009H46.4682C46.7699 9.45009 47.0127 9.68326 47.0127 10.0178C47.0127 10.3524 46.7699 10.5856 46.4682 10.5856H43.7362V12.593H46.8282C47.1391 12.593 47.3917 12.8462 47.3917 13.1911C47.3917 13.536 47.1391 13.7789 46.8282 13.7789H43.2989C42.7936 13.7795 42.512 13.4856 42.531 12.9482V7.32124C42.531 6.79418 42.8128 6.50031 43.3282 6.52033ZM6.63787 3.08019C6.46238 3.07094 6.29048 3.13412 6.15978 3.25589C6.02905 3.3777 5.95016 3.54819 5.94029 3.73014V12.7726C5.94029 12.954 6.00976 13.1279 6.13343 13.2562C6.25711 13.3844 6.42484 13.4564 6.59973 13.4564C6.77462 13.4564 6.94235 13.3844 7.06602 13.2562C7.18967 13.1279 7.25914 12.954 7.25914 12.7726V3.73014C7.25133 3.56132 7.18351 3.40151 7.06879 3.2815C6.95407 3.16149 6.80055 3.08977 6.63787 3.08019ZM13.194 3.04628C13.0191 3.04628 12.8514 3.11833 12.7277 3.24659C12.604 3.37482 12.5346 3.54876 12.5346 3.73014V12.7726C12.5346 12.954 12.604 13.1279 12.7277 13.2562C12.8514 13.3844 13.0191 13.4564 13.194 13.4564C13.3689 13.4564 13.5366 13.3844 13.6603 13.2562C13.7839 13.1279 13.8534 12.954 13.8534 12.7726V3.73014C13.8534 3.54876 13.7839 3.37482 13.6603 3.24659C13.5366 3.11833 13.3689 3.04628 13.194 3.04628ZM66.0882 7.59509C64.9504 7.59509 64.3477 8.43669 64.3477 10.1599C64.3477 11.8838 64.9312 12.7248 66.0882 12.7248C67.2351 12.7248 67.8477 11.8832 67.8477 10.1599C67.8477 8.43604 67.2452 7.59509 66.0882 7.59509ZM16.5075 4.40265C16.3326 4.40265 16.1649 4.4747 16.0412 4.60296C15.9175 4.73119 15.848 4.90513 15.848 5.08651V11.1958C15.848 11.3772 15.9175 11.5511 16.0412 11.6794C16.1649 11.8076 16.3326 11.8797 16.5075 11.8797C16.6824 11.8797 16.8501 11.8076 16.9738 11.6794C17.0974 11.5511 17.1669 11.3772 17.1669 11.1958V5.08651C17.1669 4.90513 17.0974 4.73119 16.9738 4.60296C16.8501 4.4747 16.6824 4.40265 16.5075 4.40265ZM3.32984 4.43656C3.15435 4.42731 2.98245 4.49049 2.85175 4.61227C2.72102 4.73407 2.64211 4.90456 2.63226 5.08651V11.1845C2.63226 11.3659 2.70173 11.5398 2.82541 11.6681C2.94908 11.7963 3.11681 11.8683 3.2917 11.8683C3.46659 11.8683 3.63432 11.7963 3.75797 11.6681C3.88164 11.5398 3.95111 11.3659 3.95111 11.1845V5.08651C3.9433 4.91769 3.87548 4.75789 3.76076 4.63787C3.64604 4.51786 3.49252 4.44614 3.32984 4.43656ZM52.4376 7.70556H50.5224V9.8047H52.4474C53.099 9.8047 53.4392 9.36871 53.4392 8.74996C53.4392 8.13118 53.0792 7.70556 52.4376 7.70556Z" fill="var(--fill-0, black)"/>
</g>
</svg>
