<svg preserveAspectRatio="none" width="100%" height="100%" overflow="visible" style="display: block;" viewBox="0 0 91 24" fill="none" xmlns="http://www.w3.org/2000/svg">
<g id="Group">
<path id="Vector" d="M19.9161 6.25842e-05C20.2874 -0.00158404 20.6554 0.0725501 20.999 0.218328C21.3427 0.364105 21.6553 0.57863 21.919 0.849667C22.1827 1.12073 22.3923 1.44299 22.5359 1.79806C22.6795 2.15313 22.7543 2.53405 22.7559 2.9191V20.4394C22.7535 20.8244 22.6779 21.2052 22.5336 21.56C22.3892 21.9147 22.1789 22.2365 21.9146 22.5069C21.6503 22.7774 21.3372 22.9912 20.9933 23.1362C20.6493 23.2812 20.2812 23.3544 19.9099 23.352H2.84605C2.47423 23.3544 2.10558 23.281 1.76122 23.1356C1.41683 22.9902 1.10351 22.7758 0.839139 22.5047C0.574766 22.2335 0.364568 21.911 0.220597 21.5555C0.0765939 21.2 0.00165019 20.8185 0 20.4329V2.9191C0.00165019 2.53352 0.0765939 2.15204 0.220597 1.79657C0.364568 1.44106 0.574766 1.11852 0.839139 0.847363C1.10351 0.576233 1.41683 0.361832 1.76122 0.216459C2.10558 0.0710556 2.47423 -0.00245584 2.84605 6.25842e-05H19.9161ZM3.71751 16.3624C3.51831 16.3782 3.33324 16.475 3.20259 16.6318C3.13917 16.7092 3.09112 16.7989 3.0612 16.8956C3.03128 16.9924 3.02007 17.0943 3.0282 17.1955C3.03636 17.2967 3.06366 17.3953 3.10862 17.4856C3.15358 17.5759 3.21526 17.656 3.29017 17.7215C3.40902 17.8253 6.20501 20.2448 11.3654 20.2448C16.5259 20.2448 19.3406 17.8123 19.4407 17.7085L19.447 17.715C19.5946 17.5811 19.6853 17.3923 19.6993 17.1894C19.7134 16.9866 19.6497 16.7862 19.522 16.6318C19.3894 16.4761 19.2035 16.3802 19.0038 16.3644C18.804 16.3487 18.6062 16.4144 18.4524 16.5475C18.4274 16.5669 15.8941 18.6945 11.3592 18.6945C6.82427 18.6945 4.30975 16.5799 4.26594 16.5475C4.11387 16.4131 3.91672 16.3466 3.71751 16.3624ZM75.8644 7.35551C78.2637 7.35551 79.3015 9.00791 79.3015 11.6611C79.3015 14.3492 78.2522 15.9667 75.8644 15.9667C73.4321 15.9667 72.4161 14.3492 72.4161 11.6611C72.4161 9.05462 73.4426 7.35551 75.8644 7.35551ZM11.3905 3.10719C11.1897 3.10719 10.9972 3.18989 10.8553 3.3371C10.7133 3.48428 10.6336 3.68392 10.6336 3.89209V15.1788C10.6336 15.3869 10.7133 15.5866 10.8553 15.7338C10.9972 15.881 11.1897 15.9637 11.3905 15.9637C11.5912 15.9637 11.7837 15.881 11.9256 15.7338C12.0676 15.5866 12.1473 15.3869 12.1473 15.1788V3.89209C12.1473 3.68392 12.0676 3.48428 11.9256 3.3371C11.7837 3.18989 11.5912 3.10719 11.3905 3.10719ZM67.8077 7.35551C68.6892 7.35551 69.3701 7.5653 69.8832 8.01898C70.3297 8.39114 70.6532 8.91525 70.8428 9.64844C70.9431 10.0324 70.6865 10.4164 70.2628 10.498C69.8611 10.5677 69.5379 10.3 69.4149 9.91605C69.281 9.54391 69.102 9.27627 68.8903 9.08946C68.6001 8.82184 68.2433 8.70546 67.7741 8.70546C67.2722 8.70546 66.8366 8.85669 66.5131 9.19398C66.0445 9.68253 65.8433 10.5558 65.8433 11.6611C65.8433 12.7553 66.0333 13.6279 66.5243 14.1164C66.8478 14.4537 67.2722 14.6049 67.7629 14.6049C68.276 14.6049 68.6664 14.4656 68.9905 14.1513C69.1574 13.9882 69.3031 13.7791 69.4034 13.5345C69.5485 13.1734 69.8499 12.9058 70.24 12.9992C70.6305 13.0926 70.8764 13.4878 70.7535 13.8718C70.5523 14.5115 70.2067 15.0238 69.7381 15.373C69.225 15.757 68.5889 15.9549 67.7856 15.9549C66.759 15.9549 66.1114 15.6406 65.6201 15.1988C64.7835 14.4189 64.4039 13.1972 64.4039 11.6611C64.4039 10.1132 64.7723 8.90339 65.5983 8.13536C66.1114 7.66982 66.803 7.35551 67.8077 7.35551ZM57.476 7.48271L57.5198 7.48376H60.1642C61.9835 7.48376 62.7419 8.71732 62.7419 9.97387C62.7419 11.1519 62.0951 12.0264 60.9817 12.2772L60.9227 12.2898L62.3175 14.8726C62.5075 15.2099 62.3845 15.6406 61.994 15.8504C61.6264 16.0421 61.2271 15.9062 61.0307 15.5908L61.0123 15.5598L59.4611 12.5692H57.9884L57.9996 15.1061C57.9996 15.502 57.7098 15.8274 57.2966 15.8274C56.9075 15.8274 56.6233 15.5213 56.6059 15.1429L56.6051 15.1061V8.40301C56.6051 7.82832 56.897 7.49518 57.4332 7.483L57.476 7.48271ZM33.8411 7.48301C34.5442 7.48301 34.834 7.8789 35.1133 8.46083L36.4967 11.289L37.6795 14.0356L37.6462 11.4054L37.635 8.2288C37.635 7.83291 37.9249 7.50748 38.338 7.50748C38.7388 7.50673 39.0289 7.8322 39.0289 8.22806V14.5123C39.0289 15.3618 38.594 15.8392 37.9021 15.8392H37.8467C37.1885 15.8392 36.8756 15.4434 36.5969 14.8614L35.1908 12.0103L33.9411 9.06648L33.9747 11.9176L33.9859 15.0942C33.9859 15.4901 33.696 15.8155 33.2828 15.8155C32.8812 15.8155 32.5913 15.4893 32.5913 15.0942V8.80998C32.5913 8.03013 33.0263 7.48301 33.7854 7.48301H33.8411ZM29.3211 7.50673C29.7228 7.50673 30.013 7.83291 30.013 8.22806V15.1053C30.013 15.5012 29.7228 15.8266 29.3099 15.8266C28.9083 15.8266 28.6181 15.5005 28.6181 15.1053V8.22806C28.6181 7.83216 28.9083 7.50673 29.3211 7.50673ZM88.8975 7.50748C89.6787 7.50748 90.1137 7.996 90.1137 8.8693L90.1252 15.0942C90.1252 15.4901 89.835 15.8155 89.4221 15.8155C89.0205 15.8155 88.7303 15.4893 88.7303 15.0942V11.9755L88.7639 8.93823L87.7928 12.0222L86.8111 15.0594C86.6442 15.5946 86.298 15.8044 85.8627 15.8044C85.405 15.8044 85.0703 15.5835 84.8919 15.0482L83.8874 12.0229L82.9611 8.98568L82.9945 11.9762V15.0949C82.9945 15.4908 82.7043 15.8163 82.2914 15.8163C81.8898 15.8163 81.5999 15.4901 81.5999 15.0949V8.8693C81.5999 8.00786 82.0461 7.50748 82.8273 7.50748C83.5639 7.50748 83.9768 7.91446 84.2106 8.6595L85.2372 11.8361L85.8621 14.0007L86.4982 11.8361L87.5247 8.6595C87.7595 7.91446 88.1611 7.50748 88.8975 7.50748ZM46.3493 7.50748C46.7061 7.50748 46.9963 7.78696 46.9963 8.19393C46.9963 8.58982 46.7061 8.86855 46.3493 8.86855H44.6197V15.0942C44.6197 15.4901 44.3298 15.8155 43.9166 15.8155C43.5153 15.8155 43.2251 15.4893 43.2251 15.0942V8.86855H41.4955C41.1387 8.86855 40.8488 8.58907 40.8488 8.18207C40.8488 7.78621 41.1387 7.50748 41.4955 7.50748H46.3493ZM49.7303 7.48376H53.7474C54.1042 7.48376 54.3941 7.77435 54.3941 8.17024C54.3941 8.5661 54.1042 8.84482 53.7474 8.84482H50.1986V10.8464H53.3343C53.6805 10.8464 53.9591 11.114 53.9591 11.4981C53.9591 11.8821 53.6805 12.1497 53.3343 12.1497H50.1986V14.4537H53.7474C54.1042 14.4537 54.3941 14.7443 54.3941 15.1402C54.3941 15.536 54.1042 15.8148 53.7474 15.8148H49.6967C49.1166 15.8155 48.7934 15.4782 48.8152 14.8614V8.40301C48.8152 7.79807 49.1387 7.46078 49.7303 7.48376ZM7.61866 3.53531C7.41725 3.52469 7.21994 3.59721 7.06993 3.73698C6.91989 3.87678 6.82934 4.07246 6.81801 4.28129V14.6599C6.81801 14.868 6.89775 15.0676 7.03969 15.2148C7.18164 15.362 7.37416 15.4447 7.57489 15.4447C7.77562 15.4447 7.96813 15.362 8.11008 15.2148C8.252 15.0676 8.33174 14.868 8.33174 14.6599V4.28129C8.32277 4.08753 8.24493 3.90411 8.11325 3.76637C7.98158 3.62862 7.80539 3.5463 7.61866 3.53531ZM15.1435 3.49639C14.9428 3.49639 14.7503 3.57909 14.6083 3.7263C14.4664 3.87347 14.3866 4.07312 14.3866 4.28129V14.6599C14.3866 14.868 14.4664 15.0676 14.6083 15.2148C14.7503 15.362 14.9428 15.4447 15.1435 15.4447C15.3442 15.4447 15.5368 15.362 15.6787 15.2148C15.8206 15.0676 15.9004 14.868 15.9004 14.6599V4.28129C15.9004 4.07312 15.8206 3.87347 15.6787 3.7263C15.5368 3.57909 15.3442 3.49639 15.1435 3.49639ZM75.8532 8.71732C74.5473 8.71732 73.8555 9.68328 73.8555 11.6611C73.8555 13.6397 74.5252 14.6049 75.8532 14.6049C77.1696 14.6049 77.8726 13.639 77.8726 11.6611C77.8726 9.68253 77.1811 8.71732 75.8532 8.71732ZM18.9466 5.05318C18.7459 5.05318 18.5533 5.13587 18.4114 5.28308C18.2695 5.43026 18.1897 5.6299 18.1897 5.83808V12.8501C18.1897 13.0582 18.2695 13.2579 18.4114 13.4051C18.5533 13.5523 18.7459 13.635 18.9466 13.635C19.1473 13.635 19.3398 13.5523 19.4818 13.4051C19.6237 13.2579 19.7034 13.0582 19.7034 12.8501V5.83808C19.7034 5.6299 19.6237 5.43026 19.4818 5.28308C19.3398 5.13587 19.1473 5.05318 18.9466 5.05318ZM3.82185 5.0921C3.62043 5.08148 3.42312 5.15399 3.27311 5.29376C3.12307 5.43356 3.0325 5.62925 3.02119 5.83808V12.8371C3.02119 13.0453 3.10093 13.2449 3.24288 13.3921C3.38483 13.5393 3.57734 13.622 3.77807 13.622C3.9788 13.622 4.17132 13.5393 4.31323 13.3921C4.45518 13.2449 4.53492 13.0453 4.53492 12.8371V5.83808C4.52595 5.64432 4.44811 5.4609 4.31644 5.32315C4.18477 5.18541 4.00857 5.10309 3.82185 5.0921ZM60.1857 8.84411H57.9875V11.2534H60.1969C60.9448 11.2534 61.3352 10.753 61.3352 10.0428C61.3352 9.33263 60.922 8.84411 60.1857 8.84411Z" fill="var(--fill-0, black)"/>
</g>
</svg>
