<svg preserveAspectRatio="none" width="100%" height="100%" overflow="visible" style="display: block;" viewBox="0 0 71 26" fill="none" xmlns="http://www.w3.org/2000/svg">
<g id="logitech logo" clip-path="url(#clip0_122_5639)">
<path id="Vector" d="M35.1685 6.54605H32.6688V9.62655H31.3217V11.8484H32.6688V19.6301H35.1695V11.8484H36.5457V9.62655H35.1695V6.54605H35.1685ZM28.9779 5.1228C28.0597 5.1228 27.3372 5.84409 27.3372 6.78004C27.3372 7.69561 28.0597 8.41797 28.9779 8.41797C29.9347 8.41797 30.6583 7.69561 30.6583 6.78004C30.6583 5.84409 29.9347 5.1228 28.9779 5.1228ZM68.7231 9.39256C68.2931 9.39256 67.9619 9.05983 67.9619 8.63049C67.9619 8.22262 68.2952 7.88988 68.7231 7.88988C69.1338 7.88988 69.465 8.22262 69.465 8.63049C69.465 9.05983 69.1338 9.39256 68.7231 9.39256ZM68.7231 7.77503C68.2361 7.77503 67.8447 8.16466 67.8447 8.63156C67.8447 9.11993 68.2361 9.50956 68.7231 9.50956C69.1919 9.50956 69.5832 9.12315 69.5832 8.64015C69.5832 8.17539 69.1919 7.78147 68.7231 7.78147V7.77503ZM39.4475 13.585C39.7786 12.2595 40.7946 11.5178 42.103 11.5178C43.4114 11.5178 44.3877 12.2391 44.7005 13.585H39.4475ZM42.1611 9.31313C39.1539 9.31313 36.8682 11.6155 36.8682 14.6766C36.8682 17.6992 38.9647 19.9221 42.2008 19.9221C44.0071 19.9221 45.609 19.2587 46.7809 18.0115L45.1015 16.3543C44.2812 17.1335 43.4028 17.6992 42.2697 17.6992C40.9043 17.6992 39.8668 16.9264 39.5173 15.6169H47.3077V15.0158C47.3077 11.6026 45.2005 9.32494 42.1729 9.32494L42.1611 9.31313ZM64.2893 9.31313C63.0594 9.31313 62.0047 9.78219 61.2628 10.5818V5.39543H58.7685V19.628H61.2736V14.1883C61.2736 12.7478 62.1939 11.7518 63.7141 11.7518C65.144 11.7518 65.9235 12.6298 65.9235 14.1883V19.6301H68.4253V13.7417C68.4253 10.9725 66.6836 9.31528 64.3033 9.31528L64.2893 9.31313ZM68.5275 8.61331V8.2999H68.7231C68.8801 8.2999 68.9381 8.35893 68.9381 8.45661C68.9381 8.55321 68.8801 8.61331 68.7231 8.61331H68.5275ZM69.0543 8.45661C69.0543 8.2634 68.9188 8.18398 68.7231 8.18398H68.4113V9.08022H68.5275V8.73675H68.7231L68.9381 9.09095H69.0747L68.8414 8.7228C68.9779 8.70133 69.0564 8.62619 69.0564 8.46841L69.0543 8.45661ZM53.5079 11.7325C54.5616 11.7325 55.4217 12.2799 56.0882 13.0398L57.8246 11.3224C56.8484 10.0945 55.3056 9.31528 53.5477 9.31528C50.5212 9.31528 48.1377 11.6155 48.1377 14.6176C48.1377 17.6208 50.5212 19.9221 53.5477 19.9221C55.3056 19.9221 56.8484 19.1417 57.8246 17.9149L56.0872 16.1976C55.4421 16.9382 54.5626 17.5038 53.4897 17.5038C51.8877 17.5038 50.6621 16.248 50.6621 14.6165C50.6621 12.9743 51.8985 11.7292 53.5112 11.7292L53.5079 11.7325ZM27.7479 19.629H30.2476V9.62548H27.7479V19.629ZM9.66218 17.5049C8.06024 17.5049 6.79159 16.2383 6.79159 14.5983C6.79159 12.9797 8.06024 11.7325 9.66218 11.7325C11.2824 11.7325 12.5521 12.9797 12.5521 14.6176C12.5521 16.2566 11.2835 17.5049 9.66218 17.5049ZM9.66218 9.31528C6.63355 9.31528 4.25107 11.6155 4.25107 14.6176C4.25107 17.6208 6.63355 19.9221 9.66218 19.9221C12.6887 19.9221 15.0701 17.6208 15.0701 14.6176C15.0701 11.6155 12.6887 9.31528 9.66218 9.31528ZM0.775193 19.6301H3.27593V5.39436H0.775193V19.6301ZM21.3423 17.5049C19.7404 17.5049 18.4718 16.2383 18.4718 14.5983C18.4718 12.9797 19.7404 11.7325 21.3423 11.7325C22.9626 11.7325 24.2323 12.9797 24.2323 14.6176C24.2323 16.2566 22.9636 17.5049 21.3402 17.5049H21.3423ZM26.6535 11.6155V9.62655H23.1378C22.5723 9.43335 21.9659 9.31528 21.3423 9.31528C18.3137 9.31528 15.9312 11.6155 15.9312 14.6176C15.9312 17.6208 18.3137 19.9221 21.3413 19.9221C24.3624 19.9221 26.7491 17.6208 26.7491 14.6176C26.7491 13.6044 26.4696 12.6104 25.9213 11.8698L26.6416 11.6155H26.6535ZM21.3423 23.1775C19.7404 23.1775 18.4718 21.9303 18.4718 20.3117H15.9312C15.9312 23.3149 18.3137 25.614 21.3413 25.614C24.3624 25.614 26.7491 23.3149 26.7491 20.3117H24.2129C24.2129 21.9303 22.9421 23.1775 21.3423 23.1775Z" fill="var(--fill-0, black)"/>
</g>
<defs>
<clipPath id="clip0_122_5639">
<rect width="70.3584" height="25.614" fill="white"/>
</clipPath>
</defs>
</svg>
