<svg preserveAspectRatio="none" width="100%" height="100%" overflow="visible" style="display: block;" viewBox="0 0 62 23" fill="none" xmlns="http://www.w3.org/2000/svg">
<g id="logitech logo" clip-path="url(#clip0_140_5977)">
<path id="Vector" d="M30.641 5.70334H28.4632V8.38727H27.2894V10.3231H28.4632V17.103H30.642V10.3231H31.841V8.38727H30.642V5.70334H30.641ZM25.2474 4.46331C24.4474 4.46331 23.818 5.09175 23.818 5.90721C23.818 6.70491 24.4474 7.33427 25.2474 7.33427C26.0811 7.33427 26.7115 6.70491 26.7115 5.90721C26.7115 5.09175 26.0811 4.46331 25.2474 4.46331ZM59.876 8.1834C59.5013 8.1834 59.2128 7.8935 59.2128 7.51944C59.2128 7.16407 59.5032 6.87417 59.876 6.87417C60.2338 6.87417 60.5223 7.16407 60.5223 7.51944C60.5223 7.8935 60.2338 8.1834 59.876 8.1834ZM59.876 6.77411C59.4517 6.77411 59.1107 7.11357 59.1107 7.52037C59.1107 7.94587 59.4517 8.28534 59.876 8.28534C60.2844 8.28534 60.6254 7.94868 60.6254 7.52785C60.6254 7.12293 60.2844 6.77972 59.876 6.77972V6.77411ZM34.3692 11.8362C34.6577 10.6812 35.5429 10.035 36.6829 10.035C37.8228 10.035 38.6734 10.6635 38.946 11.8362H34.3692ZM36.7334 8.1142C34.1134 8.1142 32.122 10.1201 32.122 12.7872C32.122 15.4207 33.9486 17.3574 36.7681 17.3574C38.3418 17.3574 39.7375 16.7795 40.7585 15.6928L39.2954 14.2489C38.5806 14.9278 37.8154 15.4207 36.8281 15.4207C35.6384 15.4207 34.7345 14.7473 34.43 13.6064H41.2175V13.0827C41.2175 10.1089 39.3815 8.12449 36.7437 8.12449L36.7334 8.1142ZM56.013 8.1142C54.9414 8.1142 54.0225 8.52287 53.3761 9.21957V4.70085H51.2029V17.1011H53.3855V12.3617C53.3855 11.1067 54.1873 10.2389 55.5118 10.2389C56.7577 10.2389 57.4368 11.0039 57.4368 12.3617V17.103H59.6165V11.9727C59.6165 9.55997 58.0991 8.11607 56.0252 8.11607L56.013 8.1142ZM59.7055 7.50447V7.23141H59.876C60.0128 7.23141 60.0634 7.28284 60.0634 7.36794C60.0634 7.4521 60.0128 7.50447 59.876 7.50447H59.7055ZM60.1645 7.36794C60.1645 7.19961 60.0465 7.13041 59.876 7.13041H59.6044V7.91127H59.7055V7.61202H59.876L60.0634 7.92062H60.1823L59.979 7.59986C60.098 7.58116 60.1664 7.5157 60.1664 7.37823L60.1645 7.36794ZM46.6196 10.2221C47.5376 10.2221 48.2869 10.699 48.8677 11.3611L50.3805 9.86483C49.53 8.795 48.1858 8.11607 46.6542 8.11607C44.0174 8.11607 41.9407 10.1201 41.9407 12.7358C41.9407 15.3524 44.0174 17.3574 46.6542 17.3574C48.1858 17.3574 49.53 16.6775 50.3805 15.6086L48.8668 14.1124C48.3047 14.7576 47.5385 15.2505 46.6036 15.2505C45.2079 15.2505 44.1401 14.1563 44.1401 12.7349C44.1401 11.3041 45.2173 10.2193 46.6224 10.2193L46.6196 10.2221ZM24.1758 17.1021H26.3537V8.38634H24.1758V17.1021ZM8.41831 15.2514C7.0226 15.2514 5.91727 14.1479 5.91727 12.719C5.91727 11.3087 7.0226 10.2221 8.41831 10.2221C9.82995 10.2221 10.9362 11.3087 10.9362 12.7358C10.9362 14.1638 9.83088 15.2514 8.41831 15.2514ZM8.41831 8.11607C5.77958 8.11607 3.70381 10.1201 3.70381 12.7358C3.70381 15.3524 5.77958 17.3574 8.41831 17.3574C11.0552 17.3574 13.13 15.3524 13.13 12.7358C13.13 10.1201 11.0552 8.11607 8.41831 8.11607ZM0.675398 17.103H2.85421V4.69991H0.675398V17.103ZM18.5948 15.2514C17.1991 15.2514 16.0938 14.1479 16.0938 12.719C16.0938 11.3087 17.1991 10.2221 18.5948 10.2221C20.0065 10.2221 21.1127 11.3087 21.1127 12.7358C21.1127 14.1638 20.0074 15.2514 18.5929 15.2514H18.5948ZM23.2222 10.1201V8.38727H20.1591C19.6664 8.21894 19.1381 8.11607 18.5948 8.11607C15.9561 8.11607 13.8803 10.1201 13.8803 12.7358C13.8803 15.3524 15.9561 17.3574 18.5939 17.3574C21.2261 17.3574 23.3056 15.3524 23.3056 12.7358C23.3056 11.853 23.062 10.987 22.5843 10.3418L23.2119 10.1201H23.2222ZM18.5948 20.1937C17.1991 20.1937 16.0938 19.1071 16.0938 17.6968H13.8803C13.8803 20.3134 15.9561 22.3166 18.5939 22.3166C21.2261 22.3166 23.3056 20.3134 23.3056 17.6968H21.0959C21.0959 19.1071 19.9887 20.1937 18.5948 20.1937Z" fill="var(--fill-0, black)"/>
</g>
<defs>
<clipPath id="clip0_140_5977">
<rect width="61.3008" height="22.3166" fill="white"/>
</clipPath>
</defs>
</svg>
