<svg preserveAspectRatio="none" width="100%" height="100%" overflow="visible" style="display: block;" viewBox="0 0 166 39" fill="none" xmlns="http://www.w3.org/2000/svg">
<g id="Frame 2085666384">
<path id="XMLID_6908_" d="M104.015 20.1886H109.576V21.482H104.053V20.1886H104.015ZM11.9067 12.3961L11.398 25.2808V25.5163C11.398 26.612 11.712 26.8475 13.4733 26.9666V27.5538C12.2206 27.4375 11.712 27.4375 11.0057 27.4375C10.2994 27.4375 9.83142 27.4753 8.538 27.5538V26.9259C10.2616 26.8097 10.5348 26.612 10.5755 25.2808L11.0841 13.1024V12.9454C11.0841 11.809 10.7324 11.5735 9.00886 11.4573V10.8295C9.98837 10.9079 10.3401 10.9457 11.0464 10.9457C11.9474 10.9457 12.456 10.9079 13.3949 10.8295L18.0163 23.3625L22.7162 10.8295C23.8119 10.9457 24.3613 10.9457 25.1054 10.9457C25.7332 10.9457 26.1226 10.9079 27.0644 10.8295V11.4573C25.3815 11.5735 24.9891 11.809 24.9891 12.9076V13.0646L25.2623 25.2431C25.3001 26.5743 25.4977 26.769 27.2998 26.8882V27.4753C25.7332 27.3183 25.146 27.2805 24.2072 27.2805C23.2684 27.2805 22.6813 27.3183 21.1147 27.4753V26.9259C22.7976 26.8097 23.1899 26.5742 23.1899 25.4V25.2837L22.9545 12.4397L18.8824 23.4846L18.5685 24.3071L18.2168 25.2082L17.9029 26.147L17.6297 26.9695H17.278L17.0048 26.1877L16.6531 25.2082L16.3014 24.2287L15.9875 23.4061L11.9067 12.3961ZM30.5086 20.424C30.7441 17.5639 31.6829 16.1165 33.2902 16.1165C34.8946 16.1165 35.7172 17.4884 35.8741 20.424H30.5086ZM33.7582 26.9259C31.4881 26.9259 30.5086 25.2024 30.4679 21.325H37.8709C37.8332 17.5262 36.2665 15.4887 33.328 15.4887C30.3517 15.4887 28.5118 17.8778 28.5118 21.7145C28.5118 25.5134 30.3517 27.7456 33.5634 27.7456C35.9904 27.7456 37.5977 26.2197 37.9116 23.6735H36.9321C36.6182 25.7517 35.5195 26.9259 33.7582 26.9259ZM39.3184 16.3897V15.9595C40.7281 15.8433 41.5884 15.6863 42.6086 15.3724C42.7249 16.2734 42.7656 16.7036 42.8441 17.4477V17.7209C43.3934 16.3112 44.4485 15.4887 45.7419 15.4887C46.9946 15.4887 47.8956 16.3112 47.8956 17.4855C47.8956 18.1918 47.4655 18.6597 46.8377 18.6597C46.2505 18.6597 45.8204 18.308 45.8204 17.7994C45.8204 17.7616 45.8581 17.6424 45.8581 17.5639L45.8959 17.3285V17.0931C45.8959 16.7414 45.582 16.506 45.1519 16.506C43.8584 16.506 43.0359 18.0726 43.0359 20.5402V25.711C43.0359 26.769 43.2713 26.9637 44.7973 27.0422V27.5509C43.4254 27.4346 42.9167 27.3939 42.0564 27.3939C41.1553 27.3939 40.6467 27.4317 39.2748 27.5509V27.0422C40.8007 26.9637 41.0769 26.769 41.0769 25.711V17.997V17.6046C41.0391 16.5466 40.9199 16.4304 39.6265 16.3897H39.3184ZM57.3739 15.2154V19.2875H56.8246C56.3944 17.1338 55.4527 16.0758 53.9645 16.0758C52.1247 16.0758 51.026 18.0726 51.026 21.636C51.026 25.121 52.0055 26.8823 53.886 26.8823C55.412 26.8823 56.3537 25.7866 56.6269 23.5921H57.6442C57.3303 26.2545 55.9206 27.6642 53.6884 27.6642C50.8284 27.6642 48.8722 25.2372 48.8722 21.6331C48.8722 17.9505 50.869 15.4073 53.7669 15.4073C54.8249 15.4073 55.4905 15.6805 56.313 16.4653L56.9786 15.2125H57.3739V15.2154ZM61.446 20.424C61.6814 17.5639 62.6202 16.1165 64.2276 16.1165C65.8349 16.1165 66.6545 17.4884 66.8115 20.424H61.446ZM64.6577 26.9259C62.3877 26.9259 61.4082 25.2024 61.3675 21.325H68.7705C68.7327 17.5262 67.1661 15.4887 64.2276 15.4887C61.2513 15.4887 59.4114 17.8778 59.4114 21.7145C59.4114 25.5134 61.2513 27.7456 64.463 27.7456C66.89 27.7456 68.4973 26.2197 68.8112 23.6735H67.8317C67.5149 25.7517 66.4191 26.9259 64.6577 26.9259ZM75.6619 27.0422C73.8599 27.0422 72.9211 25.2024 72.9211 21.6389C72.9211 18.0348 73.7814 16.2734 75.5835 16.2734C77.4233 16.2734 78.365 18.154 78.365 21.7959C78.365 25.2808 77.4233 27.0422 75.6619 27.0422ZM80.3212 24.9669V10.6725C79.0684 10.9864 77.9727 11.2218 76.563 11.3381V11.7683C78.1296 11.7683 78.3244 11.9252 78.3244 13.2186V17.5261C77.4233 16.038 76.6792 15.6078 75.348 15.6078C72.6856 15.6078 70.8458 18.1133 70.8458 21.6767C70.8458 25.2401 72.7263 27.7456 75.4265 27.7456C76.8362 27.7456 77.8157 27.1178 78.4813 25.7081C78.5976 26.6469 78.5976 26.7661 78.833 27.7049C79.8503 27.391 80.2834 27.2747 81.7308 27.1178L82.0825 27.08V26.6498C80.4403 26.5743 80.3212 26.4551 80.3212 24.9669ZM85.0995 20.424C85.335 17.5639 86.2738 16.1165 87.8811 16.1165C89.4855 16.1165 90.3081 17.4884 90.465 20.424H85.0995ZM88.3113 26.9259C86.0412 26.9259 85.0617 25.2024 85.0211 21.325H92.424C92.3863 17.5262 90.8196 15.4887 87.8811 15.4887C84.9048 15.4887 83.0649 17.8778 83.0649 21.7145C83.0649 25.5134 84.9048 27.7456 88.1165 27.7456C90.5435 27.7456 92.1508 26.2197 92.4647 23.6735H91.4852C91.1684 25.7517 90.0726 26.9259 88.3113 26.9259ZM94.5371 27.7485V23.5979L95.0864 23.5602C95.5166 25.8302 96.5746 26.8882 98.2982 26.8882C99.7486 26.8882 100.844 25.9086 100.844 24.6559C100.844 23.7956 100.373 23.2462 99.1614 22.6969L98.2226 22.2667L97.0862 21.7581C95.2841 20.8977 94.697 20.2322 94.697 18.7818C94.697 16.8228 96.2229 15.4916 98.4174 15.4916C99.3969 15.4916 100.1 15.727 100.963 16.2734L101.394 15.2561H101.824V19.0928H101.237C101.001 17.096 100.179 16.1543 98.6528 16.1543C97.3216 16.1543 96.3421 17.0553 96.3421 18.2295C96.3421 19.209 96.6938 19.5607 98.9667 20.5402L100.025 20.9704C101.905 21.793 102.571 22.5748 102.571 24.0252C102.571 26.1005 100.926 27.5886 98.5772 27.5886C97.4408 27.5886 96.5397 27.2747 95.6009 26.5307L95.008 27.6293H94.5371V27.7485ZM116.313 19.212C117.644 19.212 118.388 19.4474 118.938 19.9938C119.525 20.5809 119.839 21.6389 119.839 22.8132C119.839 25.2808 118.586 26.6905 116.391 26.6905H115.49C114.159 26.6905 113.965 26.4958 113.965 25.3971V19.209L116.313 19.212ZM113.962 11.6927H116.078C118.153 11.6927 119.092 12.71 119.092 15.0207C119.092 16.1572 118.818 16.9797 118.269 17.6046C117.72 18.2324 117.054 18.4272 115.685 18.4272H114.002V11.6927H113.962ZM121.286 14.9422C121.286 13.6488 120.737 12.5153 119.798 11.809C118.938 11.1811 117.996 10.9079 116.391 10.9079H109.89V11.5357C111.692 11.652 111.927 11.8497 111.927 13.1809V25.2024C111.927 26.5336 111.732 26.7283 109.89 26.8475V27.4346H116.156C117.996 27.4346 118.975 27.1992 120.033 26.5743C121.286 25.7924 122.109 24.2635 122.109 22.6969C122.109 21.3657 121.522 20.1508 120.583 19.4067C120.074 19.0143 119.525 18.7789 118.624 18.6248C120.344 17.9563 121.286 16.7036 121.286 14.9422ZM126.102 20.424C126.338 17.5639 127.277 16.1165 128.884 16.1165C130.488 16.1165 131.311 17.4884 131.468 20.424H126.102ZM129.314 26.9259C127.044 26.9259 126.064 25.2024 126.024 21.325H133.427C133.389 17.5262 131.822 15.4887 128.884 15.4887C125.908 15.4887 124.068 17.8778 124.068 21.7145C124.068 25.5134 125.908 27.7456 129.119 27.7456C131.546 27.7456 133.154 26.2197 133.467 23.6735H132.488C132.171 25.7517 131.075 26.9259 129.314 26.9259ZM134.758 16.4682V16.038C136.208 15.8433 137.028 15.6456 138.048 15.2939C138.164 15.881 138.243 16.5089 138.284 17.4477C139.185 16.1165 140.202 15.5293 141.612 15.5293C143.1 15.5293 144.393 16.3112 144.902 17.5261C145.137 18.1133 145.254 18.8196 145.254 19.7584V25.711C145.254 26.769 145.489 26.9637 147.015 27.0422V27.5509C145.684 27.4346 145.213 27.3939 144.312 27.3939C143.411 27.3939 142.902 27.4317 141.609 27.5509V27.0422C142.94 27.0044 143.254 26.7283 143.254 25.7488V19.6799C143.254 17.5262 142.626 16.6658 141.022 16.6658C139.339 16.6658 138.438 17.7238 138.438 19.7584V25.7488C138.438 26.7283 138.752 27.0015 140.042 27.0422V27.5509C138.749 27.4346 138.24 27.3939 137.38 27.3939C136.519 27.3939 136.008 27.4317 134.717 27.5509V27.0422C136.243 26.9637 136.479 26.769 136.479 25.711V18.0348V17.6831C136.441 16.6658 136.322 16.5089 135.069 16.5089C134.993 16.5089 134.874 16.4682 134.758 16.4682ZM147.994 27.4346L154.729 16.3897H151.674C150.07 16.3897 149.677 16.7414 148.776 18.9736H148.268L148.855 15.7619H157.354L150.619 26.8068H153.517C155.2 26.8068 155.906 26.1412 156.65 23.8683H157.159L156.531 27.4317H147.994V27.4346Z" fill="var(--fill-0, #001622)"/>
</g>
</svg>
