<svg width="75" height="46" viewBox="0 0 75 46" fill="none" xmlns="http://www.w3.org/2000/svg">
<path d="M3.12109 23C3.12109 11.4683 12.4693 2.12012 24.001 2.12012V5C14.0599 5 6.00098 13.0589 6.00098 23C6.00098 32.7857 13.8098 40.7476 23.5361 40.9941L24.001 41H51.001L51.4658 40.9941C61.1921 40.7476 69.001 32.7857 69.001 23C69.001 13.0589 60.9421 5 51.001 5V2.12012C62.5327 2.12012 71.8809 11.4683 71.8809 23C71.8809 34.5317 62.5327 43.8799 51.001 43.8799H24.001C12.4693 43.8799 3.12109 34.5317 3.12109 23ZM51.001 2.12012V5H24.001V2.12012H51.001Z" fill="white"/>
<path d="M29.2012 23.0407C29.2263 15.597 35.2803 9.61205 42.7628 9.62992C42.7628 9.62992 42.8521 15.6918 42.8163 23.0461C42.7805 30.5398 42.8163 36.5806 42.8163 36.5806C35.4232 36.5484 29.1797 30.4845 29.2012 23.0372V23.0407Z" fill="white"/>
<path d="M30 21.0664C31.0678 21.0664 31.9336 21.9322 31.9336 23C31.9336 24.0678 31.0678 24.9336 30 24.9336L16 24.9336C14.9322 24.9336 14.0664 24.0678 14.0664 23C14.0664 21.9322 14.9322 21.0664 16 21.0664L30 21.0664Z" fill="white"/>
<path d="M69 21.0664C70.0678 21.0664 70.9336 21.9322 70.9336 23C70.9336 24.0678 70.0678 24.9336 69 24.9336L58 24.9336C56.9322 24.9336 56.0664 24.0678 56.0664 23C56.0664 21.9322 56.9322 21.0664 58 21.0664L69 21.0664Z" fill="white"/>
<path d="M51.1765 9.62992C58.6589 9.61225 64.713 15.5975 64.738 23.0411L64.7341 23.3858C64.5635 30.6728 58.4001 36.5494 51.1228 36.5811C51.1228 36.5811 51.1333 34.568 51.1365 31.4248H54.156C55.2236 31.4246 56.0896 30.5589 56.0896 29.4912C56.0896 28.4236 55.2236 27.5579 54.156 27.5577H51.1355C51.1333 26.1475 51.1304 24.629 51.1228 23.0459C51.1151 21.4671 51.1143 19.9477 51.116 18.5352H54.156C55.2236 18.5349 56.0896 17.6693 56.0896 16.6016C56.0896 15.5339 55.2236 14.6683 54.156 14.668H51.1316C51.1499 11.605 51.1765 9.62992 51.1765 9.62992Z" fill="white"/>
<path d="M45.959 14.668C47.0267 14.6681 47.8926 15.5338 47.8926 16.6016C47.8926 17.6693 47.0267 18.535 45.959 18.5352H40.8027C39.7349 18.5352 38.8691 17.6694 38.8691 16.6016C38.8691 15.5337 39.7349 14.668 40.8027 14.668H45.959Z" fill="white"/>
<path d="M45.959 27.5576C47.0267 27.5577 47.8926 28.4234 47.8926 29.4912C47.8926 30.559 47.0267 31.4247 45.959 31.4248H40.8027C39.7349 31.4248 38.8691 30.5591 38.8691 29.4912C38.8691 28.4234 39.7349 27.5576 40.8027 27.5576H45.959Z" fill="white"/>
</svg>
