<svg preserveAspectRatio="none" width="100%" height="100%" overflow="visible" style="display: block;" viewBox="0 0 110 39" fill="none" xmlns="http://www.w3.org/2000/svg">
<g id="Frame 2085666382">
<path id="Vector" fill-rule="evenodd" clip-rule="evenodd" d="M22.9746 12.5703C21.8413 12.7202 21.5378 13.1739 21.0845 14.3124L16.3249 26.6813H15.7219L10.2783 14.0855C9.74813 12.7972 9.44459 12.7242 8.538 12.5703V12.0436H15.645V12.5743C14.2851 12.6513 13.8318 12.6513 13.8318 13.4818C13.8318 13.8586 14.2082 14.7661 14.4349 15.2969L17.2315 21.9168L19.8784 14.993C20.1051 14.5393 20.3317 14.0085 20.3317 13.5548C20.3317 12.7242 19.7287 12.6473 18.5185 12.5703V12.0436H22.9786L22.9746 12.5703ZM27.5115 26.3045H22.4444V25.8507C23.2012 25.6238 23.5776 25.5469 23.5776 24.5664V18.3232C23.5776 17.4157 23.2741 17.2658 22.4444 17.1119V16.5812H26.5281V24.6394C26.5281 25.243 26.6778 25.6968 27.5115 25.8507V26.3045ZM25.0144 11.7398C25.921 11.7398 26.6009 12.4974 26.6009 13.4049C26.6009 14.3124 25.921 14.993 25.0144 14.993C24.0309 14.993 23.351 14.3124 23.351 13.4049C23.351 12.4974 24.035 11.7398 25.0144 11.7398ZM30.8343 20.3287C30.8343 17.4927 31.5912 16.962 32.344 16.962C33.1008 16.962 33.4003 17.4927 33.4772 18.0194C33.7039 18.6231 33.7039 19.721 33.7039 20.3287H30.8343ZM35.9015 23.6549C35.5251 24.1856 34.7683 25.0931 33.4813 25.0931C31.5143 25.0931 31.061 22.8973 30.9881 21.0822H36.2779C36.201 20.0248 35.9744 16.3543 32.2711 16.3543C29.8509 16.3543 27.9608 18.3232 27.9608 21.3861C27.9608 25.0161 30.0775 26.6083 32.1942 26.6083C33.9345 26.6083 35.1406 25.9277 36.4277 23.9587L35.9015 23.6549ZM51.1678 17.1119C50.7914 17.1889 50.4878 17.1889 50.1114 18.1693L46.8615 26.6083H46.3313L44.2146 20.1788H44.1377L41.5677 26.6083H41.0375L37.9373 18.7C37.3342 17.3388 37.2573 17.1848 36.7272 17.1119V16.5812H41.4139V17.1119C41.1103 17.1119 40.5842 17.1889 40.5842 17.7155C40.5842 18.1693 41.341 19.721 42.3974 22.5975L43.8341 19.0039C43.6075 18.2463 43.4577 17.8695 43.3809 17.5656C43.1542 17.1889 42.9276 17.1889 42.3974 17.1119V16.5812H47.3876V17.1119C46.8574 17.1119 46.3313 17.1889 46.3313 17.6426C46.3313 18.0964 47.2379 20.7824 47.6143 22.4476H47.6912C48.2214 20.8594 49.3546 18.3232 49.3546 17.8695C49.3546 17.1889 48.9013 17.1889 48.2983 17.1119V16.5812H51.1718V17.1119H51.1678ZM60.5412 16.3543C60.1608 14.8431 58.8778 12.4204 56.3847 12.4204C55.3284 12.4204 54.1182 13.024 54.1182 14.4623C54.1182 15.5967 54.5715 16.0504 56.3118 16.885L59.412 18.4731C60.1689 18.8499 61.719 20.0248 61.719 22.2936C61.719 24.1856 60.3955 26.6813 56.4656 26.6813C54.4987 26.6813 53.5192 26.0006 52.9121 26.0006C52.4589 26.0006 52.3091 26.3774 52.2322 26.6813H51.6292V21.4631H52.2322C52.6855 23.6589 53.8956 26.0047 56.6154 26.0047C59.1085 26.0047 59.2623 23.9628 59.2623 23.6589C59.2623 22.2207 58.2019 21.7669 56.842 21.0863L55.4822 20.4057C51.8558 18.7041 51.8558 16.8891 51.8558 15.9046C51.8477 14.6162 52.4548 11.7398 56.4616 11.7398C58.1979 11.7398 59.1813 12.4974 59.7884 12.4974C60.3186 12.4974 60.3915 12.1206 60.4684 11.7398H61.1483V16.3543H60.5412ZM65.6448 21.4631C65.6448 19.0809 65.7946 16.962 67.3811 16.962C68.6681 16.962 68.9676 18.2463 68.9676 21.4631C68.9676 24.1856 68.8179 25.9277 67.3811 25.9277C65.6448 25.9277 65.6448 23.7318 65.6448 21.4631ZM62.5446 21.4631C62.5446 24.1856 64.4347 26.6083 67.3811 26.6083C70.2546 26.6083 72.0678 24.2626 72.0678 21.4631C72.0678 18.5501 70.1009 16.3543 67.3811 16.3543C64.4347 16.3543 62.5446 18.777 62.5446 21.4631ZM83.4082 26.3045H78.4949V25.8507C79.1748 25.7737 79.4784 25.397 79.4784 24.6394V19.4941C79.4784 18.9269 79.4784 17.7155 78.2682 17.7155C77.4385 17.7155 76.5279 18.773 76.5279 18.9998V24.6353C76.5279 25.0891 76.6048 25.6927 77.5842 25.8467V26.3004H72.4442V25.8467C73.2739 25.6968 73.5774 25.5428 73.5774 24.5624V18.3232C73.5774 17.4157 73.3508 17.1889 72.4442 17.1119V16.5812H76.5239V18.0964C76.8274 17.6426 77.734 16.3543 79.5472 16.3543C80.7573 16.3543 82.4207 16.9579 82.4207 19.2672V24.6394C82.4207 25.0931 82.4207 25.7737 83.4042 25.8507L83.4082 26.3045ZM89.0015 26.3045H84.0113V25.8507C84.7681 25.6238 85.0676 25.5469 85.0676 24.5664V18.3232C85.0676 17.4157 84.7641 17.2658 84.0113 17.1119V16.5812H88.0181V24.6394C88.0181 25.243 88.1678 25.6968 89.0015 25.8507V26.3045ZM86.5813 11.7398C87.411 11.7398 88.1678 12.4974 88.1678 13.4049C88.1678 14.3124 87.411 14.993 86.5813 14.993C85.5978 14.993 84.9179 14.3124 84.9179 13.4049C84.9179 12.4974 85.5978 11.7398 86.5813 11.7398ZM97.9946 24.4125C97.0111 25.7737 95.6512 26.6043 93.9878 26.6043C91.268 26.6043 89.4508 24.3355 89.4508 21.7629C89.4508 17.6386 92.4741 16.3543 94.4411 16.3543C95.9547 16.3543 97.691 17.1119 97.691 18.6231C97.691 19.9479 96.4809 19.9479 96.2542 19.9479C95.121 19.9479 95.121 18.9269 95.121 17.7925C95.121 17.1889 94.5908 16.962 94.2144 16.962C92.6279 16.962 92.4741 19.5711 92.4741 20.4786C92.4741 23.505 93.7611 25.1701 95.3476 25.1701C96.5578 25.1701 97.1608 24.5664 97.6141 24.0357L97.9946 24.4125ZM97.9946 15.9775C97.9946 15.2969 98.5248 14.6932 99.2816 14.6932C99.9615 14.6932 100.492 15.2969 100.492 15.9775C100.492 16.7351 99.9615 17.2618 99.2816 17.2618C98.5248 17.2618 97.9946 16.7351 97.9946 15.9775ZM99.2816 17.5656C100.111 17.5656 100.791 16.885 100.791 15.9775C100.791 15.147 100.111 14.4623 99.2816 14.4623C98.4519 14.4623 97.6951 15.1429 97.6951 15.9775C97.691 16.885 98.4479 17.5656 99.2816 17.5656ZM98.9011 16.1274H99.2816L99.7349 16.885H100.038L99.5082 16.1274C99.8118 16.0504 99.9615 15.9775 99.9615 15.5967C99.9615 15.2928 99.7349 15.1429 99.3585 15.1429H98.6785V16.885H98.9052L98.9011 16.1274ZM98.9011 15.9005V15.3698H99.2816C99.5082 15.3698 99.658 15.3698 99.658 15.5967C99.658 15.9005 99.5082 15.9005 99.2816 15.9005H98.9011Z" fill="var(--fill-0, #AD2D5A)"/>
</g>
</svg>
