<svg preserveAspectRatio="none" width="100%" height="100%" overflow="visible" style="display: block;" viewBox="0 0 84 34" fill="none" xmlns="http://www.w3.org/2000/svg">
<g id="Frame 2085666387">
<path id="Vector" fill-rule="evenodd" clip-rule="evenodd" d="M16.2708 12.411H16.2698C16.6367 13.0168 16.8212 13.7055 16.8212 14.4742C16.8212 15.2428 16.6377 15.9335 16.2698 16.5462C15.9009 17.1589 15.3945 17.6397 14.7519 17.9886C14.1092 18.3384 13.3733 18.5133 12.5431 18.5133H10.2972V22.7105H7.43886V10.4699H12.5441C13.3723 10.4699 14.1101 10.6428 14.7528 10.9867C15.3965 11.3305 15.9018 11.8053 16.2708 12.411ZM13.7884 15.1558C13.9046 14.9579 13.9638 14.719 13.9638 14.4742C13.9638 14.2293 13.9056 14.0083 13.7884 13.8094C13.672 13.6115 13.5056 13.4566 13.289 13.3456C13.0735 13.2356 12.8248 13.1797 12.5441 13.1797H10.2993V15.7856H12.5441C12.8238 15.7856 13.0735 15.7295 13.289 15.6196C13.5046 15.5086 13.671 15.3548 13.7884 15.1558ZM24.6094 13.9673C24.9533 14.3891 25.1929 14.9589 25.3282 15.6735L22.6774 16.6122C22.6263 16.3622 22.534 16.1644 22.3996 16.0224C22.1951 15.8065 21.9585 15.6985 21.6547 15.6985C21.3509 15.6985 21.0792 15.8016 20.8396 16.0044C20.599 16.2084 20.4155 16.4972 20.2871 16.87C20.1589 17.2428 20.0947 17.6687 20.0947 18.1465V22.7105H17.3756V13.2677H19.7959V14.8939C19.9944 14.5091 20.2321 14.1833 20.5067 13.9144C20.7814 13.6465 21.0993 13.4396 21.4622 13.2936C21.8241 13.1477 22.2102 13.0747 22.6203 13.0747C23.4624 13.0747 24.1262 13.3716 24.6114 13.9664L24.6094 13.9673ZM44.8259 15.5066L44.8269 15.5077C45.2299 16.2544 45.4314 17.0929 45.4314 17.9906C45.4314 18.8882 45.233 19.7138 44.8359 20.4655C44.4379 21.2181 43.8914 21.8129 43.1956 22.2497C42.4989 22.6865 41.7248 22.9053 40.8716 22.9053C40.3091 22.9053 39.7948 22.8224 39.3276 22.6604C38.8594 22.4966 38.4534 22.2577 38.1084 21.9428C38.0884 21.9238 38.0684 21.9028 38.0473 21.8829V26.007H35.3283V13.2677H37.7485V14.4231C38.0102 14.1063 38.319 13.8404 38.678 13.6265C39.2975 13.2597 40.0295 13.0758 40.8706 13.0758C41.7118 13.0758 42.4808 13.2946 43.1766 13.7314C43.8724 14.1692 44.4228 14.761 44.8259 15.5066ZM42.3705 19.17H42.3695C42.573 18.8151 42.6763 18.4204 42.6763 17.9895C42.6763 17.5587 42.574 17.163 42.3695 16.8011C42.166 16.4403 41.8873 16.1573 41.5373 15.9535C41.1854 15.7505 40.8044 15.6476 40.3613 15.6476C39.9181 15.6476 39.5201 15.7496 39.1692 15.9535C38.8193 16.1564 38.5446 16.4362 38.345 16.7921C38.1466 17.1489 38.0473 17.5418 38.0473 17.9726C38.0473 18.4273 38.1496 18.8322 38.3541 19.1881C38.5586 19.5438 38.8363 19.8227 39.1873 20.0266C39.5382 20.2306 39.9352 20.3325 40.3793 20.3325C40.8014 20.3325 41.1875 20.2266 41.5373 20.0176C41.8882 19.8078 42.166 19.5248 42.3705 19.17ZM48.8442 21.6089C48.8854 22.0637 48.9576 22.4316 49.0639 22.7105H46.0641V9.73518H48.7832V19.9817C48.7832 20.6114 48.8032 21.1531 48.8442 21.6079V21.6089ZM56.467 13.2666H59.3786L55.2038 23.2522C54.8419 24.1258 54.3646 24.8055 53.7741 25.2893C53.1836 25.7731 52.3975 26.015 51.4149 26.015C51.0179 26.015 50.632 25.972 50.2569 25.8841C49.883 25.7961 49.5611 25.6891 49.2924 25.5602L50.1166 22.9723C50.3622 23.1003 50.5988 23.1992 50.8274 23.2692C51.055 23.3392 51.2796 23.3742 51.5021 23.3742C51.818 23.3742 52.0726 23.2862 52.2652 23.1113C52.4576 22.9363 52.6311 22.6854 52.7825 22.3596L52.9629 21.9598L49.3275 13.2677H52.239L54.3446 18.8242L56.467 13.2677V13.2666ZM34.5963 17.5707H34.5943C34.5943 17.9206 34.5582 18.2814 34.488 18.6543H27.7546C27.8027 18.8921 27.8719 19.1111 27.9641 19.31C28.1516 19.7128 28.4233 20.0197 28.7802 20.2285C29.1362 20.4385 29.5442 20.5434 30.0344 20.5434C30.5248 20.5434 30.9288 20.4375 31.2446 20.2285C31.5444 20.0287 31.7269 19.7607 31.7951 19.4259L34.4238 20.3395C34.1492 21.0272 33.72 21.591 33.1395 22.0288C32.3685 22.6135 31.3689 22.9044 30.1407 22.9044C29.1462 22.9044 28.2669 22.6965 27.5009 22.2827C26.7359 21.8698 26.1424 21.2921 25.7213 20.5514C25.2992 19.8107 25.0897 18.9402 25.0897 18.0075C25.0897 17.0749 25.3002 16.2324 25.7213 15.4807C26.1414 14.729 26.7209 14.1393 27.4578 13.7145C28.1937 13.2897 29.0359 13.0758 29.9131 13.0758C30.7904 13.0758 31.5855 13.2707 32.2984 13.6625C33.0112 14.0523 33.5716 14.591 33.9817 15.2797C34.3918 15.9674 34.5963 16.7311 34.5963 17.5707ZM27.8669 16.6951L27.8659 16.6961H31.7359C31.7129 16.4283 31.6186 16.1913 31.4552 15.9875C31.2918 15.7835 31.0732 15.6206 30.7975 15.4977C30.5227 15.3747 30.222 15.3137 29.8941 15.3137C29.4269 15.3137 29.0288 15.4157 28.702 15.6196C28.3741 15.8245 28.1235 16.1154 27.9481 16.4942C27.918 16.5582 27.8919 16.6251 27.8669 16.6951ZM73.9816 12.1022V12.1002C75.4864 12.9338 75.8574 14.0083 75.8574 15.0949C75.8574 16.1813 75.329 17.2669 74.2732 17.9106L71.2885 19.7298C71.3628 21.585 70.0212 22.9543 68.395 23.1243C68.2757 24.7516 66.9132 26.036 65.2499 26.036C63.4763 26.036 62.0957 24.8265 62.0957 22.4835V10.7438C62.0957 8.16694 64.927 6.58457 67.1327 7.92804L73.9816 12.1022ZM65.2499 24.1668C65.9557 24.1668 66.5282 23.597 66.5282 22.8934C66.5282 22.1897 65.9557 21.619 65.2499 21.619C64.544 21.619 63.9726 22.1907 63.9726 22.8934C63.9726 23.5961 64.544 24.1668 65.2499 24.1668ZM69.4127 19.9187H69.4116V17.2019C69.4116 16.4542 68.8041 15.8485 68.0541 15.8485H65.329C64.5792 15.8485 63.9715 16.4542 63.9715 17.2019V20.0176C64.0026 20.0037 64.0387 19.9887 64.0708 19.9757C64.4347 19.8298 64.8328 19.7487 65.2499 19.7487C65.8555 19.7487 66.4209 19.9187 66.9012 20.2135C67.1157 20.3465 67.3133 20.5035 67.4907 20.6804C67.6661 20.8573 67.8215 21.0572 67.9519 21.2721C69.1019 21.2721 69.4127 20.3995 69.4127 19.9187ZM73.2947 16.3173H73.2958C74.2111 15.7595 74.2111 14.4342 73.2958 13.8764L66.1552 9.52427C65.1987 8.94152 63.9726 9.62827 63.9726 10.7448V14.2752C64.3857 14.0833 64.8458 13.9773 65.3301 13.9773H68.0552C69.8408 13.9773 71.2885 15.4207 71.2885 17.2009V17.5397L73.2947 16.3173Z" fill="var(--fill-0, #121117)"/>
</g>
</svg>
