<svg preserveAspectRatio="none" width="100%" height="100%" overflow="visible" style="display: block;" viewBox="0 0 74 17" fill="none" xmlns="http://www.w3.org/2000/svg">
<g id="Frame 2085666376">
<path id="Vector" d="M0.0221219 11.6328C-0.0392459 11.7935 0.0444733 11.8271 0.0639816 11.855C0.248085 11.9891 0.43513 12.0857 0.623448 12.1932C1.62229 12.7241 2.56546 12.8792 3.55175 12.8792C5.56062 12.8792 6.80778 11.8089 6.80778 10.0859V10.0524C6.80778 8.45931 5.40024 7.88085 4.07906 7.46304L3.90751 7.40717C2.91141 7.08294 2.05206 6.80358 2.05206 6.14677V6.11192C2.05206 5.55016 2.55428 5.13647 3.33275 5.13647C4.19768 5.13647 5.22447 5.42437 5.88569 5.79043C5.88569 5.79043 6.0796 5.91622 6.15077 5.72759C6.18978 5.62694 6.52466 4.72426 6.55956 4.62646C6.5972 4.52021 6.53025 4.44195 6.46192 4.40002C5.70717 3.94029 4.66363 3.62587 3.58391 3.62587L3.38304 3.62725C1.54436 3.62725 0.260927 4.73957 0.260927 6.33393V6.36751C0.260927 8.04847 1.6769 8.59344 3.00366 8.97354L3.21707 9.03923C4.18386 9.33685 5.01674 9.59255 5.01674 10.2745V10.3081C5.01674 10.9313 4.4755 11.3952 3.60214 11.3952C3.26315 11.3952 2.18196 11.3882 1.0143 10.6489C0.873331 10.5664 0.791082 10.5064 0.682266 10.4407C0.625114 10.4044 0.4814 10.3415 0.41866 10.5316L0.0221219 11.6328ZM29.4314 11.6328C29.3701 11.7935 29.4538 11.8271 29.4733 11.855C29.6574 11.9891 29.8444 12.0857 30.0327 12.1932C31.0315 12.7241 31.9748 12.8792 32.961 12.8792C34.9698 12.8792 36.2171 11.8089 36.2171 10.0859V10.0524C36.2171 8.45931 34.8094 7.88085 33.4883 7.46304L33.3167 7.40717C32.3206 7.08294 31.4612 6.80358 31.4612 6.14677V6.11192C31.4612 5.55016 31.9634 5.13647 32.7419 5.13647C33.6068 5.13647 34.6336 5.42437 35.2949 5.79043C35.2949 5.79043 35.4888 5.91622 35.5599 5.72759C35.5989 5.62694 35.9338 4.72426 35.9687 4.62646C36.0064 4.52021 35.9394 4.44195 35.871 4.40002C35.1163 3.94029 34.0727 3.62587 32.993 3.62587L32.792 3.62725C30.9534 3.62725 29.6699 4.73957 29.6699 6.33393V6.36751C29.6699 8.04847 31.0859 8.59344 32.4127 8.97354L32.6261 9.03923C33.5929 9.33685 34.4272 9.59255 34.4272 10.2745V10.3081C34.4272 10.9313 33.8845 11.3952 33.0111 11.3952C32.6723 11.3952 31.5911 11.3882 30.4234 10.6489C30.2824 10.5664 30.1988 10.5092 30.0928 10.4407C30.0565 10.417 29.8863 10.3513 29.8277 10.5316L29.4314 11.6328ZM49.5084 8.25791C49.5084 9.23189 49.3271 9.99897 48.9699 10.5412C48.6169 11.0778 48.0826 11.3391 47.3378 11.3391C46.5915 11.3391 46.0599 11.0792 45.7125 10.5412C45.3609 10.0004 45.1825 9.23189 45.1825 8.25791C45.1825 7.28541 45.3609 6.51961 45.7125 5.98299C46.0599 5.45206 46.5915 5.19352 47.3378 5.19352C48.0827 5.19352 48.617 5.45206 48.9714 5.98299C49.3271 6.51951 49.5084 7.28532 49.5084 8.25791ZM51.1853 6.45255C51.0206 5.89491 50.764 5.40306 50.4223 4.9937C50.0804 4.58286 49.648 4.25313 49.1345 4.01275C48.6225 3.77385 48.0172 3.65229 47.3378 3.65229C46.657 3.65229 46.0515 3.77385 45.5395 4.01275C45.0261 4.25313 44.5937 4.58296 44.2505 4.9937C43.9101 5.40454 43.6534 5.89638 43.4874 6.45255C43.3242 7.00724 43.2418 7.61367 43.2418 8.25791C43.2418 8.90216 43.3242 9.50997 43.4874 10.0633C43.6534 10.6194 43.9087 11.1114 44.2519 11.5221C44.5937 11.933 45.0276 12.2613 45.5396 12.4946C46.0529 12.728 46.657 12.8468 47.3379 12.8468C48.0172 12.8468 48.6213 12.728 49.1346 12.4946C49.6466 12.2613 50.0804 11.9329 50.4224 11.5221C50.7641 11.1127 51.0207 10.6208 51.1854 10.0633C51.3501 9.5086 51.4324 8.90068 51.4324 8.25791C51.4324 7.61514 51.3499 7.00724 51.1853 6.45255ZM64.9555 11.079C64.8998 10.9155 64.7421 10.977 64.7421 10.977C64.498 11.0706 64.2384 11.1572 63.9623 11.2006C63.6818 11.2438 63.3735 11.2662 63.0429 11.2662C62.2311 11.2662 61.5865 11.0245 61.1248 10.5466C60.6616 10.0687 60.4021 9.29601 60.4048 8.25075C60.4077 7.29916 60.6364 6.58363 61.048 6.03876C61.4568 5.49664 62.079 5.21846 62.909 5.21846C63.601 5.21846 64.1284 5.29809 64.6807 5.47278C64.6807 5.47278 64.8132 5.53003 64.8759 5.35681C65.0224 4.94873 65.1312 4.6567 65.2875 4.20816C65.3322 4.081 65.2234 4.0265 65.1843 4.01108C64.9666 3.92585 64.4532 3.7876 64.0654 3.72888C63.7027 3.67301 63.2786 3.64365 62.8071 3.64365C62.1024 3.64365 61.4747 3.76384 60.9377 4.00421C60.402 4.24311 59.9472 4.57284 59.5873 4.98378C59.2274 5.39462 58.954 5.88637 58.7712 6.44253C58.5899 6.99722 58.4978 7.6065 58.4978 8.25075C58.4978 9.6439 58.8731 10.7701 59.6139 11.5946C60.356 12.4219 61.4707 12.8424 62.9244 12.8424C63.7838 12.8424 64.6655 12.6678 65.2989 12.4176C65.2989 12.4176 65.4202 12.3589 65.3672 12.2179L64.9555 11.079ZM67.8895 7.32489C67.969 6.78414 68.1183 6.33412 68.3485 5.98348C68.696 5.45108 69.226 5.15905 69.971 5.15905C70.7161 5.15905 71.2085 5.45245 71.5614 5.98348C71.7958 6.33412 71.8977 6.80378 71.9382 7.32489H67.8895ZM73.5354 6.13568C73.3931 5.59768 73.0401 5.05409 72.8086 4.80536C72.443 4.41132 72.086 4.13608 71.7316 3.98231C71.2684 3.78386 70.7131 3.65258 70.105 3.65258C69.3963 3.65258 68.7531 3.7714 68.2314 4.01727C67.7083 4.26324 67.2689 4.59867 66.9242 5.01648C66.5795 5.43281 66.3201 5.92888 66.1555 6.49202C65.9895 7.05241 65.9058 7.66306 65.9058 8.30711C65.9058 8.96255 65.9923 9.5732 66.1639 10.1223C66.3369 10.6757 66.6131 11.1633 66.987 11.5671C67.3594 11.9738 67.8394 12.2925 68.4141 12.5145C68.9848 12.7353 69.6781 12.8499 70.4746 12.8484C72.1139 12.8428 72.9774 12.4768 73.3331 12.2797C73.396 12.2448 73.456 12.1834 73.3805 12.0073L73.0094 10.9662C72.9538 10.8111 72.796 10.8684 72.796 10.8684C72.39 11.0193 71.8126 11.2904 70.4662 11.2876C69.586 11.2863 68.933 11.0264 68.5242 10.6196C68.1043 10.2033 67.8992 9.59117 67.863 8.72767L73.5395 8.73326C73.5395 8.73326 73.6887 8.73052 73.7042 8.58509C73.7098 8.52382 73.8996 7.41709 73.5354 6.13568ZM22.4288 7.32489C22.5097 6.78414 22.6576 6.33412 22.8878 5.98348C23.2351 5.45108 23.7653 5.15905 24.5102 5.15905C25.2552 5.15905 25.7477 5.45245 26.102 5.98348C26.3349 6.33412 26.4368 6.80378 26.4772 7.32489H22.4288ZM28.0732 6.13568C27.931 5.59768 27.5794 5.05409 27.3479 4.80536C26.9823 4.41132 26.6252 4.13608 26.2709 3.98231C25.8077 3.78386 25.2525 3.65258 24.6442 3.65258C23.9369 3.65258 23.2924 3.7714 22.7707 4.01727C22.2476 4.26324 21.8081 4.59867 21.4635 5.01648C21.1189 5.43281 20.8594 5.92888 20.6948 6.49202C20.5302 7.05241 20.4452 7.66306 20.4452 8.30711C20.4452 8.96255 20.5316 9.5732 20.7033 10.1223C20.8763 10.6757 21.1526 11.1633 21.5263 11.5671C21.8989 11.9738 22.3787 12.2925 22.9535 12.5145C23.5241 12.7353 24.2174 12.8499 25.014 12.8484C26.6532 12.8428 27.5168 12.4768 27.8725 12.2797C27.9354 12.2448 27.9953 12.1834 27.92 12.0073L27.5503 10.9662C27.493 10.8111 27.3355 10.8684 27.3355 10.8684C26.9296 11.0193 26.3533 11.2904 25.0043 11.2876C24.1255 11.2863 23.4726 11.0264 23.0638 10.6196C22.6438 10.2033 22.4388 9.59117 22.4025 8.72767L28.079 8.73326C28.079 8.73326 28.2282 8.73052 28.2436 8.58509C28.249 8.52382 28.4387 7.41709 28.0732 6.13568ZM10.1591 11.0479C9.93724 10.8703 9.90656 10.8257 9.83127 10.7111C9.71961 10.5364 9.66246 10.2877 9.66246 9.97187C9.66246 9.47158 9.82705 9.11248 10.1689 8.87073C10.1648 8.87221 10.6572 8.44458 11.815 8.4599C12.6283 8.47109 13.3551 8.59128 13.3551 8.59128V11.1764H13.3565C13.3565 11.1764 12.6353 11.3314 11.8234 11.3803C10.6683 11.4503 10.1549 11.0465 10.1591 11.0479ZM12.4176 7.0528C12.1875 7.03601 11.8889 7.02619 11.5317 7.02619C11.0449 7.02619 10.5747 7.08766 10.1339 7.20647C9.6903 7.32518 9.29131 7.51116 8.9481 7.75694C8.60541 8.00193 8.32376 8.3228 8.12503 8.69458C7.92416 9.06909 7.82231 9.51066 7.82231 10.0054C7.82231 10.5084 7.90877 10.9457 8.08179 11.3036C8.25482 11.6626 8.50451 11.9616 8.82252 12.1923C9.13779 12.4229 9.52708 12.5918 9.979 12.6939C10.4241 12.7959 10.929 12.8475 11.4815 12.8475C12.0633 12.8475 12.6436 12.8001 13.2058 12.7036C13.7624 12.6085 14.446 12.4702 14.6357 12.427C14.7687 12.3949 14.9013 12.3609 15.0333 12.325C15.1743 12.2901 15.1631 12.1391 15.1631 12.1391L15.1603 6.93958C15.1603 5.79927 14.8562 4.95383 14.2577 4.42988C13.662 3.90729 12.7845 3.64306 11.6503 3.64306C11.2248 3.64306 10.5398 3.70187 10.1297 3.78426C10.1297 3.78426 8.88948 4.02463 8.37883 4.42428C8.37883 4.42428 8.26727 4.49419 8.32864 4.65071L8.73047 5.7323C8.78066 5.87203 8.91605 5.82451 8.91605 5.82451C8.91605 5.82451 8.95928 5.80771 9.00957 5.77836C10.1019 5.18311 11.483 5.20128 11.483 5.20128C12.0969 5.20128 12.5684 5.32421 12.8864 5.56871C13.1961 5.80624 13.3537 6.16533 13.3537 6.92269V7.16307C12.8654 7.09325 12.4176 7.0528 12.4176 7.0528ZM58.2013 4.12312C58.2444 3.99449 58.1538 3.93302 58.1161 3.91908C58.0199 3.88137 57.5372 3.77935 57.1647 3.75559C56.4519 3.71228 56.0557 3.83247 55.7013 3.99174C55.3497 4.15101 54.9592 4.40808 54.7414 4.7002V4.00853C54.7414 3.9121 54.6731 3.83522 54.5782 3.83522H53.1231C53.0283 3.83522 52.96 3.91201 52.96 4.00853V12.489C52.96 12.5841 53.0381 12.6623 53.1329 12.6623H54.6243C54.67 12.6621 54.7137 12.6437 54.7458 12.6112C54.778 12.5787 54.796 12.5348 54.7958 12.489V8.25232C54.7958 7.68359 54.8587 7.11633 54.9843 6.75998C55.107 6.40777 55.2744 6.12556 55.4809 5.92289C55.6887 5.7217 55.9245 5.58059 56.1826 5.50096C56.4462 5.41985 56.7378 5.39334 56.9443 5.39334C57.2414 5.39334 57.5679 5.47013 57.5679 5.47013C57.6766 5.4827 57.7381 5.41563 57.7742 5.31646C57.872 5.05654 58.1482 4.27817 58.2013 4.12312Z" fill="var(--fill-0, #00A1E0)"/>
<path id="Vector_2" d="M44.201 0.192849C44.0196 0.136978 43.855 0.0991738 43.6401 0.0587184C43.4224 0.0196377 43.163 0 42.8687 0C41.8418 0 41.0327 0.290649 40.465 0.863505C39.8999 1.43371 39.5162 2.30144 39.3237 3.44313L39.2539 3.82735H37.965C37.965 3.82735 37.8087 3.82175 37.7752 3.99232L37.5646 5.17583C37.5492 5.28767 37.5981 5.35886 37.7487 5.35886H39.0029L37.7306 12.4742C37.6315 13.0472 37.5171 13.5181 37.3901 13.8757C37.2659 14.2279 37.1446 14.492 36.994 14.6848C36.8489 14.8693 36.7121 15.0062 36.4749 15.0858C36.2796 15.1515 36.0536 15.1823 35.8067 15.1823C35.6699 15.1823 35.4873 15.1598 35.3519 15.1319C35.218 15.1053 35.1469 15.076 35.045 15.0326C35.045 15.0326 34.8985 14.9768 34.8399 15.1235C34.7938 15.2451 34.4591 16.1658 34.4186 16.2792C34.3796 16.3923 34.4353 16.4804 34.5064 16.5069C34.6738 16.5656 34.798 16.6047 35.0254 16.6592C35.3408 16.7333 35.6071 16.7374 35.8568 16.7374C36.3785 16.7374 36.8556 16.6634 37.2505 16.5209C37.6468 16.377 37.9926 16.1268 38.2995 15.7887C38.6302 15.4225 38.838 15.0397 39.0363 14.5157C39.2329 13.9986 39.4018 13.3559 39.5356 12.607L40.8149 5.35886H42.6843C42.6843 5.35886 42.8418 5.36446 42.8741 5.19262L43.086 4.01048C43.1001 3.89736 43.0526 3.82745 42.9005 3.82745H41.0855C41.0953 3.787 41.1776 3.14688 41.3855 2.54476C41.4748 2.28907 41.6421 2.0808 41.7831 1.93822C41.9227 1.79849 42.0831 1.69932 42.259 1.64198C42.4388 1.58326 42.644 1.55537 42.8686 1.55537C43.0388 1.55537 43.2075 1.57491 43.3345 1.60142C43.5102 1.63923 43.5785 1.65877 43.6247 1.67281C43.8103 1.72868 43.8353 1.67418 43.8717 1.58483L44.3056 0.391494C44.3502 0.262665 44.24 0.208167 44.201 0.192849ZM18.8421 12.4896C18.8421 12.5847 18.7738 12.6615 18.6789 12.6615H17.1736C17.0787 12.6615 17.0118 12.5847 17.0118 12.4896V0.354965C17.0118 0.260013 17.0787 0.183128 17.1736 0.183128H18.6789C18.7738 0.183128 18.8421 0.260013 18.8421 0.354965V12.4896Z" fill="var(--fill-0, #00A1E0)"/>
</g>
</svg>
