<svg preserveAspectRatio="none" width="100%" height="100%" overflow="visible" style="display: block;" viewBox="0 0 73 12" fill="none" xmlns="http://www.w3.org/2000/svg">
<g id="Group">
<path id="Vector" d="M68.66 4.86476V6.37254H69.7196V7.8685C69.7224 7.98308 69.7175 8.10537 69.7015 8.21062L69.6926 8.26171C69.6909 8.2731 69.6888 8.28481 69.6863 8.29681L69.6777 8.3336C69.6761 8.33985 69.6743 8.34617 69.6725 8.35254L69.6602 8.39134C69.5649 8.6668 69.278 9.01586 68.6333 9.01586C67.9467 9.01586 67.6711 8.61515 67.5957 8.3336L67.5868 8.29681L67.5802 8.26171C67.5612 8.14635 67.5531 8.00218 67.5531 7.8685V3.14352C67.5531 2.99496 67.562 2.83392 67.5889 2.70272L67.607 2.62299C67.6083 2.61747 67.6098 2.61186 67.6113 2.60617L67.6213 2.57105C67.6231 2.56505 67.6251 2.55898 67.6271 2.55285L67.6403 2.51531C67.7382 2.25425 67.9974 1.90656 68.6277 1.90656C69.1144 1.90656 69.3763 2.10483 69.5163 2.30976L69.5412 2.34821C69.549 2.36102 69.5564 2.37382 69.5633 2.38654L69.5829 2.42447L69.6001 2.4617L69.615 2.49797L69.6279 2.533L69.6387 2.56649L69.6478 2.59818L69.6552 2.62778L69.6612 2.655C69.6639 2.66854 69.6663 2.68292 69.6686 2.69786L69.6748 2.74414C69.6757 2.75205 69.6766 2.76004 69.6774 2.76807L69.6838 2.84065L69.6881 2.91025L69.6917 3.00515L69.6926 3.05378V3.62753H72.2963L72.2968 3.27037L72.2984 3.14264L72.298 3.04362L72.2957 2.92834L72.2935 2.86627L72.2889 2.76952L72.2822 2.67042L72.2765 2.60416C72.1004 0.858747 70.7885 0.187214 69.1921 0.0703609L69.0853 0.0633868L68.9777 0.058022C68.9237 0.0557362 68.8694 0.0540411 68.8149 0.0529174L68.7056 0.0514263C68.6873 0.0512416 68.669 0.0512416 68.6507 0.0512416L68.5409 0.0519903C68.5226 0.0522407 68.5044 0.0525546 68.4862 0.0529324L68.3775 0.055973L68.2695 0.0605834L68.1624 0.0667968L68.0562 0.0746466C68.0209 0.0775396 67.9858 0.0807109 67.9509 0.0841661L67.8465 0.0953888C67.8292 0.097403 67.8119 0.0994896 67.7947 0.101649L67.692 0.115489C67.4534 0.149854 67.224 0.198808 67.0065 0.264261L66.914 0.293327C65.9052 0.624291 65.1721 1.32796 65.0216 2.60416L65.0061 2.74582L64.9954 2.85551L64.9855 2.9705L64.9772 3.08491C64.9725 3.15967 64.9695 3.23011 64.9695 3.28835L64.9697 7.69061L64.9704 7.74525L64.9727 7.8283L64.9753 7.88651L64.9789 7.9487L64.9835 8.01631L64.9895 8.09081L65.001 8.21862L65.0107 8.31666C65.1568 9.93861 66.3862 10.6601 67.8904 10.8304L67.9958 10.8413C68.1721 10.8582 68.3519 10.8677 68.5339 10.8704L68.6434 10.8712L68.7535 10.8704C68.9365 10.8677 69.1171 10.8582 69.2941 10.8413L69.3999 10.8304C70.909 10.6601 72.1304 9.93861 72.279 8.31666L72.291 8.17363L72.2999 8.05261L72.3079 7.91702L72.3128 7.80023L72.317 7.63486V4.86476H68.66ZM50.7075 0.329353H48.0929V7.97749C48.097 8.11077 48.0929 8.26051 48.0699 8.37029L48.0622 8.40357L48.0527 8.439C48.0492 8.45114 48.0453 8.46358 48.0411 8.47627L48.0274 8.51506C47.9288 8.77801 47.6775 9.12113 47.0764 9.12113C46.5127 9.12113 46.2553 8.81146 46.1475 8.55505L46.1317 8.51506C46.1292 8.50848 46.1269 8.50196 46.1247 8.49549L46.1123 8.45743L46.1021 8.42104C46.1006 8.41513 46.0992 8.40931 46.0978 8.40357L46.0906 8.37029C46.0644 8.26051 46.0611 8.11077 46.0644 7.97749V0.329353H43.4506V7.74013L43.4501 7.79971L43.451 7.90389L43.4547 8.05717L43.4618 8.24347L43.4668 8.33726L43.4702 8.38704L43.4735 8.42366C43.6016 9.79475 44.406 10.5084 45.542 10.8071L45.6388 10.8313C45.8501 10.8817 46.0723 10.9185 46.3031 10.943L46.4102 10.9535L46.5186 10.9623L46.628 10.9694C46.6831 10.9725 46.7385 10.975 46.7943 10.977L46.9064 10.98L47.0195 10.9816C47.0384 10.9818 47.0574 10.9818 47.0764 10.9818L47.1902 10.981C47.2091 10.9807 47.2279 10.9804 47.2467 10.98L47.359 10.977C47.4149 10.975 47.4704 10.9725 47.5255 10.9694L47.6352 10.9623L47.7437 10.9535L47.851 10.943C49.3802 10.7806 50.5273 10.0844 50.6853 8.42366L50.6874 8.40715L50.6917 8.36364L50.698 8.27686L50.7037 8.17187L50.7068 8.09595L50.71 7.97953L50.7109 7.90389L50.7106 7.83278L50.7089 7.76872C50.7085 7.75877 50.708 7.74923 50.7075 7.74013V0.329353ZM26.6837 0.329353L25.3794 8.41065L24.076 0.329353H19.8584L19.6347 10.6677H22.2185L22.2885 1.09718L24.0663 10.6677H26.6878L28.4672 1.09718L28.5374 10.6677H31.1278L30.8965 0.329353H26.6837ZM11.0682 0.329353L9.15312 10.6677H11.9458L13.3889 1.09718L14.7974 10.6677H17.5707L15.6636 0.329353H11.0682ZM59.8452 8.65292L57.4106 0.329353H53.5741V10.5599H56.112L55.9647 1.97001L58.5793 10.5599H62.2588V0.329353H59.7042L59.8452 8.65292ZM36.37 3.01993C36.324 2.81576 36.3373 2.59885 36.3611 2.48548C36.3678 2.4554 36.3757 2.42506 36.3851 2.39477L36.4003 2.34941C36.5034 2.06281 36.7447 1.79359 37.298 1.79359C37.8951 1.79359 38.2452 2.16582 38.2452 2.72443V3.35659H40.794V2.63602C40.794 1.00991 39.7297 0.384383 38.5926 0.165142L38.4989 0.148025L38.4051 0.132664L38.3112 0.118986L38.2174 0.106919L38.1237 0.0963872L38.0302 0.087319C37.9992 0.084532 37.9682 0.0819766 37.9372 0.0796406L37.8447 0.0732786L37.7529 0.0681598L37.6619 0.0642108L37.5717 0.0613583L37.4825 0.0595289L37.351 0.0585428L37.293 0.0587472L37.1777 0.0603926C37.1585 0.0608054 37.1394 0.0612878 37.1204 0.0618405L37.0066 0.0660037C36.9688 0.0676755 36.9312 0.0696327 36.8938 0.07188L36.7822 0.0794966C35.2272 0.198441 34.0138 0.837148 33.7711 2.33494C33.6993 2.79107 33.6815 3.19596 33.7958 3.71262C33.9757 4.56164 34.683 5.1658 35.4949 5.67255L35.6205 5.74976C35.6416 5.7625 35.6627 5.77519 35.6839 5.78782L35.8114 5.86295L35.9397 5.93684L36.0684 6.00962L36.2617 6.11693L36.7694 6.39518L36.8928 6.46358L37.014 6.53176L37.1328 6.59983L37.2488 6.66791C37.8021 6.99722 38.2455 7.33119 38.405 7.73044C38.4933 7.96763 38.474 8.26665 38.4313 8.45742L38.424 8.48818C38.4134 8.53404 38.4002 8.57993 38.3835 8.62504L38.3657 8.66985C38.2482 8.9442 37.9916 9.17808 37.4276 9.17808C36.7843 9.17808 36.397 8.80824 36.397 8.25082L36.3962 7.25865H33.6528V8.04731C33.6528 9.8984 34.8272 10.7025 36.2981 10.9412L36.4076 10.9579C36.4809 10.9683 36.5549 10.9774 36.6295 10.9852L36.7417 10.9959C36.8732 11.0073 37.0062 11.0148 37.1402 11.0187L37.2553 11.0213C37.2745 11.0216 37.2937 11.0218 37.313 11.0219L37.3708 11.0221C37.4092 11.0221 37.4476 11.0218 37.4857 11.0213L37.5998 11.0188C37.6188 11.0182 37.6377 11.0176 37.6565 11.0169L37.7692 11.0119C37.8066 11.0099 37.8438 11.0077 37.8808 11.0051L37.9914 10.9966C38.0647 10.9903 38.1373 10.9829 38.2091 10.9742L38.3161 10.9603L38.4219 10.9445C38.4569 10.9389 38.4917 10.933 38.5263 10.9268L38.6293 10.9073C39.8744 10.6578 40.8008 9.98138 40.9869 8.6808C41.0125 8.48681 41.0282 8.30767 41.0367 8.14391L41.0413 8.03703C41.0419 8.01959 41.0425 8.00235 41.0429 7.9853L41.0446 7.88532V7.78998L41.043 7.69933L41.04 7.61339L41.0359 7.5322C41.0351 7.51907 41.0343 7.50613 41.0334 7.4934L41.0277 7.41941L41.0213 7.35026L41.0142 7.28598L41.0029 7.19879L40.9911 7.12276L40.9758 7.03897L40.9687 7.00469C40.7892 6.10442 40.001 5.46852 39.1254 4.94509L38.9997 4.87106L38.8733 4.79846L38.7463 4.7272L38.5555 4.62259L38.3026 4.48686L37.8713 4.25743L37.6937 4.16139C37.6743 4.15078 37.655 4.14018 37.6359 4.1296L37.5223 4.06626L37.4119 4.00316C36.8686 3.68817 36.458 3.37888 36.37 3.01993ZM2.74793 2.99458C2.70101 2.79919 2.70834 2.59364 2.73241 2.47421L2.74238 2.42949L2.75369 2.38524C2.83979 2.0748 3.07521 1.75482 3.68368 1.75482C4.28836 1.75482 4.6444 2.13064 4.6444 2.69377V3.33362H7.22307V2.60735C7.22307 1.05559 6.25772 0.4039 5.17901 0.148976L5.08495 0.127796C5.00636 0.11096 4.9273 0.0961298 4.8481 0.0831152L4.75302 0.0683568L4.65792 0.0552676L4.56294 0.043774L4.46819 0.0338024C4.43666 0.0307241 4.4052 0.0278872 4.37381 0.0252794L4.27991 0.0181314L4.18663 0.0122848L4.09408 0.00766619L4.00239 0.00420192L3.91169 0.00181849L3.77775 0H3.73373C3.69507 0 3.65656 0.000270178 3.61821 0.00081491L3.50363 0.00327714C3.42756 0.00547358 3.35216 0.00878573 3.27749 0.0132486L3.16604 0.0208104C3.14756 0.022216 3.12912 0.0236946 3.11074 0.0252467L3.00102 0.0354469C2.96464 0.0391441 2.92847 0.0431399 2.89251 0.0474387L2.78528 0.0612486C2.69645 0.0735216 2.609 0.0877157 2.52305 0.103899L2.42064 0.124279L2.31972 0.146595L2.22034 0.170873C2.18748 0.179296 2.15488 0.18805 2.12256 0.19714L2.02641 0.225421C1.02565 0.53305 0.304451 1.17824 0.122396 2.29777C0.0472591 2.7612 0.0343823 3.16888 0.142972 3.69125C0.334149 4.59395 1.11386 5.22261 1.98618 5.75083L2.11444 5.82743C2.13591 5.84009 2.15741 5.85269 2.17896 5.86524L2.30855 5.93992L2.50369 6.04985L2.76348 6.19318L3.14666 6.40316L3.33281 6.50678L3.51377 6.61003L3.63095 6.67886C3.65023 6.69034 3.66937 6.70182 3.68838 6.71331L3.80068 6.7824C4.27958 7.08235 4.65467 7.39131 4.79945 7.75354C4.89427 7.98909 4.8721 8.28803 4.82729 8.485L4.81963 8.51685C4.80856 8.56218 4.79497 8.60757 4.77817 8.65223L4.76027 8.69661C4.63981 8.97582 4.38127 9.21525 3.80993 9.21525C3.1641 9.21525 2.7778 8.83904 2.7778 8.27392L2.77421 7.27909H0V8.06962C0 10.2886 1.67303 11.0179 3.52586 11.0727L3.64188 11.0753L3.75829 11.0761L3.8734 11.0753C3.93073 11.0745 3.98772 11.0731 4.04435 11.071L4.15711 11.066C4.21324 11.0631 4.26898 11.0596 4.32431 11.0553L4.43441 11.046L4.54335 11.035C4.57947 11.031 4.61539 11.0267 4.6511 11.0221L4.75759 11.0075C4.79288 11.0023 4.82794 10.9968 4.86279 10.991L4.96663 10.9726C6.25599 10.7311 7.2169 10.0472 7.41038 8.70947C7.43703 8.51837 7.45369 8.34157 7.463 8.17954L7.46814 8.07372L7.47129 7.97232C7.47202 7.93925 7.47245 7.90693 7.4726 7.87535L7.47226 7.78286L7.47044 7.69488L7.46731 7.61143L7.46305 7.53255L7.45784 7.45828L7.45184 7.38863L7.44176 7.29292L7.43089 7.20782L7.41621 7.11102L7.39949 7.01717C7.22059 6.12755 6.45593 5.49465 5.59563 4.9741L5.4691 4.8987C5.44792 4.88627 5.4267 4.87389 5.40544 4.86158L5.2775 4.7884L5.14906 4.71658L5.02044 4.64601L4.892 4.57659L4.32526 4.27575L4.14402 4.17862L4.02633 4.11445L3.91154 4.05062L3.79999 3.98704C3.78168 3.97646 3.76353 3.96588 3.74553 3.95531L3.63949 3.89192C3.17123 3.60669 2.82739 3.32132 2.74793 2.99458Z" fill="var(--fill-0, #1428A0)"/>
</g>
</svg>
