<svg preserveAspectRatio="none" width="100%" height="100%" overflow="visible" style="display: block;" viewBox="0 0 83 13" fill="none" xmlns="http://www.w3.org/2000/svg">
<g id="Group">
<path id="Vector" d="M78.805 5.58357V7.31413H80.0212V9.03113C80.0244 9.16264 80.0187 9.303 80.0004 9.4238L79.9902 9.48243C79.9883 9.49551 79.9859 9.50895 79.983 9.52272L79.9731 9.56495C79.9712 9.57213 79.9692 9.57938 79.9671 9.58669L79.953 9.63122C79.8436 9.94738 79.5143 10.348 78.7744 10.348C77.9863 10.348 77.67 9.8881 77.5834 9.56495L77.5732 9.52272L77.5656 9.48243C77.5438 9.35003 77.5346 9.18456 77.5346 9.03113V3.608C77.5346 3.43749 77.5448 3.25265 77.5756 3.10207L77.5964 3.01056C77.598 3.00422 77.5996 2.99778 77.6013 2.99125L77.6128 2.95095C77.6149 2.94406 77.6172 2.93709 77.6195 2.93005L77.6346 2.88697C77.747 2.58733 78.0445 2.18827 78.768 2.18827C79.3265 2.18827 79.6271 2.41584 79.7879 2.65104L79.8164 2.69518C79.8254 2.70988 79.8338 2.72457 79.8418 2.73917L79.8643 2.7827L79.884 2.82544L79.9012 2.86707L79.9159 2.90727L79.9284 2.94571L79.9388 2.98208L79.9473 3.01605L79.9541 3.0473C79.9572 3.06284 79.9601 3.07934 79.9626 3.09649L79.9697 3.14961C79.9708 3.15869 79.9718 3.16786 79.9728 3.17708L79.98 3.26037L79.985 3.34026L79.9892 3.44918L79.9902 3.505V4.16352H82.9786L82.9791 3.7536L82.981 3.60699L82.9805 3.49334L82.9779 3.36102L82.9754 3.28978L82.9701 3.17874L82.9625 3.06499L82.9559 2.98894C82.7537 0.985634 81.248 0.214876 79.4158 0.0807572L79.2932 0.0727526L79.1696 0.0665951C79.1077 0.0639716 79.0454 0.0620261 78.9828 0.0607364L78.8573 0.059025C78.8363 0.0588129 78.8153 0.0588129 78.7943 0.0588129L78.6683 0.0596722C78.6473 0.0599597 78.6264 0.0603199 78.6056 0.0607535L78.4808 0.0642435L78.3569 0.069535L78.2339 0.0766665L78.112 0.0856761C78.0715 0.0889966 78.0312 0.0926366 77.9911 0.0966023L77.8713 0.109483C77.8515 0.111795 77.8317 0.11419 77.8119 0.116669L77.6939 0.132554C77.4202 0.171996 77.1568 0.228184 76.9072 0.303307L76.8011 0.336668C75.6432 0.716535 74.8017 1.52417 74.629 2.98894L74.6112 3.15154L74.5989 3.27743L74.5875 3.40941L74.5781 3.54072C74.5727 3.62653 74.5692 3.70738 74.5692 3.77423L74.5695 8.82695L74.5703 8.88967L74.5729 8.98499L74.5759 9.0518L74.58 9.12318L74.5853 9.20078L74.5921 9.28628L74.6054 9.43298L74.6165 9.54551C74.7842 11.4071 76.1952 12.2352 77.9217 12.4306L78.0426 12.4432C78.245 12.4626 78.4514 12.4735 78.6603 12.4765L78.7859 12.4775L78.9123 12.4765C79.1224 12.4735 79.3297 12.4626 79.5328 12.4432L79.6542 12.4306C81.3863 12.2352 82.7881 11.4071 82.9588 9.54551L82.9726 9.38134L82.9828 9.24244L82.992 9.08682L82.9975 8.95277L83.0023 8.76297V5.58357H78.805ZM58.1999 0.378017H55.1989V9.15622C55.2036 9.30919 55.1989 9.48106 55.1726 9.60707L55.1637 9.64526L55.1528 9.68593C55.1488 9.69985 55.1444 9.71413 55.1395 9.7287L55.1239 9.77322C55.0106 10.075 54.7222 10.4688 54.0323 10.4688C53.3852 10.4688 53.0898 10.1134 52.9661 9.81912L52.948 9.77322C52.9452 9.76568 52.9425 9.75819 52.9399 9.75077L52.9258 9.70707L52.9141 9.66531C52.9123 9.65853 52.9107 9.65184 52.9091 9.64526L52.9008 9.60707C52.8708 9.48106 52.867 9.30919 52.8708 9.15622V0.378017H49.8707V8.88379L49.8702 8.95217L49.8712 9.07175L49.8754 9.24768L49.8836 9.4615L49.8894 9.56916L49.8933 9.62628L49.8971 9.66832C50.0441 11.242 50.9673 12.0611 52.2711 12.4039L52.3822 12.4317C52.6248 12.4896 52.8798 12.5318 53.1447 12.5599L53.2677 12.572L53.392 12.582L53.5177 12.5902C53.5808 12.5938 53.6444 12.5967 53.7085 12.5989L53.8372 12.6024L53.967 12.6042C53.9887 12.6044 54.0105 12.6044 54.0323 12.6044L54.1629 12.6035C54.1845 12.6032 54.2062 12.6029 54.2277 12.6024L54.3567 12.5989C54.4208 12.5967 54.4845 12.5938 54.5478 12.5902L54.6736 12.582L54.7982 12.572L54.9213 12.5599C56.6765 12.3736 57.9931 11.5745 58.1745 9.66832L58.1769 9.64937L58.1818 9.59943L58.189 9.49983L58.1955 9.37932L58.1991 9.29219L58.2028 9.15856L58.2038 9.07175L58.2034 8.99013L58.2015 8.91661C58.2011 8.90519 58.2005 8.89423 58.1999 8.88379V0.378017ZM30.6264 0.378017L29.1294 9.65339L27.6334 0.378017H22.7926L22.5358 12.2439H25.5015L25.5818 1.2593L27.6222 12.2439H30.6311L32.6734 1.2593L32.754 12.2439H35.7271L35.4617 0.378017H30.6264ZM12.7036 0.378017L10.5056 12.2439H13.7109L15.3672 1.2593L16.9838 12.2439H20.1669L17.978 0.378017H12.7036ZM68.6878 9.93145L65.8934 0.378017H61.4901V12.1202H64.403L64.2339 2.2611L67.2348 12.1202H71.4579V0.378017H68.526L68.6878 9.93145ZM41.7439 3.46615C41.6912 3.23181 41.7064 2.98285 41.7337 2.85273C41.7414 2.8182 41.7505 2.78338 41.7613 2.74862L41.7787 2.69655C41.8971 2.3676 42.174 2.0586 42.8091 2.0586C43.4944 2.0586 43.8962 2.48583 43.8962 3.12699V3.85255H46.8216V3.02551C46.8216 1.15913 45.6001 0.441178 44.2949 0.189543L44.1874 0.169896L44.0798 0.152266L43.972 0.136568L43.8643 0.122717L43.7567 0.110629L43.6495 0.100221C43.6138 0.0970222 43.5782 0.0940892 43.5427 0.0914081L43.4366 0.0841061L43.3312 0.0782309L43.2267 0.0736984L43.1232 0.0704244L43.0208 0.0683247L42.8699 0.0671929L42.8033 0.0674275L42.6709 0.069316C42.649 0.0697898 42.6271 0.0703435 42.6052 0.0709778L42.4746 0.0757563C42.4312 0.077675 42.3881 0.0799214 42.3452 0.0825007L42.217 0.0912428C40.4323 0.227762 39.0396 0.960843 38.761 2.67995C38.6786 3.20347 38.6582 3.66819 38.7894 4.26119C38.9959 5.23566 39.8077 5.92909 40.7395 6.51071L40.8837 6.59933C40.9079 6.61396 40.9321 6.62852 40.9564 6.64302L41.1028 6.72925L41.25 6.81406L41.3978 6.89758L41.6196 7.02076L42.2024 7.34011L42.3439 7.41862L42.4831 7.49687L42.6195 7.575L42.7526 7.65315C43.3877 8.03111 43.8965 8.41442 44.0796 8.87267C44.181 9.1449 44.1588 9.48811 44.1098 9.70706L44.1014 9.74237C44.0893 9.795 44.0741 9.84768 44.055 9.89945L44.0345 9.95089C43.8997 10.2658 43.6051 10.5342 42.9578 10.5342C42.2194 10.5342 41.775 10.1097 41.775 9.46994L41.774 8.33116H38.6253V9.23636C38.6253 11.361 39.9732 12.2839 41.6614 12.5579L41.7871 12.577C41.8712 12.589 41.9562 12.5994 42.0418 12.6083L42.1706 12.6206C42.3215 12.6337 42.4741 12.6423 42.6279 12.6468L42.76 12.6498C42.7821 12.6501 42.8041 12.6503 42.8262 12.6505L42.8926 12.6507C42.9367 12.6507 42.9807 12.6504 43.0245 12.6498L43.1555 12.6469C43.1772 12.6463 43.1989 12.6455 43.2205 12.6447L43.3498 12.639C43.3927 12.6367 43.4355 12.6341 43.478 12.6312L43.6049 12.6214C43.689 12.6142 43.7724 12.6057 43.8547 12.5957L43.9776 12.5797L44.099 12.5616C44.1392 12.5552 44.1791 12.5485 44.2188 12.5414L44.3371 12.5189C45.7662 12.2326 46.8295 11.4562 47.043 9.96345C47.0724 9.7408 47.0905 9.53519 47.1002 9.34724L47.1055 9.22456C47.1062 9.20455 47.1068 9.18476 47.1073 9.16519L47.1092 9.05043V8.94101L47.1074 8.83696L47.104 8.73832L47.0992 8.64514C47.0983 8.63007 47.0974 8.61522 47.0964 8.60061L47.0899 8.51568L47.0825 8.43631L47.0744 8.36254L47.0614 8.26246L47.0479 8.1752L47.0303 8.07903L47.0221 8.03969C46.816 7.00639 45.9114 6.27653 44.9064 5.67576L44.7622 5.59079L44.6171 5.50747L44.4713 5.42568L44.2524 5.30561L43.9621 5.14983L43.467 4.8865L43.2633 4.77627C43.241 4.76409 43.2189 4.75192 43.1968 4.73978L43.0665 4.66707L42.9398 4.59466C42.3163 4.23312 41.8449 3.87813 41.7439 3.46615ZM3.15395 3.43705C3.1001 3.21279 3.10852 2.97687 3.13615 2.83979L3.14759 2.78846L3.16056 2.73768C3.25939 2.38137 3.52959 2.01411 4.22797 2.01411C4.922 2.01411 5.33064 2.44546 5.33064 3.09179V3.82619H8.29033V2.9926C8.29033 1.21156 7.18234 0.46358 5.94425 0.170988L5.83628 0.146679C5.74608 0.127355 5.65534 0.110334 5.56444 0.0953961L5.45531 0.0784571L5.34616 0.0634338L5.23714 0.0502419L5.1284 0.038797C5.09221 0.0352638 5.05609 0.0320077 5.02007 0.0290146L4.9123 0.0208104L4.80523 0.0141L4.69901 0.00879892L4.59377 0.00482279L4.48967 0.00208719L4.33594 0H4.28542C4.24104 0 4.19684 0.000310099 4.15282 0.000935319L4.02131 0.00376137C3.93401 0.00628234 3.84747 0.0100839 3.76176 0.0152062L3.63384 0.0238852C3.61263 0.0254985 3.59147 0.0271956 3.57037 0.0289771L3.44444 0.0406844C3.40269 0.0449279 3.36117 0.0495141 3.3199 0.0544481L3.19682 0.0702985C3.09487 0.0843849 2.9945 0.100676 2.89585 0.119251L2.77831 0.142642L2.66248 0.168255L2.54842 0.196121C2.5107 0.205788 2.47328 0.215835 2.43618 0.226269L2.32582 0.258729C1.1772 0.611813 0.349435 1.35233 0.14048 2.63728C0.0542419 3.16919 0.0394625 3.6371 0.164097 4.23666C0.383522 5.27274 1.27844 5.99429 2.27965 6.60056L2.42686 6.68848C2.4515 6.70301 2.47619 6.71747 2.50091 6.73187L2.64966 6.81758L2.87363 6.94376L3.1718 7.10827L3.6116 7.34927L3.82525 7.4682L4.03295 7.58671L4.16745 7.66571C4.18957 7.67888 4.21155 7.69206 4.23336 7.70526L4.36226 7.78454C4.91192 8.12882 5.34243 8.48343 5.5086 8.89918C5.61744 9.16954 5.59199 9.51265 5.54056 9.73872L5.53176 9.77528C5.51906 9.82731 5.50347 9.8794 5.48418 9.93066L5.46364 9.9816C5.32537 10.3021 5.02864 10.5769 4.37287 10.5769C3.63162 10.5769 3.18824 10.1451 3.18824 9.49645L3.18412 8.35463H0V9.26196C0 11.8088 1.92024 12.6459 4.04683 12.7088L4.17999 12.7118L4.3136 12.7127L4.44572 12.7118C4.51152 12.7108 4.57694 12.7092 4.64193 12.7068L4.77135 12.7011C4.83577 12.6978 4.89975 12.6937 4.96326 12.6889L5.08962 12.6782L5.21467 12.6655C5.25612 12.6609 5.29735 12.656 5.33833 12.6507L5.46056 12.6339C5.50106 12.6279 5.54131 12.6216 5.5813 12.6149L5.70048 12.5939C7.18035 12.3168 8.28325 11.5318 8.50532 9.99636C8.53591 9.77702 8.55503 9.57409 8.56571 9.38813L8.57162 9.26668L8.57522 9.15028C8.57606 9.11233 8.57656 9.07524 8.57673 9.03899L8.57634 8.93284L8.57425 8.83185L8.57066 8.73607L8.56577 8.64554L8.55979 8.56029L8.5529 8.48036L8.54133 8.37051L8.52886 8.27282L8.512 8.16172L8.49282 8.05401C8.28748 7.03295 7.40984 6.30653 6.42242 5.70906L6.2772 5.62252C6.25289 5.60825 6.22853 5.59404 6.20413 5.57991L6.05729 5.49592L5.90987 5.41349L5.76225 5.33249L5.61483 5.25281L4.96435 4.90753L4.75633 4.79604L4.62125 4.72239L4.48949 4.64913L4.36146 4.57616C4.34045 4.56401 4.31962 4.55187 4.29896 4.53974L4.17725 4.46697C3.63981 4.1396 3.24516 3.81207 3.15395 3.43705Z" fill="var(--fill-0, #1428A0)"/>
</g>
</svg>
