<svg preserveAspectRatio="none" width="100%" height="100%" overflow="visible" style="display: block;" viewBox="0 0 96 39" fill="none" xmlns="http://www.w3.org/2000/svg">
<g id="Frame 2085666387">
<path id="Vector" fill-rule="evenodd" clip-rule="evenodd" d="M18.6747 14.2449H18.6736C19.0947 14.9402 19.3065 15.7306 19.3065 16.6129C19.3065 17.4951 19.0959 18.2878 18.6736 18.9911C18.2502 19.6943 17.669 20.2462 16.9314 20.6466C16.1938 21.0481 15.3491 21.2489 14.3963 21.2489H11.8186V26.0662H8.53785V12.0169H14.3974C15.348 12.0169 16.1949 12.2154 16.9325 12.6101C17.6713 13.0048 18.2513 13.5497 18.6747 14.2449ZM15.8255 17.3952C15.959 17.1682 16.0269 16.894 16.0269 16.6129C16.0269 16.3318 15.9601 16.0782 15.8255 15.8499C15.692 15.6227 15.501 15.445 15.2524 15.3176C15.005 15.1914 14.7197 15.1271 14.3974 15.1271H11.8209V18.1181H14.3974C14.7184 18.1181 15.005 18.0538 15.2524 17.9276C15.4999 17.8002 15.6909 17.6236 15.8255 17.3952ZM28.2455 16.0312C28.6402 16.5153 28.9152 17.1693 29.0705 17.9895L26.028 19.0668C25.9693 18.78 25.8634 18.5529 25.7092 18.39C25.4744 18.1421 25.2029 18.0182 24.8542 18.0182C24.5055 18.0182 24.1937 18.1364 23.9187 18.3693C23.6425 18.6033 23.4319 18.9349 23.2846 19.3628C23.1373 19.7907 23.0637 20.2795 23.0637 20.8279V26.0662H19.9428V15.2282H22.7207V17.0947C22.9486 16.653 23.2213 16.279 23.5366 15.9704C23.8519 15.663 24.2167 15.4255 24.6332 15.258C25.0487 15.0905 25.4918 15.0067 25.9624 15.0067C26.929 15.0067 27.6908 15.3474 28.2477 16.0301L28.2455 16.0312ZM51.4491 17.7979L51.4502 17.7991C51.9128 18.6561 52.1441 19.6186 52.1441 20.6489C52.1441 21.6791 51.9163 22.6267 51.4606 23.4895C51.0038 24.3533 50.3766 25.0359 49.5779 25.5373C48.7783 26.0387 47.8898 26.2899 46.9105 26.2899C46.265 26.2899 45.6746 26.1947 45.1384 26.0088C44.601 25.8207 44.135 25.5465 43.7391 25.1851C43.7161 25.1633 43.6931 25.1392 43.6689 25.1163V29.8499H40.5481V15.2282H43.326V16.5543C43.6263 16.1907 43.9808 15.8855 44.3928 15.64C45.1039 15.219 45.944 15.0079 46.9094 15.0079C47.8748 15.0079 48.7575 15.2591 49.5561 15.7604C50.3547 16.2629 50.9865 16.9421 51.4491 17.7979ZM48.6309 22.0026H48.6297C48.8634 21.5953 48.9819 21.1422 48.9819 20.6477C48.9819 20.1532 48.8645 19.699 48.6297 19.2837C48.3962 18.8695 48.0763 18.5448 47.6746 18.3108C47.2707 18.0779 46.8334 17.9597 46.3248 17.9597C45.8162 17.9597 45.3593 18.0768 44.9566 18.3108C44.555 18.5437 44.2396 18.8649 44.0106 19.2733C43.7829 19.6829 43.6689 20.1338 43.6689 20.6283C43.6689 21.1502 43.7863 21.6149 44.021 22.0233C44.2558 22.4317 44.5745 22.7517 44.9773 22.9858C45.3801 23.2199 45.8357 23.3369 46.3455 23.3369C46.83 23.3369 47.2731 23.2153 47.6746 22.9755C48.0774 22.7346 48.3962 22.4099 48.6309 22.0026ZM56.0612 24.8019C56.1084 25.3239 56.1913 25.7461 56.3133 26.0662H52.8702V11.1737H55.9911V22.9342C55.9911 23.657 56.0141 24.2787 56.0612 24.8008V24.8019ZM64.8103 15.227H68.152L63.3604 26.688C62.945 27.6907 62.3972 28.4708 61.7194 29.0261C61.0417 29.5813 60.1395 29.859 59.0117 29.859C58.556 29.859 58.113 29.8096 57.6826 29.7087C57.2534 29.6078 56.8839 29.485 56.5756 29.3369L57.5215 26.3668C57.8035 26.5136 58.075 26.6272 58.3374 26.7075C58.5986 26.7878 58.8564 26.828 59.1118 26.828C59.4744 26.828 59.7666 26.727 59.9876 26.5262C60.2085 26.3254 60.4076 26.0375 60.5813 25.6635L60.7885 25.2045L56.6158 15.2282H59.9576L62.3742 21.6056L64.8103 15.2282V15.227ZM39.708 20.167H39.7057C39.7057 20.5686 39.6643 20.9827 39.5837 21.4107H31.8553C31.9106 21.6837 31.99 21.935 32.0958 22.1632C32.311 22.6256 32.6229 22.9778 33.0326 23.2175C33.4411 23.4585 33.9094 23.579 34.4721 23.579C35.0349 23.579 35.4986 23.4574 35.8611 23.2175C36.2052 22.9881 36.4146 22.6806 36.4928 22.2963L39.51 23.3449C39.1948 24.1342 38.7023 24.7813 38.0359 25.2838C37.1511 25.9549 36.0037 26.2887 34.5941 26.2887C33.4526 26.2887 32.4433 26.0501 31.5642 25.5752C30.6861 25.1013 30.0049 24.4382 29.5216 23.5881C29.0372 22.738 28.7967 21.7388 28.7967 20.6684C28.7967 19.598 29.0383 18.6309 29.5216 17.7681C30.0038 16.9054 30.6689 16.2286 31.5147 15.741C32.3593 15.2534 33.326 15.0079 34.3329 15.0079C35.3398 15.0079 36.2523 15.2316 37.0705 15.6813C37.8887 16.1288 38.5319 16.7471 39.0026 17.5375C39.4733 18.3268 39.708 19.2033 39.708 20.167ZM31.9842 19.1621L31.9831 19.1632H36.425C36.3985 18.8558 36.2903 18.5838 36.1027 18.3498C35.9152 18.1158 35.6643 17.9287 35.3479 17.7877C35.0325 17.6465 34.6873 17.5765 34.311 17.5765C33.7748 17.5765 33.3179 17.6935 32.9428 17.9276C32.5665 18.1628 32.2788 18.4967 32.0775 18.9314C32.0429 19.0049 32.013 19.0817 31.9842 19.1621ZM84.9127 13.8905V13.8881C86.6399 14.845 87.0657 16.0782 87.0657 17.3253C87.0657 18.5723 86.4593 19.8182 85.2475 20.5571L81.8218 22.645C81.907 24.7744 80.3672 26.3461 78.5007 26.5411C78.3638 28.4089 76.7999 29.8831 74.8908 29.8831C72.8552 29.8831 71.2707 28.4949 71.2707 25.8057V12.3314C71.2707 9.37374 74.5203 7.55757 77.0519 9.09955L84.9127 13.8905ZM74.8908 27.7377C75.7009 27.7377 76.358 27.0837 76.358 26.2762C76.358 25.4685 75.7009 24.8134 74.8908 24.8134C74.0807 24.8134 73.4249 25.4696 73.4249 26.2762C73.4249 27.0826 74.0807 27.7377 74.8908 27.7377ZM79.6688 22.8619H79.6676V19.7437C79.6676 18.8855 78.9702 18.1903 78.1095 18.1903H74.9817C74.1211 18.1903 73.4236 18.8855 73.4236 19.7437V22.9755C73.4593 22.9595 73.5007 22.9422 73.5376 22.9273C73.9553 22.7599 74.4122 22.6668 74.8908 22.6668C75.5859 22.6668 76.2349 22.8619 76.7861 23.2003C77.0324 23.3529 77.2591 23.5331 77.4628 23.7361C77.6641 23.9392 77.8425 24.1686 77.9921 24.4153C79.312 24.4153 79.6688 23.4137 79.6688 22.8619ZM84.1244 18.7284H84.1256C85.1762 18.0882 85.1762 16.567 84.1256 15.9268L75.9299 10.9316C74.8322 10.2628 73.4249 11.051 73.4249 12.3325V16.3845C73.899 16.1643 74.4271 16.0426 74.9829 16.0426H78.1107C80.1601 16.0426 81.8218 17.6993 81.8218 19.7426V20.1314L84.1244 18.7284Z" fill="var(--fill-0, #121117)"/>
</g>
</svg>
