<svg preserveAspectRatio="none" width="100%" height="100%" overflow="visible" style="display: block;" viewBox="0 0 17 17" fill="none" xmlns="http://www.w3.org/2000/svg">
<g id="waking_up logo">
<path id="Vector" d="M11.866 4.47979L11.8641 4.48094C11.65 3.88135 11.308 3.33552 10.8619 2.88131C10.4157 2.4271 9.87612 2.07539 9.28047 1.85058C8.68481 1.62578 8.04738 1.53325 7.41239 1.57943C6.7774 1.62561 6.16006 1.80939 5.6032 2.11801C5.04634 2.42663 4.56329 2.85272 4.18756 3.36669C3.81183 3.88067 3.55243 4.47024 3.42734 5.0945C3.30225 5.71876 3.31448 6.36275 3.46317 6.98181C3.61186 7.60087 3.89345 8.18017 4.28841 8.67952L4.28695 8.68032L4.29612 8.68981C4.4721 8.91116 4.66089 9.11571 4.85703 9.31913C6.28818 10.8036 10.5458 15.1684 10.5458 15.1684V10.6225H12.395V8.02014H13.3966L11.866 4.47979Z" fill="url(#paint0_linear_140_5974)"/>
</g>
<defs>
<linearGradient id="paint0_linear_140_5974" x1="4.70662" y1="2.44097" x2="12.2036" y2="14.2966" gradientUnits="userSpaceOnUse">
<stop stop-color="#64CFFD"/>
<stop offset="0.355769" stop-color="#2D92FF"/>
<stop offset="0.692308" stop-color="#42A2FF"/>
<stop offset="1" stop-color="#307EFF"/>
</linearGradient>
</defs>
</svg>
