<svg preserveAspectRatio="none" width="100%" height="100%" overflow="visible" style="display: block;" viewBox="0 0 20 20" fill="none" xmlns="http://www.w3.org/2000/svg">
<g id="waking_up logo">
<path id="Vector" d="M13.6175 5.14191L13.6153 5.14323C13.3696 4.45505 12.9771 3.82857 12.465 3.30724C11.9529 2.78592 11.3336 2.38225 10.6499 2.12422C9.96626 1.8662 9.23464 1.76001 8.50583 1.81301C7.77701 1.86601 7.06846 2.07694 6.42931 2.43117C5.79017 2.78539 5.23575 3.27443 4.80451 3.86435C4.37326 4.45427 4.07553 5.13096 3.93196 5.84745C3.78839 6.56395 3.80242 7.3031 3.97308 8.01363C4.14374 8.72416 4.46694 9.38906 4.92026 9.96219L4.91857 9.96311L4.9291 9.97399C5.13109 10.2281 5.34777 10.4628 5.57289 10.6963C7.21551 12.4002 12.1022 17.4099 12.1022 17.4099V12.1922H14.2246V9.20537H15.3743L13.6175 5.14191Z" fill="url(#paint0_linear_122_5658)"/>
</g>
<defs>
<linearGradient id="paint0_linear_122_5658" x1="5.40026" y1="2.80185" x2="14.005" y2="16.4093" gradientUnits="userSpaceOnUse">
<stop stop-color="#64CFFD"/>
<stop offset="0.355769" stop-color="#2D92FF"/>
<stop offset="0.692308" stop-color="#42A2FF"/>
<stop offset="1" stop-color="#307EFF"/>
</linearGradient>
</defs>
</svg>
