<svg preserveAspectRatio="none" width="100%" height="100%" overflow="visible" style="display: block;" viewBox="0 0 64 15" fill="none" xmlns="http://www.w3.org/2000/svg">
<g id="fullWhite 1">
<path id="Vector" d="M27.8156 1.02841C27.6608 0.754839 27.4528 0.5144 27.204 0.320937C26.9129 0.105349 26.5576 -0.00747475 26.1945 0.000384484C25.8325 -0.00626999 25.4782 0.104311 25.1851 0.315406C24.9317 0.505288 24.7205 0.744986 24.5645 1.01954L18.5196 11.0284L21.0835 13.4689L26.113 4.99686L28.2621 8.58299H25.0498L23.5928 11.0867L29.7586 11.0995L31.4831 13.9726H35.6603L27.8156 1.02841Z" fill="var(--fill-0, #1A6FE4)"/>
<path id="Vector_2" d="M43.1852 0.0688546V8.31185L35.4132 0.653615C35.2245 0.458577 35.0026 0.298115 34.7578 0.179607C34.5248 0.0721142 34.2711 0.0164477 34.0142 0.0165012C33.7655 0.00962494 33.5184 0.0577106 33.2906 0.157282C33.0629 0.256855 32.8603 0.405427 32.6974 0.59226C32.3811 0.980448 32.2178 1.46966 32.238 1.96862V7.17117L35.6383 12.8235V5.74477L43.3761 13.4732C43.8136 13.9067 44.306 14.1269 44.8421 14.1269C45.0839 14.1315 45.3238 14.0832 45.5448 13.9856C45.7658 13.888 45.9625 13.7433 46.1212 13.562C46.4294 13.2123 46.5856 12.7443 46.5856 12.1727V0.0688546H43.1852Z" fill="var(--fill-0, #1A6FE4)"/>
<path id="Vector_3" d="M63.2017 4.21839C62.889 3.40972 62.4086 2.67534 61.7917 2.06284C61.1748 1.45033 60.4352 0.973376 59.6209 0.66286C58.746 0.32747 57.815 0.159902 56.8774 0.169042H53.8142C52.9004 0.161353 51.9932 0.32555 51.1407 0.652959C50.336 0.965622 49.6028 1.43584 48.9847 2.03562C48.3614 2.64779 47.8739 3.38255 47.5534 4.19279C47.2075 5.06874 47.0343 6.00251 47.0433 6.94334C47.0363 7.88829 47.2069 8.82623 47.5466 9.70896C47.8665 10.5397 48.3488 11.2993 48.9659 11.944C49.5786 12.5762 50.311 13.082 51.121 13.4325C51.9717 13.7998 52.8906 13.9854 53.8182 13.9776H56.8794C58.2464 13.9989 59.5866 13.6007 60.7169 12.8372C61.8473 12.0736 62.7127 10.9822 63.1949 9.71186C63.5348 8.82922 63.7055 7.89128 63.6982 6.9463C63.7086 6.01395 63.5401 5.08815 63.2017 4.21839ZM56.8794 10.493H53.8142C53.365 10.4974 52.9196 10.4098 52.5059 10.2357C52.1194 10.0727 51.7706 9.83321 51.4805 9.53154C51.1842 9.21762 50.9536 8.84832 50.8023 8.44514C50.6325 7.9976 50.5475 7.52278 50.5517 7.04458C50.5452 6.56766 50.6296 6.09383 50.8003 5.64801C50.9532 5.25395 51.183 4.89378 51.4765 4.58821C51.7669 4.29114 52.115 4.05589 52.4999 3.89681C52.917 3.72934 53.3638 3.64672 53.8137 3.65383H56.8789C57.3391 3.64871 57.7955 3.73455 58.2219 3.90633C58.6164 4.06271 58.9735 4.29955 59.27 4.60153C59.5666 4.90351 59.796 5.26391 59.9436 5.65946C60.1139 6.10288 60.199 6.57413 60.1942 7.04869C60.1983 7.52691 60.1133 8.00177 59.9436 8.44923C59.7913 8.85139 59.5589 9.21895 59.2603 9.52974C58.9634 9.83266 58.6083 10.0733 58.2159 10.2373C57.7926 10.4119 57.3378 10.4988 56.8794 10.493Z" fill="var(--fill-0, #1A6FE4)"/>
<path id="Vector_4" d="M13.8499 6.67039L20.7661 0.171617H14.6873L10.8105 3.81501L13.8271 6.64852L13.8499 6.67039Z" fill="var(--fill-0, #1A6FE4)"/>
<path id="Vector_5" d="M13.8271 7.49561L10.8105 10.3302L14.6873 13.9727H20.7661L13.8499 7.47386L13.8271 7.49561Z" fill="var(--fill-0, #1A6FE4)"/>
<path id="Vector_6" d="M6.07881 0.171617H0L7.34278 7.07236L0 13.9721H6.07881L13.4233 7.07236L6.07881 0.171617Z" fill="var(--fill-0, #1A6FE4)"/>
</g>
</svg>
